%TF.GenerationSoftware,KiCad,Pcbnew,(5.1.6)-1*%
%TF.CreationDate,2020-10-09T22:51:26+02:00*%
%TF.ProjectId,PCB_Sensor_Array,5043425f-5365-46e7-936f-725f41727261,rev?*%
%TF.SameCoordinates,Original*%
%TF.FileFunction,Copper,L2,Bot*%
%TF.FilePolarity,Positive*%
%FSLAX46Y46*%
G04 Gerber Fmt 4.6, Leading zero omitted, Abs format (unit mm)*
G04 Created by KiCad (PCBNEW (5.1.6)-1) date 2020-10-09 22:51:26*
%MOMM*%
%LPD*%
G01*
G04 APERTURE LIST*
%TA.AperFunction,ComponentPad*%
%ADD10C,0.800000*%
%TD*%
%TA.AperFunction,ComponentPad*%
%ADD11C,6.400000*%
%TD*%
%TA.AperFunction,WasherPad*%
%ADD12R,4.000000X0.410000*%
%TD*%
%TA.AperFunction,WasherPad*%
%ADD13R,0.410000X4.000000*%
%TD*%
%TA.AperFunction,ViaPad*%
%ADD14C,0.800000*%
%TD*%
%TA.AperFunction,ViaPad*%
%ADD15C,1.000000*%
%TD*%
%TA.AperFunction,Conductor*%
%ADD16C,0.400000*%
%TD*%
%TA.AperFunction,Conductor*%
%ADD17C,0.300000*%
%TD*%
%TA.AperFunction,Conductor*%
%ADD18C,0.254000*%
%TD*%
G04 APERTURE END LIST*
D10*
%TO.P,H2,1*%
%TO.N,GND*%
X114727056Y-62818944D03*
X113030000Y-62116000D03*
X111332944Y-62818944D03*
X110630000Y-64516000D03*
X111332944Y-66213056D03*
X113030000Y-66916000D03*
X114727056Y-66213056D03*
X115430000Y-64516000D03*
D11*
X113030000Y-64516000D03*
%TD*%
D10*
%TO.P,H1,1*%
%TO.N,GND*%
X87803056Y-62818944D03*
X86106000Y-62116000D03*
X84408944Y-62818944D03*
X83706000Y-64516000D03*
X84408944Y-66213056D03*
X86106000Y-66916000D03*
X87803056Y-66213056D03*
X88506000Y-64516000D03*
D11*
X86106000Y-64516000D03*
%TD*%
D12*
%TO.P,U1,*%
%TO.N,*%
X100644000Y-72726000D03*
X100644000Y-69116000D03*
D13*
X102444000Y-70916000D03*
X98844000Y-70926000D03*
%TD*%
D14*
%TO.N,GND*%
X86614000Y-80518000D03*
X105664000Y-67310000D03*
X92710000Y-74168000D03*
X86106000Y-72390000D03*
%TO.N,Sensor_B8*%
X92456000Y-80518000D03*
%TO.N,Sensor_B7*%
X93726000Y-80518000D03*
%TO.N,Sensor_B5*%
X95504000Y-80772000D03*
%TO.N,Sensor_B4*%
X96774000Y-80772000D03*
D15*
%TO.N,GND*%
X110744000Y-80772000D03*
D14*
X102025000Y-74400000D03*
X103886000Y-73660000D03*
X90678000Y-80772000D03*
X101346000Y-80772000D03*
X103378000Y-75946000D03*
%TO.N,Sensor_B5*%
X102108000Y-66040000D03*
%TO.N,Sensor_B8*%
X103378000Y-66548000D03*
%TO.N,Sensor_B4*%
X99314000Y-66294000D03*
%TO.N,Sensor_B7*%
X100330000Y-64770000D03*
D15*
%TO.N,+1V0*%
X109220000Y-80772000D03*
D14*
X105664000Y-70612000D03*
X107442000Y-70612000D03*
%TD*%
D16*
%TO.N,+1V0*%
X105664000Y-70612000D02*
X107442000Y-70612000D01*
X107442000Y-78994000D02*
X109220000Y-80772000D01*
X107442000Y-70612000D02*
X107442000Y-78994000D01*
D17*
%TO.N,Sensor_B4*%
X99314000Y-66294000D02*
X98044000Y-66294000D01*
X98044000Y-66294000D02*
X96012000Y-68326000D01*
X96012000Y-68326000D02*
X96012000Y-76962000D01*
X96774000Y-77724000D02*
X96774000Y-80772000D01*
X96012000Y-76962000D02*
X96774000Y-77724000D01*
%TO.N,Sensor_B5*%
X102108000Y-66040000D02*
X101600000Y-65532000D01*
X98098880Y-65532000D02*
X95504000Y-68126880D01*
X101600000Y-65532000D02*
X98098880Y-65532000D01*
X95504000Y-69596000D02*
X95504000Y-80772000D01*
X95504000Y-68126880D02*
X95504000Y-69596000D01*
%TO.N,Sensor_B7*%
X98153760Y-64770000D02*
X94996000Y-67927760D01*
X100330000Y-64770000D02*
X98153760Y-64770000D01*
X94996000Y-67927760D02*
X94996000Y-75692000D01*
X93726000Y-76962000D02*
X93726000Y-80518000D01*
X94996000Y-75692000D02*
X93726000Y-76962000D01*
%TO.N,Sensor_B8*%
X94495992Y-69842008D02*
X94488000Y-69850000D01*
X103378000Y-65532000D02*
X101854000Y-64008000D01*
X92456000Y-77524880D02*
X92456000Y-80518000D01*
X94488000Y-69850000D02*
X94488000Y-75492880D01*
X103378000Y-66548000D02*
X103378000Y-65532000D01*
X101854000Y-64008000D02*
X98208640Y-64008000D01*
X98208640Y-64008000D02*
X94495992Y-67720648D01*
X94488000Y-75492880D02*
X92456000Y-77524880D01*
X94495992Y-67720648D02*
X94495992Y-69842008D01*
%TD*%
D18*
%TO.N,GND*%
G36*
X110909330Y-61298445D02*
G01*
X110868912Y-61325452D01*
X110508724Y-61815119D01*
X113030000Y-64336395D01*
X113044143Y-64322253D01*
X113223748Y-64501858D01*
X113209605Y-64516000D01*
X115730881Y-67037276D01*
X116220548Y-66677088D01*
X116434000Y-66283734D01*
X116434001Y-86581711D01*
X116370904Y-87225221D01*
X116193394Y-87813164D01*
X115905063Y-88355436D01*
X115516906Y-88831364D01*
X115043686Y-89222845D01*
X114503449Y-89514950D01*
X113916756Y-89696563D01*
X113275130Y-89764000D01*
X85884279Y-89764000D01*
X85240779Y-89700904D01*
X84652836Y-89523394D01*
X84110564Y-89235063D01*
X83634636Y-88846906D01*
X83243155Y-88373686D01*
X82951050Y-87833449D01*
X82769437Y-87246756D01*
X82702000Y-86605130D01*
X82702000Y-80416061D01*
X91421000Y-80416061D01*
X91421000Y-80619939D01*
X91460774Y-80819898D01*
X91538795Y-81008256D01*
X91652063Y-81177774D01*
X91796226Y-81321937D01*
X91965744Y-81435205D01*
X92154102Y-81513226D01*
X92354061Y-81553000D01*
X92557939Y-81553000D01*
X92757898Y-81513226D01*
X92946256Y-81435205D01*
X93091000Y-81338490D01*
X93235744Y-81435205D01*
X93424102Y-81513226D01*
X93624061Y-81553000D01*
X93827939Y-81553000D01*
X94027898Y-81513226D01*
X94216256Y-81435205D01*
X94385774Y-81321937D01*
X94529937Y-81177774D01*
X94543434Y-81157574D01*
X94586795Y-81262256D01*
X94700063Y-81431774D01*
X94844226Y-81575937D01*
X95013744Y-81689205D01*
X95202102Y-81767226D01*
X95402061Y-81807000D01*
X95605939Y-81807000D01*
X95805898Y-81767226D01*
X95994256Y-81689205D01*
X96139000Y-81592490D01*
X96283744Y-81689205D01*
X96472102Y-81767226D01*
X96672061Y-81807000D01*
X96875939Y-81807000D01*
X97075898Y-81767226D01*
X97264256Y-81689205D01*
X97433774Y-81575937D01*
X97577937Y-81431774D01*
X97691205Y-81262256D01*
X97769226Y-81073898D01*
X97809000Y-80873939D01*
X97809000Y-80670061D01*
X97769226Y-80470102D01*
X97691205Y-80281744D01*
X97577937Y-80112226D01*
X97559000Y-80093289D01*
X97559000Y-77762556D01*
X97562797Y-77724000D01*
X97559000Y-77685440D01*
X97559000Y-77685439D01*
X97552344Y-77617861D01*
X97547642Y-77570113D01*
X97502754Y-77422140D01*
X97429862Y-77285767D01*
X97331764Y-77166236D01*
X97301811Y-77141654D01*
X96797000Y-76636843D01*
X96797000Y-68968835D01*
X97879000Y-68968835D01*
X97879000Y-69143165D01*
X97913010Y-69314145D01*
X97979723Y-69475205D01*
X98000928Y-69506940D01*
X98000928Y-72370026D01*
X97989723Y-72386795D01*
X97923010Y-72547855D01*
X97889000Y-72718835D01*
X97889000Y-72893165D01*
X97923010Y-73064145D01*
X97989723Y-73225205D01*
X98086576Y-73370155D01*
X98209845Y-73493424D01*
X98354795Y-73590277D01*
X98515855Y-73656990D01*
X98686835Y-73691000D01*
X98861165Y-73691000D01*
X99032145Y-73656990D01*
X99193205Y-73590277D01*
X99224940Y-73569072D01*
X102122992Y-73569072D01*
X102124795Y-73570277D01*
X102285855Y-73636990D01*
X102456835Y-73671000D01*
X102631165Y-73671000D01*
X102802145Y-73636990D01*
X102963205Y-73570277D01*
X103108155Y-73473424D01*
X103231424Y-73350155D01*
X103328277Y-73205205D01*
X103394990Y-73044145D01*
X103429000Y-72873165D01*
X103429000Y-72698835D01*
X103394990Y-72527855D01*
X103328277Y-72366795D01*
X103287072Y-72305128D01*
X103287072Y-70510061D01*
X104629000Y-70510061D01*
X104629000Y-70713939D01*
X104668774Y-70913898D01*
X104746795Y-71102256D01*
X104860063Y-71271774D01*
X105004226Y-71415937D01*
X105173744Y-71529205D01*
X105362102Y-71607226D01*
X105562061Y-71647000D01*
X105765939Y-71647000D01*
X105965898Y-71607226D01*
X106154256Y-71529205D01*
X106277285Y-71447000D01*
X106607000Y-71447000D01*
X106607001Y-78952971D01*
X106602960Y-78994000D01*
X106619082Y-79157688D01*
X106666828Y-79315086D01*
X106666829Y-79315087D01*
X106744365Y-79460146D01*
X106848710Y-79587291D01*
X106880574Y-79613441D01*
X108085000Y-80817868D01*
X108085000Y-80883788D01*
X108128617Y-81103067D01*
X108214176Y-81309624D01*
X108338388Y-81495520D01*
X108496480Y-81653612D01*
X108682376Y-81777824D01*
X108888933Y-81863383D01*
X109108212Y-81907000D01*
X109331788Y-81907000D01*
X109551067Y-81863383D01*
X109757624Y-81777824D01*
X109943520Y-81653612D01*
X110101612Y-81495520D01*
X110225824Y-81309624D01*
X110311383Y-81103067D01*
X110355000Y-80883788D01*
X110355000Y-80660212D01*
X110311383Y-80440933D01*
X110225824Y-80234376D01*
X110101612Y-80048480D01*
X109943520Y-79890388D01*
X109757624Y-79766176D01*
X109551067Y-79680617D01*
X109331788Y-79637000D01*
X109265868Y-79637000D01*
X108277000Y-78648133D01*
X108277000Y-71225285D01*
X108359205Y-71102256D01*
X108437226Y-70913898D01*
X108477000Y-70713939D01*
X108477000Y-70510061D01*
X108437226Y-70310102D01*
X108359205Y-70121744D01*
X108245937Y-69952226D01*
X108101774Y-69808063D01*
X107932256Y-69694795D01*
X107743898Y-69616774D01*
X107543939Y-69577000D01*
X107340061Y-69577000D01*
X107140102Y-69616774D01*
X106951744Y-69694795D01*
X106828715Y-69777000D01*
X106277285Y-69777000D01*
X106154256Y-69694795D01*
X105965898Y-69616774D01*
X105765939Y-69577000D01*
X105562061Y-69577000D01*
X105362102Y-69616774D01*
X105173744Y-69694795D01*
X105004226Y-69808063D01*
X104860063Y-69952226D01*
X104746795Y-70121744D01*
X104668774Y-70310102D01*
X104629000Y-70510061D01*
X103287072Y-70510061D01*
X103287072Y-69439830D01*
X103334990Y-69324145D01*
X103369000Y-69153165D01*
X103369000Y-68978835D01*
X103334990Y-68807855D01*
X103268277Y-68646795D01*
X103171424Y-68501845D01*
X103048155Y-68378576D01*
X102903205Y-68281723D01*
X102742145Y-68215010D01*
X102571165Y-68181000D01*
X102396835Y-68181000D01*
X102225855Y-68215010D01*
X102086028Y-68272928D01*
X99185008Y-68272928D01*
X99183205Y-68271723D01*
X99022145Y-68205010D01*
X98851165Y-68171000D01*
X98676835Y-68171000D01*
X98505855Y-68205010D01*
X98344795Y-68271723D01*
X98199845Y-68368576D01*
X98076576Y-68491845D01*
X97979723Y-68636795D01*
X97913010Y-68797855D01*
X97879000Y-68968835D01*
X96797000Y-68968835D01*
X96797000Y-68651157D01*
X98369158Y-67079000D01*
X98635289Y-67079000D01*
X98654226Y-67097937D01*
X98823744Y-67211205D01*
X99012102Y-67289226D01*
X99212061Y-67329000D01*
X99415939Y-67329000D01*
X99615898Y-67289226D01*
X99804256Y-67211205D01*
X99973774Y-67097937D01*
X100117937Y-66953774D01*
X100231205Y-66784256D01*
X100309226Y-66595898D01*
X100349000Y-66395939D01*
X100349000Y-66317000D01*
X101107822Y-66317000D01*
X101112774Y-66341898D01*
X101190795Y-66530256D01*
X101304063Y-66699774D01*
X101448226Y-66843937D01*
X101617744Y-66957205D01*
X101806102Y-67035226D01*
X102006061Y-67075000D01*
X102209939Y-67075000D01*
X102409898Y-67035226D01*
X102452270Y-67017675D01*
X102460795Y-67038256D01*
X102574063Y-67207774D01*
X102718226Y-67351937D01*
X102887744Y-67465205D01*
X103076102Y-67543226D01*
X103276061Y-67583000D01*
X103479939Y-67583000D01*
X103679898Y-67543226D01*
X103868256Y-67465205D01*
X104037774Y-67351937D01*
X104172830Y-67216881D01*
X110508724Y-67216881D01*
X110868912Y-67706548D01*
X111532882Y-68066849D01*
X112254385Y-68290694D01*
X113005695Y-68369480D01*
X113757938Y-68300178D01*
X114482208Y-68085452D01*
X115150670Y-67733555D01*
X115191088Y-67706548D01*
X115551276Y-67216881D01*
X113030000Y-64695605D01*
X110508724Y-67216881D01*
X104172830Y-67216881D01*
X104181937Y-67207774D01*
X104295205Y-67038256D01*
X104373226Y-66849898D01*
X104413000Y-66649939D01*
X104413000Y-66446061D01*
X104373226Y-66246102D01*
X104295205Y-66057744D01*
X104181937Y-65888226D01*
X104163000Y-65869289D01*
X104163000Y-65570552D01*
X104166797Y-65531999D01*
X104163000Y-65493446D01*
X104163000Y-65493439D01*
X104151641Y-65378113D01*
X104106754Y-65230140D01*
X104033862Y-65093767D01*
X103935764Y-64974236D01*
X103905816Y-64949658D01*
X103447853Y-64491695D01*
X109176520Y-64491695D01*
X109245822Y-65243938D01*
X109460548Y-65968208D01*
X109812445Y-66636670D01*
X109839452Y-66677088D01*
X110329119Y-67037276D01*
X112850395Y-64516000D01*
X110329119Y-61994724D01*
X109839452Y-62354912D01*
X109479151Y-63018882D01*
X109255306Y-63740385D01*
X109176520Y-64491695D01*
X103447853Y-64491695D01*
X102436347Y-63480190D01*
X102411764Y-63450236D01*
X102292233Y-63352138D01*
X102155860Y-63279246D01*
X102007887Y-63234359D01*
X101892561Y-63223000D01*
X101892553Y-63223000D01*
X101854000Y-63219203D01*
X101815447Y-63223000D01*
X98247192Y-63223000D01*
X98208639Y-63219203D01*
X98170086Y-63223000D01*
X98170079Y-63223000D01*
X98069130Y-63232943D01*
X98054752Y-63234359D01*
X97913587Y-63277181D01*
X97906780Y-63279246D01*
X97770407Y-63352138D01*
X97722360Y-63391570D01*
X97680827Y-63425655D01*
X97680824Y-63425658D01*
X97650876Y-63450236D01*
X97626298Y-63480184D01*
X93968182Y-67138301D01*
X93938228Y-67162884D01*
X93840130Y-67282416D01*
X93767238Y-67418789D01*
X93722351Y-67566762D01*
X93710992Y-67682088D01*
X93710992Y-67682095D01*
X93707195Y-67720648D01*
X93710992Y-67759201D01*
X93710993Y-69730289D01*
X93703000Y-69811440D01*
X93703000Y-69811447D01*
X93699203Y-69850000D01*
X93703000Y-69888553D01*
X93703001Y-75167721D01*
X91928190Y-76942533D01*
X91898236Y-76967116D01*
X91800138Y-77086648D01*
X91727246Y-77223021D01*
X91682359Y-77370994D01*
X91671000Y-77486320D01*
X91671000Y-77486327D01*
X91667203Y-77524880D01*
X91671000Y-77563433D01*
X91671001Y-79839288D01*
X91652063Y-79858226D01*
X91538795Y-80027744D01*
X91460774Y-80216102D01*
X91421000Y-80416061D01*
X82702000Y-80416061D01*
X82702000Y-67216881D01*
X83584724Y-67216881D01*
X83944912Y-67706548D01*
X84608882Y-68066849D01*
X85330385Y-68290694D01*
X86081695Y-68369480D01*
X86833938Y-68300178D01*
X87558208Y-68085452D01*
X88226670Y-67733555D01*
X88267088Y-67706548D01*
X88627276Y-67216881D01*
X86106000Y-64695605D01*
X83584724Y-67216881D01*
X82702000Y-67216881D01*
X82702000Y-66282500D01*
X82888445Y-66636670D01*
X82915452Y-66677088D01*
X83405119Y-67037276D01*
X85926395Y-64516000D01*
X86285605Y-64516000D01*
X88806881Y-67037276D01*
X89296548Y-66677088D01*
X89656849Y-66013118D01*
X89880694Y-65291615D01*
X89959480Y-64540305D01*
X89890178Y-63788062D01*
X89675452Y-63063792D01*
X89323555Y-62395330D01*
X89296548Y-62354912D01*
X88806881Y-61994724D01*
X86285605Y-64516000D01*
X85926395Y-64516000D01*
X85912253Y-64501858D01*
X86091858Y-64322253D01*
X86106000Y-64336395D01*
X88627276Y-61815119D01*
X88267088Y-61325452D01*
X87873734Y-61112000D01*
X111263500Y-61112000D01*
X110909330Y-61298445D01*
G37*
X110909330Y-61298445D02*
X110868912Y-61325452D01*
X110508724Y-61815119D01*
X113030000Y-64336395D01*
X113044143Y-64322253D01*
X113223748Y-64501858D01*
X113209605Y-64516000D01*
X115730881Y-67037276D01*
X116220548Y-66677088D01*
X116434000Y-66283734D01*
X116434001Y-86581711D01*
X116370904Y-87225221D01*
X116193394Y-87813164D01*
X115905063Y-88355436D01*
X115516906Y-88831364D01*
X115043686Y-89222845D01*
X114503449Y-89514950D01*
X113916756Y-89696563D01*
X113275130Y-89764000D01*
X85884279Y-89764000D01*
X85240779Y-89700904D01*
X84652836Y-89523394D01*
X84110564Y-89235063D01*
X83634636Y-88846906D01*
X83243155Y-88373686D01*
X82951050Y-87833449D01*
X82769437Y-87246756D01*
X82702000Y-86605130D01*
X82702000Y-80416061D01*
X91421000Y-80416061D01*
X91421000Y-80619939D01*
X91460774Y-80819898D01*
X91538795Y-81008256D01*
X91652063Y-81177774D01*
X91796226Y-81321937D01*
X91965744Y-81435205D01*
X92154102Y-81513226D01*
X92354061Y-81553000D01*
X92557939Y-81553000D01*
X92757898Y-81513226D01*
X92946256Y-81435205D01*
X93091000Y-81338490D01*
X93235744Y-81435205D01*
X93424102Y-81513226D01*
X93624061Y-81553000D01*
X93827939Y-81553000D01*
X94027898Y-81513226D01*
X94216256Y-81435205D01*
X94385774Y-81321937D01*
X94529937Y-81177774D01*
X94543434Y-81157574D01*
X94586795Y-81262256D01*
X94700063Y-81431774D01*
X94844226Y-81575937D01*
X95013744Y-81689205D01*
X95202102Y-81767226D01*
X95402061Y-81807000D01*
X95605939Y-81807000D01*
X95805898Y-81767226D01*
X95994256Y-81689205D01*
X96139000Y-81592490D01*
X96283744Y-81689205D01*
X96472102Y-81767226D01*
X96672061Y-81807000D01*
X96875939Y-81807000D01*
X97075898Y-81767226D01*
X97264256Y-81689205D01*
X97433774Y-81575937D01*
X97577937Y-81431774D01*
X97691205Y-81262256D01*
X97769226Y-81073898D01*
X97809000Y-80873939D01*
X97809000Y-80670061D01*
X97769226Y-80470102D01*
X97691205Y-80281744D01*
X97577937Y-80112226D01*
X97559000Y-80093289D01*
X97559000Y-77762556D01*
X97562797Y-77724000D01*
X97559000Y-77685440D01*
X97559000Y-77685439D01*
X97552344Y-77617861D01*
X97547642Y-77570113D01*
X97502754Y-77422140D01*
X97429862Y-77285767D01*
X97331764Y-77166236D01*
X97301811Y-77141654D01*
X96797000Y-76636843D01*
X96797000Y-68968835D01*
X97879000Y-68968835D01*
X97879000Y-69143165D01*
X97913010Y-69314145D01*
X97979723Y-69475205D01*
X98000928Y-69506940D01*
X98000928Y-72370026D01*
X97989723Y-72386795D01*
X97923010Y-72547855D01*
X97889000Y-72718835D01*
X97889000Y-72893165D01*
X97923010Y-73064145D01*
X97989723Y-73225205D01*
X98086576Y-73370155D01*
X98209845Y-73493424D01*
X98354795Y-73590277D01*
X98515855Y-73656990D01*
X98686835Y-73691000D01*
X98861165Y-73691000D01*
X99032145Y-73656990D01*
X99193205Y-73590277D01*
X99224940Y-73569072D01*
X102122992Y-73569072D01*
X102124795Y-73570277D01*
X102285855Y-73636990D01*
X102456835Y-73671000D01*
X102631165Y-73671000D01*
X102802145Y-73636990D01*
X102963205Y-73570277D01*
X103108155Y-73473424D01*
X103231424Y-73350155D01*
X103328277Y-73205205D01*
X103394990Y-73044145D01*
X103429000Y-72873165D01*
X103429000Y-72698835D01*
X103394990Y-72527855D01*
X103328277Y-72366795D01*
X103287072Y-72305128D01*
X103287072Y-70510061D01*
X104629000Y-70510061D01*
X104629000Y-70713939D01*
X104668774Y-70913898D01*
X104746795Y-71102256D01*
X104860063Y-71271774D01*
X105004226Y-71415937D01*
X105173744Y-71529205D01*
X105362102Y-71607226D01*
X105562061Y-71647000D01*
X105765939Y-71647000D01*
X105965898Y-71607226D01*
X106154256Y-71529205D01*
X106277285Y-71447000D01*
X106607000Y-71447000D01*
X106607001Y-78952971D01*
X106602960Y-78994000D01*
X106619082Y-79157688D01*
X106666828Y-79315086D01*
X106666829Y-79315087D01*
X106744365Y-79460146D01*
X106848710Y-79587291D01*
X106880574Y-79613441D01*
X108085000Y-80817868D01*
X108085000Y-80883788D01*
X108128617Y-81103067D01*
X108214176Y-81309624D01*
X108338388Y-81495520D01*
X108496480Y-81653612D01*
X108682376Y-81777824D01*
X108888933Y-81863383D01*
X109108212Y-81907000D01*
X109331788Y-81907000D01*
X109551067Y-81863383D01*
X109757624Y-81777824D01*
X109943520Y-81653612D01*
X110101612Y-81495520D01*
X110225824Y-81309624D01*
X110311383Y-81103067D01*
X110355000Y-80883788D01*
X110355000Y-80660212D01*
X110311383Y-80440933D01*
X110225824Y-80234376D01*
X110101612Y-80048480D01*
X109943520Y-79890388D01*
X109757624Y-79766176D01*
X109551067Y-79680617D01*
X109331788Y-79637000D01*
X109265868Y-79637000D01*
X108277000Y-78648133D01*
X108277000Y-71225285D01*
X108359205Y-71102256D01*
X108437226Y-70913898D01*
X108477000Y-70713939D01*
X108477000Y-70510061D01*
X108437226Y-70310102D01*
X108359205Y-70121744D01*
X108245937Y-69952226D01*
X108101774Y-69808063D01*
X107932256Y-69694795D01*
X107743898Y-69616774D01*
X107543939Y-69577000D01*
X107340061Y-69577000D01*
X107140102Y-69616774D01*
X106951744Y-69694795D01*
X106828715Y-69777000D01*
X106277285Y-69777000D01*
X106154256Y-69694795D01*
X105965898Y-69616774D01*
X105765939Y-69577000D01*
X105562061Y-69577000D01*
X105362102Y-69616774D01*
X105173744Y-69694795D01*
X105004226Y-69808063D01*
X104860063Y-69952226D01*
X104746795Y-70121744D01*
X104668774Y-70310102D01*
X104629000Y-70510061D01*
X103287072Y-70510061D01*
X103287072Y-69439830D01*
X103334990Y-69324145D01*
X103369000Y-69153165D01*
X103369000Y-68978835D01*
X103334990Y-68807855D01*
X103268277Y-68646795D01*
X103171424Y-68501845D01*
X103048155Y-68378576D01*
X102903205Y-68281723D01*
X102742145Y-68215010D01*
X102571165Y-68181000D01*
X102396835Y-68181000D01*
X102225855Y-68215010D01*
X102086028Y-68272928D01*
X99185008Y-68272928D01*
X99183205Y-68271723D01*
X99022145Y-68205010D01*
X98851165Y-68171000D01*
X98676835Y-68171000D01*
X98505855Y-68205010D01*
X98344795Y-68271723D01*
X98199845Y-68368576D01*
X98076576Y-68491845D01*
X97979723Y-68636795D01*
X97913010Y-68797855D01*
X97879000Y-68968835D01*
X96797000Y-68968835D01*
X96797000Y-68651157D01*
X98369158Y-67079000D01*
X98635289Y-67079000D01*
X98654226Y-67097937D01*
X98823744Y-67211205D01*
X99012102Y-67289226D01*
X99212061Y-67329000D01*
X99415939Y-67329000D01*
X99615898Y-67289226D01*
X99804256Y-67211205D01*
X99973774Y-67097937D01*
X100117937Y-66953774D01*
X100231205Y-66784256D01*
X100309226Y-66595898D01*
X100349000Y-66395939D01*
X100349000Y-66317000D01*
X101107822Y-66317000D01*
X101112774Y-66341898D01*
X101190795Y-66530256D01*
X101304063Y-66699774D01*
X101448226Y-66843937D01*
X101617744Y-66957205D01*
X101806102Y-67035226D01*
X102006061Y-67075000D01*
X102209939Y-67075000D01*
X102409898Y-67035226D01*
X102452270Y-67017675D01*
X102460795Y-67038256D01*
X102574063Y-67207774D01*
X102718226Y-67351937D01*
X102887744Y-67465205D01*
X103076102Y-67543226D01*
X103276061Y-67583000D01*
X103479939Y-67583000D01*
X103679898Y-67543226D01*
X103868256Y-67465205D01*
X104037774Y-67351937D01*
X104172830Y-67216881D01*
X110508724Y-67216881D01*
X110868912Y-67706548D01*
X111532882Y-68066849D01*
X112254385Y-68290694D01*
X113005695Y-68369480D01*
X113757938Y-68300178D01*
X114482208Y-68085452D01*
X115150670Y-67733555D01*
X115191088Y-67706548D01*
X115551276Y-67216881D01*
X113030000Y-64695605D01*
X110508724Y-67216881D01*
X104172830Y-67216881D01*
X104181937Y-67207774D01*
X104295205Y-67038256D01*
X104373226Y-66849898D01*
X104413000Y-66649939D01*
X104413000Y-66446061D01*
X104373226Y-66246102D01*
X104295205Y-66057744D01*
X104181937Y-65888226D01*
X104163000Y-65869289D01*
X104163000Y-65570552D01*
X104166797Y-65531999D01*
X104163000Y-65493446D01*
X104163000Y-65493439D01*
X104151641Y-65378113D01*
X104106754Y-65230140D01*
X104033862Y-65093767D01*
X103935764Y-64974236D01*
X103905816Y-64949658D01*
X103447853Y-64491695D01*
X109176520Y-64491695D01*
X109245822Y-65243938D01*
X109460548Y-65968208D01*
X109812445Y-66636670D01*
X109839452Y-66677088D01*
X110329119Y-67037276D01*
X112850395Y-64516000D01*
X110329119Y-61994724D01*
X109839452Y-62354912D01*
X109479151Y-63018882D01*
X109255306Y-63740385D01*
X109176520Y-64491695D01*
X103447853Y-64491695D01*
X102436347Y-63480190D01*
X102411764Y-63450236D01*
X102292233Y-63352138D01*
X102155860Y-63279246D01*
X102007887Y-63234359D01*
X101892561Y-63223000D01*
X101892553Y-63223000D01*
X101854000Y-63219203D01*
X101815447Y-63223000D01*
X98247192Y-63223000D01*
X98208639Y-63219203D01*
X98170086Y-63223000D01*
X98170079Y-63223000D01*
X98069130Y-63232943D01*
X98054752Y-63234359D01*
X97913587Y-63277181D01*
X97906780Y-63279246D01*
X97770407Y-63352138D01*
X97722360Y-63391570D01*
X97680827Y-63425655D01*
X97680824Y-63425658D01*
X97650876Y-63450236D01*
X97626298Y-63480184D01*
X93968182Y-67138301D01*
X93938228Y-67162884D01*
X93840130Y-67282416D01*
X93767238Y-67418789D01*
X93722351Y-67566762D01*
X93710992Y-67682088D01*
X93710992Y-67682095D01*
X93707195Y-67720648D01*
X93710992Y-67759201D01*
X93710993Y-69730289D01*
X93703000Y-69811440D01*
X93703000Y-69811447D01*
X93699203Y-69850000D01*
X93703000Y-69888553D01*
X93703001Y-75167721D01*
X91928190Y-76942533D01*
X91898236Y-76967116D01*
X91800138Y-77086648D01*
X91727246Y-77223021D01*
X91682359Y-77370994D01*
X91671000Y-77486320D01*
X91671000Y-77486327D01*
X91667203Y-77524880D01*
X91671000Y-77563433D01*
X91671001Y-79839288D01*
X91652063Y-79858226D01*
X91538795Y-80027744D01*
X91460774Y-80216102D01*
X91421000Y-80416061D01*
X82702000Y-80416061D01*
X82702000Y-67216881D01*
X83584724Y-67216881D01*
X83944912Y-67706548D01*
X84608882Y-68066849D01*
X85330385Y-68290694D01*
X86081695Y-68369480D01*
X86833938Y-68300178D01*
X87558208Y-68085452D01*
X88226670Y-67733555D01*
X88267088Y-67706548D01*
X88627276Y-67216881D01*
X86106000Y-64695605D01*
X83584724Y-67216881D01*
X82702000Y-67216881D01*
X82702000Y-66282500D01*
X82888445Y-66636670D01*
X82915452Y-66677088D01*
X83405119Y-67037276D01*
X85926395Y-64516000D01*
X86285605Y-64516000D01*
X88806881Y-67037276D01*
X89296548Y-66677088D01*
X89656849Y-66013118D01*
X89880694Y-65291615D01*
X89959480Y-64540305D01*
X89890178Y-63788062D01*
X89675452Y-63063792D01*
X89323555Y-62395330D01*
X89296548Y-62354912D01*
X88806881Y-61994724D01*
X86285605Y-64516000D01*
X85926395Y-64516000D01*
X85912253Y-64501858D01*
X86091858Y-64322253D01*
X86106000Y-64336395D01*
X88627276Y-61815119D01*
X88267088Y-61325452D01*
X87873734Y-61112000D01*
X111263500Y-61112000D01*
X110909330Y-61298445D01*
%TD*%
M02*
