M48
; DRILL file {KiCad (5.1.6)-1} date 10/09/20 22:51:12
; FORMAT={3:3/ absolute / metric / suppress leading zeros}
; #@! TF.CreationDate,2020-10-09T22:51:12+02:00
; #@! TF.GenerationSoftware,Kicad,Pcbnew,(5.1.6)-1
; #@! TF.FileFunction,Plated,1,2,PTH
FMAT,2
METRIC,TZ
T1C0.400
T2C0.500
T3C0.800
T4C3.200
%
G90
G05
T1
X86106Y-72390
X86614Y-80518
X90678Y-80772
X92456Y-80518
X92710Y-74168
X93726Y-80518
X95504Y-80772
X96774Y-80772
X99314Y-66294
X100330Y-64770
X101346Y-80772
X102025Y-74400
X102108Y-66040
X103378Y-66548
X103378Y-75946
X103886Y-73660
X105664Y-67310
X105664Y-70612
X107442Y-70612
T2
X110630Y-64516
X111333Y-62819
X111333Y-66213
X113030Y-62116
X113030Y-66916
X114727Y-62819
X114727Y-66213
X115430Y-64516
X83706Y-64516
X84409Y-62819
X84409Y-66213
X86106Y-62116
X86106Y-66916
X87803Y-62819
X87803Y-66213
X88506Y-64516
T3
X109220Y-80772
X110744Y-80772
T4
X113030Y-64516
X86106Y-64516
T0
M30
