%TF.GenerationSoftware,KiCad,Pcbnew,(5.1.6)-1*%
%TF.CreationDate,2020-10-09T22:51:26+02:00*%
%TF.ProjectId,PCB_Sensor_Array,5043425f-5365-46e7-936f-725f41727261,rev?*%
%TF.SameCoordinates,Original*%
%TF.FileFunction,Copper,L1,Top*%
%TF.FilePolarity,Positive*%
%FSLAX46Y46*%
G04 Gerber Fmt 4.6, Leading zero omitted, Abs format (unit mm)*
G04 Created by KiCad (PCBNEW (5.1.6)-1) date 2020-10-09 22:51:26*
%MOMM*%
%LPD*%
G01*
G04 APERTURE LIST*
%TA.AperFunction,ComponentPad*%
%ADD10C,0.800000*%
%TD*%
%TA.AperFunction,ComponentPad*%
%ADD11C,6.400000*%
%TD*%
%TA.AperFunction,SMDPad,CuDef*%
%ADD12R,0.400000X1.000000*%
%TD*%
%TA.AperFunction,SMDPad,CuDef*%
%ADD13R,2.000000X1.300000*%
%TD*%
%TA.AperFunction,WasherPad*%
%ADD14R,4.000000X0.410000*%
%TD*%
%TA.AperFunction,WasherPad*%
%ADD15R,0.410000X4.000000*%
%TD*%
%TA.AperFunction,SMDPad,CuDef*%
%ADD16O,0.250000X1.250000*%
%TD*%
%TA.AperFunction,SMDPad,CuDef*%
%ADD17O,1.250000X0.250000*%
%TD*%
%TA.AperFunction,SMDPad,CuDef*%
%ADD18O,1.250000X0.500000*%
%TD*%
%TA.AperFunction,SMDPad,CuDef*%
%ADD19O,0.550000X1.250000*%
%TD*%
%TA.AperFunction,ViaPad*%
%ADD20C,0.800000*%
%TD*%
%TA.AperFunction,ViaPad*%
%ADD21C,1.000000*%
%TD*%
%TA.AperFunction,Conductor*%
%ADD22C,0.300000*%
%TD*%
%TA.AperFunction,Conductor*%
%ADD23C,0.400000*%
%TD*%
%TA.AperFunction,Conductor*%
%ADD24C,0.500000*%
%TD*%
%TA.AperFunction,Conductor*%
%ADD25C,0.254000*%
%TD*%
G04 APERTURE END LIST*
D10*
%TO.P,H2,1*%
%TO.N,GND*%
X114727056Y-62818944D03*
X113030000Y-62116000D03*
X111332944Y-62818944D03*
X110630000Y-64516000D03*
X111332944Y-66213056D03*
X113030000Y-66916000D03*
X114727056Y-66213056D03*
X115430000Y-64516000D03*
D11*
X113030000Y-64516000D03*
%TD*%
D10*
%TO.P,H1,1*%
%TO.N,GND*%
X87803056Y-62818944D03*
X86106000Y-62116000D03*
X84408944Y-62818944D03*
X83706000Y-64516000D03*
X84408944Y-66213056D03*
X86106000Y-66916000D03*
X87803056Y-66213056D03*
X88506000Y-64516000D03*
D11*
X86106000Y-64516000D03*
%TD*%
%TO.P,C2,2*%
%TO.N,GND*%
%TA.AperFunction,SMDPad,CuDef*%
G36*
G01*
X105407750Y-72994000D02*
X105920250Y-72994000D01*
G75*
G02*
X106139000Y-73212750I0J-218750D01*
G01*
X106139000Y-73650250D01*
G75*
G02*
X105920250Y-73869000I-218750J0D01*
G01*
X105407750Y-73869000D01*
G75*
G02*
X105189000Y-73650250I0J218750D01*
G01*
X105189000Y-73212750D01*
G75*
G02*
X105407750Y-72994000I218750J0D01*
G01*
G37*
%TD.AperFunction*%
%TO.P,C2,1*%
%TO.N,+1V0*%
%TA.AperFunction,SMDPad,CuDef*%
G36*
G01*
X105407750Y-71419000D02*
X105920250Y-71419000D01*
G75*
G02*
X106139000Y-71637750I0J-218750D01*
G01*
X106139000Y-72075250D01*
G75*
G02*
X105920250Y-72294000I-218750J0D01*
G01*
X105407750Y-72294000D01*
G75*
G02*
X105189000Y-72075250I0J218750D01*
G01*
X105189000Y-71637750D01*
G75*
G02*
X105407750Y-71419000I218750J0D01*
G01*
G37*
%TD.AperFunction*%
%TD*%
%TO.P,C1,2*%
%TO.N,GND*%
%TA.AperFunction,SMDPad,CuDef*%
G36*
G01*
X107185750Y-72994000D02*
X107698250Y-72994000D01*
G75*
G02*
X107917000Y-73212750I0J-218750D01*
G01*
X107917000Y-73650250D01*
G75*
G02*
X107698250Y-73869000I-218750J0D01*
G01*
X107185750Y-73869000D01*
G75*
G02*
X106967000Y-73650250I0J218750D01*
G01*
X106967000Y-73212750D01*
G75*
G02*
X107185750Y-72994000I218750J0D01*
G01*
G37*
%TD.AperFunction*%
%TO.P,C1,1*%
%TO.N,+1V0*%
%TA.AperFunction,SMDPad,CuDef*%
G36*
G01*
X107185750Y-71419000D02*
X107698250Y-71419000D01*
G75*
G02*
X107917000Y-71637750I0J-218750D01*
G01*
X107917000Y-72075250D01*
G75*
G02*
X107698250Y-72294000I-218750J0D01*
G01*
X107185750Y-72294000D01*
G75*
G02*
X106967000Y-72075250I0J218750D01*
G01*
X106967000Y-71637750D01*
G75*
G02*
X107185750Y-71419000I218750J0D01*
G01*
G37*
%TD.AperFunction*%
%TD*%
D12*
%TO.P,J1,22*%
%TO.N,GND*%
X110576000Y-82402000D03*
%TO.P,J1,21*%
%TO.N,+1V0*%
X109576000Y-82402000D03*
%TO.P,J1,20*%
%TO.N,Sensor_A1*%
X108576000Y-82402000D03*
%TO.P,J1,19*%
%TO.N,Sensor_A2*%
X107576000Y-82402000D03*
%TO.P,J1,18*%
%TO.N,Sensor_A3*%
X106576000Y-82402000D03*
%TO.P,J1,17*%
%TO.N,Sensor_A4*%
X105576000Y-82402000D03*
%TO.P,J1,16*%
%TO.N,Sensor_A5*%
X104576000Y-82402000D03*
%TO.P,J1,15*%
%TO.N,Sensor_A6*%
X103576000Y-82402000D03*
%TO.P,J1,14*%
%TO.N,Sensor_A7*%
X102576000Y-82402000D03*
%TO.P,J1,13*%
%TO.N,Sensor_A8*%
X101576000Y-82402000D03*
%TO.P,J1,12*%
%TO.N,Sensor_A9*%
X100576000Y-82402000D03*
%TO.P,J1,11*%
%TO.N,Sensor_B1*%
X99576000Y-82402000D03*
%TO.P,J1,10*%
%TO.N,Sensor_B2*%
X98576000Y-82402000D03*
%TO.P,J1,9*%
%TO.N,Sensor_B3*%
X97576000Y-82402000D03*
%TO.P,J1,8*%
%TO.N,Sensor_B4*%
X96576000Y-82402000D03*
%TO.P,J1,7*%
%TO.N,Sensor_B5*%
X95576000Y-82402000D03*
%TO.P,J1,6*%
%TO.N,Sensor_B6*%
X94576000Y-82402000D03*
%TO.P,J1,5*%
%TO.N,Sensor_B7*%
X93576000Y-82402000D03*
%TO.P,J1,4*%
%TO.N,Sensor_B8*%
X92576000Y-82402000D03*
%TO.P,J1,3*%
%TO.N,Sensor_B9*%
X91576000Y-82402000D03*
%TO.P,J1,2*%
%TO.N,GND*%
X90576000Y-82402000D03*
%TO.P,J1,1*%
%TO.N,Net-(J1-Pad1)*%
X89576000Y-82402000D03*
D13*
%TO.P,J1,MP*%
%TO.N,N/C*%
X113376000Y-85102000D03*
X86776000Y-85102000D03*
%TD*%
D14*
%TO.P,U1,*%
%TO.N,*%
X100644000Y-72726000D03*
X100644000Y-69116000D03*
D15*
X102444000Y-70916000D03*
X98844000Y-70926000D03*
D16*
%TO.P,U1,20*%
%TO.N,Sensor_B1*%
X99334000Y-67866000D03*
%TO.P,U1,19*%
%TO.N,Sensor_B4*%
X99834000Y-67866000D03*
%TO.P,U1,18*%
%TO.N,Sensor_B7*%
X100334000Y-67866000D03*
%TO.P,U1,17*%
%TO.N,Sensor_B2*%
X100834000Y-67866000D03*
%TO.P,U1,16*%
%TO.N,Sensor_B5*%
X101334000Y-67866000D03*
%TO.P,U1,15*%
%TO.N,Sensor_B8*%
X101834000Y-67866000D03*
D17*
%TO.P,U1,14*%
%TO.N,Sensor_B3*%
X103584000Y-69616000D03*
%TO.P,U1,13*%
%TO.N,Sensor_B6*%
X103584000Y-70116000D03*
%TO.P,U1,12*%
%TO.N,Sensor_B9*%
X103584000Y-70616000D03*
D18*
%TO.P,U1,11*%
%TO.N,+1V0*%
X103584000Y-71366000D03*
D19*
%TO.P,U1,10*%
%TO.N,GND*%
X101084000Y-73866000D03*
D16*
%TO.P,U1,9*%
%TO.N,Sensor_A9*%
X100334000Y-73866000D03*
%TO.P,U1,8*%
%TO.N,Sensor_A8*%
X99834000Y-73866000D03*
%TO.P,U1,7*%
%TO.N,Sensor_A7*%
X99334000Y-73866000D03*
D17*
%TO.P,U1,6*%
%TO.N,Sensor_A6*%
X97584000Y-72116000D03*
%TO.P,U1,5*%
%TO.N,Sensor_A5*%
X97584000Y-71616000D03*
%TO.P,U1,4*%
%TO.N,Sensor_A4*%
X97584000Y-71116000D03*
%TO.P,U1,3*%
%TO.N,Sensor_A3*%
X97584000Y-70616000D03*
%TO.P,U1,2*%
%TO.N,Sensor_A2*%
X97584000Y-70116000D03*
%TO.P,U1,1*%
%TO.N,Sensor_A1*%
X97584000Y-69616000D03*
%TD*%
D20*
%TO.N,GND*%
X86614000Y-80518000D03*
X105664000Y-67310000D03*
X92710000Y-74168000D03*
X86106000Y-72390000D03*
%TO.N,Sensor_B8*%
X92456000Y-80518000D03*
%TO.N,Sensor_B7*%
X93726000Y-80518000D03*
%TO.N,Sensor_B5*%
X95504000Y-80772000D03*
%TO.N,Sensor_B4*%
X96774000Y-80772000D03*
D21*
%TO.N,GND*%
X110744000Y-80772000D03*
D20*
X102025000Y-74400000D03*
X103886000Y-73660000D03*
X90678000Y-80772000D03*
X101346000Y-80772000D03*
X103378000Y-75946000D03*
%TO.N,Sensor_B5*%
X102108000Y-66040000D03*
%TO.N,Sensor_B8*%
X103378000Y-66548000D03*
%TO.N,Sensor_B4*%
X99314000Y-66294000D03*
%TO.N,Sensor_B7*%
X100330000Y-64770000D03*
D21*
%TO.N,+1V0*%
X109220000Y-80772000D03*
D20*
X105664000Y-70612000D03*
X107442000Y-70612000D03*
%TD*%
D22*
%TO.N,GND*%
X110576000Y-80940000D02*
X110744000Y-80772000D01*
X110576000Y-82402000D02*
X110576000Y-80940000D01*
D23*
%TO.N,+1V0*%
X105173500Y-71366000D02*
X105664000Y-71856500D01*
X103584000Y-71366000D02*
X105173500Y-71366000D01*
D24*
X107442000Y-71856500D02*
X105664000Y-71856500D01*
D23*
X105664000Y-70612000D02*
X105664000Y-71856500D01*
X107442000Y-71856500D02*
X107442000Y-70612000D01*
X109576000Y-81128000D02*
X109474000Y-81026000D01*
X109576000Y-82656000D02*
X109576000Y-81128000D01*
D22*
%TO.N,Sensor_A1*%
X97584000Y-69616000D02*
X91550160Y-69616000D01*
X91550160Y-69616000D02*
X82804000Y-78362160D01*
X82804000Y-87199602D02*
X84504398Y-88900000D01*
X82804000Y-78362160D02*
X82804000Y-87199602D01*
X84504398Y-88900000D02*
X103886000Y-88900000D01*
X108576000Y-84210000D02*
X108576000Y-82656000D01*
X103886000Y-88900000D02*
X108576000Y-84210000D01*
%TO.N,Sensor_A2*%
X83312000Y-87000482D02*
X84703518Y-88392000D01*
X84703518Y-88392000D02*
X103124000Y-88392000D01*
X107576000Y-83940000D02*
X107576000Y-82656000D01*
X103124000Y-88392000D02*
X107576000Y-83940000D01*
X97584000Y-70116000D02*
X91757280Y-70116000D01*
X83312000Y-78561280D02*
X83312000Y-87000482D01*
X91757280Y-70116000D02*
X83312000Y-78561280D01*
%TO.N,Sensor_A3*%
X83843970Y-86825332D02*
X84902638Y-87884000D01*
X84902638Y-87884000D02*
X102362000Y-87884000D01*
X106576000Y-83670000D02*
X106576000Y-82656000D01*
X102362000Y-87884000D02*
X106576000Y-83670000D01*
X91964400Y-70616000D02*
X83812010Y-78768390D01*
X97584000Y-70616000D02*
X91964400Y-70616000D01*
X83843970Y-86383970D02*
X83843970Y-86825332D01*
X83812010Y-86352010D02*
X83843970Y-86383970D01*
X83812010Y-78768390D02*
X83812010Y-86352010D01*
%TO.N,Sensor_A4*%
X105576000Y-83456000D02*
X105576000Y-82656000D01*
X85081779Y-87356021D02*
X101675979Y-87356021D01*
X84343980Y-86618222D02*
X85081779Y-87356021D01*
X101675979Y-87356021D02*
X105576000Y-83456000D01*
X84343980Y-78943540D02*
X84343980Y-86618222D01*
X92171520Y-71116000D02*
X84343980Y-78943540D01*
X97584000Y-71116000D02*
X92171520Y-71116000D01*
%TO.N,Sensor_A5*%
X104576000Y-83163120D02*
X104576000Y-82656000D01*
X100883109Y-86856011D02*
X104576000Y-83163120D01*
X85288889Y-86856011D02*
X100883109Y-86856011D01*
X84843990Y-86411112D02*
X85288889Y-86856011D01*
X84843990Y-79150650D02*
X84843990Y-86411112D01*
X92378640Y-71616000D02*
X84843990Y-79150650D01*
X97584000Y-71616000D02*
X92378640Y-71616000D01*
%TO.N,Sensor_A6*%
X92585760Y-72116000D02*
X85344000Y-79357760D01*
X97584000Y-72116000D02*
X92585760Y-72116000D01*
X103576000Y-83456000D02*
X103576000Y-82656000D01*
X100675999Y-86356001D02*
X103576000Y-83456000D01*
X85495999Y-86356001D02*
X100675999Y-86356001D01*
X85344000Y-86204002D02*
X85495999Y-86356001D01*
X85344000Y-79357760D02*
X85344000Y-86204002D01*
%TO.N,Sensor_A7*%
X99334000Y-74402000D02*
X99334000Y-73866000D01*
X98282020Y-75453980D02*
X99334000Y-74402000D01*
X89954900Y-75453980D02*
X98282020Y-75453980D01*
X102576000Y-83098000D02*
X100853980Y-84820020D01*
X87899980Y-77508900D02*
X89954900Y-75453980D01*
X100853980Y-84820020D02*
X88995778Y-84820020D01*
X102576000Y-82656000D02*
X102576000Y-83098000D01*
X88995778Y-84820020D02*
X87899980Y-83724222D01*
X87899980Y-83724222D02*
X87899980Y-77508900D01*
%TO.N,Sensor_A8*%
X98671010Y-75953990D02*
X90162010Y-75953990D01*
X99834000Y-73866000D02*
X99834000Y-74791000D01*
X99834000Y-74791000D02*
X98671010Y-75953990D01*
X89202888Y-84320010D02*
X100419110Y-84320010D01*
X101576000Y-83163120D02*
X101576000Y-82656000D01*
X88399990Y-83517112D02*
X89202888Y-84320010D01*
X100419110Y-84320010D02*
X101576000Y-83163120D01*
X88399990Y-77716010D02*
X88399990Y-83517112D01*
X90162010Y-75953990D02*
X88399990Y-77716010D01*
%TO.N,Sensor_A9*%
X100588000Y-82644000D02*
X100576000Y-82656000D01*
X100334000Y-73866000D02*
X100334000Y-75180000D01*
X100334000Y-75180000D02*
X99060000Y-76454000D01*
X99060000Y-76454000D02*
X90424000Y-76454000D01*
X90424000Y-76454000D02*
X88900000Y-77978000D01*
X88900000Y-83310002D02*
X89409998Y-83820000D01*
X88900000Y-77978000D02*
X88900000Y-83310002D01*
X100576000Y-83456000D02*
X100576000Y-82656000D01*
X100212000Y-83820000D02*
X100576000Y-83456000D01*
X89409998Y-83820000D02*
X100212000Y-83820000D01*
%TO.N,Sensor_B1*%
X99576000Y-79764000D02*
X99576000Y-82656000D01*
X99314000Y-64008000D02*
X105190480Y-64008000D01*
X98298000Y-65024000D02*
X99314000Y-64008000D01*
X99334000Y-67866000D02*
X99334000Y-67838000D01*
X98298000Y-66802000D02*
X98298000Y-65024000D01*
X100330000Y-78994000D02*
X99568000Y-79756000D01*
X99334000Y-67838000D02*
X98298000Y-66802000D01*
X105190480Y-64008000D02*
X110998000Y-69815520D01*
X110998000Y-69815520D02*
X110998000Y-74710480D01*
X110998000Y-74710480D02*
X106714480Y-78994000D01*
X106714480Y-78994000D02*
X100330000Y-78994000D01*
X99568000Y-79756000D02*
X99576000Y-79764000D01*
%TO.N,Sensor_B2*%
X99568000Y-78486000D02*
X98576000Y-79478000D01*
X106515360Y-78486000D02*
X99568000Y-78486000D01*
X100834000Y-66044000D02*
X101600000Y-65278000D01*
X110490000Y-74511360D02*
X106515360Y-78486000D01*
X101600000Y-65278000D02*
X105753360Y-65278000D01*
X98576000Y-79478000D02*
X98576000Y-82656000D01*
X110490000Y-70014640D02*
X110490000Y-74511360D01*
X100834000Y-67866000D02*
X100834000Y-66044000D01*
X105753360Y-65278000D02*
X110490000Y-70014640D01*
%TO.N,Sensor_B3*%
X97576000Y-79462000D02*
X97576000Y-82656000D01*
X106340210Y-77954030D02*
X99083970Y-77954030D01*
X109728000Y-74566240D02*
X106340210Y-77954030D01*
X103584000Y-69616000D02*
X104135758Y-69616000D01*
X108618220Y-68849980D02*
X109728000Y-69959760D01*
X109728000Y-69959760D02*
X109728000Y-74566240D01*
X99083970Y-77954030D02*
X97576000Y-79462000D01*
X104135758Y-69616000D02*
X104901778Y-68849980D01*
X104901778Y-68849980D02*
X108618220Y-68849980D01*
%TO.N,Sensor_B4*%
X99829990Y-66809990D02*
X99829990Y-67626870D01*
X99314000Y-66294000D02*
X99829990Y-66809990D01*
X96576000Y-80970000D02*
X96774000Y-80772000D01*
X96576000Y-82402000D02*
X96576000Y-80970000D01*
%TO.N,Sensor_B5*%
X101334000Y-66814000D02*
X102108000Y-66040000D01*
X101334000Y-67866000D02*
X101334000Y-66814000D01*
X95576000Y-80844000D02*
X95504000Y-80772000D01*
X95576000Y-82402000D02*
X95576000Y-80844000D01*
%TO.N,Sensor_B6*%
X103584000Y-70116000D02*
X104342878Y-70116000D01*
X108411110Y-69349990D02*
X109212010Y-70150890D01*
X104342878Y-70116000D02*
X105108888Y-69349990D01*
X105108888Y-69349990D02*
X108411110Y-69349990D01*
X109212010Y-74375110D02*
X106133100Y-77454020D01*
X109212010Y-70150890D02*
X109212010Y-74375110D01*
X106133100Y-77454020D02*
X96281980Y-77454020D01*
X94576000Y-79160000D02*
X94576000Y-82656000D01*
X96281980Y-77454020D02*
X94576000Y-79160000D01*
%TO.N,Sensor_B7*%
X100330000Y-67862000D02*
X100334000Y-67866000D01*
X100330000Y-65024000D02*
X100330000Y-67862000D01*
X93576000Y-80668000D02*
X93726000Y-80518000D01*
X93576000Y-82402000D02*
X93576000Y-80668000D01*
%TO.N,Sensor_B8*%
X102060000Y-67866000D02*
X103378000Y-66548000D01*
X101834000Y-67866000D02*
X102060000Y-67866000D01*
X92576000Y-80638000D02*
X92456000Y-80518000D01*
X92576000Y-82402000D02*
X92576000Y-80638000D01*
%TO.N,Sensor_B9*%
X104549998Y-70616000D02*
X103584000Y-70616000D01*
X105315998Y-69850000D02*
X104549998Y-70616000D01*
X108204000Y-69850000D02*
X105315998Y-69850000D01*
X108712000Y-70358000D02*
X108204000Y-69850000D01*
X91576000Y-78096000D02*
X92717990Y-76954010D01*
X91576000Y-82656000D02*
X91576000Y-78096000D01*
X92717990Y-76954010D02*
X105925990Y-76954010D01*
X108712000Y-74168000D02*
X108712000Y-70358000D01*
X105925990Y-76954010D02*
X108712000Y-74168000D01*
%TD*%
D25*
%TO.N,GND*%
G36*
X110909330Y-61298445D02*
G01*
X110868912Y-61325452D01*
X110508724Y-61815119D01*
X113030000Y-64336395D01*
X113044143Y-64322253D01*
X113223748Y-64501858D01*
X113209605Y-64516000D01*
X115730881Y-67037276D01*
X116220548Y-66677088D01*
X116434000Y-66283734D01*
X116434001Y-86581711D01*
X116370904Y-87225221D01*
X116193394Y-87813164D01*
X115905063Y-88355436D01*
X115516906Y-88831364D01*
X115043686Y-89222845D01*
X114503449Y-89514950D01*
X113916756Y-89696563D01*
X113275130Y-89764000D01*
X85884279Y-89764000D01*
X85240779Y-89700904D01*
X85188102Y-89685000D01*
X103847447Y-89685000D01*
X103886000Y-89688797D01*
X103924553Y-89685000D01*
X103924561Y-89685000D01*
X104039887Y-89673641D01*
X104187860Y-89628754D01*
X104324233Y-89555862D01*
X104443764Y-89457764D01*
X104468347Y-89427810D01*
X109103811Y-84792346D01*
X109133764Y-84767764D01*
X109231862Y-84648233D01*
X109304754Y-84511860D01*
X109320850Y-84458798D01*
X109322912Y-84452000D01*
X111737928Y-84452000D01*
X111737928Y-85752000D01*
X111750188Y-85876482D01*
X111786498Y-85996180D01*
X111845463Y-86106494D01*
X111924815Y-86203185D01*
X112021506Y-86282537D01*
X112131820Y-86341502D01*
X112251518Y-86377812D01*
X112376000Y-86390072D01*
X114376000Y-86390072D01*
X114500482Y-86377812D01*
X114620180Y-86341502D01*
X114730494Y-86282537D01*
X114827185Y-86203185D01*
X114906537Y-86106494D01*
X114965502Y-85996180D01*
X115001812Y-85876482D01*
X115014072Y-85752000D01*
X115014072Y-84452000D01*
X115001812Y-84327518D01*
X114965502Y-84207820D01*
X114906537Y-84097506D01*
X114827185Y-84000815D01*
X114730494Y-83921463D01*
X114620180Y-83862498D01*
X114500482Y-83826188D01*
X114376000Y-83813928D01*
X112376000Y-83813928D01*
X112251518Y-83826188D01*
X112131820Y-83862498D01*
X112021506Y-83921463D01*
X111924815Y-84000815D01*
X111845463Y-84097506D01*
X111786498Y-84207820D01*
X111750188Y-84327518D01*
X111737928Y-84452000D01*
X109322912Y-84452000D01*
X109349642Y-84363887D01*
X109360047Y-84258232D01*
X109361000Y-84248561D01*
X109361000Y-84248556D01*
X109364797Y-84210000D01*
X109361000Y-84171444D01*
X109361000Y-83538595D01*
X109376000Y-83540072D01*
X109776000Y-83540072D01*
X109900482Y-83527812D01*
X110020180Y-83491502D01*
X110075890Y-83461724D01*
X110120421Y-83486650D01*
X110239391Y-83525277D01*
X110344250Y-83537000D01*
X110503000Y-83378250D01*
X110503000Y-82529000D01*
X110649000Y-82529000D01*
X110649000Y-83378250D01*
X110807750Y-83537000D01*
X110912609Y-83525277D01*
X111031579Y-83486650D01*
X111140728Y-83425555D01*
X111235860Y-83344340D01*
X111313320Y-83246126D01*
X111370131Y-83134688D01*
X111404111Y-83014308D01*
X111413952Y-82889612D01*
X111411000Y-82687750D01*
X111252250Y-82529000D01*
X110649000Y-82529000D01*
X110503000Y-82529000D01*
X110429000Y-82529000D01*
X110429000Y-82275000D01*
X110503000Y-82275000D01*
X110503000Y-81425750D01*
X110649000Y-81425750D01*
X110649000Y-82275000D01*
X111252250Y-82275000D01*
X111411000Y-82116250D01*
X111413952Y-81914388D01*
X111404111Y-81789692D01*
X111370131Y-81669312D01*
X111313320Y-81557874D01*
X111235860Y-81459660D01*
X111140728Y-81378445D01*
X111031579Y-81317350D01*
X110912609Y-81278723D01*
X110807750Y-81267000D01*
X110649000Y-81425750D01*
X110503000Y-81425750D01*
X110411000Y-81333750D01*
X110411000Y-81169018D01*
X110415040Y-81128000D01*
X110409711Y-81073898D01*
X110398918Y-80964311D01*
X110355000Y-80819532D01*
X110355000Y-80660212D01*
X110311383Y-80440933D01*
X110225824Y-80234376D01*
X110101612Y-80048480D01*
X109943520Y-79890388D01*
X109757624Y-79766176D01*
X109551067Y-79680617D01*
X109331788Y-79637000D01*
X109108212Y-79637000D01*
X108888933Y-79680617D01*
X108682376Y-79766176D01*
X108496480Y-79890388D01*
X108338388Y-80048480D01*
X108214176Y-80234376D01*
X108128617Y-80440933D01*
X108085000Y-80660212D01*
X108085000Y-80883788D01*
X108128617Y-81103067D01*
X108206041Y-81289983D01*
X108131820Y-81312498D01*
X108076000Y-81342335D01*
X108020180Y-81312498D01*
X107900482Y-81276188D01*
X107776000Y-81263928D01*
X107376000Y-81263928D01*
X107251518Y-81276188D01*
X107131820Y-81312498D01*
X107076000Y-81342335D01*
X107020180Y-81312498D01*
X106900482Y-81276188D01*
X106776000Y-81263928D01*
X106376000Y-81263928D01*
X106251518Y-81276188D01*
X106131820Y-81312498D01*
X106076000Y-81342335D01*
X106020180Y-81312498D01*
X105900482Y-81276188D01*
X105776000Y-81263928D01*
X105376000Y-81263928D01*
X105251518Y-81276188D01*
X105131820Y-81312498D01*
X105076000Y-81342335D01*
X105020180Y-81312498D01*
X104900482Y-81276188D01*
X104776000Y-81263928D01*
X104376000Y-81263928D01*
X104251518Y-81276188D01*
X104131820Y-81312498D01*
X104076000Y-81342335D01*
X104020180Y-81312498D01*
X103900482Y-81276188D01*
X103776000Y-81263928D01*
X103376000Y-81263928D01*
X103251518Y-81276188D01*
X103131820Y-81312498D01*
X103076000Y-81342335D01*
X103020180Y-81312498D01*
X102900482Y-81276188D01*
X102776000Y-81263928D01*
X102376000Y-81263928D01*
X102251518Y-81276188D01*
X102131820Y-81312498D01*
X102076000Y-81342335D01*
X102020180Y-81312498D01*
X101900482Y-81276188D01*
X101776000Y-81263928D01*
X101376000Y-81263928D01*
X101251518Y-81276188D01*
X101131820Y-81312498D01*
X101076000Y-81342335D01*
X101020180Y-81312498D01*
X100900482Y-81276188D01*
X100776000Y-81263928D01*
X100376000Y-81263928D01*
X100361000Y-81265405D01*
X100361000Y-80073157D01*
X100655157Y-79779000D01*
X106675927Y-79779000D01*
X106714480Y-79782797D01*
X106753033Y-79779000D01*
X106753041Y-79779000D01*
X106868367Y-79767641D01*
X107016340Y-79722754D01*
X107152713Y-79649862D01*
X107272244Y-79551764D01*
X107296827Y-79521810D01*
X111525816Y-75292822D01*
X111555764Y-75268244D01*
X111591061Y-75225236D01*
X111619323Y-75190798D01*
X111653862Y-75148713D01*
X111726754Y-75012340D01*
X111771641Y-74864367D01*
X111783000Y-74749041D01*
X111783000Y-74749034D01*
X111786797Y-74710481D01*
X111783000Y-74671928D01*
X111783000Y-69854076D01*
X111786797Y-69815520D01*
X111783000Y-69776960D01*
X111783000Y-69776959D01*
X111775631Y-69702138D01*
X111771642Y-69661633D01*
X111726754Y-69513660D01*
X111712412Y-69486828D01*
X111653862Y-69377287D01*
X111555764Y-69257756D01*
X111525811Y-69233174D01*
X109509518Y-67216881D01*
X110508724Y-67216881D01*
X110868912Y-67706548D01*
X111532882Y-68066849D01*
X112254385Y-68290694D01*
X113005695Y-68369480D01*
X113757938Y-68300178D01*
X114482208Y-68085452D01*
X115150670Y-67733555D01*
X115191088Y-67706548D01*
X115551276Y-67216881D01*
X113030000Y-64695605D01*
X110508724Y-67216881D01*
X109509518Y-67216881D01*
X106784332Y-64491695D01*
X109176520Y-64491695D01*
X109245822Y-65243938D01*
X109460548Y-65968208D01*
X109812445Y-66636670D01*
X109839452Y-66677088D01*
X110329119Y-67037276D01*
X112850395Y-64516000D01*
X110329119Y-61994724D01*
X109839452Y-62354912D01*
X109479151Y-63018882D01*
X109255306Y-63740385D01*
X109176520Y-64491695D01*
X106784332Y-64491695D01*
X105772827Y-63480190D01*
X105748244Y-63450236D01*
X105628713Y-63352138D01*
X105492340Y-63279246D01*
X105344367Y-63234359D01*
X105229041Y-63223000D01*
X105229033Y-63223000D01*
X105190480Y-63219203D01*
X105151927Y-63223000D01*
X99352555Y-63223000D01*
X99314000Y-63219203D01*
X99275444Y-63223000D01*
X99275439Y-63223000D01*
X99235026Y-63226980D01*
X99160113Y-63234358D01*
X99018947Y-63277181D01*
X99012140Y-63279246D01*
X98875767Y-63352138D01*
X98827720Y-63391570D01*
X98786187Y-63425655D01*
X98786184Y-63425658D01*
X98756236Y-63450236D01*
X98731657Y-63480185D01*
X97770185Y-64441658D01*
X97740237Y-64466236D01*
X97715659Y-64496184D01*
X97715655Y-64496188D01*
X97683137Y-64535812D01*
X97642139Y-64585767D01*
X97640107Y-64589569D01*
X97569246Y-64722141D01*
X97524359Y-64870114D01*
X97509203Y-65024000D01*
X97513001Y-65062562D01*
X97513000Y-66763447D01*
X97509203Y-66802000D01*
X97513000Y-66840553D01*
X97513000Y-66840560D01*
X97524359Y-66955886D01*
X97569246Y-67103859D01*
X97642138Y-67240232D01*
X97740236Y-67359764D01*
X97770190Y-67384347D01*
X98574001Y-68188159D01*
X98574001Y-68191455D01*
X98505855Y-68205010D01*
X98344795Y-68271723D01*
X98199845Y-68368576D01*
X98076576Y-68491845D01*
X97979723Y-68636795D01*
X97913010Y-68797855D01*
X97901444Y-68856000D01*
X97782855Y-68856000D01*
X97737887Y-68842359D01*
X97622561Y-68831000D01*
X91588712Y-68831000D01*
X91550159Y-68827203D01*
X91511606Y-68831000D01*
X91511599Y-68831000D01*
X91410650Y-68840943D01*
X91396272Y-68842359D01*
X91315052Y-68866997D01*
X91248300Y-68887246D01*
X91111927Y-68960138D01*
X91062169Y-69000974D01*
X91022347Y-69033655D01*
X91022344Y-69033658D01*
X90992396Y-69058236D01*
X90967818Y-69088184D01*
X82702000Y-77354003D01*
X82702000Y-67216881D01*
X83584724Y-67216881D01*
X83944912Y-67706548D01*
X84608882Y-68066849D01*
X85330385Y-68290694D01*
X86081695Y-68369480D01*
X86833938Y-68300178D01*
X87558208Y-68085452D01*
X88226670Y-67733555D01*
X88267088Y-67706548D01*
X88627276Y-67216881D01*
X86106000Y-64695605D01*
X83584724Y-67216881D01*
X82702000Y-67216881D01*
X82702000Y-66282500D01*
X82888445Y-66636670D01*
X82915452Y-66677088D01*
X83405119Y-67037276D01*
X85926395Y-64516000D01*
X86285605Y-64516000D01*
X88806881Y-67037276D01*
X89296548Y-66677088D01*
X89656849Y-66013118D01*
X89880694Y-65291615D01*
X89959480Y-64540305D01*
X89890178Y-63788062D01*
X89675452Y-63063792D01*
X89323555Y-62395330D01*
X89296548Y-62354912D01*
X88806881Y-61994724D01*
X86285605Y-64516000D01*
X85926395Y-64516000D01*
X85912253Y-64501858D01*
X86091858Y-64322253D01*
X86106000Y-64336395D01*
X88627276Y-61815119D01*
X88267088Y-61325452D01*
X87873734Y-61112000D01*
X111263500Y-61112000D01*
X110909330Y-61298445D01*
G37*
X110909330Y-61298445D02*
X110868912Y-61325452D01*
X110508724Y-61815119D01*
X113030000Y-64336395D01*
X113044143Y-64322253D01*
X113223748Y-64501858D01*
X113209605Y-64516000D01*
X115730881Y-67037276D01*
X116220548Y-66677088D01*
X116434000Y-66283734D01*
X116434001Y-86581711D01*
X116370904Y-87225221D01*
X116193394Y-87813164D01*
X115905063Y-88355436D01*
X115516906Y-88831364D01*
X115043686Y-89222845D01*
X114503449Y-89514950D01*
X113916756Y-89696563D01*
X113275130Y-89764000D01*
X85884279Y-89764000D01*
X85240779Y-89700904D01*
X85188102Y-89685000D01*
X103847447Y-89685000D01*
X103886000Y-89688797D01*
X103924553Y-89685000D01*
X103924561Y-89685000D01*
X104039887Y-89673641D01*
X104187860Y-89628754D01*
X104324233Y-89555862D01*
X104443764Y-89457764D01*
X104468347Y-89427810D01*
X109103811Y-84792346D01*
X109133764Y-84767764D01*
X109231862Y-84648233D01*
X109304754Y-84511860D01*
X109320850Y-84458798D01*
X109322912Y-84452000D01*
X111737928Y-84452000D01*
X111737928Y-85752000D01*
X111750188Y-85876482D01*
X111786498Y-85996180D01*
X111845463Y-86106494D01*
X111924815Y-86203185D01*
X112021506Y-86282537D01*
X112131820Y-86341502D01*
X112251518Y-86377812D01*
X112376000Y-86390072D01*
X114376000Y-86390072D01*
X114500482Y-86377812D01*
X114620180Y-86341502D01*
X114730494Y-86282537D01*
X114827185Y-86203185D01*
X114906537Y-86106494D01*
X114965502Y-85996180D01*
X115001812Y-85876482D01*
X115014072Y-85752000D01*
X115014072Y-84452000D01*
X115001812Y-84327518D01*
X114965502Y-84207820D01*
X114906537Y-84097506D01*
X114827185Y-84000815D01*
X114730494Y-83921463D01*
X114620180Y-83862498D01*
X114500482Y-83826188D01*
X114376000Y-83813928D01*
X112376000Y-83813928D01*
X112251518Y-83826188D01*
X112131820Y-83862498D01*
X112021506Y-83921463D01*
X111924815Y-84000815D01*
X111845463Y-84097506D01*
X111786498Y-84207820D01*
X111750188Y-84327518D01*
X111737928Y-84452000D01*
X109322912Y-84452000D01*
X109349642Y-84363887D01*
X109360047Y-84258232D01*
X109361000Y-84248561D01*
X109361000Y-84248556D01*
X109364797Y-84210000D01*
X109361000Y-84171444D01*
X109361000Y-83538595D01*
X109376000Y-83540072D01*
X109776000Y-83540072D01*
X109900482Y-83527812D01*
X110020180Y-83491502D01*
X110075890Y-83461724D01*
X110120421Y-83486650D01*
X110239391Y-83525277D01*
X110344250Y-83537000D01*
X110503000Y-83378250D01*
X110503000Y-82529000D01*
X110649000Y-82529000D01*
X110649000Y-83378250D01*
X110807750Y-83537000D01*
X110912609Y-83525277D01*
X111031579Y-83486650D01*
X111140728Y-83425555D01*
X111235860Y-83344340D01*
X111313320Y-83246126D01*
X111370131Y-83134688D01*
X111404111Y-83014308D01*
X111413952Y-82889612D01*
X111411000Y-82687750D01*
X111252250Y-82529000D01*
X110649000Y-82529000D01*
X110503000Y-82529000D01*
X110429000Y-82529000D01*
X110429000Y-82275000D01*
X110503000Y-82275000D01*
X110503000Y-81425750D01*
X110649000Y-81425750D01*
X110649000Y-82275000D01*
X111252250Y-82275000D01*
X111411000Y-82116250D01*
X111413952Y-81914388D01*
X111404111Y-81789692D01*
X111370131Y-81669312D01*
X111313320Y-81557874D01*
X111235860Y-81459660D01*
X111140728Y-81378445D01*
X111031579Y-81317350D01*
X110912609Y-81278723D01*
X110807750Y-81267000D01*
X110649000Y-81425750D01*
X110503000Y-81425750D01*
X110411000Y-81333750D01*
X110411000Y-81169018D01*
X110415040Y-81128000D01*
X110409711Y-81073898D01*
X110398918Y-80964311D01*
X110355000Y-80819532D01*
X110355000Y-80660212D01*
X110311383Y-80440933D01*
X110225824Y-80234376D01*
X110101612Y-80048480D01*
X109943520Y-79890388D01*
X109757624Y-79766176D01*
X109551067Y-79680617D01*
X109331788Y-79637000D01*
X109108212Y-79637000D01*
X108888933Y-79680617D01*
X108682376Y-79766176D01*
X108496480Y-79890388D01*
X108338388Y-80048480D01*
X108214176Y-80234376D01*
X108128617Y-80440933D01*
X108085000Y-80660212D01*
X108085000Y-80883788D01*
X108128617Y-81103067D01*
X108206041Y-81289983D01*
X108131820Y-81312498D01*
X108076000Y-81342335D01*
X108020180Y-81312498D01*
X107900482Y-81276188D01*
X107776000Y-81263928D01*
X107376000Y-81263928D01*
X107251518Y-81276188D01*
X107131820Y-81312498D01*
X107076000Y-81342335D01*
X107020180Y-81312498D01*
X106900482Y-81276188D01*
X106776000Y-81263928D01*
X106376000Y-81263928D01*
X106251518Y-81276188D01*
X106131820Y-81312498D01*
X106076000Y-81342335D01*
X106020180Y-81312498D01*
X105900482Y-81276188D01*
X105776000Y-81263928D01*
X105376000Y-81263928D01*
X105251518Y-81276188D01*
X105131820Y-81312498D01*
X105076000Y-81342335D01*
X105020180Y-81312498D01*
X104900482Y-81276188D01*
X104776000Y-81263928D01*
X104376000Y-81263928D01*
X104251518Y-81276188D01*
X104131820Y-81312498D01*
X104076000Y-81342335D01*
X104020180Y-81312498D01*
X103900482Y-81276188D01*
X103776000Y-81263928D01*
X103376000Y-81263928D01*
X103251518Y-81276188D01*
X103131820Y-81312498D01*
X103076000Y-81342335D01*
X103020180Y-81312498D01*
X102900482Y-81276188D01*
X102776000Y-81263928D01*
X102376000Y-81263928D01*
X102251518Y-81276188D01*
X102131820Y-81312498D01*
X102076000Y-81342335D01*
X102020180Y-81312498D01*
X101900482Y-81276188D01*
X101776000Y-81263928D01*
X101376000Y-81263928D01*
X101251518Y-81276188D01*
X101131820Y-81312498D01*
X101076000Y-81342335D01*
X101020180Y-81312498D01*
X100900482Y-81276188D01*
X100776000Y-81263928D01*
X100376000Y-81263928D01*
X100361000Y-81265405D01*
X100361000Y-80073157D01*
X100655157Y-79779000D01*
X106675927Y-79779000D01*
X106714480Y-79782797D01*
X106753033Y-79779000D01*
X106753041Y-79779000D01*
X106868367Y-79767641D01*
X107016340Y-79722754D01*
X107152713Y-79649862D01*
X107272244Y-79551764D01*
X107296827Y-79521810D01*
X111525816Y-75292822D01*
X111555764Y-75268244D01*
X111591061Y-75225236D01*
X111619323Y-75190798D01*
X111653862Y-75148713D01*
X111726754Y-75012340D01*
X111771641Y-74864367D01*
X111783000Y-74749041D01*
X111783000Y-74749034D01*
X111786797Y-74710481D01*
X111783000Y-74671928D01*
X111783000Y-69854076D01*
X111786797Y-69815520D01*
X111783000Y-69776960D01*
X111783000Y-69776959D01*
X111775631Y-69702138D01*
X111771642Y-69661633D01*
X111726754Y-69513660D01*
X111712412Y-69486828D01*
X111653862Y-69377287D01*
X111555764Y-69257756D01*
X111525811Y-69233174D01*
X109509518Y-67216881D01*
X110508724Y-67216881D01*
X110868912Y-67706548D01*
X111532882Y-68066849D01*
X112254385Y-68290694D01*
X113005695Y-68369480D01*
X113757938Y-68300178D01*
X114482208Y-68085452D01*
X115150670Y-67733555D01*
X115191088Y-67706548D01*
X115551276Y-67216881D01*
X113030000Y-64695605D01*
X110508724Y-67216881D01*
X109509518Y-67216881D01*
X106784332Y-64491695D01*
X109176520Y-64491695D01*
X109245822Y-65243938D01*
X109460548Y-65968208D01*
X109812445Y-66636670D01*
X109839452Y-66677088D01*
X110329119Y-67037276D01*
X112850395Y-64516000D01*
X110329119Y-61994724D01*
X109839452Y-62354912D01*
X109479151Y-63018882D01*
X109255306Y-63740385D01*
X109176520Y-64491695D01*
X106784332Y-64491695D01*
X105772827Y-63480190D01*
X105748244Y-63450236D01*
X105628713Y-63352138D01*
X105492340Y-63279246D01*
X105344367Y-63234359D01*
X105229041Y-63223000D01*
X105229033Y-63223000D01*
X105190480Y-63219203D01*
X105151927Y-63223000D01*
X99352555Y-63223000D01*
X99314000Y-63219203D01*
X99275444Y-63223000D01*
X99275439Y-63223000D01*
X99235026Y-63226980D01*
X99160113Y-63234358D01*
X99018947Y-63277181D01*
X99012140Y-63279246D01*
X98875767Y-63352138D01*
X98827720Y-63391570D01*
X98786187Y-63425655D01*
X98786184Y-63425658D01*
X98756236Y-63450236D01*
X98731657Y-63480185D01*
X97770185Y-64441658D01*
X97740237Y-64466236D01*
X97715659Y-64496184D01*
X97715655Y-64496188D01*
X97683137Y-64535812D01*
X97642139Y-64585767D01*
X97640107Y-64589569D01*
X97569246Y-64722141D01*
X97524359Y-64870114D01*
X97509203Y-65024000D01*
X97513001Y-65062562D01*
X97513000Y-66763447D01*
X97509203Y-66802000D01*
X97513000Y-66840553D01*
X97513000Y-66840560D01*
X97524359Y-66955886D01*
X97569246Y-67103859D01*
X97642138Y-67240232D01*
X97740236Y-67359764D01*
X97770190Y-67384347D01*
X98574001Y-68188159D01*
X98574001Y-68191455D01*
X98505855Y-68205010D01*
X98344795Y-68271723D01*
X98199845Y-68368576D01*
X98076576Y-68491845D01*
X97979723Y-68636795D01*
X97913010Y-68797855D01*
X97901444Y-68856000D01*
X97782855Y-68856000D01*
X97737887Y-68842359D01*
X97622561Y-68831000D01*
X91588712Y-68831000D01*
X91550159Y-68827203D01*
X91511606Y-68831000D01*
X91511599Y-68831000D01*
X91410650Y-68840943D01*
X91396272Y-68842359D01*
X91315052Y-68866997D01*
X91248300Y-68887246D01*
X91111927Y-68960138D01*
X91062169Y-69000974D01*
X91022347Y-69033655D01*
X91022344Y-69033658D01*
X90992396Y-69058236D01*
X90967818Y-69088184D01*
X82702000Y-77354003D01*
X82702000Y-67216881D01*
X83584724Y-67216881D01*
X83944912Y-67706548D01*
X84608882Y-68066849D01*
X85330385Y-68290694D01*
X86081695Y-68369480D01*
X86833938Y-68300178D01*
X87558208Y-68085452D01*
X88226670Y-67733555D01*
X88267088Y-67706548D01*
X88627276Y-67216881D01*
X86106000Y-64695605D01*
X83584724Y-67216881D01*
X82702000Y-67216881D01*
X82702000Y-66282500D01*
X82888445Y-66636670D01*
X82915452Y-66677088D01*
X83405119Y-67037276D01*
X85926395Y-64516000D01*
X86285605Y-64516000D01*
X88806881Y-67037276D01*
X89296548Y-66677088D01*
X89656849Y-66013118D01*
X89880694Y-65291615D01*
X89959480Y-64540305D01*
X89890178Y-63788062D01*
X89675452Y-63063792D01*
X89323555Y-62395330D01*
X89296548Y-62354912D01*
X88806881Y-61994724D01*
X86285605Y-64516000D01*
X85926395Y-64516000D01*
X85912253Y-64501858D01*
X86091858Y-64322253D01*
X86106000Y-64336395D01*
X88627276Y-61815119D01*
X88267088Y-61325452D01*
X87873734Y-61112000D01*
X111263500Y-61112000D01*
X110909330Y-61298445D01*
G36*
X87114980Y-83685669D02*
G01*
X87111183Y-83724222D01*
X87114980Y-83762775D01*
X87114980Y-83762782D01*
X87120018Y-83813928D01*
X86129000Y-83813928D01*
X86129000Y-79682917D01*
X87114981Y-78696936D01*
X87114980Y-83685669D01*
G37*
X87114980Y-83685669D02*
X87111183Y-83724222D01*
X87114980Y-83762775D01*
X87114980Y-83762782D01*
X87120018Y-83813928D01*
X86129000Y-83813928D01*
X86129000Y-79682917D01*
X87114981Y-78696936D01*
X87114980Y-83685669D01*
G36*
X91048185Y-77513658D02*
G01*
X91018237Y-77538236D01*
X90993659Y-77568184D01*
X90993655Y-77568188D01*
X90989409Y-77573362D01*
X90920139Y-77657767D01*
X90897031Y-77701000D01*
X90847246Y-77794141D01*
X90802359Y-77942114D01*
X90787203Y-78096000D01*
X90791001Y-78134563D01*
X90791000Y-81283750D01*
X90649000Y-81425750D01*
X90649000Y-82275000D01*
X90723000Y-82275000D01*
X90723000Y-82529000D01*
X90649000Y-82529000D01*
X90649000Y-82549000D01*
X90503000Y-82549000D01*
X90503000Y-82529000D01*
X90429000Y-82529000D01*
X90429000Y-82275000D01*
X90503000Y-82275000D01*
X90503000Y-81425750D01*
X90344250Y-81267000D01*
X90239391Y-81278723D01*
X90120421Y-81317350D01*
X90075890Y-81342276D01*
X90020180Y-81312498D01*
X89900482Y-81276188D01*
X89776000Y-81263928D01*
X89685000Y-81263928D01*
X89685000Y-78303157D01*
X90749158Y-77239000D01*
X91322843Y-77239000D01*
X91048185Y-77513658D01*
G37*
X91048185Y-77513658D02*
X91018237Y-77538236D01*
X90993659Y-77568184D01*
X90993655Y-77568188D01*
X90989409Y-77573362D01*
X90920139Y-77657767D01*
X90897031Y-77701000D01*
X90847246Y-77794141D01*
X90802359Y-77942114D01*
X90787203Y-78096000D01*
X90791001Y-78134563D01*
X90791000Y-81283750D01*
X90649000Y-81425750D01*
X90649000Y-82275000D01*
X90723000Y-82275000D01*
X90723000Y-82529000D01*
X90649000Y-82529000D01*
X90649000Y-82549000D01*
X90503000Y-82549000D01*
X90503000Y-82529000D01*
X90429000Y-82529000D01*
X90429000Y-82275000D01*
X90503000Y-82275000D01*
X90503000Y-81425750D01*
X90344250Y-81267000D01*
X90239391Y-81278723D01*
X90120421Y-81317350D01*
X90075890Y-81342276D01*
X90020180Y-81312498D01*
X89900482Y-81276188D01*
X89776000Y-81263928D01*
X89685000Y-81263928D01*
X89685000Y-78303157D01*
X90749158Y-77239000D01*
X91322843Y-77239000D01*
X91048185Y-77513658D01*
G36*
X104567392Y-72242408D02*
G01*
X104616150Y-72403142D01*
X104695329Y-72551275D01*
X104713100Y-72572930D01*
X104658463Y-72639506D01*
X104599498Y-72749820D01*
X104563188Y-72869518D01*
X104550928Y-72994000D01*
X104554000Y-73145750D01*
X104712750Y-73304500D01*
X105537000Y-73304500D01*
X105537000Y-73284500D01*
X105791000Y-73284500D01*
X105791000Y-73304500D01*
X107315000Y-73304500D01*
X107315000Y-73284500D01*
X107569000Y-73284500D01*
X107569000Y-73304500D01*
X107589000Y-73304500D01*
X107589000Y-73558500D01*
X107569000Y-73558500D01*
X107569000Y-73578500D01*
X107315000Y-73578500D01*
X107315000Y-73558500D01*
X105791000Y-73558500D01*
X105791000Y-74345250D01*
X105949750Y-74504000D01*
X106139000Y-74507072D01*
X106263482Y-74494812D01*
X106383180Y-74458502D01*
X106493494Y-74399537D01*
X106553000Y-74350702D01*
X106612506Y-74399537D01*
X106722820Y-74458502D01*
X106842518Y-74494812D01*
X106967000Y-74507072D01*
X107156250Y-74504000D01*
X107314998Y-74345252D01*
X107314998Y-74454844D01*
X105600833Y-76169010D01*
X100455148Y-76169010D01*
X100861815Y-75762342D01*
X100891764Y-75737764D01*
X100989862Y-75618233D01*
X101062754Y-75481860D01*
X101107641Y-75333887D01*
X101119000Y-75218561D01*
X101119000Y-75218554D01*
X101122797Y-75180001D01*
X101119000Y-75141448D01*
X101119000Y-75126000D01*
X101211002Y-75126000D01*
X101211002Y-74956439D01*
X101350399Y-75086133D01*
X101483972Y-75043195D01*
X101637664Y-74949270D01*
X101770079Y-74827166D01*
X101876129Y-74681575D01*
X101951738Y-74518092D01*
X101994000Y-74343000D01*
X101994000Y-73993000D01*
X101211000Y-73993000D01*
X101211000Y-74013000D01*
X101119000Y-74013000D01*
X101119000Y-73869000D01*
X104550928Y-73869000D01*
X104563188Y-73993482D01*
X104599498Y-74113180D01*
X104658463Y-74223494D01*
X104737815Y-74320185D01*
X104834506Y-74399537D01*
X104944820Y-74458502D01*
X105064518Y-74494812D01*
X105189000Y-74507072D01*
X105378250Y-74504000D01*
X105537000Y-74345250D01*
X105537000Y-73558500D01*
X104712750Y-73558500D01*
X104554000Y-73717250D01*
X104550928Y-73869000D01*
X101119000Y-73869000D01*
X101119000Y-73827439D01*
X101108319Y-73719000D01*
X101211000Y-73719000D01*
X101211000Y-73739000D01*
X101994000Y-73739000D01*
X101994000Y-73569072D01*
X102122992Y-73569072D01*
X102124795Y-73570277D01*
X102285855Y-73636990D01*
X102456835Y-73671000D01*
X102631165Y-73671000D01*
X102802145Y-73636990D01*
X102963205Y-73570277D01*
X103108155Y-73473424D01*
X103231424Y-73350155D01*
X103328277Y-73205205D01*
X103394990Y-73044145D01*
X103429000Y-72873165D01*
X103429000Y-72698835D01*
X103394990Y-72527855D01*
X103328277Y-72366795D01*
X103287072Y-72305128D01*
X103287072Y-72251000D01*
X104002477Y-72251000D01*
X104132490Y-72238195D01*
X104255104Y-72201000D01*
X104563314Y-72201000D01*
X104567392Y-72242408D01*
G37*
X104567392Y-72242408D02*
X104616150Y-72403142D01*
X104695329Y-72551275D01*
X104713100Y-72572930D01*
X104658463Y-72639506D01*
X104599498Y-72749820D01*
X104563188Y-72869518D01*
X104550928Y-72994000D01*
X104554000Y-73145750D01*
X104712750Y-73304500D01*
X105537000Y-73304500D01*
X105537000Y-73284500D01*
X105791000Y-73284500D01*
X105791000Y-73304500D01*
X107315000Y-73304500D01*
X107315000Y-73284500D01*
X107569000Y-73284500D01*
X107569000Y-73304500D01*
X107589000Y-73304500D01*
X107589000Y-73558500D01*
X107569000Y-73558500D01*
X107569000Y-73578500D01*
X107315000Y-73578500D01*
X107315000Y-73558500D01*
X105791000Y-73558500D01*
X105791000Y-74345250D01*
X105949750Y-74504000D01*
X106139000Y-74507072D01*
X106263482Y-74494812D01*
X106383180Y-74458502D01*
X106493494Y-74399537D01*
X106553000Y-74350702D01*
X106612506Y-74399537D01*
X106722820Y-74458502D01*
X106842518Y-74494812D01*
X106967000Y-74507072D01*
X107156250Y-74504000D01*
X107314998Y-74345252D01*
X107314998Y-74454844D01*
X105600833Y-76169010D01*
X100455148Y-76169010D01*
X100861815Y-75762342D01*
X100891764Y-75737764D01*
X100989862Y-75618233D01*
X101062754Y-75481860D01*
X101107641Y-75333887D01*
X101119000Y-75218561D01*
X101119000Y-75218554D01*
X101122797Y-75180001D01*
X101119000Y-75141448D01*
X101119000Y-75126000D01*
X101211002Y-75126000D01*
X101211002Y-74956439D01*
X101350399Y-75086133D01*
X101483972Y-75043195D01*
X101637664Y-74949270D01*
X101770079Y-74827166D01*
X101876129Y-74681575D01*
X101951738Y-74518092D01*
X101994000Y-74343000D01*
X101994000Y-73993000D01*
X101211000Y-73993000D01*
X101211000Y-74013000D01*
X101119000Y-74013000D01*
X101119000Y-73869000D01*
X104550928Y-73869000D01*
X104563188Y-73993482D01*
X104599498Y-74113180D01*
X104658463Y-74223494D01*
X104737815Y-74320185D01*
X104834506Y-74399537D01*
X104944820Y-74458502D01*
X105064518Y-74494812D01*
X105189000Y-74507072D01*
X105378250Y-74504000D01*
X105537000Y-74345250D01*
X105537000Y-73558500D01*
X104712750Y-73558500D01*
X104554000Y-73717250D01*
X104550928Y-73869000D01*
X101119000Y-73869000D01*
X101119000Y-73827439D01*
X101108319Y-73719000D01*
X101211000Y-73719000D01*
X101211000Y-73739000D01*
X101994000Y-73739000D01*
X101994000Y-73569072D01*
X102122992Y-73569072D01*
X102124795Y-73570277D01*
X102285855Y-73636990D01*
X102456835Y-73671000D01*
X102631165Y-73671000D01*
X102802145Y-73636990D01*
X102963205Y-73570277D01*
X103108155Y-73473424D01*
X103231424Y-73350155D01*
X103328277Y-73205205D01*
X103394990Y-73044145D01*
X103429000Y-72873165D01*
X103429000Y-72698835D01*
X103394990Y-72527855D01*
X103328277Y-72366795D01*
X103287072Y-72305128D01*
X103287072Y-72251000D01*
X104002477Y-72251000D01*
X104132490Y-72238195D01*
X104255104Y-72201000D01*
X104563314Y-72201000D01*
X104567392Y-72242408D01*
G36*
X97889000Y-72893165D02*
G01*
X97923010Y-73064145D01*
X97989723Y-73225205D01*
X98086576Y-73370155D01*
X98209845Y-73493424D01*
X98354795Y-73590277D01*
X98515855Y-73656990D01*
X98573596Y-73668475D01*
X98560359Y-73712113D01*
X98549000Y-73827439D01*
X98549000Y-74076842D01*
X97956863Y-74668980D01*
X91142938Y-74668980D01*
X92910918Y-72901000D01*
X97622561Y-72901000D01*
X97737887Y-72889641D01*
X97782855Y-72876000D01*
X97889000Y-72876000D01*
X97889000Y-72893165D01*
G37*
X97889000Y-72893165D02*
X97923010Y-73064145D01*
X97989723Y-73225205D01*
X98086576Y-73370155D01*
X98209845Y-73493424D01*
X98354795Y-73590277D01*
X98515855Y-73656990D01*
X98573596Y-73668475D01*
X98560359Y-73712113D01*
X98549000Y-73827439D01*
X98549000Y-74076842D01*
X97956863Y-74668980D01*
X91142938Y-74668980D01*
X92910918Y-72901000D01*
X97622561Y-72901000D01*
X97737887Y-72889641D01*
X97782855Y-72876000D01*
X97889000Y-72876000D01*
X97889000Y-72893165D01*
G36*
X107430183Y-68064980D02*
G01*
X104940334Y-68064980D01*
X104901778Y-68061183D01*
X104863222Y-68064980D01*
X104863217Y-68064980D01*
X104822804Y-68068960D01*
X104747891Y-68076338D01*
X104599918Y-68121226D01*
X104463545Y-68194118D01*
X104344014Y-68292216D01*
X104319431Y-68322170D01*
X103810601Y-68831000D01*
X103545439Y-68831000D01*
X103430113Y-68842359D01*
X103385145Y-68856000D01*
X103344567Y-68856000D01*
X103334990Y-68807855D01*
X103268277Y-68646795D01*
X103171424Y-68501845D01*
X103048155Y-68378576D01*
X102903205Y-68281723D01*
X102798008Y-68238149D01*
X103453158Y-67583000D01*
X103479939Y-67583000D01*
X103679898Y-67543226D01*
X103868256Y-67465205D01*
X104037774Y-67351937D01*
X104181937Y-67207774D01*
X104295205Y-67038256D01*
X104373226Y-66849898D01*
X104413000Y-66649939D01*
X104413000Y-66446061D01*
X104373226Y-66246102D01*
X104297382Y-66063000D01*
X105428203Y-66063000D01*
X107430183Y-68064980D01*
G37*
X107430183Y-68064980D02*
X104940334Y-68064980D01*
X104901778Y-68061183D01*
X104863222Y-68064980D01*
X104863217Y-68064980D01*
X104822804Y-68068960D01*
X104747891Y-68076338D01*
X104599918Y-68121226D01*
X104463545Y-68194118D01*
X104344014Y-68292216D01*
X104319431Y-68322170D01*
X103810601Y-68831000D01*
X103545439Y-68831000D01*
X103430113Y-68842359D01*
X103385145Y-68856000D01*
X103344567Y-68856000D01*
X103334990Y-68807855D01*
X103268277Y-68646795D01*
X103171424Y-68501845D01*
X103048155Y-68378576D01*
X102903205Y-68281723D01*
X102798008Y-68238149D01*
X103453158Y-67583000D01*
X103479939Y-67583000D01*
X103679898Y-67543226D01*
X103868256Y-67465205D01*
X104037774Y-67351937D01*
X104181937Y-67207774D01*
X104295205Y-67038256D01*
X104373226Y-66849898D01*
X104413000Y-66649939D01*
X104413000Y-66446061D01*
X104373226Y-66246102D01*
X104297382Y-66063000D01*
X105428203Y-66063000D01*
X107430183Y-68064980D01*
%TD*%
M02*
