G04 #@! TF.GenerationSoftware,KiCad,Pcbnew,(5.1.6)-1*
G04 #@! TF.CreationDate,2020-06-29T20:37:26+02:00*
G04 #@! TF.ProjectId,SensorArray,53656e73-6f72-4417-9272-61792e6b6963,rev?*
G04 #@! TF.SameCoordinates,Original*
G04 #@! TF.FileFunction,Soldermask,Bot*
G04 #@! TF.FilePolarity,Negative*
%FSLAX46Y46*%
G04 Gerber Fmt 4.6, Leading zero omitted, Abs format (unit mm)*
G04 Created by KiCad (PCBNEW (5.1.6)-1) date 2020-06-29 20:37:26*
%MOMM*%
%LPD*%
G01*
G04 APERTURE LIST*
%ADD10C,1.000000*%
%ADD11C,8.700000*%
%ADD12R,1.800000X1.800000*%
%ADD13O,1.800000X1.800000*%
%ADD14R,1.700000X1.700000*%
%ADD15O,1.700000X1.700000*%
G04 APERTURE END LIST*
D10*
X28280419Y-23719581D03*
X26000000Y-22775000D03*
X23719581Y-23719581D03*
X22775000Y-26000000D03*
X23719581Y-28280419D03*
X26000000Y-29225000D03*
X28280419Y-28280419D03*
X29225000Y-26000000D03*
D11*
X26000000Y-26000000D03*
X98075000Y-26000000D03*
D10*
X101300000Y-26000000D03*
X100355419Y-28280419D03*
X98075000Y-29225000D03*
X95794581Y-28280419D03*
X94850000Y-26000000D03*
X95794581Y-23719581D03*
X98075000Y-22775000D03*
X100355419Y-23719581D03*
X100355419Y-71719581D03*
X98075000Y-70775000D03*
X95794581Y-71719581D03*
X94850000Y-74000000D03*
X95794581Y-76280419D03*
X98075000Y-77225000D03*
X100355419Y-76280419D03*
X101300000Y-74000000D03*
D11*
X98075000Y-74000000D03*
X26000000Y-74000000D03*
D10*
X29225000Y-74000000D03*
X28280419Y-76280419D03*
X26000000Y-77225000D03*
X23719581Y-76280419D03*
X22775000Y-74000000D03*
X23719581Y-71719581D03*
X26000000Y-70775000D03*
X28280419Y-71719581D03*
D12*
X80475000Y-76350000D03*
D13*
X83015000Y-76350000D03*
D12*
X65875000Y-23300000D03*
D13*
X68415000Y-23300000D03*
X88400000Y-48790000D03*
D12*
X88400000Y-46250000D03*
X47400000Y-23300000D03*
D13*
X49940000Y-23300000D03*
X52480000Y-23300000D03*
X55020000Y-23300000D03*
D12*
X72860000Y-23350000D03*
D13*
X75400000Y-23350000D03*
X26365000Y-66825000D03*
X23825000Y-66825000D03*
X26365000Y-64285000D03*
D12*
X23825000Y-64285000D03*
D14*
X73200000Y-76800000D03*
D15*
X73200000Y-69180000D03*
D12*
X59200000Y-23300000D03*
D13*
X61740000Y-23300000D03*
M02*
