G04 #@! TF.GenerationSoftware,KiCad,Pcbnew,(5.1.6)-1*
G04 #@! TF.CreationDate,2020-06-29T20:37:26+02:00*
G04 #@! TF.ProjectId,SensorArray,53656e73-6f72-4417-9272-61792e6b6963,rev?*
G04 #@! TF.SameCoordinates,Original*
G04 #@! TF.FileFunction,Copper,L3,Inr*
G04 #@! TF.FilePolarity,Positive*
%FSLAX46Y46*%
G04 Gerber Fmt 4.6, Leading zero omitted, Abs format (unit mm)*
G04 Created by KiCad (PCBNEW (5.1.6)-1) date 2020-06-29 20:37:26*
%MOMM*%
%LPD*%
G01*
G04 APERTURE LIST*
G04 #@! TA.AperFunction,ViaPad*
%ADD10C,0.900000*%
G04 #@! TD*
G04 #@! TA.AperFunction,ViaPad*
%ADD11C,8.600000*%
G04 #@! TD*
G04 #@! TA.AperFunction,ViaPad*
%ADD12R,1.700000X1.700000*%
G04 #@! TD*
G04 #@! TA.AperFunction,ViaPad*
%ADD13O,1.700000X1.700000*%
G04 #@! TD*
G04 #@! TA.AperFunction,ViaPad*
%ADD14R,1.600000X1.600000*%
G04 #@! TD*
G04 #@! TA.AperFunction,ViaPad*
%ADD15O,1.600000X1.600000*%
G04 #@! TD*
G04 #@! TA.AperFunction,ViaPad*
%ADD16C,1.000000*%
G04 #@! TD*
G04 #@! TA.AperFunction,ViaPad*
%ADD17C,0.800000*%
G04 #@! TD*
G04 #@! TA.AperFunction,Conductor*
%ADD18C,0.254000*%
G04 #@! TD*
G04 APERTURE END LIST*
D10*
X28280419Y-23719581D03*
X26000000Y-22775000D03*
X23719581Y-23719581D03*
X22775000Y-26000000D03*
X23719581Y-28280419D03*
X26000000Y-29225000D03*
X28280419Y-28280419D03*
X29225000Y-26000000D03*
D11*
X26000000Y-26000000D03*
X98075000Y-26000000D03*
D10*
X101300000Y-26000000D03*
X100355419Y-28280419D03*
X98075000Y-29225000D03*
X95794581Y-28280419D03*
X94850000Y-26000000D03*
X95794581Y-23719581D03*
X98075000Y-22775000D03*
X100355419Y-23719581D03*
X100355419Y-71719581D03*
X98075000Y-70775000D03*
X95794581Y-71719581D03*
X94850000Y-74000000D03*
X95794581Y-76280419D03*
X98075000Y-77225000D03*
X100355419Y-76280419D03*
X101300000Y-74000000D03*
D11*
X98075000Y-74000000D03*
X26000000Y-74000000D03*
D10*
X29225000Y-74000000D03*
X28280419Y-76280419D03*
X26000000Y-77225000D03*
X23719581Y-76280419D03*
X22775000Y-74000000D03*
X23719581Y-71719581D03*
X26000000Y-70775000D03*
X28280419Y-71719581D03*
D12*
X80475000Y-76350000D03*
D13*
X83015000Y-76350000D03*
D12*
X65875000Y-23300000D03*
D13*
X68415000Y-23300000D03*
X88400000Y-48790000D03*
D12*
X88400000Y-46250000D03*
X47400000Y-23300000D03*
D13*
X49940000Y-23300000D03*
X52480000Y-23300000D03*
X55020000Y-23300000D03*
D12*
X72860000Y-23350000D03*
D13*
X75400000Y-23350000D03*
X26365000Y-66825000D03*
X23825000Y-66825000D03*
X26365000Y-64285000D03*
D12*
X23825000Y-64285000D03*
D14*
X73200000Y-76800000D03*
D15*
X73200000Y-69180000D03*
D12*
X59200000Y-23300000D03*
D13*
X61740000Y-23300000D03*
D16*
X46100000Y-39600000D03*
X62400000Y-37700000D03*
X62400000Y-39000000D03*
X63700000Y-39100000D03*
X52250000Y-57600000D03*
D17*
X46000000Y-40700000D03*
D16*
X43200000Y-22000000D03*
X42900000Y-25100000D03*
X41700000Y-26500000D03*
D17*
X49400000Y-43600000D03*
D16*
X42600000Y-34350010D03*
D17*
X73150000Y-35650000D03*
X67350000Y-32900000D03*
D16*
X33700000Y-26900000D03*
X42600000Y-31000000D03*
X52800000Y-36800000D03*
D17*
X58800000Y-42500000D03*
X35600000Y-68400000D03*
D16*
X46200000Y-64100000D03*
X48100000Y-65800000D03*
D17*
X44800000Y-55800000D03*
X51500000Y-60200000D03*
X74600000Y-40000000D03*
X78000000Y-43100000D03*
X75700000Y-52200000D03*
X73600000Y-55600000D03*
X87200000Y-58700000D03*
X87200000Y-55500000D03*
X51400000Y-38400000D03*
X59100000Y-51200000D03*
X31599996Y-34200000D03*
X44600000Y-48100000D03*
D16*
X33500000Y-77400000D03*
X81000000Y-46100000D03*
X64300000Y-33900000D03*
X62000000Y-33900000D03*
X62000000Y-35600000D03*
D17*
X44300000Y-54400000D03*
D16*
X46150000Y-59250000D03*
D17*
X47850000Y-59300000D03*
X47700000Y-57400000D03*
X48750000Y-52900000D03*
X40300000Y-38000000D03*
D16*
X49900000Y-28250000D03*
X65650000Y-71650000D03*
X71400000Y-63650000D03*
D17*
X55200000Y-40500000D03*
D16*
X54750000Y-39650000D03*
X56850000Y-40150000D03*
D17*
X59800000Y-44550000D03*
X60900000Y-44550000D03*
X60400000Y-52050000D03*
D16*
X51100000Y-28250000D03*
D17*
X35900000Y-32900000D03*
D16*
X38200000Y-31000000D03*
X87300000Y-60600000D03*
X87300000Y-62300000D03*
X75800000Y-36500000D03*
X77200000Y-36500000D03*
X82500000Y-28900000D03*
X80200000Y-28900000D03*
X81300000Y-37300000D03*
X80200000Y-30700000D03*
X82500000Y-30700000D03*
X85800000Y-23700000D03*
X77100000Y-26500000D03*
X85800000Y-26600000D03*
D17*
X63300000Y-28800000D03*
X78000000Y-42100000D03*
X74600000Y-41400000D03*
X70700000Y-28800000D03*
X73500000Y-54400000D03*
X74500000Y-54400000D03*
X60400000Y-51150010D03*
X21500000Y-55300000D03*
D16*
X23900000Y-61700000D03*
X39200000Y-27700000D03*
D17*
X38200000Y-26600000D03*
D16*
X37600000Y-25700000D03*
X35700000Y-26700000D03*
D17*
X21500000Y-56300000D03*
D16*
X28900000Y-69000000D03*
X37600000Y-24200000D03*
X81000000Y-50900000D03*
D17*
X49300000Y-46200000D03*
D16*
X54500000Y-65700000D03*
D17*
X33300000Y-36000000D03*
X44500000Y-31400000D03*
X45500000Y-34500000D03*
X46700000Y-30000000D03*
X40600000Y-36000000D03*
D16*
X49800000Y-41600000D03*
D17*
X49300000Y-44900000D03*
X46000000Y-43600000D03*
X67500000Y-38900000D03*
X67500000Y-37800000D03*
X40300000Y-27700000D03*
X44500000Y-24100000D03*
X24400000Y-36800000D03*
D16*
X28800000Y-66900000D03*
D17*
X24400000Y-56800000D03*
D16*
X33500000Y-72600000D03*
D17*
X55600000Y-55800000D03*
X57300000Y-52600000D03*
X63600000Y-53500000D03*
X43900000Y-34300000D03*
X46000000Y-45500000D03*
X59200000Y-27900000D03*
X63300000Y-40400000D03*
X71600000Y-43000000D03*
X80200000Y-53500000D03*
X76400000Y-47000000D03*
X67700000Y-27400000D03*
X76400000Y-45800000D03*
X66200000Y-27300000D03*
X65000000Y-44100000D03*
X51500000Y-46000000D03*
X56700000Y-33000000D03*
X65000000Y-45200000D03*
X51500000Y-45000000D03*
X56700000Y-35000000D03*
X55800000Y-62200000D03*
X65000000Y-46400000D03*
X51500000Y-43900000D03*
X56700000Y-34000000D03*
X55800000Y-61100000D03*
X24400000Y-47700000D03*
X40500000Y-55650000D03*
X24400000Y-46700000D03*
X44400000Y-56900000D03*
X24400000Y-38800000D03*
X44200000Y-39300000D03*
X40600000Y-40500000D03*
X24400000Y-37800000D03*
D16*
X31100000Y-48100000D03*
X22500000Y-61800000D03*
D17*
X51700000Y-33500000D03*
X34700000Y-32900000D03*
X70300000Y-43000000D03*
X36200000Y-65800000D03*
X36300000Y-67000000D03*
X68834346Y-43073671D03*
X39800000Y-67200000D03*
X67600000Y-42900000D03*
X39700000Y-68400000D03*
X66306104Y-42789565D03*
X35500000Y-49400000D03*
X55300000Y-49000000D03*
X57100000Y-49200000D03*
X35400000Y-50700000D03*
X65400000Y-50400000D03*
X40400000Y-50600000D03*
X65400000Y-53500000D03*
X40400000Y-51900000D03*
X64300000Y-48200000D03*
X55900000Y-32100000D03*
D18*
G36*
X98946797Y-20733902D02*
G01*
X99795182Y-20947001D01*
X100597371Y-21295803D01*
X101331818Y-21770938D01*
X101978798Y-22359646D01*
X102520946Y-23046125D01*
X102943692Y-23811928D01*
X103235684Y-24636491D01*
X103391116Y-25509076D01*
X103415000Y-26015547D01*
X103415001Y-73972899D01*
X103341098Y-74871802D01*
X103127999Y-75720180D01*
X102779197Y-76522371D01*
X102304062Y-77256818D01*
X101715354Y-77903799D01*
X101028875Y-78445946D01*
X100263076Y-78868691D01*
X99438514Y-79160683D01*
X98565925Y-79316116D01*
X98059453Y-79340000D01*
X31127000Y-79340000D01*
X31127000Y-77288212D01*
X32365000Y-77288212D01*
X32365000Y-77511788D01*
X32408617Y-77731067D01*
X32494176Y-77937624D01*
X32618388Y-78123520D01*
X32776480Y-78281612D01*
X32962376Y-78405824D01*
X33168933Y-78491383D01*
X33388212Y-78535000D01*
X33611788Y-78535000D01*
X33831067Y-78491383D01*
X34037624Y-78405824D01*
X34223520Y-78281612D01*
X34381612Y-78123520D01*
X34505824Y-77937624D01*
X34591383Y-77731067D01*
X34635000Y-77511788D01*
X34635000Y-77288212D01*
X34591383Y-77068933D01*
X34505824Y-76862376D01*
X34381612Y-76676480D01*
X34223520Y-76518388D01*
X34037624Y-76394176D01*
X33831067Y-76308617D01*
X33611788Y-76265000D01*
X33388212Y-76265000D01*
X33168933Y-76308617D01*
X32962376Y-76394176D01*
X32776480Y-76518388D01*
X32618388Y-76676480D01*
X32494176Y-76862376D01*
X32408617Y-77068933D01*
X32365000Y-77288212D01*
X31127000Y-77288212D01*
X31127000Y-76000000D01*
X71761928Y-76000000D01*
X71761928Y-77600000D01*
X71774188Y-77724482D01*
X71810498Y-77844180D01*
X71869463Y-77954494D01*
X71948815Y-78051185D01*
X72045506Y-78130537D01*
X72155820Y-78189502D01*
X72275518Y-78225812D01*
X72400000Y-78238072D01*
X74000000Y-78238072D01*
X74124482Y-78225812D01*
X74244180Y-78189502D01*
X74354494Y-78130537D01*
X74451185Y-78051185D01*
X74530537Y-77954494D01*
X74589502Y-77844180D01*
X74625812Y-77724482D01*
X74638072Y-77600000D01*
X74638072Y-76000000D01*
X74625812Y-75875518D01*
X74589502Y-75755820D01*
X74530537Y-75645506D01*
X74451185Y-75548815D01*
X74391704Y-75500000D01*
X78986928Y-75500000D01*
X78986928Y-77200000D01*
X78999188Y-77324482D01*
X79035498Y-77444180D01*
X79094463Y-77554494D01*
X79173815Y-77651185D01*
X79270506Y-77730537D01*
X79380820Y-77789502D01*
X79500518Y-77825812D01*
X79625000Y-77838072D01*
X81325000Y-77838072D01*
X81449482Y-77825812D01*
X81569180Y-77789502D01*
X81679494Y-77730537D01*
X81776185Y-77651185D01*
X81855537Y-77554494D01*
X81914502Y-77444180D01*
X81936513Y-77371620D01*
X82068368Y-77503475D01*
X82311589Y-77665990D01*
X82581842Y-77777932D01*
X82868740Y-77835000D01*
X83161260Y-77835000D01*
X83448158Y-77777932D01*
X83718411Y-77665990D01*
X83961632Y-77503475D01*
X84168475Y-77296632D01*
X84330990Y-77053411D01*
X84442932Y-76783158D01*
X84500000Y-76496260D01*
X84500000Y-76203740D01*
X84442932Y-75916842D01*
X84330990Y-75646589D01*
X84168475Y-75403368D01*
X83961632Y-75196525D01*
X83718411Y-75034010D01*
X83448158Y-74922068D01*
X83161260Y-74865000D01*
X82868740Y-74865000D01*
X82581842Y-74922068D01*
X82311589Y-75034010D01*
X82068368Y-75196525D01*
X81936513Y-75328380D01*
X81914502Y-75255820D01*
X81855537Y-75145506D01*
X81776185Y-75048815D01*
X81679494Y-74969463D01*
X81569180Y-74910498D01*
X81449482Y-74874188D01*
X81325000Y-74861928D01*
X79625000Y-74861928D01*
X79500518Y-74874188D01*
X79380820Y-74910498D01*
X79270506Y-74969463D01*
X79173815Y-75048815D01*
X79094463Y-75145506D01*
X79035498Y-75255820D01*
X78999188Y-75375518D01*
X78986928Y-75500000D01*
X74391704Y-75500000D01*
X74354494Y-75469463D01*
X74244180Y-75410498D01*
X74124482Y-75374188D01*
X74000000Y-75361928D01*
X72400000Y-75361928D01*
X72275518Y-75374188D01*
X72155820Y-75410498D01*
X72045506Y-75469463D01*
X71948815Y-75548815D01*
X71869463Y-75645506D01*
X71810498Y-75755820D01*
X71774188Y-75875518D01*
X71761928Y-76000000D01*
X31127000Y-76000000D01*
X31127000Y-72488212D01*
X32365000Y-72488212D01*
X32365000Y-72711788D01*
X32408617Y-72931067D01*
X32494176Y-73137624D01*
X32618388Y-73323520D01*
X32776480Y-73481612D01*
X32962376Y-73605824D01*
X33168933Y-73691383D01*
X33388212Y-73735000D01*
X33611788Y-73735000D01*
X33831067Y-73691383D01*
X34037624Y-73605824D01*
X34175130Y-73513945D01*
X93140000Y-73513945D01*
X93140000Y-74486055D01*
X93329650Y-75439486D01*
X93701660Y-76337599D01*
X94241735Y-77145879D01*
X94929121Y-77833265D01*
X95737401Y-78373340D01*
X96635514Y-78745350D01*
X97588945Y-78935000D01*
X98561055Y-78935000D01*
X99514486Y-78745350D01*
X100412599Y-78373340D01*
X101220879Y-77833265D01*
X101908265Y-77145879D01*
X102448340Y-76337599D01*
X102820350Y-75439486D01*
X103010000Y-74486055D01*
X103010000Y-73513945D01*
X102820350Y-72560514D01*
X102448340Y-71662401D01*
X101908265Y-70854121D01*
X101220879Y-70166735D01*
X100412599Y-69626660D01*
X99514486Y-69254650D01*
X98561055Y-69065000D01*
X97588945Y-69065000D01*
X96635514Y-69254650D01*
X95737401Y-69626660D01*
X94929121Y-70166735D01*
X94241735Y-70854121D01*
X93701660Y-71662401D01*
X93329650Y-72560514D01*
X93140000Y-73513945D01*
X34175130Y-73513945D01*
X34223520Y-73481612D01*
X34381612Y-73323520D01*
X34505824Y-73137624D01*
X34591383Y-72931067D01*
X34635000Y-72711788D01*
X34635000Y-72488212D01*
X34591383Y-72268933D01*
X34505824Y-72062376D01*
X34381612Y-71876480D01*
X34223520Y-71718388D01*
X34037624Y-71594176D01*
X33831067Y-71508617D01*
X33611788Y-71465000D01*
X33388212Y-71465000D01*
X33168933Y-71508617D01*
X32962376Y-71594176D01*
X32776480Y-71718388D01*
X32618388Y-71876480D01*
X32494176Y-72062376D01*
X32408617Y-72268933D01*
X32365000Y-72488212D01*
X31127000Y-72488212D01*
X31127000Y-68298061D01*
X34565000Y-68298061D01*
X34565000Y-68501939D01*
X34604774Y-68701898D01*
X34682795Y-68890256D01*
X34796063Y-69059774D01*
X34940226Y-69203937D01*
X35109744Y-69317205D01*
X35298102Y-69395226D01*
X35498061Y-69435000D01*
X35701939Y-69435000D01*
X35901898Y-69395226D01*
X36090256Y-69317205D01*
X36259774Y-69203937D01*
X36403937Y-69059774D01*
X36517205Y-68890256D01*
X36595226Y-68701898D01*
X36635000Y-68501939D01*
X36635000Y-68298061D01*
X38665000Y-68298061D01*
X38665000Y-68501939D01*
X38704774Y-68701898D01*
X38782795Y-68890256D01*
X38896063Y-69059774D01*
X39040226Y-69203937D01*
X39209744Y-69317205D01*
X39398102Y-69395226D01*
X39598061Y-69435000D01*
X39801939Y-69435000D01*
X40001898Y-69395226D01*
X40190256Y-69317205D01*
X40359774Y-69203937D01*
X40503937Y-69059774D01*
X40518041Y-69038665D01*
X71765000Y-69038665D01*
X71765000Y-69321335D01*
X71820147Y-69598574D01*
X71928320Y-69859727D01*
X72085363Y-70094759D01*
X72285241Y-70294637D01*
X72520273Y-70451680D01*
X72781426Y-70559853D01*
X73058665Y-70615000D01*
X73341335Y-70615000D01*
X73618574Y-70559853D01*
X73879727Y-70451680D01*
X74114759Y-70294637D01*
X74314637Y-70094759D01*
X74471680Y-69859727D01*
X74579853Y-69598574D01*
X74635000Y-69321335D01*
X74635000Y-69038665D01*
X74579853Y-68761426D01*
X74471680Y-68500273D01*
X74314637Y-68265241D01*
X74114759Y-68065363D01*
X73879727Y-67908320D01*
X73618574Y-67800147D01*
X73341335Y-67745000D01*
X73058665Y-67745000D01*
X72781426Y-67800147D01*
X72520273Y-67908320D01*
X72285241Y-68065363D01*
X72085363Y-68265241D01*
X71928320Y-68500273D01*
X71820147Y-68761426D01*
X71765000Y-69038665D01*
X40518041Y-69038665D01*
X40617205Y-68890256D01*
X40695226Y-68701898D01*
X40735000Y-68501939D01*
X40735000Y-68298061D01*
X40695226Y-68098102D01*
X40617205Y-67909744D01*
X40591875Y-67871836D01*
X40603937Y-67859774D01*
X40717205Y-67690256D01*
X40795226Y-67501898D01*
X40835000Y-67301939D01*
X40835000Y-67098061D01*
X40795226Y-66898102D01*
X40717205Y-66709744D01*
X40603937Y-66540226D01*
X40459774Y-66396063D01*
X40290256Y-66282795D01*
X40101898Y-66204774D01*
X39901939Y-66165000D01*
X39698061Y-66165000D01*
X39498102Y-66204774D01*
X39309744Y-66282795D01*
X39140226Y-66396063D01*
X38996063Y-66540226D01*
X38882795Y-66709744D01*
X38804774Y-66898102D01*
X38765000Y-67098061D01*
X38765000Y-67301939D01*
X38804774Y-67501898D01*
X38882795Y-67690256D01*
X38908125Y-67728164D01*
X38896063Y-67740226D01*
X38782795Y-67909744D01*
X38704774Y-68098102D01*
X38665000Y-68298061D01*
X36635000Y-68298061D01*
X36595226Y-68098102D01*
X36556365Y-68004283D01*
X36601898Y-67995226D01*
X36790256Y-67917205D01*
X36959774Y-67803937D01*
X37103937Y-67659774D01*
X37217205Y-67490256D01*
X37295226Y-67301898D01*
X37335000Y-67101939D01*
X37335000Y-66898061D01*
X37295226Y-66698102D01*
X37217205Y-66509744D01*
X37103937Y-66340226D01*
X37091875Y-66328164D01*
X37117205Y-66290256D01*
X37195226Y-66101898D01*
X37235000Y-65901939D01*
X37235000Y-65698061D01*
X37233041Y-65688212D01*
X46965000Y-65688212D01*
X46965000Y-65911788D01*
X47008617Y-66131067D01*
X47094176Y-66337624D01*
X47218388Y-66523520D01*
X47376480Y-66681612D01*
X47562376Y-66805824D01*
X47768933Y-66891383D01*
X47988212Y-66935000D01*
X48211788Y-66935000D01*
X48431067Y-66891383D01*
X48637624Y-66805824D01*
X48823520Y-66681612D01*
X48981612Y-66523520D01*
X49105824Y-66337624D01*
X49191383Y-66131067D01*
X49235000Y-65911788D01*
X49235000Y-65688212D01*
X49215109Y-65588212D01*
X53365000Y-65588212D01*
X53365000Y-65811788D01*
X53408617Y-66031067D01*
X53494176Y-66237624D01*
X53618388Y-66423520D01*
X53776480Y-66581612D01*
X53962376Y-66705824D01*
X54168933Y-66791383D01*
X54388212Y-66835000D01*
X54611788Y-66835000D01*
X54831067Y-66791383D01*
X55037624Y-66705824D01*
X55223520Y-66581612D01*
X55381612Y-66423520D01*
X55505824Y-66237624D01*
X55591383Y-66031067D01*
X55635000Y-65811788D01*
X55635000Y-65588212D01*
X55591383Y-65368933D01*
X55505824Y-65162376D01*
X55381612Y-64976480D01*
X55223520Y-64818388D01*
X55037624Y-64694176D01*
X54831067Y-64608617D01*
X54611788Y-64565000D01*
X54388212Y-64565000D01*
X54168933Y-64608617D01*
X53962376Y-64694176D01*
X53776480Y-64818388D01*
X53618388Y-64976480D01*
X53494176Y-65162376D01*
X53408617Y-65368933D01*
X53365000Y-65588212D01*
X49215109Y-65588212D01*
X49191383Y-65468933D01*
X49105824Y-65262376D01*
X48981612Y-65076480D01*
X48823520Y-64918388D01*
X48637624Y-64794176D01*
X48431067Y-64708617D01*
X48211788Y-64665000D01*
X47988212Y-64665000D01*
X47768933Y-64708617D01*
X47562376Y-64794176D01*
X47376480Y-64918388D01*
X47218388Y-65076480D01*
X47094176Y-65262376D01*
X47008617Y-65468933D01*
X46965000Y-65688212D01*
X37233041Y-65688212D01*
X37195226Y-65498102D01*
X37117205Y-65309744D01*
X37003937Y-65140226D01*
X36859774Y-64996063D01*
X36690256Y-64882795D01*
X36501898Y-64804774D01*
X36301939Y-64765000D01*
X36098061Y-64765000D01*
X35898102Y-64804774D01*
X35709744Y-64882795D01*
X35540226Y-64996063D01*
X35396063Y-65140226D01*
X35282795Y-65309744D01*
X35204774Y-65498102D01*
X35165000Y-65698061D01*
X35165000Y-65901939D01*
X35204774Y-66101898D01*
X35282795Y-66290256D01*
X35396063Y-66459774D01*
X35408125Y-66471836D01*
X35382795Y-66509744D01*
X35304774Y-66698102D01*
X35265000Y-66898061D01*
X35265000Y-67101939D01*
X35304774Y-67301898D01*
X35343635Y-67395717D01*
X35298102Y-67404774D01*
X35109744Y-67482795D01*
X34940226Y-67596063D01*
X34796063Y-67740226D01*
X34682795Y-67909744D01*
X34604774Y-68098102D01*
X34565000Y-68298061D01*
X31127000Y-68298061D01*
X31127000Y-63988212D01*
X45065000Y-63988212D01*
X45065000Y-64211788D01*
X45108617Y-64431067D01*
X45194176Y-64637624D01*
X45318388Y-64823520D01*
X45476480Y-64981612D01*
X45662376Y-65105824D01*
X45868933Y-65191383D01*
X46088212Y-65235000D01*
X46311788Y-65235000D01*
X46531067Y-65191383D01*
X46737624Y-65105824D01*
X46923520Y-64981612D01*
X47081612Y-64823520D01*
X47205824Y-64637624D01*
X47291383Y-64431067D01*
X47335000Y-64211788D01*
X47335000Y-63988212D01*
X47291383Y-63768933D01*
X47205824Y-63562376D01*
X47081612Y-63376480D01*
X46923520Y-63218388D01*
X46737624Y-63094176D01*
X46531067Y-63008617D01*
X46311788Y-62965000D01*
X46088212Y-62965000D01*
X45868933Y-63008617D01*
X45662376Y-63094176D01*
X45476480Y-63218388D01*
X45318388Y-63376480D01*
X45194176Y-63562376D01*
X45108617Y-63768933D01*
X45065000Y-63988212D01*
X31127000Y-63988212D01*
X31127000Y-56798061D01*
X43365000Y-56798061D01*
X43365000Y-57001939D01*
X43404774Y-57201898D01*
X43482795Y-57390256D01*
X43596063Y-57559774D01*
X43740226Y-57703937D01*
X43909744Y-57817205D01*
X44098102Y-57895226D01*
X44298061Y-57935000D01*
X44501939Y-57935000D01*
X44701898Y-57895226D01*
X44890256Y-57817205D01*
X45059774Y-57703937D01*
X45203937Y-57559774D01*
X45317205Y-57390256D01*
X45395226Y-57201898D01*
X45435000Y-57001939D01*
X45435000Y-56798061D01*
X45403823Y-56641322D01*
X45459774Y-56603937D01*
X45603937Y-56459774D01*
X45717205Y-56290256D01*
X45795226Y-56101898D01*
X45835000Y-55901939D01*
X45835000Y-55698061D01*
X45795226Y-55498102D01*
X45717205Y-55309744D01*
X45603937Y-55140226D01*
X45459774Y-54996063D01*
X45290256Y-54882795D01*
X45101898Y-54804774D01*
X44901939Y-54765000D01*
X44698061Y-54765000D01*
X44498102Y-54804774D01*
X44309744Y-54882795D01*
X44140226Y-54996063D01*
X43996063Y-55140226D01*
X43882795Y-55309744D01*
X43804774Y-55498102D01*
X43765000Y-55698061D01*
X43765000Y-55901939D01*
X43796177Y-56058678D01*
X43740226Y-56096063D01*
X43596063Y-56240226D01*
X43482795Y-56409744D01*
X43404774Y-56598102D01*
X43365000Y-56798061D01*
X31127000Y-56798061D01*
X31127000Y-55548061D01*
X39465000Y-55548061D01*
X39465000Y-55751939D01*
X39504774Y-55951898D01*
X39582795Y-56140256D01*
X39696063Y-56309774D01*
X39840226Y-56453937D01*
X40009744Y-56567205D01*
X40198102Y-56645226D01*
X40398061Y-56685000D01*
X40601939Y-56685000D01*
X40801898Y-56645226D01*
X40990256Y-56567205D01*
X41159774Y-56453937D01*
X41303937Y-56309774D01*
X41417205Y-56140256D01*
X41495226Y-55951898D01*
X41535000Y-55751939D01*
X41535000Y-55548061D01*
X41495226Y-55348102D01*
X41417205Y-55159744D01*
X41303937Y-54990226D01*
X41159774Y-54846063D01*
X40990256Y-54732795D01*
X40801898Y-54654774D01*
X40601939Y-54615000D01*
X40398061Y-54615000D01*
X40198102Y-54654774D01*
X40009744Y-54732795D01*
X39840226Y-54846063D01*
X39696063Y-54990226D01*
X39582795Y-55159744D01*
X39504774Y-55348102D01*
X39465000Y-55548061D01*
X31127000Y-55548061D01*
X31127000Y-50598061D01*
X34365000Y-50598061D01*
X34365000Y-50801939D01*
X34404774Y-51001898D01*
X34482795Y-51190256D01*
X34596063Y-51359774D01*
X34740226Y-51503937D01*
X34909744Y-51617205D01*
X35098102Y-51695226D01*
X35298061Y-51735000D01*
X35501939Y-51735000D01*
X35701898Y-51695226D01*
X35890256Y-51617205D01*
X36059774Y-51503937D01*
X36203937Y-51359774D01*
X36317205Y-51190256D01*
X36395226Y-51001898D01*
X36435000Y-50801939D01*
X36435000Y-50598061D01*
X36415109Y-50498061D01*
X39365000Y-50498061D01*
X39365000Y-50701939D01*
X39404774Y-50901898D01*
X39482795Y-51090256D01*
X39589532Y-51250000D01*
X39482795Y-51409744D01*
X39404774Y-51598102D01*
X39365000Y-51798061D01*
X39365000Y-52001939D01*
X39404774Y-52201898D01*
X39482795Y-52390256D01*
X39596063Y-52559774D01*
X39740226Y-52703937D01*
X39909744Y-52817205D01*
X40098102Y-52895226D01*
X40298061Y-52935000D01*
X40501939Y-52935000D01*
X40701898Y-52895226D01*
X40890256Y-52817205D01*
X41059774Y-52703937D01*
X41203937Y-52559774D01*
X41317205Y-52390256D01*
X41395226Y-52201898D01*
X41435000Y-52001939D01*
X41435000Y-51798061D01*
X41395226Y-51598102D01*
X41317205Y-51409744D01*
X41210468Y-51250000D01*
X41317205Y-51090256D01*
X41395226Y-50901898D01*
X41435000Y-50701939D01*
X41435000Y-50498061D01*
X41395226Y-50298102D01*
X41317205Y-50109744D01*
X41203937Y-49940226D01*
X41059774Y-49796063D01*
X40890256Y-49682795D01*
X40701898Y-49604774D01*
X40501939Y-49565000D01*
X40298061Y-49565000D01*
X40098102Y-49604774D01*
X39909744Y-49682795D01*
X39740226Y-49796063D01*
X39596063Y-49940226D01*
X39482795Y-50109744D01*
X39404774Y-50298102D01*
X39365000Y-50498061D01*
X36415109Y-50498061D01*
X36395226Y-50398102D01*
X36317205Y-50209744D01*
X36251821Y-50111890D01*
X36303937Y-50059774D01*
X36417205Y-49890256D01*
X36495226Y-49701898D01*
X36535000Y-49501939D01*
X36535000Y-49298061D01*
X36495226Y-49098102D01*
X36417205Y-48909744D01*
X36303937Y-48740226D01*
X36159774Y-48596063D01*
X35990256Y-48482795D01*
X35801898Y-48404774D01*
X35601939Y-48365000D01*
X35398061Y-48365000D01*
X35198102Y-48404774D01*
X35009744Y-48482795D01*
X34840226Y-48596063D01*
X34696063Y-48740226D01*
X34582795Y-48909744D01*
X34504774Y-49098102D01*
X34465000Y-49298061D01*
X34465000Y-49501939D01*
X34504774Y-49701898D01*
X34582795Y-49890256D01*
X34648179Y-49988110D01*
X34596063Y-50040226D01*
X34482795Y-50209744D01*
X34404774Y-50398102D01*
X34365000Y-50598061D01*
X31127000Y-50598061D01*
X31127000Y-49235000D01*
X31211788Y-49235000D01*
X31431067Y-49191383D01*
X31637624Y-49105824D01*
X31823520Y-48981612D01*
X31981612Y-48823520D01*
X32105824Y-48637624D01*
X32191383Y-48431067D01*
X32235000Y-48211788D01*
X32235000Y-47988212D01*
X32191383Y-47768933D01*
X32105824Y-47562376D01*
X31981612Y-47376480D01*
X31823520Y-47218388D01*
X31637624Y-47094176D01*
X31431067Y-47008617D01*
X31211788Y-46965000D01*
X31127000Y-46965000D01*
X31127000Y-40398061D01*
X39565000Y-40398061D01*
X39565000Y-40601939D01*
X39604774Y-40801898D01*
X39682795Y-40990256D01*
X39796063Y-41159774D01*
X39940226Y-41303937D01*
X40109744Y-41417205D01*
X40298102Y-41495226D01*
X40498061Y-41535000D01*
X40701939Y-41535000D01*
X40901898Y-41495226D01*
X41090256Y-41417205D01*
X41259774Y-41303937D01*
X41403937Y-41159774D01*
X41517205Y-40990256D01*
X41595226Y-40801898D01*
X41635000Y-40601939D01*
X41635000Y-40398061D01*
X41595226Y-40198102D01*
X41517205Y-40009744D01*
X41403937Y-39840226D01*
X41259774Y-39696063D01*
X41090256Y-39582795D01*
X40901898Y-39504774D01*
X40701939Y-39465000D01*
X40498061Y-39465000D01*
X40298102Y-39504774D01*
X40109744Y-39582795D01*
X39940226Y-39696063D01*
X39796063Y-39840226D01*
X39682795Y-40009744D01*
X39604774Y-40198102D01*
X39565000Y-40398061D01*
X31127000Y-40398061D01*
X31127000Y-35898061D01*
X32265000Y-35898061D01*
X32265000Y-36101939D01*
X32304774Y-36301898D01*
X32382795Y-36490256D01*
X32496063Y-36659774D01*
X32640226Y-36803937D01*
X32809744Y-36917205D01*
X32998102Y-36995226D01*
X33198061Y-37035000D01*
X33401939Y-37035000D01*
X33601898Y-36995226D01*
X33790256Y-36917205D01*
X33959774Y-36803937D01*
X34103937Y-36659774D01*
X34217205Y-36490256D01*
X34295226Y-36301898D01*
X34335000Y-36101939D01*
X34335000Y-35898061D01*
X34295226Y-35698102D01*
X34217205Y-35509744D01*
X34103937Y-35340226D01*
X33959774Y-35196063D01*
X33790256Y-35082795D01*
X33601898Y-35004774D01*
X33401939Y-34965000D01*
X33198061Y-34965000D01*
X32998102Y-35004774D01*
X32809744Y-35082795D01*
X32640226Y-35196063D01*
X32496063Y-35340226D01*
X32382795Y-35509744D01*
X32304774Y-35698102D01*
X32265000Y-35898061D01*
X31127000Y-35898061D01*
X31127000Y-35124354D01*
X31298098Y-35195226D01*
X31498057Y-35235000D01*
X31701935Y-35235000D01*
X31901894Y-35195226D01*
X32090252Y-35117205D01*
X32259770Y-35003937D01*
X32403933Y-34859774D01*
X32517201Y-34690256D01*
X32595222Y-34501898D01*
X32634996Y-34301939D01*
X32634996Y-34098061D01*
X32595222Y-33898102D01*
X32517201Y-33709744D01*
X32403933Y-33540226D01*
X32259770Y-33396063D01*
X32090252Y-33282795D01*
X31901894Y-33204774D01*
X31701935Y-33165000D01*
X31498057Y-33165000D01*
X31298098Y-33204774D01*
X31127000Y-33275646D01*
X31127000Y-32798061D01*
X33665000Y-32798061D01*
X33665000Y-33001939D01*
X33704774Y-33201898D01*
X33782795Y-33390256D01*
X33896063Y-33559774D01*
X34040226Y-33703937D01*
X34209744Y-33817205D01*
X34398102Y-33895226D01*
X34598061Y-33935000D01*
X34801939Y-33935000D01*
X35001898Y-33895226D01*
X35190256Y-33817205D01*
X35359774Y-33703937D01*
X35503937Y-33559774D01*
X35617205Y-33390256D01*
X35695226Y-33201898D01*
X35735000Y-33001939D01*
X35735000Y-32798061D01*
X35695226Y-32598102D01*
X35617205Y-32409744D01*
X35503937Y-32240226D01*
X35359774Y-32096063D01*
X35190256Y-31982795D01*
X35001898Y-31904774D01*
X34801939Y-31865000D01*
X34598061Y-31865000D01*
X34398102Y-31904774D01*
X34209744Y-31982795D01*
X34040226Y-32096063D01*
X33896063Y-32240226D01*
X33782795Y-32409744D01*
X33704774Y-32598102D01*
X33665000Y-32798061D01*
X31127000Y-32798061D01*
X31127000Y-29927000D01*
X39673000Y-29927000D01*
X39673000Y-35533391D01*
X39604774Y-35698102D01*
X39565000Y-35898061D01*
X39565000Y-36101939D01*
X39604774Y-36301898D01*
X39673000Y-36466609D01*
X39673000Y-36600000D01*
X39675440Y-36624776D01*
X39682667Y-36648601D01*
X39694403Y-36670557D01*
X39710197Y-36689803D01*
X39729443Y-36705597D01*
X39751399Y-36717333D01*
X39775224Y-36724560D01*
X39800000Y-36727000D01*
X39863289Y-36727000D01*
X39940226Y-36803937D01*
X40109744Y-36917205D01*
X40298102Y-36995226D01*
X40498061Y-37035000D01*
X40701939Y-37035000D01*
X40901898Y-36995226D01*
X41090256Y-36917205D01*
X41259774Y-36803937D01*
X41336711Y-36727000D01*
X43973000Y-36727000D01*
X43973000Y-38289876D01*
X43898102Y-38304774D01*
X43709744Y-38382795D01*
X43540226Y-38496063D01*
X43396063Y-38640226D01*
X43282795Y-38809744D01*
X43204774Y-38998102D01*
X43165000Y-39198061D01*
X43165000Y-39401939D01*
X43204774Y-39601898D01*
X43282795Y-39790256D01*
X43396063Y-39959774D01*
X43540226Y-40103937D01*
X43709744Y-40217205D01*
X43898102Y-40295226D01*
X43973000Y-40310124D01*
X43973000Y-47274164D01*
X43940226Y-47296063D01*
X43796063Y-47440226D01*
X43682795Y-47609744D01*
X43604774Y-47798102D01*
X43565000Y-47998061D01*
X43565000Y-48201939D01*
X43604774Y-48401898D01*
X43682795Y-48590256D01*
X43796063Y-48759774D01*
X43940226Y-48903937D01*
X43973000Y-48925836D01*
X43973000Y-52000000D01*
X43975440Y-52024776D01*
X43982667Y-52048601D01*
X43994403Y-52070557D01*
X44010197Y-52089803D01*
X44029443Y-52105597D01*
X44051399Y-52117333D01*
X44075224Y-52124560D01*
X44100000Y-52127000D01*
X49873000Y-52127000D01*
X49873000Y-60000000D01*
X49875440Y-60024776D01*
X49882667Y-60048601D01*
X49894403Y-60070557D01*
X49910197Y-60089803D01*
X49929443Y-60105597D01*
X49951399Y-60117333D01*
X49975224Y-60124560D01*
X50000000Y-60127000D01*
X50465000Y-60127000D01*
X50465000Y-60301939D01*
X50504774Y-60501898D01*
X50582795Y-60690256D01*
X50696063Y-60859774D01*
X50840226Y-61003937D01*
X51009744Y-61117205D01*
X51198102Y-61195226D01*
X51398061Y-61235000D01*
X51601939Y-61235000D01*
X51801898Y-61195226D01*
X51990256Y-61117205D01*
X52159774Y-61003937D01*
X52303937Y-60859774D01*
X52417205Y-60690256D01*
X52495226Y-60501898D01*
X52535000Y-60301939D01*
X52535000Y-60127000D01*
X55444444Y-60127000D01*
X55309744Y-60182795D01*
X55140226Y-60296063D01*
X54996063Y-60440226D01*
X54882795Y-60609744D01*
X54804774Y-60798102D01*
X54765000Y-60998061D01*
X54765000Y-61201939D01*
X54804774Y-61401898D01*
X54882795Y-61590256D01*
X54922715Y-61650000D01*
X54882795Y-61709744D01*
X54804774Y-61898102D01*
X54765000Y-62098061D01*
X54765000Y-62301939D01*
X54804774Y-62501898D01*
X54882795Y-62690256D01*
X54996063Y-62859774D01*
X55140226Y-63003937D01*
X55309744Y-63117205D01*
X55498102Y-63195226D01*
X55698061Y-63235000D01*
X55901939Y-63235000D01*
X56101898Y-63195226D01*
X56290256Y-63117205D01*
X56459774Y-63003937D01*
X56603937Y-62859774D01*
X56717205Y-62690256D01*
X56795226Y-62501898D01*
X56835000Y-62301939D01*
X56835000Y-62098061D01*
X56795226Y-61898102D01*
X56717205Y-61709744D01*
X56677285Y-61650000D01*
X56717205Y-61590256D01*
X56795226Y-61401898D01*
X56835000Y-61201939D01*
X56835000Y-60998061D01*
X56795226Y-60798102D01*
X56717205Y-60609744D01*
X56603937Y-60440226D01*
X56459774Y-60296063D01*
X56290256Y-60182795D01*
X56155556Y-60127000D01*
X57000000Y-60127000D01*
X57024776Y-60124560D01*
X57048601Y-60117333D01*
X57070557Y-60105597D01*
X57089803Y-60089803D01*
X57105597Y-60070557D01*
X57117333Y-60048601D01*
X57124560Y-60024776D01*
X57127000Y-60000000D01*
X57127000Y-58598061D01*
X86165000Y-58598061D01*
X86165000Y-58801939D01*
X86204774Y-59001898D01*
X86282795Y-59190256D01*
X86396063Y-59359774D01*
X86540226Y-59503937D01*
X86709744Y-59617205D01*
X86898102Y-59695226D01*
X87098061Y-59735000D01*
X87301939Y-59735000D01*
X87501898Y-59695226D01*
X87690256Y-59617205D01*
X87859774Y-59503937D01*
X88003937Y-59359774D01*
X88117205Y-59190256D01*
X88195226Y-59001898D01*
X88235000Y-58801939D01*
X88235000Y-58598061D01*
X88195226Y-58398102D01*
X88117205Y-58209744D01*
X88003937Y-58040226D01*
X87859774Y-57896063D01*
X87690256Y-57782795D01*
X87501898Y-57704774D01*
X87301939Y-57665000D01*
X87098061Y-57665000D01*
X86898102Y-57704774D01*
X86709744Y-57782795D01*
X86540226Y-57896063D01*
X86396063Y-58040226D01*
X86282795Y-58209744D01*
X86204774Y-58398102D01*
X86165000Y-58598061D01*
X57127000Y-58598061D01*
X57127000Y-55498061D01*
X72565000Y-55498061D01*
X72565000Y-55701939D01*
X72604774Y-55901898D01*
X72682795Y-56090256D01*
X72796063Y-56259774D01*
X72940226Y-56403937D01*
X73109744Y-56517205D01*
X73298102Y-56595226D01*
X73498061Y-56635000D01*
X73701939Y-56635000D01*
X73901898Y-56595226D01*
X74090256Y-56517205D01*
X74259774Y-56403937D01*
X74403937Y-56259774D01*
X74517205Y-56090256D01*
X74595226Y-55901898D01*
X74635000Y-55701939D01*
X74635000Y-55498061D01*
X74615109Y-55398061D01*
X86165000Y-55398061D01*
X86165000Y-55601939D01*
X86204774Y-55801898D01*
X86282795Y-55990256D01*
X86396063Y-56159774D01*
X86540226Y-56303937D01*
X86709744Y-56417205D01*
X86898102Y-56495226D01*
X87098061Y-56535000D01*
X87301939Y-56535000D01*
X87501898Y-56495226D01*
X87690256Y-56417205D01*
X87859774Y-56303937D01*
X88003937Y-56159774D01*
X88117205Y-55990256D01*
X88195226Y-55801898D01*
X88235000Y-55601939D01*
X88235000Y-55398061D01*
X88195226Y-55198102D01*
X88117205Y-55009744D01*
X88003937Y-54840226D01*
X87859774Y-54696063D01*
X87690256Y-54582795D01*
X87501898Y-54504774D01*
X87301939Y-54465000D01*
X87098061Y-54465000D01*
X86898102Y-54504774D01*
X86709744Y-54582795D01*
X86540226Y-54696063D01*
X86396063Y-54840226D01*
X86282795Y-55009744D01*
X86204774Y-55198102D01*
X86165000Y-55398061D01*
X74615109Y-55398061D01*
X74595226Y-55298102D01*
X74517205Y-55109744D01*
X74403937Y-54940226D01*
X74259774Y-54796063D01*
X74090256Y-54682795D01*
X73901898Y-54604774D01*
X73701939Y-54565000D01*
X73498061Y-54565000D01*
X73298102Y-54604774D01*
X73109744Y-54682795D01*
X72940226Y-54796063D01*
X72796063Y-54940226D01*
X72682795Y-55109744D01*
X72604774Y-55298102D01*
X72565000Y-55498061D01*
X57127000Y-55498061D01*
X57127000Y-53620865D01*
X57198061Y-53635000D01*
X57401939Y-53635000D01*
X57601898Y-53595226D01*
X57790256Y-53517205D01*
X57959774Y-53403937D01*
X57965650Y-53398061D01*
X62565000Y-53398061D01*
X62565000Y-53601939D01*
X62604774Y-53801898D01*
X62682795Y-53990256D01*
X62796063Y-54159774D01*
X62940226Y-54303937D01*
X63109744Y-54417205D01*
X63298102Y-54495226D01*
X63498061Y-54535000D01*
X63701939Y-54535000D01*
X63901898Y-54495226D01*
X64090256Y-54417205D01*
X64259774Y-54303937D01*
X64403937Y-54159774D01*
X64500000Y-54016005D01*
X64596063Y-54159774D01*
X64740226Y-54303937D01*
X64909744Y-54417205D01*
X65098102Y-54495226D01*
X65298061Y-54535000D01*
X65501939Y-54535000D01*
X65701898Y-54495226D01*
X65890256Y-54417205D01*
X66059774Y-54303937D01*
X66203937Y-54159774D01*
X66317205Y-53990256D01*
X66395226Y-53801898D01*
X66435000Y-53601939D01*
X66435000Y-53398061D01*
X79165000Y-53398061D01*
X79165000Y-53601939D01*
X79204774Y-53801898D01*
X79282795Y-53990256D01*
X79396063Y-54159774D01*
X79540226Y-54303937D01*
X79709744Y-54417205D01*
X79898102Y-54495226D01*
X80098061Y-54535000D01*
X80301939Y-54535000D01*
X80501898Y-54495226D01*
X80690256Y-54417205D01*
X80859774Y-54303937D01*
X81003937Y-54159774D01*
X81117205Y-53990256D01*
X81195226Y-53801898D01*
X81235000Y-53601939D01*
X81235000Y-53398061D01*
X81195226Y-53198102D01*
X81117205Y-53009744D01*
X81003937Y-52840226D01*
X80859774Y-52696063D01*
X80690256Y-52582795D01*
X80501898Y-52504774D01*
X80301939Y-52465000D01*
X80098061Y-52465000D01*
X79898102Y-52504774D01*
X79709744Y-52582795D01*
X79540226Y-52696063D01*
X79396063Y-52840226D01*
X79282795Y-53009744D01*
X79204774Y-53198102D01*
X79165000Y-53398061D01*
X66435000Y-53398061D01*
X66395226Y-53198102D01*
X66317205Y-53009744D01*
X66203937Y-52840226D01*
X66059774Y-52696063D01*
X65890256Y-52582795D01*
X65701898Y-52504774D01*
X65501939Y-52465000D01*
X65298061Y-52465000D01*
X65098102Y-52504774D01*
X64909744Y-52582795D01*
X64740226Y-52696063D01*
X64596063Y-52840226D01*
X64500000Y-52983995D01*
X64403937Y-52840226D01*
X64259774Y-52696063D01*
X64090256Y-52582795D01*
X63901898Y-52504774D01*
X63701939Y-52465000D01*
X63498061Y-52465000D01*
X63298102Y-52504774D01*
X63109744Y-52582795D01*
X62940226Y-52696063D01*
X62796063Y-52840226D01*
X62682795Y-53009744D01*
X62604774Y-53198102D01*
X62565000Y-53398061D01*
X57965650Y-53398061D01*
X58103937Y-53259774D01*
X58217205Y-53090256D01*
X58295226Y-52901898D01*
X58335000Y-52701939D01*
X58335000Y-52498061D01*
X58295226Y-52298102D01*
X58217205Y-52109744D01*
X58103937Y-51940226D01*
X57959774Y-51796063D01*
X57790256Y-51682795D01*
X57601898Y-51604774D01*
X57401939Y-51565000D01*
X57198061Y-51565000D01*
X57127000Y-51579135D01*
X57127000Y-51098061D01*
X58065000Y-51098061D01*
X58065000Y-51301939D01*
X58104774Y-51501898D01*
X58182795Y-51690256D01*
X58296063Y-51859774D01*
X58440226Y-52003937D01*
X58609744Y-52117205D01*
X58798102Y-52195226D01*
X58998061Y-52235000D01*
X59201939Y-52235000D01*
X59401898Y-52195226D01*
X59590256Y-52117205D01*
X59618907Y-52098061D01*
X74665000Y-52098061D01*
X74665000Y-52301939D01*
X74704774Y-52501898D01*
X74782795Y-52690256D01*
X74896063Y-52859774D01*
X75040226Y-53003937D01*
X75209744Y-53117205D01*
X75398102Y-53195226D01*
X75598061Y-53235000D01*
X75801939Y-53235000D01*
X76001898Y-53195226D01*
X76190256Y-53117205D01*
X76359774Y-53003937D01*
X76503937Y-52859774D01*
X76617205Y-52690256D01*
X76695226Y-52501898D01*
X76735000Y-52301939D01*
X76735000Y-52098061D01*
X76695226Y-51898102D01*
X76617205Y-51709744D01*
X76503937Y-51540226D01*
X76359774Y-51396063D01*
X76190256Y-51282795D01*
X76001898Y-51204774D01*
X75801939Y-51165000D01*
X75598061Y-51165000D01*
X75398102Y-51204774D01*
X75209744Y-51282795D01*
X75040226Y-51396063D01*
X74896063Y-51540226D01*
X74782795Y-51709744D01*
X74704774Y-51898102D01*
X74665000Y-52098061D01*
X59618907Y-52098061D01*
X59759774Y-52003937D01*
X59903937Y-51859774D01*
X60017205Y-51690256D01*
X60095226Y-51501898D01*
X60135000Y-51301939D01*
X60135000Y-51098061D01*
X60095226Y-50898102D01*
X60017205Y-50709744D01*
X59903937Y-50540226D01*
X59759774Y-50396063D01*
X59613104Y-50298061D01*
X64365000Y-50298061D01*
X64365000Y-50501939D01*
X64404774Y-50701898D01*
X64482795Y-50890256D01*
X64596063Y-51059774D01*
X64740226Y-51203937D01*
X64909744Y-51317205D01*
X65098102Y-51395226D01*
X65298061Y-51435000D01*
X65501939Y-51435000D01*
X65701898Y-51395226D01*
X65890256Y-51317205D01*
X66059774Y-51203937D01*
X66203937Y-51059774D01*
X66317205Y-50890256D01*
X66359473Y-50788212D01*
X79865000Y-50788212D01*
X79865000Y-51011788D01*
X79908617Y-51231067D01*
X79994176Y-51437624D01*
X80118388Y-51623520D01*
X80276480Y-51781612D01*
X80462376Y-51905824D01*
X80668933Y-51991383D01*
X80888212Y-52035000D01*
X81111788Y-52035000D01*
X81331067Y-51991383D01*
X81537624Y-51905824D01*
X81723520Y-51781612D01*
X81881612Y-51623520D01*
X82005824Y-51437624D01*
X82091383Y-51231067D01*
X82135000Y-51011788D01*
X82135000Y-50788212D01*
X82091383Y-50568933D01*
X82005824Y-50362376D01*
X81881612Y-50176480D01*
X81723520Y-50018388D01*
X81537624Y-49894176D01*
X81331067Y-49808617D01*
X81111788Y-49765000D01*
X80888212Y-49765000D01*
X80668933Y-49808617D01*
X80462376Y-49894176D01*
X80276480Y-50018388D01*
X80118388Y-50176480D01*
X79994176Y-50362376D01*
X79908617Y-50568933D01*
X79865000Y-50788212D01*
X66359473Y-50788212D01*
X66395226Y-50701898D01*
X66435000Y-50501939D01*
X66435000Y-50298061D01*
X66395226Y-50098102D01*
X66317205Y-49909744D01*
X66203937Y-49740226D01*
X66059774Y-49596063D01*
X65890256Y-49482795D01*
X65701898Y-49404774D01*
X65501939Y-49365000D01*
X65298061Y-49365000D01*
X65098102Y-49404774D01*
X64909744Y-49482795D01*
X64740226Y-49596063D01*
X64596063Y-49740226D01*
X64482795Y-49909744D01*
X64404774Y-50098102D01*
X64365000Y-50298061D01*
X59613104Y-50298061D01*
X59590256Y-50282795D01*
X59401898Y-50204774D01*
X59201939Y-50165000D01*
X58998061Y-50165000D01*
X58798102Y-50204774D01*
X58609744Y-50282795D01*
X58440226Y-50396063D01*
X58296063Y-50540226D01*
X58182795Y-50709744D01*
X58104774Y-50898102D01*
X58065000Y-51098061D01*
X57127000Y-51098061D01*
X57127000Y-50235000D01*
X57201939Y-50235000D01*
X57401898Y-50195226D01*
X57590256Y-50117205D01*
X57759774Y-50003937D01*
X57903937Y-49859774D01*
X58017205Y-49690256D01*
X58095226Y-49501898D01*
X58135000Y-49301939D01*
X58135000Y-49098061D01*
X58095226Y-48898102D01*
X58017205Y-48709744D01*
X57903937Y-48540226D01*
X57759774Y-48396063D01*
X57590256Y-48282795D01*
X57401898Y-48204774D01*
X57201939Y-48165000D01*
X57127000Y-48165000D01*
X57127000Y-45000000D01*
X57124560Y-44975224D01*
X57117333Y-44951399D01*
X57105597Y-44929443D01*
X57089803Y-44910197D01*
X57070557Y-44894403D01*
X57048601Y-44882667D01*
X57024776Y-44875440D01*
X57000000Y-44873000D01*
X52530015Y-44873000D01*
X52495226Y-44698102D01*
X52417205Y-44509744D01*
X52377285Y-44450000D01*
X52417205Y-44390256D01*
X52495226Y-44201898D01*
X52535000Y-44001939D01*
X52535000Y-43798061D01*
X52495226Y-43598102D01*
X52417205Y-43409744D01*
X52303937Y-43240226D01*
X52159774Y-43096063D01*
X52127000Y-43074164D01*
X52127000Y-39136711D01*
X52136711Y-39127000D01*
X55932032Y-39127000D01*
X57871707Y-42036513D01*
X57804774Y-42198102D01*
X57765000Y-42398061D01*
X57765000Y-42601939D01*
X57804774Y-42801898D01*
X57882795Y-42990256D01*
X57996063Y-43159774D01*
X58140226Y-43303937D01*
X58309744Y-43417205D01*
X58498102Y-43495226D01*
X58698061Y-43535000D01*
X58901939Y-43535000D01*
X59101898Y-43495226D01*
X59290256Y-43417205D01*
X59459774Y-43303937D01*
X59603937Y-43159774D01*
X59717205Y-42990256D01*
X59795226Y-42801898D01*
X59835000Y-42601939D01*
X59835000Y-42398061D01*
X59795226Y-42198102D01*
X59765774Y-42127000D01*
X65504958Y-42127000D01*
X65502167Y-42129791D01*
X65388899Y-42299309D01*
X65310878Y-42487667D01*
X65271104Y-42687626D01*
X65271104Y-42891504D01*
X65310878Y-43091463D01*
X65319393Y-43112021D01*
X65301898Y-43104774D01*
X65101939Y-43065000D01*
X64898061Y-43065000D01*
X64698102Y-43104774D01*
X64509744Y-43182795D01*
X64340226Y-43296063D01*
X64196063Y-43440226D01*
X64082795Y-43609744D01*
X64004774Y-43798102D01*
X63965000Y-43998061D01*
X63965000Y-44201939D01*
X64004774Y-44401898D01*
X64082795Y-44590256D01*
X64122715Y-44650000D01*
X64082795Y-44709744D01*
X64004774Y-44898102D01*
X63965000Y-45098061D01*
X63965000Y-45301939D01*
X64004774Y-45501898D01*
X64082795Y-45690256D01*
X64156123Y-45800000D01*
X64082795Y-45909744D01*
X64004774Y-46098102D01*
X63965000Y-46298061D01*
X63965000Y-46501939D01*
X64004774Y-46701898D01*
X64082795Y-46890256D01*
X64196063Y-47059774D01*
X64301289Y-47165000D01*
X64198061Y-47165000D01*
X63998102Y-47204774D01*
X63809744Y-47282795D01*
X63640226Y-47396063D01*
X63496063Y-47540226D01*
X63382795Y-47709744D01*
X63304774Y-47898102D01*
X63265000Y-48098061D01*
X63265000Y-48301939D01*
X63304774Y-48501898D01*
X63382795Y-48690256D01*
X63496063Y-48859774D01*
X63640226Y-49003937D01*
X63809744Y-49117205D01*
X63998102Y-49195226D01*
X64198061Y-49235000D01*
X64401939Y-49235000D01*
X64601898Y-49195226D01*
X64790256Y-49117205D01*
X64959774Y-49003937D01*
X65103937Y-48859774D01*
X65217205Y-48690256D01*
X65295226Y-48501898D01*
X65335000Y-48301939D01*
X65335000Y-48098061D01*
X65295226Y-47898102D01*
X65217205Y-47709744D01*
X65103937Y-47540226D01*
X64998711Y-47435000D01*
X65101939Y-47435000D01*
X65301898Y-47395226D01*
X65490256Y-47317205D01*
X65659774Y-47203937D01*
X65803937Y-47059774D01*
X65917205Y-46890256D01*
X65995226Y-46701898D01*
X66035000Y-46501939D01*
X66035000Y-46298061D01*
X65995226Y-46098102D01*
X65917205Y-45909744D01*
X65843877Y-45800000D01*
X65911989Y-45698061D01*
X75365000Y-45698061D01*
X75365000Y-45901939D01*
X75404774Y-46101898D01*
X75482795Y-46290256D01*
X75556123Y-46400000D01*
X75482795Y-46509744D01*
X75404774Y-46698102D01*
X75365000Y-46898061D01*
X75365000Y-47101939D01*
X75404774Y-47301898D01*
X75482795Y-47490256D01*
X75596063Y-47659774D01*
X75740226Y-47803937D01*
X75909744Y-47917205D01*
X76098102Y-47995226D01*
X76298061Y-48035000D01*
X76501939Y-48035000D01*
X76701898Y-47995226D01*
X76890256Y-47917205D01*
X77059774Y-47803937D01*
X77203937Y-47659774D01*
X77317205Y-47490256D01*
X77395226Y-47301898D01*
X77435000Y-47101939D01*
X77435000Y-46898061D01*
X77395226Y-46698102D01*
X77317205Y-46509744D01*
X77243877Y-46400000D01*
X77317205Y-46290256D01*
X77395226Y-46101898D01*
X77417839Y-45988212D01*
X79865000Y-45988212D01*
X79865000Y-46211788D01*
X79908617Y-46431067D01*
X79994176Y-46637624D01*
X80118388Y-46823520D01*
X80276480Y-46981612D01*
X80462376Y-47105824D01*
X80668933Y-47191383D01*
X80888212Y-47235000D01*
X81111788Y-47235000D01*
X81331067Y-47191383D01*
X81537624Y-47105824D01*
X81723520Y-46981612D01*
X81881612Y-46823520D01*
X82005824Y-46637624D01*
X82091383Y-46431067D01*
X82135000Y-46211788D01*
X82135000Y-45988212D01*
X82091383Y-45768933D01*
X82005824Y-45562376D01*
X81897328Y-45400000D01*
X86911928Y-45400000D01*
X86911928Y-47100000D01*
X86924188Y-47224482D01*
X86960498Y-47344180D01*
X87019463Y-47454494D01*
X87098815Y-47551185D01*
X87195506Y-47630537D01*
X87305820Y-47689502D01*
X87378380Y-47711513D01*
X87246525Y-47843368D01*
X87084010Y-48086589D01*
X86972068Y-48356842D01*
X86915000Y-48643740D01*
X86915000Y-48936260D01*
X86972068Y-49223158D01*
X87084010Y-49493411D01*
X87246525Y-49736632D01*
X87453368Y-49943475D01*
X87696589Y-50105990D01*
X87966842Y-50217932D01*
X88253740Y-50275000D01*
X88546260Y-50275000D01*
X88833158Y-50217932D01*
X89103411Y-50105990D01*
X89346632Y-49943475D01*
X89553475Y-49736632D01*
X89715990Y-49493411D01*
X89827932Y-49223158D01*
X89885000Y-48936260D01*
X89885000Y-48643740D01*
X89827932Y-48356842D01*
X89715990Y-48086589D01*
X89553475Y-47843368D01*
X89421620Y-47711513D01*
X89494180Y-47689502D01*
X89604494Y-47630537D01*
X89701185Y-47551185D01*
X89780537Y-47454494D01*
X89839502Y-47344180D01*
X89875812Y-47224482D01*
X89888072Y-47100000D01*
X89888072Y-45400000D01*
X89875812Y-45275518D01*
X89839502Y-45155820D01*
X89780537Y-45045506D01*
X89701185Y-44948815D01*
X89604494Y-44869463D01*
X89494180Y-44810498D01*
X89374482Y-44774188D01*
X89250000Y-44761928D01*
X87550000Y-44761928D01*
X87425518Y-44774188D01*
X87305820Y-44810498D01*
X87195506Y-44869463D01*
X87098815Y-44948815D01*
X87019463Y-45045506D01*
X86960498Y-45155820D01*
X86924188Y-45275518D01*
X86911928Y-45400000D01*
X81897328Y-45400000D01*
X81881612Y-45376480D01*
X81723520Y-45218388D01*
X81537624Y-45094176D01*
X81331067Y-45008617D01*
X81111788Y-44965000D01*
X80888212Y-44965000D01*
X80668933Y-45008617D01*
X80462376Y-45094176D01*
X80276480Y-45218388D01*
X80118388Y-45376480D01*
X79994176Y-45562376D01*
X79908617Y-45768933D01*
X79865000Y-45988212D01*
X77417839Y-45988212D01*
X77435000Y-45901939D01*
X77435000Y-45698061D01*
X77395226Y-45498102D01*
X77317205Y-45309744D01*
X77203937Y-45140226D01*
X77059774Y-44996063D01*
X76890256Y-44882795D01*
X76701898Y-44804774D01*
X76501939Y-44765000D01*
X76298061Y-44765000D01*
X76098102Y-44804774D01*
X75909744Y-44882795D01*
X75740226Y-44996063D01*
X75596063Y-45140226D01*
X75482795Y-45309744D01*
X75404774Y-45498102D01*
X75365000Y-45698061D01*
X65911989Y-45698061D01*
X65917205Y-45690256D01*
X65995226Y-45501898D01*
X66035000Y-45301939D01*
X66035000Y-45098061D01*
X65995226Y-44898102D01*
X65917205Y-44709744D01*
X65877285Y-44650000D01*
X65917205Y-44590256D01*
X65995226Y-44401898D01*
X66035000Y-44201939D01*
X66035000Y-43998061D01*
X65995226Y-43798102D01*
X65986711Y-43777544D01*
X66004206Y-43784791D01*
X66204165Y-43824565D01*
X66408043Y-43824565D01*
X66608002Y-43784791D01*
X66796360Y-43706770D01*
X66884300Y-43648011D01*
X66940226Y-43703937D01*
X67109744Y-43817205D01*
X67298102Y-43895226D01*
X67498061Y-43935000D01*
X67701939Y-43935000D01*
X67901898Y-43895226D01*
X68090256Y-43817205D01*
X68104591Y-43807627D01*
X68174572Y-43877608D01*
X68344090Y-43990876D01*
X68532448Y-44068897D01*
X68732407Y-44108671D01*
X68936285Y-44108671D01*
X69136244Y-44068897D01*
X69324602Y-43990876D01*
X69494120Y-43877608D01*
X69604009Y-43767720D01*
X69640226Y-43803937D01*
X69809744Y-43917205D01*
X69998102Y-43995226D01*
X70198061Y-44035000D01*
X70401939Y-44035000D01*
X70601898Y-43995226D01*
X70790256Y-43917205D01*
X70950000Y-43810468D01*
X71109744Y-43917205D01*
X71298102Y-43995226D01*
X71498061Y-44035000D01*
X71701939Y-44035000D01*
X71901898Y-43995226D01*
X72090256Y-43917205D01*
X72259774Y-43803937D01*
X72403937Y-43659774D01*
X72517205Y-43490256D01*
X72595226Y-43301898D01*
X72635000Y-43101939D01*
X72635000Y-42998061D01*
X76965000Y-42998061D01*
X76965000Y-43201939D01*
X77004774Y-43401898D01*
X77082795Y-43590256D01*
X77196063Y-43759774D01*
X77340226Y-43903937D01*
X77509744Y-44017205D01*
X77698102Y-44095226D01*
X77898061Y-44135000D01*
X78101939Y-44135000D01*
X78301898Y-44095226D01*
X78490256Y-44017205D01*
X78659774Y-43903937D01*
X78803937Y-43759774D01*
X78917205Y-43590256D01*
X78995226Y-43401898D01*
X79035000Y-43201939D01*
X79035000Y-42998061D01*
X78995226Y-42798102D01*
X78917205Y-42609744D01*
X78803937Y-42440226D01*
X78659774Y-42296063D01*
X78490256Y-42182795D01*
X78301898Y-42104774D01*
X78101939Y-42065000D01*
X77898061Y-42065000D01*
X77698102Y-42104774D01*
X77509744Y-42182795D01*
X77340226Y-42296063D01*
X77196063Y-42440226D01*
X77082795Y-42609744D01*
X77004774Y-42798102D01*
X76965000Y-42998061D01*
X72635000Y-42998061D01*
X72635000Y-42898061D01*
X72595226Y-42698102D01*
X72517205Y-42509744D01*
X72403937Y-42340226D01*
X72259774Y-42196063D01*
X72090256Y-42082795D01*
X71901898Y-42004774D01*
X71701939Y-41965000D01*
X71498061Y-41965000D01*
X71298102Y-42004774D01*
X71109744Y-42082795D01*
X70950000Y-42189532D01*
X70856414Y-42127000D01*
X71000000Y-42127000D01*
X71024776Y-42124560D01*
X71048601Y-42117333D01*
X71070557Y-42105597D01*
X71089803Y-42089803D01*
X71105597Y-42070557D01*
X71117333Y-42048601D01*
X71124560Y-42024776D01*
X71127000Y-42000000D01*
X71127000Y-39898061D01*
X73565000Y-39898061D01*
X73565000Y-40101939D01*
X73604774Y-40301898D01*
X73682795Y-40490256D01*
X73796063Y-40659774D01*
X73940226Y-40803937D01*
X74109744Y-40917205D01*
X74298102Y-40995226D01*
X74498061Y-41035000D01*
X74701939Y-41035000D01*
X74901898Y-40995226D01*
X75090256Y-40917205D01*
X75259774Y-40803937D01*
X75403937Y-40659774D01*
X75517205Y-40490256D01*
X75595226Y-40301898D01*
X75635000Y-40101939D01*
X75635000Y-39898061D01*
X75595226Y-39698102D01*
X75517205Y-39509744D01*
X75403937Y-39340226D01*
X75259774Y-39196063D01*
X75090256Y-39082795D01*
X74901898Y-39004774D01*
X74701939Y-38965000D01*
X74498061Y-38965000D01*
X74298102Y-39004774D01*
X74109744Y-39082795D01*
X73940226Y-39196063D01*
X73796063Y-39340226D01*
X73682795Y-39509744D01*
X73604774Y-39698102D01*
X73565000Y-39898061D01*
X71127000Y-39898061D01*
X71127000Y-37127000D01*
X75000000Y-37127000D01*
X75024776Y-37124560D01*
X75048601Y-37117333D01*
X75070557Y-37105597D01*
X75089803Y-37089803D01*
X75105597Y-37070557D01*
X75117333Y-37048601D01*
X75124560Y-37024776D01*
X75127000Y-37000000D01*
X75127000Y-30000000D01*
X75124560Y-29975224D01*
X75117333Y-29951399D01*
X75105597Y-29929443D01*
X75089803Y-29910197D01*
X75070557Y-29894403D01*
X75048601Y-29882667D01*
X75024776Y-29875440D01*
X75000000Y-29873000D01*
X65000000Y-29873000D01*
X64975224Y-29875440D01*
X64951399Y-29882667D01*
X64929443Y-29894403D01*
X64910197Y-29910197D01*
X64894403Y-29929443D01*
X64882667Y-29951399D01*
X64875440Y-29975224D01*
X64873000Y-30000000D01*
X64873000Y-36173000D01*
X61127000Y-36173000D01*
X61127000Y-30000000D01*
X61124560Y-29975224D01*
X61117333Y-29951399D01*
X61105597Y-29929443D01*
X61089803Y-29910197D01*
X61070557Y-29894403D01*
X61048601Y-29882667D01*
X61024776Y-29875440D01*
X61000000Y-29873000D01*
X49127000Y-29873000D01*
X49127000Y-27798061D01*
X58165000Y-27798061D01*
X58165000Y-28001939D01*
X58204774Y-28201898D01*
X58282795Y-28390256D01*
X58396063Y-28559774D01*
X58540226Y-28703937D01*
X58709744Y-28817205D01*
X58898102Y-28895226D01*
X59098061Y-28935000D01*
X59301939Y-28935000D01*
X59501898Y-28895226D01*
X59690256Y-28817205D01*
X59859774Y-28703937D01*
X60003937Y-28559774D01*
X60117205Y-28390256D01*
X60195226Y-28201898D01*
X60235000Y-28001939D01*
X60235000Y-27798061D01*
X60195226Y-27598102D01*
X60117205Y-27409744D01*
X60003937Y-27240226D01*
X59961772Y-27198061D01*
X65165000Y-27198061D01*
X65165000Y-27401939D01*
X65204774Y-27601898D01*
X65282795Y-27790256D01*
X65396063Y-27959774D01*
X65540226Y-28103937D01*
X65709744Y-28217205D01*
X65898102Y-28295226D01*
X66098061Y-28335000D01*
X66301939Y-28335000D01*
X66501898Y-28295226D01*
X66690256Y-28217205D01*
X66859774Y-28103937D01*
X66900000Y-28063711D01*
X67040226Y-28203937D01*
X67209744Y-28317205D01*
X67398102Y-28395226D01*
X67598061Y-28435000D01*
X67801939Y-28435000D01*
X68001898Y-28395226D01*
X68190256Y-28317205D01*
X68359774Y-28203937D01*
X68503937Y-28059774D01*
X68617205Y-27890256D01*
X68695226Y-27701898D01*
X68735000Y-27501939D01*
X68735000Y-27298061D01*
X68695226Y-27098102D01*
X68617205Y-26909744D01*
X68503937Y-26740226D01*
X68359774Y-26596063D01*
X68190256Y-26482795D01*
X68001898Y-26404774D01*
X67801939Y-26365000D01*
X67598061Y-26365000D01*
X67398102Y-26404774D01*
X67209744Y-26482795D01*
X67040226Y-26596063D01*
X67000000Y-26636289D01*
X66859774Y-26496063D01*
X66690256Y-26382795D01*
X66501898Y-26304774D01*
X66301939Y-26265000D01*
X66098061Y-26265000D01*
X65898102Y-26304774D01*
X65709744Y-26382795D01*
X65540226Y-26496063D01*
X65396063Y-26640226D01*
X65282795Y-26809744D01*
X65204774Y-26998102D01*
X65165000Y-27198061D01*
X59961772Y-27198061D01*
X59859774Y-27096063D01*
X59690256Y-26982795D01*
X59501898Y-26904774D01*
X59301939Y-26865000D01*
X59098061Y-26865000D01*
X58898102Y-26904774D01*
X58709744Y-26982795D01*
X58540226Y-27096063D01*
X58396063Y-27240226D01*
X58282795Y-27409744D01*
X58204774Y-27598102D01*
X58165000Y-27798061D01*
X49127000Y-27798061D01*
X49127000Y-25513945D01*
X93140000Y-25513945D01*
X93140000Y-26486055D01*
X93329650Y-27439486D01*
X93701660Y-28337599D01*
X94241735Y-29145879D01*
X94929121Y-29833265D01*
X95737401Y-30373340D01*
X96635514Y-30745350D01*
X97588945Y-30935000D01*
X98561055Y-30935000D01*
X99514486Y-30745350D01*
X100412599Y-30373340D01*
X101220879Y-29833265D01*
X101908265Y-29145879D01*
X102448340Y-28337599D01*
X102820350Y-27439486D01*
X103010000Y-26486055D01*
X103010000Y-25513945D01*
X102820350Y-24560514D01*
X102448340Y-23662401D01*
X101908265Y-22854121D01*
X101220879Y-22166735D01*
X100412599Y-21626660D01*
X99514486Y-21254650D01*
X98561055Y-21065000D01*
X97588945Y-21065000D01*
X96635514Y-21254650D01*
X95737401Y-21626660D01*
X94929121Y-22166735D01*
X94241735Y-22854121D01*
X93701660Y-23662401D01*
X93329650Y-24560514D01*
X93140000Y-25513945D01*
X49127000Y-25513945D01*
X49127000Y-24542765D01*
X49236589Y-24615990D01*
X49506842Y-24727932D01*
X49793740Y-24785000D01*
X50086260Y-24785000D01*
X50373158Y-24727932D01*
X50643411Y-24615990D01*
X50886632Y-24453475D01*
X51093475Y-24246632D01*
X51210000Y-24072240D01*
X51326525Y-24246632D01*
X51533368Y-24453475D01*
X51776589Y-24615990D01*
X52046842Y-24727932D01*
X52333740Y-24785000D01*
X52626260Y-24785000D01*
X52913158Y-24727932D01*
X53183411Y-24615990D01*
X53426632Y-24453475D01*
X53633475Y-24246632D01*
X53750000Y-24072240D01*
X53866525Y-24246632D01*
X54073368Y-24453475D01*
X54316589Y-24615990D01*
X54586842Y-24727932D01*
X54873740Y-24785000D01*
X55166260Y-24785000D01*
X55453158Y-24727932D01*
X55723411Y-24615990D01*
X55966632Y-24453475D01*
X56173475Y-24246632D01*
X56335990Y-24003411D01*
X56447932Y-23733158D01*
X56505000Y-23446260D01*
X56505000Y-23153740D01*
X56447932Y-22866842D01*
X56335990Y-22596589D01*
X56238043Y-22450000D01*
X57711928Y-22450000D01*
X57711928Y-24150000D01*
X57724188Y-24274482D01*
X57760498Y-24394180D01*
X57819463Y-24504494D01*
X57898815Y-24601185D01*
X57995506Y-24680537D01*
X58105820Y-24739502D01*
X58225518Y-24775812D01*
X58350000Y-24788072D01*
X60050000Y-24788072D01*
X60174482Y-24775812D01*
X60294180Y-24739502D01*
X60404494Y-24680537D01*
X60501185Y-24601185D01*
X60580537Y-24504494D01*
X60639502Y-24394180D01*
X60661513Y-24321620D01*
X60793368Y-24453475D01*
X61036589Y-24615990D01*
X61306842Y-24727932D01*
X61593740Y-24785000D01*
X61886260Y-24785000D01*
X62173158Y-24727932D01*
X62443411Y-24615990D01*
X62686632Y-24453475D01*
X62893475Y-24246632D01*
X63055990Y-24003411D01*
X63167932Y-23733158D01*
X63225000Y-23446260D01*
X63225000Y-23153740D01*
X63167932Y-22866842D01*
X63055990Y-22596589D01*
X62958043Y-22450000D01*
X64386928Y-22450000D01*
X64386928Y-24150000D01*
X64399188Y-24274482D01*
X64435498Y-24394180D01*
X64494463Y-24504494D01*
X64573815Y-24601185D01*
X64670506Y-24680537D01*
X64780820Y-24739502D01*
X64900518Y-24775812D01*
X65025000Y-24788072D01*
X66725000Y-24788072D01*
X66849482Y-24775812D01*
X66969180Y-24739502D01*
X67079494Y-24680537D01*
X67176185Y-24601185D01*
X67255537Y-24504494D01*
X67314502Y-24394180D01*
X67336513Y-24321620D01*
X67468368Y-24453475D01*
X67711589Y-24615990D01*
X67981842Y-24727932D01*
X68268740Y-24785000D01*
X68561260Y-24785000D01*
X68848158Y-24727932D01*
X69118411Y-24615990D01*
X69361632Y-24453475D01*
X69568475Y-24246632D01*
X69599633Y-24200000D01*
X71371928Y-24200000D01*
X71384188Y-24324482D01*
X71420498Y-24444180D01*
X71479463Y-24554494D01*
X71558815Y-24651185D01*
X71655506Y-24730537D01*
X71765820Y-24789502D01*
X71885518Y-24825812D01*
X72010000Y-24838072D01*
X72574250Y-24835000D01*
X72733000Y-24676250D01*
X72733000Y-23477000D01*
X71533750Y-23477000D01*
X71375000Y-23635750D01*
X71371928Y-24200000D01*
X69599633Y-24200000D01*
X69730990Y-24003411D01*
X69842932Y-23733158D01*
X69900000Y-23446260D01*
X69900000Y-23153740D01*
X69842932Y-22866842D01*
X69730990Y-22596589D01*
X69666452Y-22500000D01*
X71371928Y-22500000D01*
X71375000Y-23064250D01*
X71533750Y-23223000D01*
X72733000Y-23223000D01*
X72733000Y-22023750D01*
X72987000Y-22023750D01*
X72987000Y-23223000D01*
X73007000Y-23223000D01*
X73007000Y-23477000D01*
X72987000Y-23477000D01*
X72987000Y-24676250D01*
X73145750Y-24835000D01*
X73710000Y-24838072D01*
X73834482Y-24825812D01*
X73954180Y-24789502D01*
X74064494Y-24730537D01*
X74161185Y-24651185D01*
X74240537Y-24554494D01*
X74299502Y-24444180D01*
X74321513Y-24371620D01*
X74453368Y-24503475D01*
X74696589Y-24665990D01*
X74966842Y-24777932D01*
X75253740Y-24835000D01*
X75546260Y-24835000D01*
X75833158Y-24777932D01*
X76103411Y-24665990D01*
X76346632Y-24503475D01*
X76553475Y-24296632D01*
X76715990Y-24053411D01*
X76827932Y-23783158D01*
X76885000Y-23496260D01*
X76885000Y-23203740D01*
X76827932Y-22916842D01*
X76715990Y-22646589D01*
X76553475Y-22403368D01*
X76346632Y-22196525D01*
X76103411Y-22034010D01*
X75833158Y-21922068D01*
X75546260Y-21865000D01*
X75253740Y-21865000D01*
X74966842Y-21922068D01*
X74696589Y-22034010D01*
X74453368Y-22196525D01*
X74321513Y-22328380D01*
X74299502Y-22255820D01*
X74240537Y-22145506D01*
X74161185Y-22048815D01*
X74064494Y-21969463D01*
X73954180Y-21910498D01*
X73834482Y-21874188D01*
X73710000Y-21861928D01*
X73145750Y-21865000D01*
X72987000Y-22023750D01*
X72733000Y-22023750D01*
X72574250Y-21865000D01*
X72010000Y-21861928D01*
X71885518Y-21874188D01*
X71765820Y-21910498D01*
X71655506Y-21969463D01*
X71558815Y-22048815D01*
X71479463Y-22145506D01*
X71420498Y-22255820D01*
X71384188Y-22375518D01*
X71371928Y-22500000D01*
X69666452Y-22500000D01*
X69568475Y-22353368D01*
X69361632Y-22146525D01*
X69118411Y-21984010D01*
X68848158Y-21872068D01*
X68561260Y-21815000D01*
X68268740Y-21815000D01*
X67981842Y-21872068D01*
X67711589Y-21984010D01*
X67468368Y-22146525D01*
X67336513Y-22278380D01*
X67314502Y-22205820D01*
X67255537Y-22095506D01*
X67176185Y-21998815D01*
X67079494Y-21919463D01*
X66969180Y-21860498D01*
X66849482Y-21824188D01*
X66725000Y-21811928D01*
X65025000Y-21811928D01*
X64900518Y-21824188D01*
X64780820Y-21860498D01*
X64670506Y-21919463D01*
X64573815Y-21998815D01*
X64494463Y-22095506D01*
X64435498Y-22205820D01*
X64399188Y-22325518D01*
X64386928Y-22450000D01*
X62958043Y-22450000D01*
X62893475Y-22353368D01*
X62686632Y-22146525D01*
X62443411Y-21984010D01*
X62173158Y-21872068D01*
X61886260Y-21815000D01*
X61593740Y-21815000D01*
X61306842Y-21872068D01*
X61036589Y-21984010D01*
X60793368Y-22146525D01*
X60661513Y-22278380D01*
X60639502Y-22205820D01*
X60580537Y-22095506D01*
X60501185Y-21998815D01*
X60404494Y-21919463D01*
X60294180Y-21860498D01*
X60174482Y-21824188D01*
X60050000Y-21811928D01*
X58350000Y-21811928D01*
X58225518Y-21824188D01*
X58105820Y-21860498D01*
X57995506Y-21919463D01*
X57898815Y-21998815D01*
X57819463Y-22095506D01*
X57760498Y-22205820D01*
X57724188Y-22325518D01*
X57711928Y-22450000D01*
X56238043Y-22450000D01*
X56173475Y-22353368D01*
X55966632Y-22146525D01*
X55723411Y-21984010D01*
X55453158Y-21872068D01*
X55166260Y-21815000D01*
X54873740Y-21815000D01*
X54586842Y-21872068D01*
X54316589Y-21984010D01*
X54073368Y-22146525D01*
X53866525Y-22353368D01*
X53750000Y-22527760D01*
X53633475Y-22353368D01*
X53426632Y-22146525D01*
X53183411Y-21984010D01*
X52913158Y-21872068D01*
X52626260Y-21815000D01*
X52333740Y-21815000D01*
X52046842Y-21872068D01*
X51776589Y-21984010D01*
X51533368Y-22146525D01*
X51326525Y-22353368D01*
X51210000Y-22527760D01*
X51093475Y-22353368D01*
X50886632Y-22146525D01*
X50643411Y-21984010D01*
X50373158Y-21872068D01*
X50086260Y-21815000D01*
X49793740Y-21815000D01*
X49506842Y-21872068D01*
X49236589Y-21984010D01*
X49127000Y-22057235D01*
X49127000Y-20660000D01*
X98047911Y-20660000D01*
X98946797Y-20733902D01*
G37*
X98946797Y-20733902D02*
X99795182Y-20947001D01*
X100597371Y-21295803D01*
X101331818Y-21770938D01*
X101978798Y-22359646D01*
X102520946Y-23046125D01*
X102943692Y-23811928D01*
X103235684Y-24636491D01*
X103391116Y-25509076D01*
X103415000Y-26015547D01*
X103415001Y-73972899D01*
X103341098Y-74871802D01*
X103127999Y-75720180D01*
X102779197Y-76522371D01*
X102304062Y-77256818D01*
X101715354Y-77903799D01*
X101028875Y-78445946D01*
X100263076Y-78868691D01*
X99438514Y-79160683D01*
X98565925Y-79316116D01*
X98059453Y-79340000D01*
X31127000Y-79340000D01*
X31127000Y-77288212D01*
X32365000Y-77288212D01*
X32365000Y-77511788D01*
X32408617Y-77731067D01*
X32494176Y-77937624D01*
X32618388Y-78123520D01*
X32776480Y-78281612D01*
X32962376Y-78405824D01*
X33168933Y-78491383D01*
X33388212Y-78535000D01*
X33611788Y-78535000D01*
X33831067Y-78491383D01*
X34037624Y-78405824D01*
X34223520Y-78281612D01*
X34381612Y-78123520D01*
X34505824Y-77937624D01*
X34591383Y-77731067D01*
X34635000Y-77511788D01*
X34635000Y-77288212D01*
X34591383Y-77068933D01*
X34505824Y-76862376D01*
X34381612Y-76676480D01*
X34223520Y-76518388D01*
X34037624Y-76394176D01*
X33831067Y-76308617D01*
X33611788Y-76265000D01*
X33388212Y-76265000D01*
X33168933Y-76308617D01*
X32962376Y-76394176D01*
X32776480Y-76518388D01*
X32618388Y-76676480D01*
X32494176Y-76862376D01*
X32408617Y-77068933D01*
X32365000Y-77288212D01*
X31127000Y-77288212D01*
X31127000Y-76000000D01*
X71761928Y-76000000D01*
X71761928Y-77600000D01*
X71774188Y-77724482D01*
X71810498Y-77844180D01*
X71869463Y-77954494D01*
X71948815Y-78051185D01*
X72045506Y-78130537D01*
X72155820Y-78189502D01*
X72275518Y-78225812D01*
X72400000Y-78238072D01*
X74000000Y-78238072D01*
X74124482Y-78225812D01*
X74244180Y-78189502D01*
X74354494Y-78130537D01*
X74451185Y-78051185D01*
X74530537Y-77954494D01*
X74589502Y-77844180D01*
X74625812Y-77724482D01*
X74638072Y-77600000D01*
X74638072Y-76000000D01*
X74625812Y-75875518D01*
X74589502Y-75755820D01*
X74530537Y-75645506D01*
X74451185Y-75548815D01*
X74391704Y-75500000D01*
X78986928Y-75500000D01*
X78986928Y-77200000D01*
X78999188Y-77324482D01*
X79035498Y-77444180D01*
X79094463Y-77554494D01*
X79173815Y-77651185D01*
X79270506Y-77730537D01*
X79380820Y-77789502D01*
X79500518Y-77825812D01*
X79625000Y-77838072D01*
X81325000Y-77838072D01*
X81449482Y-77825812D01*
X81569180Y-77789502D01*
X81679494Y-77730537D01*
X81776185Y-77651185D01*
X81855537Y-77554494D01*
X81914502Y-77444180D01*
X81936513Y-77371620D01*
X82068368Y-77503475D01*
X82311589Y-77665990D01*
X82581842Y-77777932D01*
X82868740Y-77835000D01*
X83161260Y-77835000D01*
X83448158Y-77777932D01*
X83718411Y-77665990D01*
X83961632Y-77503475D01*
X84168475Y-77296632D01*
X84330990Y-77053411D01*
X84442932Y-76783158D01*
X84500000Y-76496260D01*
X84500000Y-76203740D01*
X84442932Y-75916842D01*
X84330990Y-75646589D01*
X84168475Y-75403368D01*
X83961632Y-75196525D01*
X83718411Y-75034010D01*
X83448158Y-74922068D01*
X83161260Y-74865000D01*
X82868740Y-74865000D01*
X82581842Y-74922068D01*
X82311589Y-75034010D01*
X82068368Y-75196525D01*
X81936513Y-75328380D01*
X81914502Y-75255820D01*
X81855537Y-75145506D01*
X81776185Y-75048815D01*
X81679494Y-74969463D01*
X81569180Y-74910498D01*
X81449482Y-74874188D01*
X81325000Y-74861928D01*
X79625000Y-74861928D01*
X79500518Y-74874188D01*
X79380820Y-74910498D01*
X79270506Y-74969463D01*
X79173815Y-75048815D01*
X79094463Y-75145506D01*
X79035498Y-75255820D01*
X78999188Y-75375518D01*
X78986928Y-75500000D01*
X74391704Y-75500000D01*
X74354494Y-75469463D01*
X74244180Y-75410498D01*
X74124482Y-75374188D01*
X74000000Y-75361928D01*
X72400000Y-75361928D01*
X72275518Y-75374188D01*
X72155820Y-75410498D01*
X72045506Y-75469463D01*
X71948815Y-75548815D01*
X71869463Y-75645506D01*
X71810498Y-75755820D01*
X71774188Y-75875518D01*
X71761928Y-76000000D01*
X31127000Y-76000000D01*
X31127000Y-72488212D01*
X32365000Y-72488212D01*
X32365000Y-72711788D01*
X32408617Y-72931067D01*
X32494176Y-73137624D01*
X32618388Y-73323520D01*
X32776480Y-73481612D01*
X32962376Y-73605824D01*
X33168933Y-73691383D01*
X33388212Y-73735000D01*
X33611788Y-73735000D01*
X33831067Y-73691383D01*
X34037624Y-73605824D01*
X34175130Y-73513945D01*
X93140000Y-73513945D01*
X93140000Y-74486055D01*
X93329650Y-75439486D01*
X93701660Y-76337599D01*
X94241735Y-77145879D01*
X94929121Y-77833265D01*
X95737401Y-78373340D01*
X96635514Y-78745350D01*
X97588945Y-78935000D01*
X98561055Y-78935000D01*
X99514486Y-78745350D01*
X100412599Y-78373340D01*
X101220879Y-77833265D01*
X101908265Y-77145879D01*
X102448340Y-76337599D01*
X102820350Y-75439486D01*
X103010000Y-74486055D01*
X103010000Y-73513945D01*
X102820350Y-72560514D01*
X102448340Y-71662401D01*
X101908265Y-70854121D01*
X101220879Y-70166735D01*
X100412599Y-69626660D01*
X99514486Y-69254650D01*
X98561055Y-69065000D01*
X97588945Y-69065000D01*
X96635514Y-69254650D01*
X95737401Y-69626660D01*
X94929121Y-70166735D01*
X94241735Y-70854121D01*
X93701660Y-71662401D01*
X93329650Y-72560514D01*
X93140000Y-73513945D01*
X34175130Y-73513945D01*
X34223520Y-73481612D01*
X34381612Y-73323520D01*
X34505824Y-73137624D01*
X34591383Y-72931067D01*
X34635000Y-72711788D01*
X34635000Y-72488212D01*
X34591383Y-72268933D01*
X34505824Y-72062376D01*
X34381612Y-71876480D01*
X34223520Y-71718388D01*
X34037624Y-71594176D01*
X33831067Y-71508617D01*
X33611788Y-71465000D01*
X33388212Y-71465000D01*
X33168933Y-71508617D01*
X32962376Y-71594176D01*
X32776480Y-71718388D01*
X32618388Y-71876480D01*
X32494176Y-72062376D01*
X32408617Y-72268933D01*
X32365000Y-72488212D01*
X31127000Y-72488212D01*
X31127000Y-68298061D01*
X34565000Y-68298061D01*
X34565000Y-68501939D01*
X34604774Y-68701898D01*
X34682795Y-68890256D01*
X34796063Y-69059774D01*
X34940226Y-69203937D01*
X35109744Y-69317205D01*
X35298102Y-69395226D01*
X35498061Y-69435000D01*
X35701939Y-69435000D01*
X35901898Y-69395226D01*
X36090256Y-69317205D01*
X36259774Y-69203937D01*
X36403937Y-69059774D01*
X36517205Y-68890256D01*
X36595226Y-68701898D01*
X36635000Y-68501939D01*
X36635000Y-68298061D01*
X38665000Y-68298061D01*
X38665000Y-68501939D01*
X38704774Y-68701898D01*
X38782795Y-68890256D01*
X38896063Y-69059774D01*
X39040226Y-69203937D01*
X39209744Y-69317205D01*
X39398102Y-69395226D01*
X39598061Y-69435000D01*
X39801939Y-69435000D01*
X40001898Y-69395226D01*
X40190256Y-69317205D01*
X40359774Y-69203937D01*
X40503937Y-69059774D01*
X40518041Y-69038665D01*
X71765000Y-69038665D01*
X71765000Y-69321335D01*
X71820147Y-69598574D01*
X71928320Y-69859727D01*
X72085363Y-70094759D01*
X72285241Y-70294637D01*
X72520273Y-70451680D01*
X72781426Y-70559853D01*
X73058665Y-70615000D01*
X73341335Y-70615000D01*
X73618574Y-70559853D01*
X73879727Y-70451680D01*
X74114759Y-70294637D01*
X74314637Y-70094759D01*
X74471680Y-69859727D01*
X74579853Y-69598574D01*
X74635000Y-69321335D01*
X74635000Y-69038665D01*
X74579853Y-68761426D01*
X74471680Y-68500273D01*
X74314637Y-68265241D01*
X74114759Y-68065363D01*
X73879727Y-67908320D01*
X73618574Y-67800147D01*
X73341335Y-67745000D01*
X73058665Y-67745000D01*
X72781426Y-67800147D01*
X72520273Y-67908320D01*
X72285241Y-68065363D01*
X72085363Y-68265241D01*
X71928320Y-68500273D01*
X71820147Y-68761426D01*
X71765000Y-69038665D01*
X40518041Y-69038665D01*
X40617205Y-68890256D01*
X40695226Y-68701898D01*
X40735000Y-68501939D01*
X40735000Y-68298061D01*
X40695226Y-68098102D01*
X40617205Y-67909744D01*
X40591875Y-67871836D01*
X40603937Y-67859774D01*
X40717205Y-67690256D01*
X40795226Y-67501898D01*
X40835000Y-67301939D01*
X40835000Y-67098061D01*
X40795226Y-66898102D01*
X40717205Y-66709744D01*
X40603937Y-66540226D01*
X40459774Y-66396063D01*
X40290256Y-66282795D01*
X40101898Y-66204774D01*
X39901939Y-66165000D01*
X39698061Y-66165000D01*
X39498102Y-66204774D01*
X39309744Y-66282795D01*
X39140226Y-66396063D01*
X38996063Y-66540226D01*
X38882795Y-66709744D01*
X38804774Y-66898102D01*
X38765000Y-67098061D01*
X38765000Y-67301939D01*
X38804774Y-67501898D01*
X38882795Y-67690256D01*
X38908125Y-67728164D01*
X38896063Y-67740226D01*
X38782795Y-67909744D01*
X38704774Y-68098102D01*
X38665000Y-68298061D01*
X36635000Y-68298061D01*
X36595226Y-68098102D01*
X36556365Y-68004283D01*
X36601898Y-67995226D01*
X36790256Y-67917205D01*
X36959774Y-67803937D01*
X37103937Y-67659774D01*
X37217205Y-67490256D01*
X37295226Y-67301898D01*
X37335000Y-67101939D01*
X37335000Y-66898061D01*
X37295226Y-66698102D01*
X37217205Y-66509744D01*
X37103937Y-66340226D01*
X37091875Y-66328164D01*
X37117205Y-66290256D01*
X37195226Y-66101898D01*
X37235000Y-65901939D01*
X37235000Y-65698061D01*
X37233041Y-65688212D01*
X46965000Y-65688212D01*
X46965000Y-65911788D01*
X47008617Y-66131067D01*
X47094176Y-66337624D01*
X47218388Y-66523520D01*
X47376480Y-66681612D01*
X47562376Y-66805824D01*
X47768933Y-66891383D01*
X47988212Y-66935000D01*
X48211788Y-66935000D01*
X48431067Y-66891383D01*
X48637624Y-66805824D01*
X48823520Y-66681612D01*
X48981612Y-66523520D01*
X49105824Y-66337624D01*
X49191383Y-66131067D01*
X49235000Y-65911788D01*
X49235000Y-65688212D01*
X49215109Y-65588212D01*
X53365000Y-65588212D01*
X53365000Y-65811788D01*
X53408617Y-66031067D01*
X53494176Y-66237624D01*
X53618388Y-66423520D01*
X53776480Y-66581612D01*
X53962376Y-66705824D01*
X54168933Y-66791383D01*
X54388212Y-66835000D01*
X54611788Y-66835000D01*
X54831067Y-66791383D01*
X55037624Y-66705824D01*
X55223520Y-66581612D01*
X55381612Y-66423520D01*
X55505824Y-66237624D01*
X55591383Y-66031067D01*
X55635000Y-65811788D01*
X55635000Y-65588212D01*
X55591383Y-65368933D01*
X55505824Y-65162376D01*
X55381612Y-64976480D01*
X55223520Y-64818388D01*
X55037624Y-64694176D01*
X54831067Y-64608617D01*
X54611788Y-64565000D01*
X54388212Y-64565000D01*
X54168933Y-64608617D01*
X53962376Y-64694176D01*
X53776480Y-64818388D01*
X53618388Y-64976480D01*
X53494176Y-65162376D01*
X53408617Y-65368933D01*
X53365000Y-65588212D01*
X49215109Y-65588212D01*
X49191383Y-65468933D01*
X49105824Y-65262376D01*
X48981612Y-65076480D01*
X48823520Y-64918388D01*
X48637624Y-64794176D01*
X48431067Y-64708617D01*
X48211788Y-64665000D01*
X47988212Y-64665000D01*
X47768933Y-64708617D01*
X47562376Y-64794176D01*
X47376480Y-64918388D01*
X47218388Y-65076480D01*
X47094176Y-65262376D01*
X47008617Y-65468933D01*
X46965000Y-65688212D01*
X37233041Y-65688212D01*
X37195226Y-65498102D01*
X37117205Y-65309744D01*
X37003937Y-65140226D01*
X36859774Y-64996063D01*
X36690256Y-64882795D01*
X36501898Y-64804774D01*
X36301939Y-64765000D01*
X36098061Y-64765000D01*
X35898102Y-64804774D01*
X35709744Y-64882795D01*
X35540226Y-64996063D01*
X35396063Y-65140226D01*
X35282795Y-65309744D01*
X35204774Y-65498102D01*
X35165000Y-65698061D01*
X35165000Y-65901939D01*
X35204774Y-66101898D01*
X35282795Y-66290256D01*
X35396063Y-66459774D01*
X35408125Y-66471836D01*
X35382795Y-66509744D01*
X35304774Y-66698102D01*
X35265000Y-66898061D01*
X35265000Y-67101939D01*
X35304774Y-67301898D01*
X35343635Y-67395717D01*
X35298102Y-67404774D01*
X35109744Y-67482795D01*
X34940226Y-67596063D01*
X34796063Y-67740226D01*
X34682795Y-67909744D01*
X34604774Y-68098102D01*
X34565000Y-68298061D01*
X31127000Y-68298061D01*
X31127000Y-63988212D01*
X45065000Y-63988212D01*
X45065000Y-64211788D01*
X45108617Y-64431067D01*
X45194176Y-64637624D01*
X45318388Y-64823520D01*
X45476480Y-64981612D01*
X45662376Y-65105824D01*
X45868933Y-65191383D01*
X46088212Y-65235000D01*
X46311788Y-65235000D01*
X46531067Y-65191383D01*
X46737624Y-65105824D01*
X46923520Y-64981612D01*
X47081612Y-64823520D01*
X47205824Y-64637624D01*
X47291383Y-64431067D01*
X47335000Y-64211788D01*
X47335000Y-63988212D01*
X47291383Y-63768933D01*
X47205824Y-63562376D01*
X47081612Y-63376480D01*
X46923520Y-63218388D01*
X46737624Y-63094176D01*
X46531067Y-63008617D01*
X46311788Y-62965000D01*
X46088212Y-62965000D01*
X45868933Y-63008617D01*
X45662376Y-63094176D01*
X45476480Y-63218388D01*
X45318388Y-63376480D01*
X45194176Y-63562376D01*
X45108617Y-63768933D01*
X45065000Y-63988212D01*
X31127000Y-63988212D01*
X31127000Y-56798061D01*
X43365000Y-56798061D01*
X43365000Y-57001939D01*
X43404774Y-57201898D01*
X43482795Y-57390256D01*
X43596063Y-57559774D01*
X43740226Y-57703937D01*
X43909744Y-57817205D01*
X44098102Y-57895226D01*
X44298061Y-57935000D01*
X44501939Y-57935000D01*
X44701898Y-57895226D01*
X44890256Y-57817205D01*
X45059774Y-57703937D01*
X45203937Y-57559774D01*
X45317205Y-57390256D01*
X45395226Y-57201898D01*
X45435000Y-57001939D01*
X45435000Y-56798061D01*
X45403823Y-56641322D01*
X45459774Y-56603937D01*
X45603937Y-56459774D01*
X45717205Y-56290256D01*
X45795226Y-56101898D01*
X45835000Y-55901939D01*
X45835000Y-55698061D01*
X45795226Y-55498102D01*
X45717205Y-55309744D01*
X45603937Y-55140226D01*
X45459774Y-54996063D01*
X45290256Y-54882795D01*
X45101898Y-54804774D01*
X44901939Y-54765000D01*
X44698061Y-54765000D01*
X44498102Y-54804774D01*
X44309744Y-54882795D01*
X44140226Y-54996063D01*
X43996063Y-55140226D01*
X43882795Y-55309744D01*
X43804774Y-55498102D01*
X43765000Y-55698061D01*
X43765000Y-55901939D01*
X43796177Y-56058678D01*
X43740226Y-56096063D01*
X43596063Y-56240226D01*
X43482795Y-56409744D01*
X43404774Y-56598102D01*
X43365000Y-56798061D01*
X31127000Y-56798061D01*
X31127000Y-55548061D01*
X39465000Y-55548061D01*
X39465000Y-55751939D01*
X39504774Y-55951898D01*
X39582795Y-56140256D01*
X39696063Y-56309774D01*
X39840226Y-56453937D01*
X40009744Y-56567205D01*
X40198102Y-56645226D01*
X40398061Y-56685000D01*
X40601939Y-56685000D01*
X40801898Y-56645226D01*
X40990256Y-56567205D01*
X41159774Y-56453937D01*
X41303937Y-56309774D01*
X41417205Y-56140256D01*
X41495226Y-55951898D01*
X41535000Y-55751939D01*
X41535000Y-55548061D01*
X41495226Y-55348102D01*
X41417205Y-55159744D01*
X41303937Y-54990226D01*
X41159774Y-54846063D01*
X40990256Y-54732795D01*
X40801898Y-54654774D01*
X40601939Y-54615000D01*
X40398061Y-54615000D01*
X40198102Y-54654774D01*
X40009744Y-54732795D01*
X39840226Y-54846063D01*
X39696063Y-54990226D01*
X39582795Y-55159744D01*
X39504774Y-55348102D01*
X39465000Y-55548061D01*
X31127000Y-55548061D01*
X31127000Y-50598061D01*
X34365000Y-50598061D01*
X34365000Y-50801939D01*
X34404774Y-51001898D01*
X34482795Y-51190256D01*
X34596063Y-51359774D01*
X34740226Y-51503937D01*
X34909744Y-51617205D01*
X35098102Y-51695226D01*
X35298061Y-51735000D01*
X35501939Y-51735000D01*
X35701898Y-51695226D01*
X35890256Y-51617205D01*
X36059774Y-51503937D01*
X36203937Y-51359774D01*
X36317205Y-51190256D01*
X36395226Y-51001898D01*
X36435000Y-50801939D01*
X36435000Y-50598061D01*
X36415109Y-50498061D01*
X39365000Y-50498061D01*
X39365000Y-50701939D01*
X39404774Y-50901898D01*
X39482795Y-51090256D01*
X39589532Y-51250000D01*
X39482795Y-51409744D01*
X39404774Y-51598102D01*
X39365000Y-51798061D01*
X39365000Y-52001939D01*
X39404774Y-52201898D01*
X39482795Y-52390256D01*
X39596063Y-52559774D01*
X39740226Y-52703937D01*
X39909744Y-52817205D01*
X40098102Y-52895226D01*
X40298061Y-52935000D01*
X40501939Y-52935000D01*
X40701898Y-52895226D01*
X40890256Y-52817205D01*
X41059774Y-52703937D01*
X41203937Y-52559774D01*
X41317205Y-52390256D01*
X41395226Y-52201898D01*
X41435000Y-52001939D01*
X41435000Y-51798061D01*
X41395226Y-51598102D01*
X41317205Y-51409744D01*
X41210468Y-51250000D01*
X41317205Y-51090256D01*
X41395226Y-50901898D01*
X41435000Y-50701939D01*
X41435000Y-50498061D01*
X41395226Y-50298102D01*
X41317205Y-50109744D01*
X41203937Y-49940226D01*
X41059774Y-49796063D01*
X40890256Y-49682795D01*
X40701898Y-49604774D01*
X40501939Y-49565000D01*
X40298061Y-49565000D01*
X40098102Y-49604774D01*
X39909744Y-49682795D01*
X39740226Y-49796063D01*
X39596063Y-49940226D01*
X39482795Y-50109744D01*
X39404774Y-50298102D01*
X39365000Y-50498061D01*
X36415109Y-50498061D01*
X36395226Y-50398102D01*
X36317205Y-50209744D01*
X36251821Y-50111890D01*
X36303937Y-50059774D01*
X36417205Y-49890256D01*
X36495226Y-49701898D01*
X36535000Y-49501939D01*
X36535000Y-49298061D01*
X36495226Y-49098102D01*
X36417205Y-48909744D01*
X36303937Y-48740226D01*
X36159774Y-48596063D01*
X35990256Y-48482795D01*
X35801898Y-48404774D01*
X35601939Y-48365000D01*
X35398061Y-48365000D01*
X35198102Y-48404774D01*
X35009744Y-48482795D01*
X34840226Y-48596063D01*
X34696063Y-48740226D01*
X34582795Y-48909744D01*
X34504774Y-49098102D01*
X34465000Y-49298061D01*
X34465000Y-49501939D01*
X34504774Y-49701898D01*
X34582795Y-49890256D01*
X34648179Y-49988110D01*
X34596063Y-50040226D01*
X34482795Y-50209744D01*
X34404774Y-50398102D01*
X34365000Y-50598061D01*
X31127000Y-50598061D01*
X31127000Y-49235000D01*
X31211788Y-49235000D01*
X31431067Y-49191383D01*
X31637624Y-49105824D01*
X31823520Y-48981612D01*
X31981612Y-48823520D01*
X32105824Y-48637624D01*
X32191383Y-48431067D01*
X32235000Y-48211788D01*
X32235000Y-47988212D01*
X32191383Y-47768933D01*
X32105824Y-47562376D01*
X31981612Y-47376480D01*
X31823520Y-47218388D01*
X31637624Y-47094176D01*
X31431067Y-47008617D01*
X31211788Y-46965000D01*
X31127000Y-46965000D01*
X31127000Y-40398061D01*
X39565000Y-40398061D01*
X39565000Y-40601939D01*
X39604774Y-40801898D01*
X39682795Y-40990256D01*
X39796063Y-41159774D01*
X39940226Y-41303937D01*
X40109744Y-41417205D01*
X40298102Y-41495226D01*
X40498061Y-41535000D01*
X40701939Y-41535000D01*
X40901898Y-41495226D01*
X41090256Y-41417205D01*
X41259774Y-41303937D01*
X41403937Y-41159774D01*
X41517205Y-40990256D01*
X41595226Y-40801898D01*
X41635000Y-40601939D01*
X41635000Y-40398061D01*
X41595226Y-40198102D01*
X41517205Y-40009744D01*
X41403937Y-39840226D01*
X41259774Y-39696063D01*
X41090256Y-39582795D01*
X40901898Y-39504774D01*
X40701939Y-39465000D01*
X40498061Y-39465000D01*
X40298102Y-39504774D01*
X40109744Y-39582795D01*
X39940226Y-39696063D01*
X39796063Y-39840226D01*
X39682795Y-40009744D01*
X39604774Y-40198102D01*
X39565000Y-40398061D01*
X31127000Y-40398061D01*
X31127000Y-35898061D01*
X32265000Y-35898061D01*
X32265000Y-36101939D01*
X32304774Y-36301898D01*
X32382795Y-36490256D01*
X32496063Y-36659774D01*
X32640226Y-36803937D01*
X32809744Y-36917205D01*
X32998102Y-36995226D01*
X33198061Y-37035000D01*
X33401939Y-37035000D01*
X33601898Y-36995226D01*
X33790256Y-36917205D01*
X33959774Y-36803937D01*
X34103937Y-36659774D01*
X34217205Y-36490256D01*
X34295226Y-36301898D01*
X34335000Y-36101939D01*
X34335000Y-35898061D01*
X34295226Y-35698102D01*
X34217205Y-35509744D01*
X34103937Y-35340226D01*
X33959774Y-35196063D01*
X33790256Y-35082795D01*
X33601898Y-35004774D01*
X33401939Y-34965000D01*
X33198061Y-34965000D01*
X32998102Y-35004774D01*
X32809744Y-35082795D01*
X32640226Y-35196063D01*
X32496063Y-35340226D01*
X32382795Y-35509744D01*
X32304774Y-35698102D01*
X32265000Y-35898061D01*
X31127000Y-35898061D01*
X31127000Y-35124354D01*
X31298098Y-35195226D01*
X31498057Y-35235000D01*
X31701935Y-35235000D01*
X31901894Y-35195226D01*
X32090252Y-35117205D01*
X32259770Y-35003937D01*
X32403933Y-34859774D01*
X32517201Y-34690256D01*
X32595222Y-34501898D01*
X32634996Y-34301939D01*
X32634996Y-34098061D01*
X32595222Y-33898102D01*
X32517201Y-33709744D01*
X32403933Y-33540226D01*
X32259770Y-33396063D01*
X32090252Y-33282795D01*
X31901894Y-33204774D01*
X31701935Y-33165000D01*
X31498057Y-33165000D01*
X31298098Y-33204774D01*
X31127000Y-33275646D01*
X31127000Y-32798061D01*
X33665000Y-32798061D01*
X33665000Y-33001939D01*
X33704774Y-33201898D01*
X33782795Y-33390256D01*
X33896063Y-33559774D01*
X34040226Y-33703937D01*
X34209744Y-33817205D01*
X34398102Y-33895226D01*
X34598061Y-33935000D01*
X34801939Y-33935000D01*
X35001898Y-33895226D01*
X35190256Y-33817205D01*
X35359774Y-33703937D01*
X35503937Y-33559774D01*
X35617205Y-33390256D01*
X35695226Y-33201898D01*
X35735000Y-33001939D01*
X35735000Y-32798061D01*
X35695226Y-32598102D01*
X35617205Y-32409744D01*
X35503937Y-32240226D01*
X35359774Y-32096063D01*
X35190256Y-31982795D01*
X35001898Y-31904774D01*
X34801939Y-31865000D01*
X34598061Y-31865000D01*
X34398102Y-31904774D01*
X34209744Y-31982795D01*
X34040226Y-32096063D01*
X33896063Y-32240226D01*
X33782795Y-32409744D01*
X33704774Y-32598102D01*
X33665000Y-32798061D01*
X31127000Y-32798061D01*
X31127000Y-29927000D01*
X39673000Y-29927000D01*
X39673000Y-35533391D01*
X39604774Y-35698102D01*
X39565000Y-35898061D01*
X39565000Y-36101939D01*
X39604774Y-36301898D01*
X39673000Y-36466609D01*
X39673000Y-36600000D01*
X39675440Y-36624776D01*
X39682667Y-36648601D01*
X39694403Y-36670557D01*
X39710197Y-36689803D01*
X39729443Y-36705597D01*
X39751399Y-36717333D01*
X39775224Y-36724560D01*
X39800000Y-36727000D01*
X39863289Y-36727000D01*
X39940226Y-36803937D01*
X40109744Y-36917205D01*
X40298102Y-36995226D01*
X40498061Y-37035000D01*
X40701939Y-37035000D01*
X40901898Y-36995226D01*
X41090256Y-36917205D01*
X41259774Y-36803937D01*
X41336711Y-36727000D01*
X43973000Y-36727000D01*
X43973000Y-38289876D01*
X43898102Y-38304774D01*
X43709744Y-38382795D01*
X43540226Y-38496063D01*
X43396063Y-38640226D01*
X43282795Y-38809744D01*
X43204774Y-38998102D01*
X43165000Y-39198061D01*
X43165000Y-39401939D01*
X43204774Y-39601898D01*
X43282795Y-39790256D01*
X43396063Y-39959774D01*
X43540226Y-40103937D01*
X43709744Y-40217205D01*
X43898102Y-40295226D01*
X43973000Y-40310124D01*
X43973000Y-47274164D01*
X43940226Y-47296063D01*
X43796063Y-47440226D01*
X43682795Y-47609744D01*
X43604774Y-47798102D01*
X43565000Y-47998061D01*
X43565000Y-48201939D01*
X43604774Y-48401898D01*
X43682795Y-48590256D01*
X43796063Y-48759774D01*
X43940226Y-48903937D01*
X43973000Y-48925836D01*
X43973000Y-52000000D01*
X43975440Y-52024776D01*
X43982667Y-52048601D01*
X43994403Y-52070557D01*
X44010197Y-52089803D01*
X44029443Y-52105597D01*
X44051399Y-52117333D01*
X44075224Y-52124560D01*
X44100000Y-52127000D01*
X49873000Y-52127000D01*
X49873000Y-60000000D01*
X49875440Y-60024776D01*
X49882667Y-60048601D01*
X49894403Y-60070557D01*
X49910197Y-60089803D01*
X49929443Y-60105597D01*
X49951399Y-60117333D01*
X49975224Y-60124560D01*
X50000000Y-60127000D01*
X50465000Y-60127000D01*
X50465000Y-60301939D01*
X50504774Y-60501898D01*
X50582795Y-60690256D01*
X50696063Y-60859774D01*
X50840226Y-61003937D01*
X51009744Y-61117205D01*
X51198102Y-61195226D01*
X51398061Y-61235000D01*
X51601939Y-61235000D01*
X51801898Y-61195226D01*
X51990256Y-61117205D01*
X52159774Y-61003937D01*
X52303937Y-60859774D01*
X52417205Y-60690256D01*
X52495226Y-60501898D01*
X52535000Y-60301939D01*
X52535000Y-60127000D01*
X55444444Y-60127000D01*
X55309744Y-60182795D01*
X55140226Y-60296063D01*
X54996063Y-60440226D01*
X54882795Y-60609744D01*
X54804774Y-60798102D01*
X54765000Y-60998061D01*
X54765000Y-61201939D01*
X54804774Y-61401898D01*
X54882795Y-61590256D01*
X54922715Y-61650000D01*
X54882795Y-61709744D01*
X54804774Y-61898102D01*
X54765000Y-62098061D01*
X54765000Y-62301939D01*
X54804774Y-62501898D01*
X54882795Y-62690256D01*
X54996063Y-62859774D01*
X55140226Y-63003937D01*
X55309744Y-63117205D01*
X55498102Y-63195226D01*
X55698061Y-63235000D01*
X55901939Y-63235000D01*
X56101898Y-63195226D01*
X56290256Y-63117205D01*
X56459774Y-63003937D01*
X56603937Y-62859774D01*
X56717205Y-62690256D01*
X56795226Y-62501898D01*
X56835000Y-62301939D01*
X56835000Y-62098061D01*
X56795226Y-61898102D01*
X56717205Y-61709744D01*
X56677285Y-61650000D01*
X56717205Y-61590256D01*
X56795226Y-61401898D01*
X56835000Y-61201939D01*
X56835000Y-60998061D01*
X56795226Y-60798102D01*
X56717205Y-60609744D01*
X56603937Y-60440226D01*
X56459774Y-60296063D01*
X56290256Y-60182795D01*
X56155556Y-60127000D01*
X57000000Y-60127000D01*
X57024776Y-60124560D01*
X57048601Y-60117333D01*
X57070557Y-60105597D01*
X57089803Y-60089803D01*
X57105597Y-60070557D01*
X57117333Y-60048601D01*
X57124560Y-60024776D01*
X57127000Y-60000000D01*
X57127000Y-58598061D01*
X86165000Y-58598061D01*
X86165000Y-58801939D01*
X86204774Y-59001898D01*
X86282795Y-59190256D01*
X86396063Y-59359774D01*
X86540226Y-59503937D01*
X86709744Y-59617205D01*
X86898102Y-59695226D01*
X87098061Y-59735000D01*
X87301939Y-59735000D01*
X87501898Y-59695226D01*
X87690256Y-59617205D01*
X87859774Y-59503937D01*
X88003937Y-59359774D01*
X88117205Y-59190256D01*
X88195226Y-59001898D01*
X88235000Y-58801939D01*
X88235000Y-58598061D01*
X88195226Y-58398102D01*
X88117205Y-58209744D01*
X88003937Y-58040226D01*
X87859774Y-57896063D01*
X87690256Y-57782795D01*
X87501898Y-57704774D01*
X87301939Y-57665000D01*
X87098061Y-57665000D01*
X86898102Y-57704774D01*
X86709744Y-57782795D01*
X86540226Y-57896063D01*
X86396063Y-58040226D01*
X86282795Y-58209744D01*
X86204774Y-58398102D01*
X86165000Y-58598061D01*
X57127000Y-58598061D01*
X57127000Y-55498061D01*
X72565000Y-55498061D01*
X72565000Y-55701939D01*
X72604774Y-55901898D01*
X72682795Y-56090256D01*
X72796063Y-56259774D01*
X72940226Y-56403937D01*
X73109744Y-56517205D01*
X73298102Y-56595226D01*
X73498061Y-56635000D01*
X73701939Y-56635000D01*
X73901898Y-56595226D01*
X74090256Y-56517205D01*
X74259774Y-56403937D01*
X74403937Y-56259774D01*
X74517205Y-56090256D01*
X74595226Y-55901898D01*
X74635000Y-55701939D01*
X74635000Y-55498061D01*
X74615109Y-55398061D01*
X86165000Y-55398061D01*
X86165000Y-55601939D01*
X86204774Y-55801898D01*
X86282795Y-55990256D01*
X86396063Y-56159774D01*
X86540226Y-56303937D01*
X86709744Y-56417205D01*
X86898102Y-56495226D01*
X87098061Y-56535000D01*
X87301939Y-56535000D01*
X87501898Y-56495226D01*
X87690256Y-56417205D01*
X87859774Y-56303937D01*
X88003937Y-56159774D01*
X88117205Y-55990256D01*
X88195226Y-55801898D01*
X88235000Y-55601939D01*
X88235000Y-55398061D01*
X88195226Y-55198102D01*
X88117205Y-55009744D01*
X88003937Y-54840226D01*
X87859774Y-54696063D01*
X87690256Y-54582795D01*
X87501898Y-54504774D01*
X87301939Y-54465000D01*
X87098061Y-54465000D01*
X86898102Y-54504774D01*
X86709744Y-54582795D01*
X86540226Y-54696063D01*
X86396063Y-54840226D01*
X86282795Y-55009744D01*
X86204774Y-55198102D01*
X86165000Y-55398061D01*
X74615109Y-55398061D01*
X74595226Y-55298102D01*
X74517205Y-55109744D01*
X74403937Y-54940226D01*
X74259774Y-54796063D01*
X74090256Y-54682795D01*
X73901898Y-54604774D01*
X73701939Y-54565000D01*
X73498061Y-54565000D01*
X73298102Y-54604774D01*
X73109744Y-54682795D01*
X72940226Y-54796063D01*
X72796063Y-54940226D01*
X72682795Y-55109744D01*
X72604774Y-55298102D01*
X72565000Y-55498061D01*
X57127000Y-55498061D01*
X57127000Y-53620865D01*
X57198061Y-53635000D01*
X57401939Y-53635000D01*
X57601898Y-53595226D01*
X57790256Y-53517205D01*
X57959774Y-53403937D01*
X57965650Y-53398061D01*
X62565000Y-53398061D01*
X62565000Y-53601939D01*
X62604774Y-53801898D01*
X62682795Y-53990256D01*
X62796063Y-54159774D01*
X62940226Y-54303937D01*
X63109744Y-54417205D01*
X63298102Y-54495226D01*
X63498061Y-54535000D01*
X63701939Y-54535000D01*
X63901898Y-54495226D01*
X64090256Y-54417205D01*
X64259774Y-54303937D01*
X64403937Y-54159774D01*
X64500000Y-54016005D01*
X64596063Y-54159774D01*
X64740226Y-54303937D01*
X64909744Y-54417205D01*
X65098102Y-54495226D01*
X65298061Y-54535000D01*
X65501939Y-54535000D01*
X65701898Y-54495226D01*
X65890256Y-54417205D01*
X66059774Y-54303937D01*
X66203937Y-54159774D01*
X66317205Y-53990256D01*
X66395226Y-53801898D01*
X66435000Y-53601939D01*
X66435000Y-53398061D01*
X79165000Y-53398061D01*
X79165000Y-53601939D01*
X79204774Y-53801898D01*
X79282795Y-53990256D01*
X79396063Y-54159774D01*
X79540226Y-54303937D01*
X79709744Y-54417205D01*
X79898102Y-54495226D01*
X80098061Y-54535000D01*
X80301939Y-54535000D01*
X80501898Y-54495226D01*
X80690256Y-54417205D01*
X80859774Y-54303937D01*
X81003937Y-54159774D01*
X81117205Y-53990256D01*
X81195226Y-53801898D01*
X81235000Y-53601939D01*
X81235000Y-53398061D01*
X81195226Y-53198102D01*
X81117205Y-53009744D01*
X81003937Y-52840226D01*
X80859774Y-52696063D01*
X80690256Y-52582795D01*
X80501898Y-52504774D01*
X80301939Y-52465000D01*
X80098061Y-52465000D01*
X79898102Y-52504774D01*
X79709744Y-52582795D01*
X79540226Y-52696063D01*
X79396063Y-52840226D01*
X79282795Y-53009744D01*
X79204774Y-53198102D01*
X79165000Y-53398061D01*
X66435000Y-53398061D01*
X66395226Y-53198102D01*
X66317205Y-53009744D01*
X66203937Y-52840226D01*
X66059774Y-52696063D01*
X65890256Y-52582795D01*
X65701898Y-52504774D01*
X65501939Y-52465000D01*
X65298061Y-52465000D01*
X65098102Y-52504774D01*
X64909744Y-52582795D01*
X64740226Y-52696063D01*
X64596063Y-52840226D01*
X64500000Y-52983995D01*
X64403937Y-52840226D01*
X64259774Y-52696063D01*
X64090256Y-52582795D01*
X63901898Y-52504774D01*
X63701939Y-52465000D01*
X63498061Y-52465000D01*
X63298102Y-52504774D01*
X63109744Y-52582795D01*
X62940226Y-52696063D01*
X62796063Y-52840226D01*
X62682795Y-53009744D01*
X62604774Y-53198102D01*
X62565000Y-53398061D01*
X57965650Y-53398061D01*
X58103937Y-53259774D01*
X58217205Y-53090256D01*
X58295226Y-52901898D01*
X58335000Y-52701939D01*
X58335000Y-52498061D01*
X58295226Y-52298102D01*
X58217205Y-52109744D01*
X58103937Y-51940226D01*
X57959774Y-51796063D01*
X57790256Y-51682795D01*
X57601898Y-51604774D01*
X57401939Y-51565000D01*
X57198061Y-51565000D01*
X57127000Y-51579135D01*
X57127000Y-51098061D01*
X58065000Y-51098061D01*
X58065000Y-51301939D01*
X58104774Y-51501898D01*
X58182795Y-51690256D01*
X58296063Y-51859774D01*
X58440226Y-52003937D01*
X58609744Y-52117205D01*
X58798102Y-52195226D01*
X58998061Y-52235000D01*
X59201939Y-52235000D01*
X59401898Y-52195226D01*
X59590256Y-52117205D01*
X59618907Y-52098061D01*
X74665000Y-52098061D01*
X74665000Y-52301939D01*
X74704774Y-52501898D01*
X74782795Y-52690256D01*
X74896063Y-52859774D01*
X75040226Y-53003937D01*
X75209744Y-53117205D01*
X75398102Y-53195226D01*
X75598061Y-53235000D01*
X75801939Y-53235000D01*
X76001898Y-53195226D01*
X76190256Y-53117205D01*
X76359774Y-53003937D01*
X76503937Y-52859774D01*
X76617205Y-52690256D01*
X76695226Y-52501898D01*
X76735000Y-52301939D01*
X76735000Y-52098061D01*
X76695226Y-51898102D01*
X76617205Y-51709744D01*
X76503937Y-51540226D01*
X76359774Y-51396063D01*
X76190256Y-51282795D01*
X76001898Y-51204774D01*
X75801939Y-51165000D01*
X75598061Y-51165000D01*
X75398102Y-51204774D01*
X75209744Y-51282795D01*
X75040226Y-51396063D01*
X74896063Y-51540226D01*
X74782795Y-51709744D01*
X74704774Y-51898102D01*
X74665000Y-52098061D01*
X59618907Y-52098061D01*
X59759774Y-52003937D01*
X59903937Y-51859774D01*
X60017205Y-51690256D01*
X60095226Y-51501898D01*
X60135000Y-51301939D01*
X60135000Y-51098061D01*
X60095226Y-50898102D01*
X60017205Y-50709744D01*
X59903937Y-50540226D01*
X59759774Y-50396063D01*
X59613104Y-50298061D01*
X64365000Y-50298061D01*
X64365000Y-50501939D01*
X64404774Y-50701898D01*
X64482795Y-50890256D01*
X64596063Y-51059774D01*
X64740226Y-51203937D01*
X64909744Y-51317205D01*
X65098102Y-51395226D01*
X65298061Y-51435000D01*
X65501939Y-51435000D01*
X65701898Y-51395226D01*
X65890256Y-51317205D01*
X66059774Y-51203937D01*
X66203937Y-51059774D01*
X66317205Y-50890256D01*
X66359473Y-50788212D01*
X79865000Y-50788212D01*
X79865000Y-51011788D01*
X79908617Y-51231067D01*
X79994176Y-51437624D01*
X80118388Y-51623520D01*
X80276480Y-51781612D01*
X80462376Y-51905824D01*
X80668933Y-51991383D01*
X80888212Y-52035000D01*
X81111788Y-52035000D01*
X81331067Y-51991383D01*
X81537624Y-51905824D01*
X81723520Y-51781612D01*
X81881612Y-51623520D01*
X82005824Y-51437624D01*
X82091383Y-51231067D01*
X82135000Y-51011788D01*
X82135000Y-50788212D01*
X82091383Y-50568933D01*
X82005824Y-50362376D01*
X81881612Y-50176480D01*
X81723520Y-50018388D01*
X81537624Y-49894176D01*
X81331067Y-49808617D01*
X81111788Y-49765000D01*
X80888212Y-49765000D01*
X80668933Y-49808617D01*
X80462376Y-49894176D01*
X80276480Y-50018388D01*
X80118388Y-50176480D01*
X79994176Y-50362376D01*
X79908617Y-50568933D01*
X79865000Y-50788212D01*
X66359473Y-50788212D01*
X66395226Y-50701898D01*
X66435000Y-50501939D01*
X66435000Y-50298061D01*
X66395226Y-50098102D01*
X66317205Y-49909744D01*
X66203937Y-49740226D01*
X66059774Y-49596063D01*
X65890256Y-49482795D01*
X65701898Y-49404774D01*
X65501939Y-49365000D01*
X65298061Y-49365000D01*
X65098102Y-49404774D01*
X64909744Y-49482795D01*
X64740226Y-49596063D01*
X64596063Y-49740226D01*
X64482795Y-49909744D01*
X64404774Y-50098102D01*
X64365000Y-50298061D01*
X59613104Y-50298061D01*
X59590256Y-50282795D01*
X59401898Y-50204774D01*
X59201939Y-50165000D01*
X58998061Y-50165000D01*
X58798102Y-50204774D01*
X58609744Y-50282795D01*
X58440226Y-50396063D01*
X58296063Y-50540226D01*
X58182795Y-50709744D01*
X58104774Y-50898102D01*
X58065000Y-51098061D01*
X57127000Y-51098061D01*
X57127000Y-50235000D01*
X57201939Y-50235000D01*
X57401898Y-50195226D01*
X57590256Y-50117205D01*
X57759774Y-50003937D01*
X57903937Y-49859774D01*
X58017205Y-49690256D01*
X58095226Y-49501898D01*
X58135000Y-49301939D01*
X58135000Y-49098061D01*
X58095226Y-48898102D01*
X58017205Y-48709744D01*
X57903937Y-48540226D01*
X57759774Y-48396063D01*
X57590256Y-48282795D01*
X57401898Y-48204774D01*
X57201939Y-48165000D01*
X57127000Y-48165000D01*
X57127000Y-45000000D01*
X57124560Y-44975224D01*
X57117333Y-44951399D01*
X57105597Y-44929443D01*
X57089803Y-44910197D01*
X57070557Y-44894403D01*
X57048601Y-44882667D01*
X57024776Y-44875440D01*
X57000000Y-44873000D01*
X52530015Y-44873000D01*
X52495226Y-44698102D01*
X52417205Y-44509744D01*
X52377285Y-44450000D01*
X52417205Y-44390256D01*
X52495226Y-44201898D01*
X52535000Y-44001939D01*
X52535000Y-43798061D01*
X52495226Y-43598102D01*
X52417205Y-43409744D01*
X52303937Y-43240226D01*
X52159774Y-43096063D01*
X52127000Y-43074164D01*
X52127000Y-39136711D01*
X52136711Y-39127000D01*
X55932032Y-39127000D01*
X57871707Y-42036513D01*
X57804774Y-42198102D01*
X57765000Y-42398061D01*
X57765000Y-42601939D01*
X57804774Y-42801898D01*
X57882795Y-42990256D01*
X57996063Y-43159774D01*
X58140226Y-43303937D01*
X58309744Y-43417205D01*
X58498102Y-43495226D01*
X58698061Y-43535000D01*
X58901939Y-43535000D01*
X59101898Y-43495226D01*
X59290256Y-43417205D01*
X59459774Y-43303937D01*
X59603937Y-43159774D01*
X59717205Y-42990256D01*
X59795226Y-42801898D01*
X59835000Y-42601939D01*
X59835000Y-42398061D01*
X59795226Y-42198102D01*
X59765774Y-42127000D01*
X65504958Y-42127000D01*
X65502167Y-42129791D01*
X65388899Y-42299309D01*
X65310878Y-42487667D01*
X65271104Y-42687626D01*
X65271104Y-42891504D01*
X65310878Y-43091463D01*
X65319393Y-43112021D01*
X65301898Y-43104774D01*
X65101939Y-43065000D01*
X64898061Y-43065000D01*
X64698102Y-43104774D01*
X64509744Y-43182795D01*
X64340226Y-43296063D01*
X64196063Y-43440226D01*
X64082795Y-43609744D01*
X64004774Y-43798102D01*
X63965000Y-43998061D01*
X63965000Y-44201939D01*
X64004774Y-44401898D01*
X64082795Y-44590256D01*
X64122715Y-44650000D01*
X64082795Y-44709744D01*
X64004774Y-44898102D01*
X63965000Y-45098061D01*
X63965000Y-45301939D01*
X64004774Y-45501898D01*
X64082795Y-45690256D01*
X64156123Y-45800000D01*
X64082795Y-45909744D01*
X64004774Y-46098102D01*
X63965000Y-46298061D01*
X63965000Y-46501939D01*
X64004774Y-46701898D01*
X64082795Y-46890256D01*
X64196063Y-47059774D01*
X64301289Y-47165000D01*
X64198061Y-47165000D01*
X63998102Y-47204774D01*
X63809744Y-47282795D01*
X63640226Y-47396063D01*
X63496063Y-47540226D01*
X63382795Y-47709744D01*
X63304774Y-47898102D01*
X63265000Y-48098061D01*
X63265000Y-48301939D01*
X63304774Y-48501898D01*
X63382795Y-48690256D01*
X63496063Y-48859774D01*
X63640226Y-49003937D01*
X63809744Y-49117205D01*
X63998102Y-49195226D01*
X64198061Y-49235000D01*
X64401939Y-49235000D01*
X64601898Y-49195226D01*
X64790256Y-49117205D01*
X64959774Y-49003937D01*
X65103937Y-48859774D01*
X65217205Y-48690256D01*
X65295226Y-48501898D01*
X65335000Y-48301939D01*
X65335000Y-48098061D01*
X65295226Y-47898102D01*
X65217205Y-47709744D01*
X65103937Y-47540226D01*
X64998711Y-47435000D01*
X65101939Y-47435000D01*
X65301898Y-47395226D01*
X65490256Y-47317205D01*
X65659774Y-47203937D01*
X65803937Y-47059774D01*
X65917205Y-46890256D01*
X65995226Y-46701898D01*
X66035000Y-46501939D01*
X66035000Y-46298061D01*
X65995226Y-46098102D01*
X65917205Y-45909744D01*
X65843877Y-45800000D01*
X65911989Y-45698061D01*
X75365000Y-45698061D01*
X75365000Y-45901939D01*
X75404774Y-46101898D01*
X75482795Y-46290256D01*
X75556123Y-46400000D01*
X75482795Y-46509744D01*
X75404774Y-46698102D01*
X75365000Y-46898061D01*
X75365000Y-47101939D01*
X75404774Y-47301898D01*
X75482795Y-47490256D01*
X75596063Y-47659774D01*
X75740226Y-47803937D01*
X75909744Y-47917205D01*
X76098102Y-47995226D01*
X76298061Y-48035000D01*
X76501939Y-48035000D01*
X76701898Y-47995226D01*
X76890256Y-47917205D01*
X77059774Y-47803937D01*
X77203937Y-47659774D01*
X77317205Y-47490256D01*
X77395226Y-47301898D01*
X77435000Y-47101939D01*
X77435000Y-46898061D01*
X77395226Y-46698102D01*
X77317205Y-46509744D01*
X77243877Y-46400000D01*
X77317205Y-46290256D01*
X77395226Y-46101898D01*
X77417839Y-45988212D01*
X79865000Y-45988212D01*
X79865000Y-46211788D01*
X79908617Y-46431067D01*
X79994176Y-46637624D01*
X80118388Y-46823520D01*
X80276480Y-46981612D01*
X80462376Y-47105824D01*
X80668933Y-47191383D01*
X80888212Y-47235000D01*
X81111788Y-47235000D01*
X81331067Y-47191383D01*
X81537624Y-47105824D01*
X81723520Y-46981612D01*
X81881612Y-46823520D01*
X82005824Y-46637624D01*
X82091383Y-46431067D01*
X82135000Y-46211788D01*
X82135000Y-45988212D01*
X82091383Y-45768933D01*
X82005824Y-45562376D01*
X81897328Y-45400000D01*
X86911928Y-45400000D01*
X86911928Y-47100000D01*
X86924188Y-47224482D01*
X86960498Y-47344180D01*
X87019463Y-47454494D01*
X87098815Y-47551185D01*
X87195506Y-47630537D01*
X87305820Y-47689502D01*
X87378380Y-47711513D01*
X87246525Y-47843368D01*
X87084010Y-48086589D01*
X86972068Y-48356842D01*
X86915000Y-48643740D01*
X86915000Y-48936260D01*
X86972068Y-49223158D01*
X87084010Y-49493411D01*
X87246525Y-49736632D01*
X87453368Y-49943475D01*
X87696589Y-50105990D01*
X87966842Y-50217932D01*
X88253740Y-50275000D01*
X88546260Y-50275000D01*
X88833158Y-50217932D01*
X89103411Y-50105990D01*
X89346632Y-49943475D01*
X89553475Y-49736632D01*
X89715990Y-49493411D01*
X89827932Y-49223158D01*
X89885000Y-48936260D01*
X89885000Y-48643740D01*
X89827932Y-48356842D01*
X89715990Y-48086589D01*
X89553475Y-47843368D01*
X89421620Y-47711513D01*
X89494180Y-47689502D01*
X89604494Y-47630537D01*
X89701185Y-47551185D01*
X89780537Y-47454494D01*
X89839502Y-47344180D01*
X89875812Y-47224482D01*
X89888072Y-47100000D01*
X89888072Y-45400000D01*
X89875812Y-45275518D01*
X89839502Y-45155820D01*
X89780537Y-45045506D01*
X89701185Y-44948815D01*
X89604494Y-44869463D01*
X89494180Y-44810498D01*
X89374482Y-44774188D01*
X89250000Y-44761928D01*
X87550000Y-44761928D01*
X87425518Y-44774188D01*
X87305820Y-44810498D01*
X87195506Y-44869463D01*
X87098815Y-44948815D01*
X87019463Y-45045506D01*
X86960498Y-45155820D01*
X86924188Y-45275518D01*
X86911928Y-45400000D01*
X81897328Y-45400000D01*
X81881612Y-45376480D01*
X81723520Y-45218388D01*
X81537624Y-45094176D01*
X81331067Y-45008617D01*
X81111788Y-44965000D01*
X80888212Y-44965000D01*
X80668933Y-45008617D01*
X80462376Y-45094176D01*
X80276480Y-45218388D01*
X80118388Y-45376480D01*
X79994176Y-45562376D01*
X79908617Y-45768933D01*
X79865000Y-45988212D01*
X77417839Y-45988212D01*
X77435000Y-45901939D01*
X77435000Y-45698061D01*
X77395226Y-45498102D01*
X77317205Y-45309744D01*
X77203937Y-45140226D01*
X77059774Y-44996063D01*
X76890256Y-44882795D01*
X76701898Y-44804774D01*
X76501939Y-44765000D01*
X76298061Y-44765000D01*
X76098102Y-44804774D01*
X75909744Y-44882795D01*
X75740226Y-44996063D01*
X75596063Y-45140226D01*
X75482795Y-45309744D01*
X75404774Y-45498102D01*
X75365000Y-45698061D01*
X65911989Y-45698061D01*
X65917205Y-45690256D01*
X65995226Y-45501898D01*
X66035000Y-45301939D01*
X66035000Y-45098061D01*
X65995226Y-44898102D01*
X65917205Y-44709744D01*
X65877285Y-44650000D01*
X65917205Y-44590256D01*
X65995226Y-44401898D01*
X66035000Y-44201939D01*
X66035000Y-43998061D01*
X65995226Y-43798102D01*
X65986711Y-43777544D01*
X66004206Y-43784791D01*
X66204165Y-43824565D01*
X66408043Y-43824565D01*
X66608002Y-43784791D01*
X66796360Y-43706770D01*
X66884300Y-43648011D01*
X66940226Y-43703937D01*
X67109744Y-43817205D01*
X67298102Y-43895226D01*
X67498061Y-43935000D01*
X67701939Y-43935000D01*
X67901898Y-43895226D01*
X68090256Y-43817205D01*
X68104591Y-43807627D01*
X68174572Y-43877608D01*
X68344090Y-43990876D01*
X68532448Y-44068897D01*
X68732407Y-44108671D01*
X68936285Y-44108671D01*
X69136244Y-44068897D01*
X69324602Y-43990876D01*
X69494120Y-43877608D01*
X69604009Y-43767720D01*
X69640226Y-43803937D01*
X69809744Y-43917205D01*
X69998102Y-43995226D01*
X70198061Y-44035000D01*
X70401939Y-44035000D01*
X70601898Y-43995226D01*
X70790256Y-43917205D01*
X70950000Y-43810468D01*
X71109744Y-43917205D01*
X71298102Y-43995226D01*
X71498061Y-44035000D01*
X71701939Y-44035000D01*
X71901898Y-43995226D01*
X72090256Y-43917205D01*
X72259774Y-43803937D01*
X72403937Y-43659774D01*
X72517205Y-43490256D01*
X72595226Y-43301898D01*
X72635000Y-43101939D01*
X72635000Y-42998061D01*
X76965000Y-42998061D01*
X76965000Y-43201939D01*
X77004774Y-43401898D01*
X77082795Y-43590256D01*
X77196063Y-43759774D01*
X77340226Y-43903937D01*
X77509744Y-44017205D01*
X77698102Y-44095226D01*
X77898061Y-44135000D01*
X78101939Y-44135000D01*
X78301898Y-44095226D01*
X78490256Y-44017205D01*
X78659774Y-43903937D01*
X78803937Y-43759774D01*
X78917205Y-43590256D01*
X78995226Y-43401898D01*
X79035000Y-43201939D01*
X79035000Y-42998061D01*
X78995226Y-42798102D01*
X78917205Y-42609744D01*
X78803937Y-42440226D01*
X78659774Y-42296063D01*
X78490256Y-42182795D01*
X78301898Y-42104774D01*
X78101939Y-42065000D01*
X77898061Y-42065000D01*
X77698102Y-42104774D01*
X77509744Y-42182795D01*
X77340226Y-42296063D01*
X77196063Y-42440226D01*
X77082795Y-42609744D01*
X77004774Y-42798102D01*
X76965000Y-42998061D01*
X72635000Y-42998061D01*
X72635000Y-42898061D01*
X72595226Y-42698102D01*
X72517205Y-42509744D01*
X72403937Y-42340226D01*
X72259774Y-42196063D01*
X72090256Y-42082795D01*
X71901898Y-42004774D01*
X71701939Y-41965000D01*
X71498061Y-41965000D01*
X71298102Y-42004774D01*
X71109744Y-42082795D01*
X70950000Y-42189532D01*
X70856414Y-42127000D01*
X71000000Y-42127000D01*
X71024776Y-42124560D01*
X71048601Y-42117333D01*
X71070557Y-42105597D01*
X71089803Y-42089803D01*
X71105597Y-42070557D01*
X71117333Y-42048601D01*
X71124560Y-42024776D01*
X71127000Y-42000000D01*
X71127000Y-39898061D01*
X73565000Y-39898061D01*
X73565000Y-40101939D01*
X73604774Y-40301898D01*
X73682795Y-40490256D01*
X73796063Y-40659774D01*
X73940226Y-40803937D01*
X74109744Y-40917205D01*
X74298102Y-40995226D01*
X74498061Y-41035000D01*
X74701939Y-41035000D01*
X74901898Y-40995226D01*
X75090256Y-40917205D01*
X75259774Y-40803937D01*
X75403937Y-40659774D01*
X75517205Y-40490256D01*
X75595226Y-40301898D01*
X75635000Y-40101939D01*
X75635000Y-39898061D01*
X75595226Y-39698102D01*
X75517205Y-39509744D01*
X75403937Y-39340226D01*
X75259774Y-39196063D01*
X75090256Y-39082795D01*
X74901898Y-39004774D01*
X74701939Y-38965000D01*
X74498061Y-38965000D01*
X74298102Y-39004774D01*
X74109744Y-39082795D01*
X73940226Y-39196063D01*
X73796063Y-39340226D01*
X73682795Y-39509744D01*
X73604774Y-39698102D01*
X73565000Y-39898061D01*
X71127000Y-39898061D01*
X71127000Y-37127000D01*
X75000000Y-37127000D01*
X75024776Y-37124560D01*
X75048601Y-37117333D01*
X75070557Y-37105597D01*
X75089803Y-37089803D01*
X75105597Y-37070557D01*
X75117333Y-37048601D01*
X75124560Y-37024776D01*
X75127000Y-37000000D01*
X75127000Y-30000000D01*
X75124560Y-29975224D01*
X75117333Y-29951399D01*
X75105597Y-29929443D01*
X75089803Y-29910197D01*
X75070557Y-29894403D01*
X75048601Y-29882667D01*
X75024776Y-29875440D01*
X75000000Y-29873000D01*
X65000000Y-29873000D01*
X64975224Y-29875440D01*
X64951399Y-29882667D01*
X64929443Y-29894403D01*
X64910197Y-29910197D01*
X64894403Y-29929443D01*
X64882667Y-29951399D01*
X64875440Y-29975224D01*
X64873000Y-30000000D01*
X64873000Y-36173000D01*
X61127000Y-36173000D01*
X61127000Y-30000000D01*
X61124560Y-29975224D01*
X61117333Y-29951399D01*
X61105597Y-29929443D01*
X61089803Y-29910197D01*
X61070557Y-29894403D01*
X61048601Y-29882667D01*
X61024776Y-29875440D01*
X61000000Y-29873000D01*
X49127000Y-29873000D01*
X49127000Y-27798061D01*
X58165000Y-27798061D01*
X58165000Y-28001939D01*
X58204774Y-28201898D01*
X58282795Y-28390256D01*
X58396063Y-28559774D01*
X58540226Y-28703937D01*
X58709744Y-28817205D01*
X58898102Y-28895226D01*
X59098061Y-28935000D01*
X59301939Y-28935000D01*
X59501898Y-28895226D01*
X59690256Y-28817205D01*
X59859774Y-28703937D01*
X60003937Y-28559774D01*
X60117205Y-28390256D01*
X60195226Y-28201898D01*
X60235000Y-28001939D01*
X60235000Y-27798061D01*
X60195226Y-27598102D01*
X60117205Y-27409744D01*
X60003937Y-27240226D01*
X59961772Y-27198061D01*
X65165000Y-27198061D01*
X65165000Y-27401939D01*
X65204774Y-27601898D01*
X65282795Y-27790256D01*
X65396063Y-27959774D01*
X65540226Y-28103937D01*
X65709744Y-28217205D01*
X65898102Y-28295226D01*
X66098061Y-28335000D01*
X66301939Y-28335000D01*
X66501898Y-28295226D01*
X66690256Y-28217205D01*
X66859774Y-28103937D01*
X66900000Y-28063711D01*
X67040226Y-28203937D01*
X67209744Y-28317205D01*
X67398102Y-28395226D01*
X67598061Y-28435000D01*
X67801939Y-28435000D01*
X68001898Y-28395226D01*
X68190256Y-28317205D01*
X68359774Y-28203937D01*
X68503937Y-28059774D01*
X68617205Y-27890256D01*
X68695226Y-27701898D01*
X68735000Y-27501939D01*
X68735000Y-27298061D01*
X68695226Y-27098102D01*
X68617205Y-26909744D01*
X68503937Y-26740226D01*
X68359774Y-26596063D01*
X68190256Y-26482795D01*
X68001898Y-26404774D01*
X67801939Y-26365000D01*
X67598061Y-26365000D01*
X67398102Y-26404774D01*
X67209744Y-26482795D01*
X67040226Y-26596063D01*
X67000000Y-26636289D01*
X66859774Y-26496063D01*
X66690256Y-26382795D01*
X66501898Y-26304774D01*
X66301939Y-26265000D01*
X66098061Y-26265000D01*
X65898102Y-26304774D01*
X65709744Y-26382795D01*
X65540226Y-26496063D01*
X65396063Y-26640226D01*
X65282795Y-26809744D01*
X65204774Y-26998102D01*
X65165000Y-27198061D01*
X59961772Y-27198061D01*
X59859774Y-27096063D01*
X59690256Y-26982795D01*
X59501898Y-26904774D01*
X59301939Y-26865000D01*
X59098061Y-26865000D01*
X58898102Y-26904774D01*
X58709744Y-26982795D01*
X58540226Y-27096063D01*
X58396063Y-27240226D01*
X58282795Y-27409744D01*
X58204774Y-27598102D01*
X58165000Y-27798061D01*
X49127000Y-27798061D01*
X49127000Y-25513945D01*
X93140000Y-25513945D01*
X93140000Y-26486055D01*
X93329650Y-27439486D01*
X93701660Y-28337599D01*
X94241735Y-29145879D01*
X94929121Y-29833265D01*
X95737401Y-30373340D01*
X96635514Y-30745350D01*
X97588945Y-30935000D01*
X98561055Y-30935000D01*
X99514486Y-30745350D01*
X100412599Y-30373340D01*
X101220879Y-29833265D01*
X101908265Y-29145879D01*
X102448340Y-28337599D01*
X102820350Y-27439486D01*
X103010000Y-26486055D01*
X103010000Y-25513945D01*
X102820350Y-24560514D01*
X102448340Y-23662401D01*
X101908265Y-22854121D01*
X101220879Y-22166735D01*
X100412599Y-21626660D01*
X99514486Y-21254650D01*
X98561055Y-21065000D01*
X97588945Y-21065000D01*
X96635514Y-21254650D01*
X95737401Y-21626660D01*
X94929121Y-22166735D01*
X94241735Y-22854121D01*
X93701660Y-23662401D01*
X93329650Y-24560514D01*
X93140000Y-25513945D01*
X49127000Y-25513945D01*
X49127000Y-24542765D01*
X49236589Y-24615990D01*
X49506842Y-24727932D01*
X49793740Y-24785000D01*
X50086260Y-24785000D01*
X50373158Y-24727932D01*
X50643411Y-24615990D01*
X50886632Y-24453475D01*
X51093475Y-24246632D01*
X51210000Y-24072240D01*
X51326525Y-24246632D01*
X51533368Y-24453475D01*
X51776589Y-24615990D01*
X52046842Y-24727932D01*
X52333740Y-24785000D01*
X52626260Y-24785000D01*
X52913158Y-24727932D01*
X53183411Y-24615990D01*
X53426632Y-24453475D01*
X53633475Y-24246632D01*
X53750000Y-24072240D01*
X53866525Y-24246632D01*
X54073368Y-24453475D01*
X54316589Y-24615990D01*
X54586842Y-24727932D01*
X54873740Y-24785000D01*
X55166260Y-24785000D01*
X55453158Y-24727932D01*
X55723411Y-24615990D01*
X55966632Y-24453475D01*
X56173475Y-24246632D01*
X56335990Y-24003411D01*
X56447932Y-23733158D01*
X56505000Y-23446260D01*
X56505000Y-23153740D01*
X56447932Y-22866842D01*
X56335990Y-22596589D01*
X56238043Y-22450000D01*
X57711928Y-22450000D01*
X57711928Y-24150000D01*
X57724188Y-24274482D01*
X57760498Y-24394180D01*
X57819463Y-24504494D01*
X57898815Y-24601185D01*
X57995506Y-24680537D01*
X58105820Y-24739502D01*
X58225518Y-24775812D01*
X58350000Y-24788072D01*
X60050000Y-24788072D01*
X60174482Y-24775812D01*
X60294180Y-24739502D01*
X60404494Y-24680537D01*
X60501185Y-24601185D01*
X60580537Y-24504494D01*
X60639502Y-24394180D01*
X60661513Y-24321620D01*
X60793368Y-24453475D01*
X61036589Y-24615990D01*
X61306842Y-24727932D01*
X61593740Y-24785000D01*
X61886260Y-24785000D01*
X62173158Y-24727932D01*
X62443411Y-24615990D01*
X62686632Y-24453475D01*
X62893475Y-24246632D01*
X63055990Y-24003411D01*
X63167932Y-23733158D01*
X63225000Y-23446260D01*
X63225000Y-23153740D01*
X63167932Y-22866842D01*
X63055990Y-22596589D01*
X62958043Y-22450000D01*
X64386928Y-22450000D01*
X64386928Y-24150000D01*
X64399188Y-24274482D01*
X64435498Y-24394180D01*
X64494463Y-24504494D01*
X64573815Y-24601185D01*
X64670506Y-24680537D01*
X64780820Y-24739502D01*
X64900518Y-24775812D01*
X65025000Y-24788072D01*
X66725000Y-24788072D01*
X66849482Y-24775812D01*
X66969180Y-24739502D01*
X67079494Y-24680537D01*
X67176185Y-24601185D01*
X67255537Y-24504494D01*
X67314502Y-24394180D01*
X67336513Y-24321620D01*
X67468368Y-24453475D01*
X67711589Y-24615990D01*
X67981842Y-24727932D01*
X68268740Y-24785000D01*
X68561260Y-24785000D01*
X68848158Y-24727932D01*
X69118411Y-24615990D01*
X69361632Y-24453475D01*
X69568475Y-24246632D01*
X69599633Y-24200000D01*
X71371928Y-24200000D01*
X71384188Y-24324482D01*
X71420498Y-24444180D01*
X71479463Y-24554494D01*
X71558815Y-24651185D01*
X71655506Y-24730537D01*
X71765820Y-24789502D01*
X71885518Y-24825812D01*
X72010000Y-24838072D01*
X72574250Y-24835000D01*
X72733000Y-24676250D01*
X72733000Y-23477000D01*
X71533750Y-23477000D01*
X71375000Y-23635750D01*
X71371928Y-24200000D01*
X69599633Y-24200000D01*
X69730990Y-24003411D01*
X69842932Y-23733158D01*
X69900000Y-23446260D01*
X69900000Y-23153740D01*
X69842932Y-22866842D01*
X69730990Y-22596589D01*
X69666452Y-22500000D01*
X71371928Y-22500000D01*
X71375000Y-23064250D01*
X71533750Y-23223000D01*
X72733000Y-23223000D01*
X72733000Y-22023750D01*
X72987000Y-22023750D01*
X72987000Y-23223000D01*
X73007000Y-23223000D01*
X73007000Y-23477000D01*
X72987000Y-23477000D01*
X72987000Y-24676250D01*
X73145750Y-24835000D01*
X73710000Y-24838072D01*
X73834482Y-24825812D01*
X73954180Y-24789502D01*
X74064494Y-24730537D01*
X74161185Y-24651185D01*
X74240537Y-24554494D01*
X74299502Y-24444180D01*
X74321513Y-24371620D01*
X74453368Y-24503475D01*
X74696589Y-24665990D01*
X74966842Y-24777932D01*
X75253740Y-24835000D01*
X75546260Y-24835000D01*
X75833158Y-24777932D01*
X76103411Y-24665990D01*
X76346632Y-24503475D01*
X76553475Y-24296632D01*
X76715990Y-24053411D01*
X76827932Y-23783158D01*
X76885000Y-23496260D01*
X76885000Y-23203740D01*
X76827932Y-22916842D01*
X76715990Y-22646589D01*
X76553475Y-22403368D01*
X76346632Y-22196525D01*
X76103411Y-22034010D01*
X75833158Y-21922068D01*
X75546260Y-21865000D01*
X75253740Y-21865000D01*
X74966842Y-21922068D01*
X74696589Y-22034010D01*
X74453368Y-22196525D01*
X74321513Y-22328380D01*
X74299502Y-22255820D01*
X74240537Y-22145506D01*
X74161185Y-22048815D01*
X74064494Y-21969463D01*
X73954180Y-21910498D01*
X73834482Y-21874188D01*
X73710000Y-21861928D01*
X73145750Y-21865000D01*
X72987000Y-22023750D01*
X72733000Y-22023750D01*
X72574250Y-21865000D01*
X72010000Y-21861928D01*
X71885518Y-21874188D01*
X71765820Y-21910498D01*
X71655506Y-21969463D01*
X71558815Y-22048815D01*
X71479463Y-22145506D01*
X71420498Y-22255820D01*
X71384188Y-22375518D01*
X71371928Y-22500000D01*
X69666452Y-22500000D01*
X69568475Y-22353368D01*
X69361632Y-22146525D01*
X69118411Y-21984010D01*
X68848158Y-21872068D01*
X68561260Y-21815000D01*
X68268740Y-21815000D01*
X67981842Y-21872068D01*
X67711589Y-21984010D01*
X67468368Y-22146525D01*
X67336513Y-22278380D01*
X67314502Y-22205820D01*
X67255537Y-22095506D01*
X67176185Y-21998815D01*
X67079494Y-21919463D01*
X66969180Y-21860498D01*
X66849482Y-21824188D01*
X66725000Y-21811928D01*
X65025000Y-21811928D01*
X64900518Y-21824188D01*
X64780820Y-21860498D01*
X64670506Y-21919463D01*
X64573815Y-21998815D01*
X64494463Y-22095506D01*
X64435498Y-22205820D01*
X64399188Y-22325518D01*
X64386928Y-22450000D01*
X62958043Y-22450000D01*
X62893475Y-22353368D01*
X62686632Y-22146525D01*
X62443411Y-21984010D01*
X62173158Y-21872068D01*
X61886260Y-21815000D01*
X61593740Y-21815000D01*
X61306842Y-21872068D01*
X61036589Y-21984010D01*
X60793368Y-22146525D01*
X60661513Y-22278380D01*
X60639502Y-22205820D01*
X60580537Y-22095506D01*
X60501185Y-21998815D01*
X60404494Y-21919463D01*
X60294180Y-21860498D01*
X60174482Y-21824188D01*
X60050000Y-21811928D01*
X58350000Y-21811928D01*
X58225518Y-21824188D01*
X58105820Y-21860498D01*
X57995506Y-21919463D01*
X57898815Y-21998815D01*
X57819463Y-22095506D01*
X57760498Y-22205820D01*
X57724188Y-22325518D01*
X57711928Y-22450000D01*
X56238043Y-22450000D01*
X56173475Y-22353368D01*
X55966632Y-22146525D01*
X55723411Y-21984010D01*
X55453158Y-21872068D01*
X55166260Y-21815000D01*
X54873740Y-21815000D01*
X54586842Y-21872068D01*
X54316589Y-21984010D01*
X54073368Y-22146525D01*
X53866525Y-22353368D01*
X53750000Y-22527760D01*
X53633475Y-22353368D01*
X53426632Y-22146525D01*
X53183411Y-21984010D01*
X52913158Y-21872068D01*
X52626260Y-21815000D01*
X52333740Y-21815000D01*
X52046842Y-21872068D01*
X51776589Y-21984010D01*
X51533368Y-22146525D01*
X51326525Y-22353368D01*
X51210000Y-22527760D01*
X51093475Y-22353368D01*
X50886632Y-22146525D01*
X50643411Y-21984010D01*
X50373158Y-21872068D01*
X50086260Y-21815000D01*
X49793740Y-21815000D01*
X49506842Y-21872068D01*
X49236589Y-21984010D01*
X49127000Y-22057235D01*
X49127000Y-20660000D01*
X98047911Y-20660000D01*
X98946797Y-20733902D01*
G36*
X39653550Y-26887160D02*
G01*
X39640226Y-26896063D01*
X39496063Y-27040226D01*
X39382795Y-27209744D01*
X39304774Y-27398102D01*
X39265000Y-27598061D01*
X39265000Y-27801939D01*
X39304774Y-28001898D01*
X39382795Y-28190256D01*
X39496063Y-28359774D01*
X39625764Y-28489475D01*
X39625161Y-28524254D01*
X30184906Y-28619610D01*
X30373340Y-28337599D01*
X30745350Y-27439486D01*
X30874896Y-26788212D01*
X32565000Y-26788212D01*
X32565000Y-27011788D01*
X32608617Y-27231067D01*
X32694176Y-27437624D01*
X32818388Y-27623520D01*
X32976480Y-27781612D01*
X33162376Y-27905824D01*
X33368933Y-27991383D01*
X33588212Y-28035000D01*
X33811788Y-28035000D01*
X34031067Y-27991383D01*
X34237624Y-27905824D01*
X34423520Y-27781612D01*
X34581612Y-27623520D01*
X34705824Y-27437624D01*
X34791383Y-27231067D01*
X34835000Y-27011788D01*
X34835000Y-26788212D01*
X34791383Y-26568933D01*
X34705824Y-26362376D01*
X34581612Y-26176480D01*
X34423520Y-26018388D01*
X34237624Y-25894176D01*
X34031067Y-25808617D01*
X33811788Y-25765000D01*
X33588212Y-25765000D01*
X33368933Y-25808617D01*
X33162376Y-25894176D01*
X32976480Y-26018388D01*
X32818388Y-26176480D01*
X32694176Y-26362376D01*
X32608617Y-26568933D01*
X32565000Y-26788212D01*
X30874896Y-26788212D01*
X30935000Y-26486055D01*
X30935000Y-25513945D01*
X30745350Y-24560514D01*
X30373340Y-23662401D01*
X29833265Y-22854121D01*
X29145879Y-22166735D01*
X28337599Y-21626660D01*
X27439486Y-21254650D01*
X26486055Y-21065000D01*
X25513945Y-21065000D01*
X24560514Y-21254650D01*
X23662401Y-21626660D01*
X22854121Y-22166735D01*
X22166735Y-22854121D01*
X21626660Y-23662401D01*
X21254650Y-24560514D01*
X21065000Y-25513945D01*
X21065000Y-26486055D01*
X21254650Y-27439486D01*
X21626660Y-28337599D01*
X22166735Y-29145879D01*
X22854121Y-29833265D01*
X23662401Y-30373340D01*
X24560514Y-30745350D01*
X25513945Y-30935000D01*
X26486055Y-30935000D01*
X27439486Y-30745350D01*
X28337599Y-30373340D01*
X29145879Y-29833265D01*
X29724477Y-29254667D01*
X29833279Y-66428657D01*
X29805824Y-66362376D01*
X29681612Y-66176480D01*
X29523520Y-66018388D01*
X29337624Y-65894176D01*
X29131067Y-65808617D01*
X28911788Y-65765000D01*
X28688212Y-65765000D01*
X28468933Y-65808617D01*
X28262376Y-65894176D01*
X28076480Y-66018388D01*
X27918388Y-66176480D01*
X27794176Y-66362376D01*
X27787451Y-66378611D01*
X27680990Y-66121589D01*
X27518475Y-65878368D01*
X27311632Y-65671525D01*
X27137240Y-65555000D01*
X27311632Y-65438475D01*
X27518475Y-65231632D01*
X27680990Y-64988411D01*
X27792932Y-64718158D01*
X27850000Y-64431260D01*
X27850000Y-64138740D01*
X27792932Y-63851842D01*
X27680990Y-63581589D01*
X27518475Y-63338368D01*
X27311632Y-63131525D01*
X27068411Y-62969010D01*
X26798158Y-62857068D01*
X26511260Y-62800000D01*
X26218740Y-62800000D01*
X25931842Y-62857068D01*
X25661589Y-62969010D01*
X25418368Y-63131525D01*
X25286513Y-63263380D01*
X25264502Y-63190820D01*
X25205537Y-63080506D01*
X25126185Y-62983815D01*
X25029494Y-62904463D01*
X24919180Y-62845498D01*
X24799482Y-62809188D01*
X24675000Y-62796928D01*
X24110750Y-62800000D01*
X23952000Y-62958750D01*
X23952000Y-64158000D01*
X23972000Y-64158000D01*
X23972000Y-64412000D01*
X23952000Y-64412000D01*
X23952000Y-64432000D01*
X23698000Y-64432000D01*
X23698000Y-64412000D01*
X22498750Y-64412000D01*
X22340000Y-64570750D01*
X22336928Y-65135000D01*
X22349188Y-65259482D01*
X22385498Y-65379180D01*
X22444463Y-65489494D01*
X22523815Y-65586185D01*
X22620506Y-65665537D01*
X22730820Y-65724502D01*
X22803380Y-65746513D01*
X22671525Y-65878368D01*
X22509010Y-66121589D01*
X22397068Y-66391842D01*
X22340000Y-66678740D01*
X22340000Y-66971260D01*
X22397068Y-67258158D01*
X22509010Y-67528411D01*
X22671525Y-67771632D01*
X22878368Y-67978475D01*
X23121589Y-68140990D01*
X23391842Y-68252932D01*
X23678740Y-68310000D01*
X23971260Y-68310000D01*
X24258158Y-68252932D01*
X24528411Y-68140990D01*
X24771632Y-67978475D01*
X24978475Y-67771632D01*
X25095000Y-67597240D01*
X25211525Y-67771632D01*
X25418368Y-67978475D01*
X25661589Y-68140990D01*
X25931842Y-68252932D01*
X26218740Y-68310000D01*
X26511260Y-68310000D01*
X26798158Y-68252932D01*
X27068411Y-68140990D01*
X27311632Y-67978475D01*
X27518475Y-67771632D01*
X27680990Y-67528411D01*
X27756385Y-67346390D01*
X27794176Y-67437624D01*
X27918388Y-67623520D01*
X28076480Y-67781612D01*
X28262376Y-67905824D01*
X28468933Y-67991383D01*
X28688212Y-68035000D01*
X28911788Y-68035000D01*
X29131067Y-67991383D01*
X29337624Y-67905824D01*
X29523520Y-67781612D01*
X29681612Y-67623520D01*
X29805824Y-67437624D01*
X29836018Y-67364728D01*
X29846288Y-70873612D01*
X29833265Y-70854121D01*
X29145879Y-70166735D01*
X28337599Y-69626660D01*
X27439486Y-69254650D01*
X26486055Y-69065000D01*
X25513945Y-69065000D01*
X24560514Y-69254650D01*
X23662401Y-69626660D01*
X22854121Y-70166735D01*
X22166735Y-70854121D01*
X21626660Y-71662401D01*
X21254650Y-72560514D01*
X21065000Y-73513945D01*
X21065000Y-74486055D01*
X21254650Y-75439486D01*
X21626660Y-76337599D01*
X22166735Y-77145879D01*
X22854121Y-77833265D01*
X23662401Y-78373340D01*
X24560514Y-78745350D01*
X25513945Y-78935000D01*
X26486055Y-78935000D01*
X27439486Y-78745350D01*
X28337599Y-78373340D01*
X29145879Y-77833265D01*
X29833265Y-77145879D01*
X29864509Y-77099119D01*
X29871068Y-79340000D01*
X26027089Y-79340000D01*
X25128198Y-79266098D01*
X24279820Y-79052999D01*
X23477629Y-78704197D01*
X22743182Y-78229062D01*
X22096201Y-77640354D01*
X21554054Y-76953875D01*
X21131309Y-76188076D01*
X20839317Y-75363514D01*
X20683884Y-74490925D01*
X20660000Y-73984453D01*
X20660000Y-61688212D01*
X21365000Y-61688212D01*
X21365000Y-61911788D01*
X21408617Y-62131067D01*
X21494176Y-62337624D01*
X21618388Y-62523520D01*
X21776480Y-62681612D01*
X21962376Y-62805824D01*
X22168933Y-62891383D01*
X22388212Y-62935000D01*
X22583296Y-62935000D01*
X22523815Y-62983815D01*
X22444463Y-63080506D01*
X22385498Y-63190820D01*
X22349188Y-63310518D01*
X22336928Y-63435000D01*
X22340000Y-63999250D01*
X22498750Y-64158000D01*
X23698000Y-64158000D01*
X23698000Y-62958750D01*
X23539250Y-62800000D01*
X23050324Y-62797338D01*
X23223520Y-62681612D01*
X23381612Y-62523520D01*
X23505824Y-62337624D01*
X23591383Y-62131067D01*
X23635000Y-61911788D01*
X23635000Y-61688212D01*
X23591383Y-61468933D01*
X23505824Y-61262376D01*
X23381612Y-61076480D01*
X23223520Y-60918388D01*
X23037624Y-60794176D01*
X22831067Y-60708617D01*
X22611788Y-60665000D01*
X22388212Y-60665000D01*
X22168933Y-60708617D01*
X21962376Y-60794176D01*
X21776480Y-60918388D01*
X21618388Y-61076480D01*
X21494176Y-61262376D01*
X21408617Y-61468933D01*
X21365000Y-61688212D01*
X20660000Y-61688212D01*
X20660000Y-56698061D01*
X23365000Y-56698061D01*
X23365000Y-56901939D01*
X23404774Y-57101898D01*
X23482795Y-57290256D01*
X23596063Y-57459774D01*
X23740226Y-57603937D01*
X23909744Y-57717205D01*
X24098102Y-57795226D01*
X24298061Y-57835000D01*
X24501939Y-57835000D01*
X24701898Y-57795226D01*
X24890256Y-57717205D01*
X25059774Y-57603937D01*
X25203937Y-57459774D01*
X25317205Y-57290256D01*
X25395226Y-57101898D01*
X25435000Y-56901939D01*
X25435000Y-56698061D01*
X25395226Y-56498102D01*
X25317205Y-56309744D01*
X25203937Y-56140226D01*
X25059774Y-55996063D01*
X24890256Y-55882795D01*
X24701898Y-55804774D01*
X24501939Y-55765000D01*
X24298061Y-55765000D01*
X24098102Y-55804774D01*
X23909744Y-55882795D01*
X23740226Y-55996063D01*
X23596063Y-56140226D01*
X23482795Y-56309744D01*
X23404774Y-56498102D01*
X23365000Y-56698061D01*
X20660000Y-56698061D01*
X20660000Y-46598061D01*
X23365000Y-46598061D01*
X23365000Y-46801939D01*
X23404774Y-47001898D01*
X23482795Y-47190256D01*
X23489306Y-47200000D01*
X23482795Y-47209744D01*
X23404774Y-47398102D01*
X23365000Y-47598061D01*
X23365000Y-47801939D01*
X23404774Y-48001898D01*
X23482795Y-48190256D01*
X23596063Y-48359774D01*
X23740226Y-48503937D01*
X23909744Y-48617205D01*
X24098102Y-48695226D01*
X24298061Y-48735000D01*
X24501939Y-48735000D01*
X24701898Y-48695226D01*
X24890256Y-48617205D01*
X25059774Y-48503937D01*
X25203937Y-48359774D01*
X25317205Y-48190256D01*
X25395226Y-48001898D01*
X25435000Y-47801939D01*
X25435000Y-47598061D01*
X25395226Y-47398102D01*
X25317205Y-47209744D01*
X25310694Y-47200000D01*
X25317205Y-47190256D01*
X25395226Y-47001898D01*
X25435000Y-46801939D01*
X25435000Y-46598061D01*
X25395226Y-46398102D01*
X25317205Y-46209744D01*
X25203937Y-46040226D01*
X25059774Y-45896063D01*
X24890256Y-45782795D01*
X24701898Y-45704774D01*
X24501939Y-45665000D01*
X24298061Y-45665000D01*
X24098102Y-45704774D01*
X23909744Y-45782795D01*
X23740226Y-45896063D01*
X23596063Y-46040226D01*
X23482795Y-46209744D01*
X23404774Y-46398102D01*
X23365000Y-46598061D01*
X20660000Y-46598061D01*
X20660000Y-36698061D01*
X23365000Y-36698061D01*
X23365000Y-36901939D01*
X23404774Y-37101898D01*
X23482795Y-37290256D01*
X23489306Y-37300000D01*
X23482795Y-37309744D01*
X23404774Y-37498102D01*
X23365000Y-37698061D01*
X23365000Y-37901939D01*
X23404774Y-38101898D01*
X23482795Y-38290256D01*
X23489306Y-38300000D01*
X23482795Y-38309744D01*
X23404774Y-38498102D01*
X23365000Y-38698061D01*
X23365000Y-38901939D01*
X23404774Y-39101898D01*
X23482795Y-39290256D01*
X23596063Y-39459774D01*
X23740226Y-39603937D01*
X23909744Y-39717205D01*
X24098102Y-39795226D01*
X24298061Y-39835000D01*
X24501939Y-39835000D01*
X24701898Y-39795226D01*
X24890256Y-39717205D01*
X25059774Y-39603937D01*
X25203937Y-39459774D01*
X25317205Y-39290256D01*
X25395226Y-39101898D01*
X25435000Y-38901939D01*
X25435000Y-38698061D01*
X25395226Y-38498102D01*
X25317205Y-38309744D01*
X25310694Y-38300000D01*
X25317205Y-38290256D01*
X25395226Y-38101898D01*
X25435000Y-37901939D01*
X25435000Y-37698061D01*
X25395226Y-37498102D01*
X25317205Y-37309744D01*
X25310694Y-37300000D01*
X25317205Y-37290256D01*
X25395226Y-37101898D01*
X25435000Y-36901939D01*
X25435000Y-36698061D01*
X25395226Y-36498102D01*
X25317205Y-36309744D01*
X25203937Y-36140226D01*
X25059774Y-35996063D01*
X24890256Y-35882795D01*
X24701898Y-35804774D01*
X24501939Y-35765000D01*
X24298061Y-35765000D01*
X24098102Y-35804774D01*
X23909744Y-35882795D01*
X23740226Y-35996063D01*
X23596063Y-36140226D01*
X23482795Y-36309744D01*
X23404774Y-36498102D01*
X23365000Y-36698061D01*
X20660000Y-36698061D01*
X20660000Y-26027089D01*
X20733902Y-25128203D01*
X20947001Y-24279818D01*
X21295803Y-23477629D01*
X21770938Y-22743182D01*
X22359646Y-22096202D01*
X23046125Y-21554054D01*
X23811928Y-21131308D01*
X24636491Y-20839316D01*
X25509076Y-20683884D01*
X26015547Y-20660000D01*
X39761536Y-20660000D01*
X39653550Y-26887160D01*
G37*
X39653550Y-26887160D02*
X39640226Y-26896063D01*
X39496063Y-27040226D01*
X39382795Y-27209744D01*
X39304774Y-27398102D01*
X39265000Y-27598061D01*
X39265000Y-27801939D01*
X39304774Y-28001898D01*
X39382795Y-28190256D01*
X39496063Y-28359774D01*
X39625764Y-28489475D01*
X39625161Y-28524254D01*
X30184906Y-28619610D01*
X30373340Y-28337599D01*
X30745350Y-27439486D01*
X30874896Y-26788212D01*
X32565000Y-26788212D01*
X32565000Y-27011788D01*
X32608617Y-27231067D01*
X32694176Y-27437624D01*
X32818388Y-27623520D01*
X32976480Y-27781612D01*
X33162376Y-27905824D01*
X33368933Y-27991383D01*
X33588212Y-28035000D01*
X33811788Y-28035000D01*
X34031067Y-27991383D01*
X34237624Y-27905824D01*
X34423520Y-27781612D01*
X34581612Y-27623520D01*
X34705824Y-27437624D01*
X34791383Y-27231067D01*
X34835000Y-27011788D01*
X34835000Y-26788212D01*
X34791383Y-26568933D01*
X34705824Y-26362376D01*
X34581612Y-26176480D01*
X34423520Y-26018388D01*
X34237624Y-25894176D01*
X34031067Y-25808617D01*
X33811788Y-25765000D01*
X33588212Y-25765000D01*
X33368933Y-25808617D01*
X33162376Y-25894176D01*
X32976480Y-26018388D01*
X32818388Y-26176480D01*
X32694176Y-26362376D01*
X32608617Y-26568933D01*
X32565000Y-26788212D01*
X30874896Y-26788212D01*
X30935000Y-26486055D01*
X30935000Y-25513945D01*
X30745350Y-24560514D01*
X30373340Y-23662401D01*
X29833265Y-22854121D01*
X29145879Y-22166735D01*
X28337599Y-21626660D01*
X27439486Y-21254650D01*
X26486055Y-21065000D01*
X25513945Y-21065000D01*
X24560514Y-21254650D01*
X23662401Y-21626660D01*
X22854121Y-22166735D01*
X22166735Y-22854121D01*
X21626660Y-23662401D01*
X21254650Y-24560514D01*
X21065000Y-25513945D01*
X21065000Y-26486055D01*
X21254650Y-27439486D01*
X21626660Y-28337599D01*
X22166735Y-29145879D01*
X22854121Y-29833265D01*
X23662401Y-30373340D01*
X24560514Y-30745350D01*
X25513945Y-30935000D01*
X26486055Y-30935000D01*
X27439486Y-30745350D01*
X28337599Y-30373340D01*
X29145879Y-29833265D01*
X29724477Y-29254667D01*
X29833279Y-66428657D01*
X29805824Y-66362376D01*
X29681612Y-66176480D01*
X29523520Y-66018388D01*
X29337624Y-65894176D01*
X29131067Y-65808617D01*
X28911788Y-65765000D01*
X28688212Y-65765000D01*
X28468933Y-65808617D01*
X28262376Y-65894176D01*
X28076480Y-66018388D01*
X27918388Y-66176480D01*
X27794176Y-66362376D01*
X27787451Y-66378611D01*
X27680990Y-66121589D01*
X27518475Y-65878368D01*
X27311632Y-65671525D01*
X27137240Y-65555000D01*
X27311632Y-65438475D01*
X27518475Y-65231632D01*
X27680990Y-64988411D01*
X27792932Y-64718158D01*
X27850000Y-64431260D01*
X27850000Y-64138740D01*
X27792932Y-63851842D01*
X27680990Y-63581589D01*
X27518475Y-63338368D01*
X27311632Y-63131525D01*
X27068411Y-62969010D01*
X26798158Y-62857068D01*
X26511260Y-62800000D01*
X26218740Y-62800000D01*
X25931842Y-62857068D01*
X25661589Y-62969010D01*
X25418368Y-63131525D01*
X25286513Y-63263380D01*
X25264502Y-63190820D01*
X25205537Y-63080506D01*
X25126185Y-62983815D01*
X25029494Y-62904463D01*
X24919180Y-62845498D01*
X24799482Y-62809188D01*
X24675000Y-62796928D01*
X24110750Y-62800000D01*
X23952000Y-62958750D01*
X23952000Y-64158000D01*
X23972000Y-64158000D01*
X23972000Y-64412000D01*
X23952000Y-64412000D01*
X23952000Y-64432000D01*
X23698000Y-64432000D01*
X23698000Y-64412000D01*
X22498750Y-64412000D01*
X22340000Y-64570750D01*
X22336928Y-65135000D01*
X22349188Y-65259482D01*
X22385498Y-65379180D01*
X22444463Y-65489494D01*
X22523815Y-65586185D01*
X22620506Y-65665537D01*
X22730820Y-65724502D01*
X22803380Y-65746513D01*
X22671525Y-65878368D01*
X22509010Y-66121589D01*
X22397068Y-66391842D01*
X22340000Y-66678740D01*
X22340000Y-66971260D01*
X22397068Y-67258158D01*
X22509010Y-67528411D01*
X22671525Y-67771632D01*
X22878368Y-67978475D01*
X23121589Y-68140990D01*
X23391842Y-68252932D01*
X23678740Y-68310000D01*
X23971260Y-68310000D01*
X24258158Y-68252932D01*
X24528411Y-68140990D01*
X24771632Y-67978475D01*
X24978475Y-67771632D01*
X25095000Y-67597240D01*
X25211525Y-67771632D01*
X25418368Y-67978475D01*
X25661589Y-68140990D01*
X25931842Y-68252932D01*
X26218740Y-68310000D01*
X26511260Y-68310000D01*
X26798158Y-68252932D01*
X27068411Y-68140990D01*
X27311632Y-67978475D01*
X27518475Y-67771632D01*
X27680990Y-67528411D01*
X27756385Y-67346390D01*
X27794176Y-67437624D01*
X27918388Y-67623520D01*
X28076480Y-67781612D01*
X28262376Y-67905824D01*
X28468933Y-67991383D01*
X28688212Y-68035000D01*
X28911788Y-68035000D01*
X29131067Y-67991383D01*
X29337624Y-67905824D01*
X29523520Y-67781612D01*
X29681612Y-67623520D01*
X29805824Y-67437624D01*
X29836018Y-67364728D01*
X29846288Y-70873612D01*
X29833265Y-70854121D01*
X29145879Y-70166735D01*
X28337599Y-69626660D01*
X27439486Y-69254650D01*
X26486055Y-69065000D01*
X25513945Y-69065000D01*
X24560514Y-69254650D01*
X23662401Y-69626660D01*
X22854121Y-70166735D01*
X22166735Y-70854121D01*
X21626660Y-71662401D01*
X21254650Y-72560514D01*
X21065000Y-73513945D01*
X21065000Y-74486055D01*
X21254650Y-75439486D01*
X21626660Y-76337599D01*
X22166735Y-77145879D01*
X22854121Y-77833265D01*
X23662401Y-78373340D01*
X24560514Y-78745350D01*
X25513945Y-78935000D01*
X26486055Y-78935000D01*
X27439486Y-78745350D01*
X28337599Y-78373340D01*
X29145879Y-77833265D01*
X29833265Y-77145879D01*
X29864509Y-77099119D01*
X29871068Y-79340000D01*
X26027089Y-79340000D01*
X25128198Y-79266098D01*
X24279820Y-79052999D01*
X23477629Y-78704197D01*
X22743182Y-78229062D01*
X22096201Y-77640354D01*
X21554054Y-76953875D01*
X21131309Y-76188076D01*
X20839317Y-75363514D01*
X20683884Y-74490925D01*
X20660000Y-73984453D01*
X20660000Y-61688212D01*
X21365000Y-61688212D01*
X21365000Y-61911788D01*
X21408617Y-62131067D01*
X21494176Y-62337624D01*
X21618388Y-62523520D01*
X21776480Y-62681612D01*
X21962376Y-62805824D01*
X22168933Y-62891383D01*
X22388212Y-62935000D01*
X22583296Y-62935000D01*
X22523815Y-62983815D01*
X22444463Y-63080506D01*
X22385498Y-63190820D01*
X22349188Y-63310518D01*
X22336928Y-63435000D01*
X22340000Y-63999250D01*
X22498750Y-64158000D01*
X23698000Y-64158000D01*
X23698000Y-62958750D01*
X23539250Y-62800000D01*
X23050324Y-62797338D01*
X23223520Y-62681612D01*
X23381612Y-62523520D01*
X23505824Y-62337624D01*
X23591383Y-62131067D01*
X23635000Y-61911788D01*
X23635000Y-61688212D01*
X23591383Y-61468933D01*
X23505824Y-61262376D01*
X23381612Y-61076480D01*
X23223520Y-60918388D01*
X23037624Y-60794176D01*
X22831067Y-60708617D01*
X22611788Y-60665000D01*
X22388212Y-60665000D01*
X22168933Y-60708617D01*
X21962376Y-60794176D01*
X21776480Y-60918388D01*
X21618388Y-61076480D01*
X21494176Y-61262376D01*
X21408617Y-61468933D01*
X21365000Y-61688212D01*
X20660000Y-61688212D01*
X20660000Y-56698061D01*
X23365000Y-56698061D01*
X23365000Y-56901939D01*
X23404774Y-57101898D01*
X23482795Y-57290256D01*
X23596063Y-57459774D01*
X23740226Y-57603937D01*
X23909744Y-57717205D01*
X24098102Y-57795226D01*
X24298061Y-57835000D01*
X24501939Y-57835000D01*
X24701898Y-57795226D01*
X24890256Y-57717205D01*
X25059774Y-57603937D01*
X25203937Y-57459774D01*
X25317205Y-57290256D01*
X25395226Y-57101898D01*
X25435000Y-56901939D01*
X25435000Y-56698061D01*
X25395226Y-56498102D01*
X25317205Y-56309744D01*
X25203937Y-56140226D01*
X25059774Y-55996063D01*
X24890256Y-55882795D01*
X24701898Y-55804774D01*
X24501939Y-55765000D01*
X24298061Y-55765000D01*
X24098102Y-55804774D01*
X23909744Y-55882795D01*
X23740226Y-55996063D01*
X23596063Y-56140226D01*
X23482795Y-56309744D01*
X23404774Y-56498102D01*
X23365000Y-56698061D01*
X20660000Y-56698061D01*
X20660000Y-46598061D01*
X23365000Y-46598061D01*
X23365000Y-46801939D01*
X23404774Y-47001898D01*
X23482795Y-47190256D01*
X23489306Y-47200000D01*
X23482795Y-47209744D01*
X23404774Y-47398102D01*
X23365000Y-47598061D01*
X23365000Y-47801939D01*
X23404774Y-48001898D01*
X23482795Y-48190256D01*
X23596063Y-48359774D01*
X23740226Y-48503937D01*
X23909744Y-48617205D01*
X24098102Y-48695226D01*
X24298061Y-48735000D01*
X24501939Y-48735000D01*
X24701898Y-48695226D01*
X24890256Y-48617205D01*
X25059774Y-48503937D01*
X25203937Y-48359774D01*
X25317205Y-48190256D01*
X25395226Y-48001898D01*
X25435000Y-47801939D01*
X25435000Y-47598061D01*
X25395226Y-47398102D01*
X25317205Y-47209744D01*
X25310694Y-47200000D01*
X25317205Y-47190256D01*
X25395226Y-47001898D01*
X25435000Y-46801939D01*
X25435000Y-46598061D01*
X25395226Y-46398102D01*
X25317205Y-46209744D01*
X25203937Y-46040226D01*
X25059774Y-45896063D01*
X24890256Y-45782795D01*
X24701898Y-45704774D01*
X24501939Y-45665000D01*
X24298061Y-45665000D01*
X24098102Y-45704774D01*
X23909744Y-45782795D01*
X23740226Y-45896063D01*
X23596063Y-46040226D01*
X23482795Y-46209744D01*
X23404774Y-46398102D01*
X23365000Y-46598061D01*
X20660000Y-46598061D01*
X20660000Y-36698061D01*
X23365000Y-36698061D01*
X23365000Y-36901939D01*
X23404774Y-37101898D01*
X23482795Y-37290256D01*
X23489306Y-37300000D01*
X23482795Y-37309744D01*
X23404774Y-37498102D01*
X23365000Y-37698061D01*
X23365000Y-37901939D01*
X23404774Y-38101898D01*
X23482795Y-38290256D01*
X23489306Y-38300000D01*
X23482795Y-38309744D01*
X23404774Y-38498102D01*
X23365000Y-38698061D01*
X23365000Y-38901939D01*
X23404774Y-39101898D01*
X23482795Y-39290256D01*
X23596063Y-39459774D01*
X23740226Y-39603937D01*
X23909744Y-39717205D01*
X24098102Y-39795226D01*
X24298061Y-39835000D01*
X24501939Y-39835000D01*
X24701898Y-39795226D01*
X24890256Y-39717205D01*
X25059774Y-39603937D01*
X25203937Y-39459774D01*
X25317205Y-39290256D01*
X25395226Y-39101898D01*
X25435000Y-38901939D01*
X25435000Y-38698061D01*
X25395226Y-38498102D01*
X25317205Y-38309744D01*
X25310694Y-38300000D01*
X25317205Y-38290256D01*
X25395226Y-38101898D01*
X25435000Y-37901939D01*
X25435000Y-37698061D01*
X25395226Y-37498102D01*
X25317205Y-37309744D01*
X25310694Y-37300000D01*
X25317205Y-37290256D01*
X25395226Y-37101898D01*
X25435000Y-36901939D01*
X25435000Y-36698061D01*
X25395226Y-36498102D01*
X25317205Y-36309744D01*
X25203937Y-36140226D01*
X25059774Y-35996063D01*
X24890256Y-35882795D01*
X24701898Y-35804774D01*
X24501939Y-35765000D01*
X24298061Y-35765000D01*
X24098102Y-35804774D01*
X23909744Y-35882795D01*
X23740226Y-35996063D01*
X23596063Y-36140226D01*
X23482795Y-36309744D01*
X23404774Y-36498102D01*
X23365000Y-36698061D01*
X20660000Y-36698061D01*
X20660000Y-26027089D01*
X20733902Y-25128203D01*
X20947001Y-24279818D01*
X21295803Y-23477629D01*
X21770938Y-22743182D01*
X22359646Y-22096202D01*
X23046125Y-21554054D01*
X23811928Y-21131308D01*
X24636491Y-20839316D01*
X25509076Y-20683884D01*
X26015547Y-20660000D01*
X39761536Y-20660000D01*
X39653550Y-26887160D01*
G36*
X47873000Y-21811928D02*
G01*
X46550000Y-21811928D01*
X46425518Y-21824188D01*
X46305820Y-21860498D01*
X46195506Y-21919463D01*
X46098815Y-21998815D01*
X46019463Y-22095506D01*
X45960498Y-22205820D01*
X45924188Y-22325518D01*
X45911928Y-22450000D01*
X45911928Y-24150000D01*
X45924188Y-24274482D01*
X45960498Y-24394180D01*
X46019463Y-24504494D01*
X46098815Y-24601185D01*
X46195506Y-24680537D01*
X46305820Y-24739502D01*
X46425518Y-24775812D01*
X46550000Y-24788072D01*
X47873000Y-24788072D01*
X47873000Y-31000000D01*
X47875440Y-31024776D01*
X47882667Y-31048601D01*
X47894403Y-31070557D01*
X47910197Y-31089803D01*
X47929443Y-31105597D01*
X47951399Y-31117333D01*
X47975224Y-31124560D01*
X48000000Y-31127000D01*
X55544444Y-31127000D01*
X55409744Y-31182795D01*
X55240226Y-31296063D01*
X55096063Y-31440226D01*
X54982795Y-31609744D01*
X54904774Y-31798102D01*
X54865000Y-31998061D01*
X54865000Y-32201939D01*
X54904774Y-32401898D01*
X54982795Y-32590256D01*
X55096063Y-32759774D01*
X55240226Y-32903937D01*
X55409744Y-33017205D01*
X55598102Y-33095226D01*
X55666366Y-33108804D01*
X55704774Y-33301898D01*
X55782795Y-33490256D01*
X55789306Y-33500000D01*
X55782795Y-33509744D01*
X55704774Y-33698102D01*
X55665000Y-33898061D01*
X55665000Y-34101939D01*
X55704774Y-34301898D01*
X55782795Y-34490256D01*
X55789306Y-34500000D01*
X55782795Y-34509744D01*
X55704774Y-34698102D01*
X55665000Y-34898061D01*
X55665000Y-35101939D01*
X55704774Y-35301898D01*
X55782795Y-35490256D01*
X55896063Y-35659774D01*
X56040226Y-35803937D01*
X56209744Y-35917205D01*
X56398102Y-35995226D01*
X56598061Y-36035000D01*
X56801939Y-36035000D01*
X57001898Y-35995226D01*
X57190256Y-35917205D01*
X57359774Y-35803937D01*
X57503937Y-35659774D01*
X57617205Y-35490256D01*
X57695226Y-35301898D01*
X57735000Y-35101939D01*
X57735000Y-34898061D01*
X57695226Y-34698102D01*
X57617205Y-34509744D01*
X57610694Y-34500000D01*
X57617205Y-34490256D01*
X57695226Y-34301898D01*
X57735000Y-34101939D01*
X57735000Y-33898061D01*
X57695226Y-33698102D01*
X57617205Y-33509744D01*
X57610694Y-33500000D01*
X57617205Y-33490256D01*
X57695226Y-33301898D01*
X57735000Y-33101939D01*
X57735000Y-32898061D01*
X57695226Y-32698102D01*
X57617205Y-32509744D01*
X57503937Y-32340226D01*
X57359774Y-32196063D01*
X57190256Y-32082795D01*
X57001898Y-32004774D01*
X56933634Y-31991196D01*
X56895226Y-31798102D01*
X56817205Y-31609744D01*
X56703937Y-31440226D01*
X56559774Y-31296063D01*
X56390256Y-31182795D01*
X56255556Y-31127000D01*
X59873000Y-31127000D01*
X59873000Y-37000000D01*
X59875440Y-37024776D01*
X59882667Y-37048601D01*
X59894403Y-37070557D01*
X59910197Y-37089803D01*
X59929443Y-37105597D01*
X59951399Y-37117333D01*
X59975224Y-37124560D01*
X60000000Y-37127000D01*
X64873000Y-37127000D01*
X64873000Y-40873000D01*
X64224353Y-40873000D01*
X64295226Y-40701898D01*
X64335000Y-40501939D01*
X64335000Y-40298061D01*
X64295226Y-40098102D01*
X64217205Y-39909744D01*
X64103937Y-39740226D01*
X63959774Y-39596063D01*
X63790256Y-39482795D01*
X63601898Y-39404774D01*
X63401939Y-39365000D01*
X63198061Y-39365000D01*
X62998102Y-39404774D01*
X62809744Y-39482795D01*
X62640226Y-39596063D01*
X62496063Y-39740226D01*
X62382795Y-39909744D01*
X62304774Y-40098102D01*
X62265000Y-40298061D01*
X62265000Y-40501939D01*
X62304774Y-40701898D01*
X62375647Y-40873000D01*
X59067968Y-40873000D01*
X57105670Y-37929553D01*
X57089896Y-37910291D01*
X57070668Y-37894477D01*
X57048724Y-37882718D01*
X57024907Y-37875466D01*
X57000000Y-37873000D01*
X53175447Y-37873000D01*
X53337624Y-37805824D01*
X53523520Y-37681612D01*
X53681612Y-37523520D01*
X53805824Y-37337624D01*
X53891383Y-37131067D01*
X53935000Y-36911788D01*
X53935000Y-36688212D01*
X53891383Y-36468933D01*
X53805824Y-36262376D01*
X53681612Y-36076480D01*
X53523520Y-35918388D01*
X53337624Y-35794176D01*
X53131067Y-35708617D01*
X52911788Y-35665000D01*
X52688212Y-35665000D01*
X52468933Y-35708617D01*
X52262376Y-35794176D01*
X52076480Y-35918388D01*
X51918388Y-36076480D01*
X51794176Y-36262376D01*
X51708617Y-36468933D01*
X51665000Y-36688212D01*
X51665000Y-36911788D01*
X51708617Y-37131067D01*
X51794176Y-37337624D01*
X51891919Y-37483906D01*
X51890256Y-37482795D01*
X51701898Y-37404774D01*
X51501939Y-37365000D01*
X51298061Y-37365000D01*
X51098102Y-37404774D01*
X50909744Y-37482795D01*
X50740226Y-37596063D01*
X50596063Y-37740226D01*
X50482795Y-37909744D01*
X50404774Y-38098102D01*
X50365000Y-38298061D01*
X50365000Y-38501939D01*
X50404774Y-38701898D01*
X50482795Y-38890256D01*
X50596063Y-39059774D01*
X50740226Y-39203937D01*
X50873000Y-39292654D01*
X50873000Y-41224553D01*
X50805824Y-41062376D01*
X50681612Y-40876480D01*
X50523520Y-40718388D01*
X50337624Y-40594176D01*
X50131067Y-40508617D01*
X49911788Y-40465000D01*
X49688212Y-40465000D01*
X49468933Y-40508617D01*
X49262376Y-40594176D01*
X49076480Y-40718388D01*
X48918388Y-40876480D01*
X48794176Y-41062376D01*
X48708617Y-41268933D01*
X48665000Y-41488212D01*
X48665000Y-41711788D01*
X48708617Y-41931067D01*
X48794176Y-42137624D01*
X48918388Y-42323520D01*
X49076480Y-42481612D01*
X49262376Y-42605824D01*
X49468933Y-42691383D01*
X49688212Y-42735000D01*
X49911788Y-42735000D01*
X50131067Y-42691383D01*
X50337624Y-42605824D01*
X50523520Y-42481612D01*
X50681612Y-42323520D01*
X50805824Y-42137624D01*
X50873000Y-41975447D01*
X50873000Y-43074164D01*
X50840226Y-43096063D01*
X50696063Y-43240226D01*
X50582795Y-43409744D01*
X50504774Y-43598102D01*
X50465000Y-43798061D01*
X50465000Y-44001939D01*
X50504774Y-44201898D01*
X50582795Y-44390256D01*
X50622715Y-44450000D01*
X50582795Y-44509744D01*
X50504774Y-44698102D01*
X50465000Y-44898061D01*
X50465000Y-45101939D01*
X50504774Y-45301898D01*
X50582795Y-45490256D01*
X50589306Y-45500000D01*
X50582795Y-45509744D01*
X50504774Y-45698102D01*
X50465000Y-45898061D01*
X50465000Y-46101939D01*
X50504774Y-46301898D01*
X50582795Y-46490256D01*
X50696063Y-46659774D01*
X50840226Y-46803937D01*
X51009744Y-46917205D01*
X51198102Y-46995226D01*
X51398061Y-47035000D01*
X51601939Y-47035000D01*
X51801898Y-46995226D01*
X51990256Y-46917205D01*
X52159774Y-46803937D01*
X52303937Y-46659774D01*
X52417205Y-46490256D01*
X52495226Y-46301898D01*
X52530015Y-46127000D01*
X55873000Y-46127000D01*
X55873000Y-48138083D01*
X55790256Y-48082795D01*
X55601898Y-48004774D01*
X55401939Y-47965000D01*
X55198061Y-47965000D01*
X54998102Y-48004774D01*
X54809744Y-48082795D01*
X54640226Y-48196063D01*
X54496063Y-48340226D01*
X54382795Y-48509744D01*
X54304774Y-48698102D01*
X54265000Y-48898061D01*
X54265000Y-49101939D01*
X54304774Y-49301898D01*
X54382795Y-49490256D01*
X54496063Y-49659774D01*
X54640226Y-49803937D01*
X54809744Y-49917205D01*
X54998102Y-49995226D01*
X55198061Y-50035000D01*
X55401939Y-50035000D01*
X55601898Y-49995226D01*
X55790256Y-49917205D01*
X55873000Y-49861917D01*
X55873000Y-54799026D01*
X55701939Y-54765000D01*
X55498061Y-54765000D01*
X55298102Y-54804774D01*
X55109744Y-54882795D01*
X54940226Y-54996063D01*
X54796063Y-55140226D01*
X54682795Y-55309744D01*
X54604774Y-55498102D01*
X54565000Y-55698061D01*
X54565000Y-55901939D01*
X54604774Y-56101898D01*
X54682795Y-56290256D01*
X54796063Y-56459774D01*
X54940226Y-56603937D01*
X55109744Y-56717205D01*
X55298102Y-56795226D01*
X55498061Y-56835000D01*
X55701939Y-56835000D01*
X55873000Y-56800974D01*
X55873000Y-58873000D01*
X51127000Y-58873000D01*
X51127000Y-51000000D01*
X51124560Y-50975224D01*
X51117333Y-50951399D01*
X51105597Y-50929443D01*
X51089803Y-50910197D01*
X51070557Y-50894403D01*
X51048601Y-50882667D01*
X51024776Y-50875440D01*
X50997952Y-50873017D01*
X44927000Y-50970936D01*
X44927000Y-49084828D01*
X45090256Y-49017205D01*
X45259774Y-48903937D01*
X45403937Y-48759774D01*
X45517205Y-48590256D01*
X45595226Y-48401898D01*
X45635000Y-48201939D01*
X45635000Y-47998061D01*
X45595226Y-47798102D01*
X45517205Y-47609744D01*
X45403937Y-47440226D01*
X45259774Y-47296063D01*
X45090256Y-47182795D01*
X44927000Y-47115172D01*
X44927000Y-43498061D01*
X44965000Y-43498061D01*
X44965000Y-43701939D01*
X45004774Y-43901898D01*
X45082795Y-44090256D01*
X45196063Y-44259774D01*
X45340226Y-44403937D01*
X45509744Y-44517205D01*
X45588918Y-44550000D01*
X45509744Y-44582795D01*
X45340226Y-44696063D01*
X45196063Y-44840226D01*
X45082795Y-45009744D01*
X45004774Y-45198102D01*
X44965000Y-45398061D01*
X44965000Y-45601939D01*
X45004774Y-45801898D01*
X45082795Y-45990256D01*
X45196063Y-46159774D01*
X45340226Y-46303937D01*
X45509744Y-46417205D01*
X45698102Y-46495226D01*
X45898061Y-46535000D01*
X46101939Y-46535000D01*
X46301898Y-46495226D01*
X46490256Y-46417205D01*
X46659774Y-46303937D01*
X46803937Y-46159774D01*
X46917205Y-45990256D01*
X46995226Y-45801898D01*
X47035000Y-45601939D01*
X47035000Y-45398061D01*
X46995226Y-45198102D01*
X46917205Y-45009744D01*
X46803937Y-44840226D01*
X46761772Y-44798061D01*
X48265000Y-44798061D01*
X48265000Y-45001939D01*
X48304774Y-45201898D01*
X48382795Y-45390256D01*
X48489532Y-45550000D01*
X48382795Y-45709744D01*
X48304774Y-45898102D01*
X48265000Y-46098061D01*
X48265000Y-46301939D01*
X48304774Y-46501898D01*
X48382795Y-46690256D01*
X48496063Y-46859774D01*
X48640226Y-47003937D01*
X48809744Y-47117205D01*
X48998102Y-47195226D01*
X49198061Y-47235000D01*
X49401939Y-47235000D01*
X49601898Y-47195226D01*
X49790256Y-47117205D01*
X49959774Y-47003937D01*
X50103937Y-46859774D01*
X50217205Y-46690256D01*
X50295226Y-46501898D01*
X50335000Y-46301939D01*
X50335000Y-46098061D01*
X50295226Y-45898102D01*
X50217205Y-45709744D01*
X50110468Y-45550000D01*
X50217205Y-45390256D01*
X50295226Y-45201898D01*
X50335000Y-45001939D01*
X50335000Y-44798061D01*
X50295226Y-44598102D01*
X50217205Y-44409744D01*
X50103937Y-44240226D01*
X49959774Y-44096063D01*
X49790256Y-43982795D01*
X49601898Y-43904774D01*
X49401939Y-43865000D01*
X49198061Y-43865000D01*
X48998102Y-43904774D01*
X48809744Y-43982795D01*
X48640226Y-44096063D01*
X48496063Y-44240226D01*
X48382795Y-44409744D01*
X48304774Y-44598102D01*
X48265000Y-44798061D01*
X46761772Y-44798061D01*
X46659774Y-44696063D01*
X46490256Y-44582795D01*
X46411082Y-44550000D01*
X46490256Y-44517205D01*
X46659774Y-44403937D01*
X46803937Y-44259774D01*
X46917205Y-44090256D01*
X46995226Y-43901898D01*
X47035000Y-43701939D01*
X47035000Y-43498061D01*
X46995226Y-43298102D01*
X46917205Y-43109744D01*
X46803937Y-42940226D01*
X46659774Y-42796063D01*
X46490256Y-42682795D01*
X46301898Y-42604774D01*
X46101939Y-42565000D01*
X45898061Y-42565000D01*
X45698102Y-42604774D01*
X45509744Y-42682795D01*
X45340226Y-42796063D01*
X45196063Y-42940226D01*
X45082795Y-43109744D01*
X45004774Y-43298102D01*
X44965000Y-43498061D01*
X44927000Y-43498061D01*
X44927000Y-40036711D01*
X45003937Y-39959774D01*
X45117205Y-39790256D01*
X45195226Y-39601898D01*
X45235000Y-39401939D01*
X45235000Y-39198061D01*
X45195226Y-38998102D01*
X45117205Y-38809744D01*
X45003937Y-38640226D01*
X44927000Y-38563289D01*
X44927000Y-35900000D01*
X44924560Y-35875224D01*
X44917333Y-35851399D01*
X44905597Y-35829443D01*
X44889803Y-35810197D01*
X44870557Y-35794403D01*
X44848601Y-35782667D01*
X44824776Y-35775440D01*
X44800000Y-35773000D01*
X41610124Y-35773000D01*
X41595226Y-35698102D01*
X41517205Y-35509744D01*
X41403937Y-35340226D01*
X41259774Y-35196063D01*
X41090256Y-35082795D01*
X40927000Y-35015172D01*
X40927000Y-34198061D01*
X42865000Y-34198061D01*
X42865000Y-34401939D01*
X42904774Y-34601898D01*
X42982795Y-34790256D01*
X43096063Y-34959774D01*
X43240226Y-35103937D01*
X43409744Y-35217205D01*
X43598102Y-35295226D01*
X43798061Y-35335000D01*
X44001939Y-35335000D01*
X44201898Y-35295226D01*
X44390256Y-35217205D01*
X44559774Y-35103937D01*
X44619108Y-35044603D01*
X44696063Y-35159774D01*
X44840226Y-35303937D01*
X45009744Y-35417205D01*
X45198102Y-35495226D01*
X45398061Y-35535000D01*
X45601939Y-35535000D01*
X45801898Y-35495226D01*
X45990256Y-35417205D01*
X46159774Y-35303937D01*
X46303937Y-35159774D01*
X46417205Y-34990256D01*
X46495226Y-34801898D01*
X46535000Y-34601939D01*
X46535000Y-34398061D01*
X46495226Y-34198102D01*
X46417205Y-34009744D01*
X46303937Y-33840226D01*
X46159774Y-33696063D01*
X45990256Y-33582795D01*
X45801898Y-33504774D01*
X45601939Y-33465000D01*
X45398061Y-33465000D01*
X45198102Y-33504774D01*
X45009744Y-33582795D01*
X44840226Y-33696063D01*
X44780892Y-33755397D01*
X44703937Y-33640226D01*
X44559774Y-33496063D01*
X44413104Y-33398061D01*
X50665000Y-33398061D01*
X50665000Y-33601939D01*
X50704774Y-33801898D01*
X50782795Y-33990256D01*
X50896063Y-34159774D01*
X51040226Y-34303937D01*
X51209744Y-34417205D01*
X51398102Y-34495226D01*
X51598061Y-34535000D01*
X51801939Y-34535000D01*
X52001898Y-34495226D01*
X52190256Y-34417205D01*
X52359774Y-34303937D01*
X52503937Y-34159774D01*
X52617205Y-33990256D01*
X52695226Y-33801898D01*
X52735000Y-33601939D01*
X52735000Y-33398061D01*
X52695226Y-33198102D01*
X52617205Y-33009744D01*
X52503937Y-32840226D01*
X52359774Y-32696063D01*
X52190256Y-32582795D01*
X52001898Y-32504774D01*
X51801939Y-32465000D01*
X51598061Y-32465000D01*
X51398102Y-32504774D01*
X51209744Y-32582795D01*
X51040226Y-32696063D01*
X50896063Y-32840226D01*
X50782795Y-33009744D01*
X50704774Y-33198102D01*
X50665000Y-33398061D01*
X44413104Y-33398061D01*
X44390256Y-33382795D01*
X44201898Y-33304774D01*
X44001939Y-33265000D01*
X43798061Y-33265000D01*
X43598102Y-33304774D01*
X43409744Y-33382795D01*
X43240226Y-33496063D01*
X43096063Y-33640226D01*
X42982795Y-33809744D01*
X42904774Y-33998102D01*
X42865000Y-34198061D01*
X40927000Y-34198061D01*
X40927000Y-30888212D01*
X41465000Y-30888212D01*
X41465000Y-31111788D01*
X41508617Y-31331067D01*
X41594176Y-31537624D01*
X41718388Y-31723520D01*
X41876480Y-31881612D01*
X42062376Y-32005824D01*
X42268933Y-32091383D01*
X42488212Y-32135000D01*
X42711788Y-32135000D01*
X42931067Y-32091383D01*
X43137624Y-32005824D01*
X43323520Y-31881612D01*
X43481612Y-31723520D01*
X43502775Y-31691848D01*
X43504774Y-31701898D01*
X43582795Y-31890256D01*
X43696063Y-32059774D01*
X43840226Y-32203937D01*
X44009744Y-32317205D01*
X44198102Y-32395226D01*
X44398061Y-32435000D01*
X44601939Y-32435000D01*
X44801898Y-32395226D01*
X44990256Y-32317205D01*
X45159774Y-32203937D01*
X45303937Y-32059774D01*
X45417205Y-31890256D01*
X45495226Y-31701898D01*
X45535000Y-31501939D01*
X45535000Y-31298061D01*
X45495226Y-31098102D01*
X45417205Y-30909744D01*
X45303937Y-30740226D01*
X45159774Y-30596063D01*
X44990256Y-30482795D01*
X44801898Y-30404774D01*
X44601939Y-30365000D01*
X44398061Y-30365000D01*
X44198102Y-30404774D01*
X44009744Y-30482795D01*
X43840226Y-30596063D01*
X43703988Y-30732301D01*
X43691383Y-30668933D01*
X43605824Y-30462376D01*
X43481612Y-30276480D01*
X43323520Y-30118388D01*
X43137624Y-29994176D01*
X42931067Y-29908617D01*
X42877999Y-29898061D01*
X45665000Y-29898061D01*
X45665000Y-30101939D01*
X45704774Y-30301898D01*
X45782795Y-30490256D01*
X45896063Y-30659774D01*
X46040226Y-30803937D01*
X46209744Y-30917205D01*
X46398102Y-30995226D01*
X46598061Y-31035000D01*
X46801939Y-31035000D01*
X47001898Y-30995226D01*
X47190256Y-30917205D01*
X47359774Y-30803937D01*
X47503937Y-30659774D01*
X47617205Y-30490256D01*
X47695226Y-30301898D01*
X47735000Y-30101939D01*
X47735000Y-29898061D01*
X47695226Y-29698102D01*
X47617205Y-29509744D01*
X47503937Y-29340226D01*
X47359774Y-29196063D01*
X47190256Y-29082795D01*
X47001898Y-29004774D01*
X46801939Y-28965000D01*
X46598061Y-28965000D01*
X46398102Y-29004774D01*
X46209744Y-29082795D01*
X46040226Y-29196063D01*
X45896063Y-29340226D01*
X45782795Y-29509744D01*
X45704774Y-29698102D01*
X45665000Y-29898061D01*
X42877999Y-29898061D01*
X42711788Y-29865000D01*
X42488212Y-29865000D01*
X42268933Y-29908617D01*
X42062376Y-29994176D01*
X41876480Y-30118388D01*
X41718388Y-30276480D01*
X41594176Y-30462376D01*
X41508617Y-30668933D01*
X41465000Y-30888212D01*
X40927000Y-30888212D01*
X40927000Y-28525836D01*
X40959774Y-28503937D01*
X41103937Y-28359774D01*
X41217205Y-28190256D01*
X41295226Y-28001898D01*
X41335000Y-27801939D01*
X41335000Y-27598061D01*
X41295226Y-27398102D01*
X41217205Y-27209744D01*
X41103937Y-27040226D01*
X40959774Y-26896063D01*
X40927000Y-26874164D01*
X40927000Y-23998061D01*
X43465000Y-23998061D01*
X43465000Y-24201939D01*
X43504774Y-24401898D01*
X43582795Y-24590256D01*
X43696063Y-24759774D01*
X43840226Y-24903937D01*
X44009744Y-25017205D01*
X44198102Y-25095226D01*
X44398061Y-25135000D01*
X44601939Y-25135000D01*
X44801898Y-25095226D01*
X44990256Y-25017205D01*
X45159774Y-24903937D01*
X45303937Y-24759774D01*
X45417205Y-24590256D01*
X45495226Y-24401898D01*
X45535000Y-24201939D01*
X45535000Y-23998061D01*
X45495226Y-23798102D01*
X45417205Y-23609744D01*
X45303937Y-23440226D01*
X45159774Y-23296063D01*
X44990256Y-23182795D01*
X44801898Y-23104774D01*
X44601939Y-23065000D01*
X44398061Y-23065000D01*
X44198102Y-23104774D01*
X44009744Y-23182795D01*
X43840226Y-23296063D01*
X43696063Y-23440226D01*
X43582795Y-23609744D01*
X43504774Y-23798102D01*
X43465000Y-23998061D01*
X40927000Y-23998061D01*
X40927000Y-20660000D01*
X47873000Y-20660000D01*
X47873000Y-21811928D01*
G37*
X47873000Y-21811928D02*
X46550000Y-21811928D01*
X46425518Y-21824188D01*
X46305820Y-21860498D01*
X46195506Y-21919463D01*
X46098815Y-21998815D01*
X46019463Y-22095506D01*
X45960498Y-22205820D01*
X45924188Y-22325518D01*
X45911928Y-22450000D01*
X45911928Y-24150000D01*
X45924188Y-24274482D01*
X45960498Y-24394180D01*
X46019463Y-24504494D01*
X46098815Y-24601185D01*
X46195506Y-24680537D01*
X46305820Y-24739502D01*
X46425518Y-24775812D01*
X46550000Y-24788072D01*
X47873000Y-24788072D01*
X47873000Y-31000000D01*
X47875440Y-31024776D01*
X47882667Y-31048601D01*
X47894403Y-31070557D01*
X47910197Y-31089803D01*
X47929443Y-31105597D01*
X47951399Y-31117333D01*
X47975224Y-31124560D01*
X48000000Y-31127000D01*
X55544444Y-31127000D01*
X55409744Y-31182795D01*
X55240226Y-31296063D01*
X55096063Y-31440226D01*
X54982795Y-31609744D01*
X54904774Y-31798102D01*
X54865000Y-31998061D01*
X54865000Y-32201939D01*
X54904774Y-32401898D01*
X54982795Y-32590256D01*
X55096063Y-32759774D01*
X55240226Y-32903937D01*
X55409744Y-33017205D01*
X55598102Y-33095226D01*
X55666366Y-33108804D01*
X55704774Y-33301898D01*
X55782795Y-33490256D01*
X55789306Y-33500000D01*
X55782795Y-33509744D01*
X55704774Y-33698102D01*
X55665000Y-33898061D01*
X55665000Y-34101939D01*
X55704774Y-34301898D01*
X55782795Y-34490256D01*
X55789306Y-34500000D01*
X55782795Y-34509744D01*
X55704774Y-34698102D01*
X55665000Y-34898061D01*
X55665000Y-35101939D01*
X55704774Y-35301898D01*
X55782795Y-35490256D01*
X55896063Y-35659774D01*
X56040226Y-35803937D01*
X56209744Y-35917205D01*
X56398102Y-35995226D01*
X56598061Y-36035000D01*
X56801939Y-36035000D01*
X57001898Y-35995226D01*
X57190256Y-35917205D01*
X57359774Y-35803937D01*
X57503937Y-35659774D01*
X57617205Y-35490256D01*
X57695226Y-35301898D01*
X57735000Y-35101939D01*
X57735000Y-34898061D01*
X57695226Y-34698102D01*
X57617205Y-34509744D01*
X57610694Y-34500000D01*
X57617205Y-34490256D01*
X57695226Y-34301898D01*
X57735000Y-34101939D01*
X57735000Y-33898061D01*
X57695226Y-33698102D01*
X57617205Y-33509744D01*
X57610694Y-33500000D01*
X57617205Y-33490256D01*
X57695226Y-33301898D01*
X57735000Y-33101939D01*
X57735000Y-32898061D01*
X57695226Y-32698102D01*
X57617205Y-32509744D01*
X57503937Y-32340226D01*
X57359774Y-32196063D01*
X57190256Y-32082795D01*
X57001898Y-32004774D01*
X56933634Y-31991196D01*
X56895226Y-31798102D01*
X56817205Y-31609744D01*
X56703937Y-31440226D01*
X56559774Y-31296063D01*
X56390256Y-31182795D01*
X56255556Y-31127000D01*
X59873000Y-31127000D01*
X59873000Y-37000000D01*
X59875440Y-37024776D01*
X59882667Y-37048601D01*
X59894403Y-37070557D01*
X59910197Y-37089803D01*
X59929443Y-37105597D01*
X59951399Y-37117333D01*
X59975224Y-37124560D01*
X60000000Y-37127000D01*
X64873000Y-37127000D01*
X64873000Y-40873000D01*
X64224353Y-40873000D01*
X64295226Y-40701898D01*
X64335000Y-40501939D01*
X64335000Y-40298061D01*
X64295226Y-40098102D01*
X64217205Y-39909744D01*
X64103937Y-39740226D01*
X63959774Y-39596063D01*
X63790256Y-39482795D01*
X63601898Y-39404774D01*
X63401939Y-39365000D01*
X63198061Y-39365000D01*
X62998102Y-39404774D01*
X62809744Y-39482795D01*
X62640226Y-39596063D01*
X62496063Y-39740226D01*
X62382795Y-39909744D01*
X62304774Y-40098102D01*
X62265000Y-40298061D01*
X62265000Y-40501939D01*
X62304774Y-40701898D01*
X62375647Y-40873000D01*
X59067968Y-40873000D01*
X57105670Y-37929553D01*
X57089896Y-37910291D01*
X57070668Y-37894477D01*
X57048724Y-37882718D01*
X57024907Y-37875466D01*
X57000000Y-37873000D01*
X53175447Y-37873000D01*
X53337624Y-37805824D01*
X53523520Y-37681612D01*
X53681612Y-37523520D01*
X53805824Y-37337624D01*
X53891383Y-37131067D01*
X53935000Y-36911788D01*
X53935000Y-36688212D01*
X53891383Y-36468933D01*
X53805824Y-36262376D01*
X53681612Y-36076480D01*
X53523520Y-35918388D01*
X53337624Y-35794176D01*
X53131067Y-35708617D01*
X52911788Y-35665000D01*
X52688212Y-35665000D01*
X52468933Y-35708617D01*
X52262376Y-35794176D01*
X52076480Y-35918388D01*
X51918388Y-36076480D01*
X51794176Y-36262376D01*
X51708617Y-36468933D01*
X51665000Y-36688212D01*
X51665000Y-36911788D01*
X51708617Y-37131067D01*
X51794176Y-37337624D01*
X51891919Y-37483906D01*
X51890256Y-37482795D01*
X51701898Y-37404774D01*
X51501939Y-37365000D01*
X51298061Y-37365000D01*
X51098102Y-37404774D01*
X50909744Y-37482795D01*
X50740226Y-37596063D01*
X50596063Y-37740226D01*
X50482795Y-37909744D01*
X50404774Y-38098102D01*
X50365000Y-38298061D01*
X50365000Y-38501939D01*
X50404774Y-38701898D01*
X50482795Y-38890256D01*
X50596063Y-39059774D01*
X50740226Y-39203937D01*
X50873000Y-39292654D01*
X50873000Y-41224553D01*
X50805824Y-41062376D01*
X50681612Y-40876480D01*
X50523520Y-40718388D01*
X50337624Y-40594176D01*
X50131067Y-40508617D01*
X49911788Y-40465000D01*
X49688212Y-40465000D01*
X49468933Y-40508617D01*
X49262376Y-40594176D01*
X49076480Y-40718388D01*
X48918388Y-40876480D01*
X48794176Y-41062376D01*
X48708617Y-41268933D01*
X48665000Y-41488212D01*
X48665000Y-41711788D01*
X48708617Y-41931067D01*
X48794176Y-42137624D01*
X48918388Y-42323520D01*
X49076480Y-42481612D01*
X49262376Y-42605824D01*
X49468933Y-42691383D01*
X49688212Y-42735000D01*
X49911788Y-42735000D01*
X50131067Y-42691383D01*
X50337624Y-42605824D01*
X50523520Y-42481612D01*
X50681612Y-42323520D01*
X50805824Y-42137624D01*
X50873000Y-41975447D01*
X50873000Y-43074164D01*
X50840226Y-43096063D01*
X50696063Y-43240226D01*
X50582795Y-43409744D01*
X50504774Y-43598102D01*
X50465000Y-43798061D01*
X50465000Y-44001939D01*
X50504774Y-44201898D01*
X50582795Y-44390256D01*
X50622715Y-44450000D01*
X50582795Y-44509744D01*
X50504774Y-44698102D01*
X50465000Y-44898061D01*
X50465000Y-45101939D01*
X50504774Y-45301898D01*
X50582795Y-45490256D01*
X50589306Y-45500000D01*
X50582795Y-45509744D01*
X50504774Y-45698102D01*
X50465000Y-45898061D01*
X50465000Y-46101939D01*
X50504774Y-46301898D01*
X50582795Y-46490256D01*
X50696063Y-46659774D01*
X50840226Y-46803937D01*
X51009744Y-46917205D01*
X51198102Y-46995226D01*
X51398061Y-47035000D01*
X51601939Y-47035000D01*
X51801898Y-46995226D01*
X51990256Y-46917205D01*
X52159774Y-46803937D01*
X52303937Y-46659774D01*
X52417205Y-46490256D01*
X52495226Y-46301898D01*
X52530015Y-46127000D01*
X55873000Y-46127000D01*
X55873000Y-48138083D01*
X55790256Y-48082795D01*
X55601898Y-48004774D01*
X55401939Y-47965000D01*
X55198061Y-47965000D01*
X54998102Y-48004774D01*
X54809744Y-48082795D01*
X54640226Y-48196063D01*
X54496063Y-48340226D01*
X54382795Y-48509744D01*
X54304774Y-48698102D01*
X54265000Y-48898061D01*
X54265000Y-49101939D01*
X54304774Y-49301898D01*
X54382795Y-49490256D01*
X54496063Y-49659774D01*
X54640226Y-49803937D01*
X54809744Y-49917205D01*
X54998102Y-49995226D01*
X55198061Y-50035000D01*
X55401939Y-50035000D01*
X55601898Y-49995226D01*
X55790256Y-49917205D01*
X55873000Y-49861917D01*
X55873000Y-54799026D01*
X55701939Y-54765000D01*
X55498061Y-54765000D01*
X55298102Y-54804774D01*
X55109744Y-54882795D01*
X54940226Y-54996063D01*
X54796063Y-55140226D01*
X54682795Y-55309744D01*
X54604774Y-55498102D01*
X54565000Y-55698061D01*
X54565000Y-55901939D01*
X54604774Y-56101898D01*
X54682795Y-56290256D01*
X54796063Y-56459774D01*
X54940226Y-56603937D01*
X55109744Y-56717205D01*
X55298102Y-56795226D01*
X55498061Y-56835000D01*
X55701939Y-56835000D01*
X55873000Y-56800974D01*
X55873000Y-58873000D01*
X51127000Y-58873000D01*
X51127000Y-51000000D01*
X51124560Y-50975224D01*
X51117333Y-50951399D01*
X51105597Y-50929443D01*
X51089803Y-50910197D01*
X51070557Y-50894403D01*
X51048601Y-50882667D01*
X51024776Y-50875440D01*
X50997952Y-50873017D01*
X44927000Y-50970936D01*
X44927000Y-49084828D01*
X45090256Y-49017205D01*
X45259774Y-48903937D01*
X45403937Y-48759774D01*
X45517205Y-48590256D01*
X45595226Y-48401898D01*
X45635000Y-48201939D01*
X45635000Y-47998061D01*
X45595226Y-47798102D01*
X45517205Y-47609744D01*
X45403937Y-47440226D01*
X45259774Y-47296063D01*
X45090256Y-47182795D01*
X44927000Y-47115172D01*
X44927000Y-43498061D01*
X44965000Y-43498061D01*
X44965000Y-43701939D01*
X45004774Y-43901898D01*
X45082795Y-44090256D01*
X45196063Y-44259774D01*
X45340226Y-44403937D01*
X45509744Y-44517205D01*
X45588918Y-44550000D01*
X45509744Y-44582795D01*
X45340226Y-44696063D01*
X45196063Y-44840226D01*
X45082795Y-45009744D01*
X45004774Y-45198102D01*
X44965000Y-45398061D01*
X44965000Y-45601939D01*
X45004774Y-45801898D01*
X45082795Y-45990256D01*
X45196063Y-46159774D01*
X45340226Y-46303937D01*
X45509744Y-46417205D01*
X45698102Y-46495226D01*
X45898061Y-46535000D01*
X46101939Y-46535000D01*
X46301898Y-46495226D01*
X46490256Y-46417205D01*
X46659774Y-46303937D01*
X46803937Y-46159774D01*
X46917205Y-45990256D01*
X46995226Y-45801898D01*
X47035000Y-45601939D01*
X47035000Y-45398061D01*
X46995226Y-45198102D01*
X46917205Y-45009744D01*
X46803937Y-44840226D01*
X46761772Y-44798061D01*
X48265000Y-44798061D01*
X48265000Y-45001939D01*
X48304774Y-45201898D01*
X48382795Y-45390256D01*
X48489532Y-45550000D01*
X48382795Y-45709744D01*
X48304774Y-45898102D01*
X48265000Y-46098061D01*
X48265000Y-46301939D01*
X48304774Y-46501898D01*
X48382795Y-46690256D01*
X48496063Y-46859774D01*
X48640226Y-47003937D01*
X48809744Y-47117205D01*
X48998102Y-47195226D01*
X49198061Y-47235000D01*
X49401939Y-47235000D01*
X49601898Y-47195226D01*
X49790256Y-47117205D01*
X49959774Y-47003937D01*
X50103937Y-46859774D01*
X50217205Y-46690256D01*
X50295226Y-46501898D01*
X50335000Y-46301939D01*
X50335000Y-46098061D01*
X50295226Y-45898102D01*
X50217205Y-45709744D01*
X50110468Y-45550000D01*
X50217205Y-45390256D01*
X50295226Y-45201898D01*
X50335000Y-45001939D01*
X50335000Y-44798061D01*
X50295226Y-44598102D01*
X50217205Y-44409744D01*
X50103937Y-44240226D01*
X49959774Y-44096063D01*
X49790256Y-43982795D01*
X49601898Y-43904774D01*
X49401939Y-43865000D01*
X49198061Y-43865000D01*
X48998102Y-43904774D01*
X48809744Y-43982795D01*
X48640226Y-44096063D01*
X48496063Y-44240226D01*
X48382795Y-44409744D01*
X48304774Y-44598102D01*
X48265000Y-44798061D01*
X46761772Y-44798061D01*
X46659774Y-44696063D01*
X46490256Y-44582795D01*
X46411082Y-44550000D01*
X46490256Y-44517205D01*
X46659774Y-44403937D01*
X46803937Y-44259774D01*
X46917205Y-44090256D01*
X46995226Y-43901898D01*
X47035000Y-43701939D01*
X47035000Y-43498061D01*
X46995226Y-43298102D01*
X46917205Y-43109744D01*
X46803937Y-42940226D01*
X46659774Y-42796063D01*
X46490256Y-42682795D01*
X46301898Y-42604774D01*
X46101939Y-42565000D01*
X45898061Y-42565000D01*
X45698102Y-42604774D01*
X45509744Y-42682795D01*
X45340226Y-42796063D01*
X45196063Y-42940226D01*
X45082795Y-43109744D01*
X45004774Y-43298102D01*
X44965000Y-43498061D01*
X44927000Y-43498061D01*
X44927000Y-40036711D01*
X45003937Y-39959774D01*
X45117205Y-39790256D01*
X45195226Y-39601898D01*
X45235000Y-39401939D01*
X45235000Y-39198061D01*
X45195226Y-38998102D01*
X45117205Y-38809744D01*
X45003937Y-38640226D01*
X44927000Y-38563289D01*
X44927000Y-35900000D01*
X44924560Y-35875224D01*
X44917333Y-35851399D01*
X44905597Y-35829443D01*
X44889803Y-35810197D01*
X44870557Y-35794403D01*
X44848601Y-35782667D01*
X44824776Y-35775440D01*
X44800000Y-35773000D01*
X41610124Y-35773000D01*
X41595226Y-35698102D01*
X41517205Y-35509744D01*
X41403937Y-35340226D01*
X41259774Y-35196063D01*
X41090256Y-35082795D01*
X40927000Y-35015172D01*
X40927000Y-34198061D01*
X42865000Y-34198061D01*
X42865000Y-34401939D01*
X42904774Y-34601898D01*
X42982795Y-34790256D01*
X43096063Y-34959774D01*
X43240226Y-35103937D01*
X43409744Y-35217205D01*
X43598102Y-35295226D01*
X43798061Y-35335000D01*
X44001939Y-35335000D01*
X44201898Y-35295226D01*
X44390256Y-35217205D01*
X44559774Y-35103937D01*
X44619108Y-35044603D01*
X44696063Y-35159774D01*
X44840226Y-35303937D01*
X45009744Y-35417205D01*
X45198102Y-35495226D01*
X45398061Y-35535000D01*
X45601939Y-35535000D01*
X45801898Y-35495226D01*
X45990256Y-35417205D01*
X46159774Y-35303937D01*
X46303937Y-35159774D01*
X46417205Y-34990256D01*
X46495226Y-34801898D01*
X46535000Y-34601939D01*
X46535000Y-34398061D01*
X46495226Y-34198102D01*
X46417205Y-34009744D01*
X46303937Y-33840226D01*
X46159774Y-33696063D01*
X45990256Y-33582795D01*
X45801898Y-33504774D01*
X45601939Y-33465000D01*
X45398061Y-33465000D01*
X45198102Y-33504774D01*
X45009744Y-33582795D01*
X44840226Y-33696063D01*
X44780892Y-33755397D01*
X44703937Y-33640226D01*
X44559774Y-33496063D01*
X44413104Y-33398061D01*
X50665000Y-33398061D01*
X50665000Y-33601939D01*
X50704774Y-33801898D01*
X50782795Y-33990256D01*
X50896063Y-34159774D01*
X51040226Y-34303937D01*
X51209744Y-34417205D01*
X51398102Y-34495226D01*
X51598061Y-34535000D01*
X51801939Y-34535000D01*
X52001898Y-34495226D01*
X52190256Y-34417205D01*
X52359774Y-34303937D01*
X52503937Y-34159774D01*
X52617205Y-33990256D01*
X52695226Y-33801898D01*
X52735000Y-33601939D01*
X52735000Y-33398061D01*
X52695226Y-33198102D01*
X52617205Y-33009744D01*
X52503937Y-32840226D01*
X52359774Y-32696063D01*
X52190256Y-32582795D01*
X52001898Y-32504774D01*
X51801939Y-32465000D01*
X51598061Y-32465000D01*
X51398102Y-32504774D01*
X51209744Y-32582795D01*
X51040226Y-32696063D01*
X50896063Y-32840226D01*
X50782795Y-33009744D01*
X50704774Y-33198102D01*
X50665000Y-33398061D01*
X44413104Y-33398061D01*
X44390256Y-33382795D01*
X44201898Y-33304774D01*
X44001939Y-33265000D01*
X43798061Y-33265000D01*
X43598102Y-33304774D01*
X43409744Y-33382795D01*
X43240226Y-33496063D01*
X43096063Y-33640226D01*
X42982795Y-33809744D01*
X42904774Y-33998102D01*
X42865000Y-34198061D01*
X40927000Y-34198061D01*
X40927000Y-30888212D01*
X41465000Y-30888212D01*
X41465000Y-31111788D01*
X41508617Y-31331067D01*
X41594176Y-31537624D01*
X41718388Y-31723520D01*
X41876480Y-31881612D01*
X42062376Y-32005824D01*
X42268933Y-32091383D01*
X42488212Y-32135000D01*
X42711788Y-32135000D01*
X42931067Y-32091383D01*
X43137624Y-32005824D01*
X43323520Y-31881612D01*
X43481612Y-31723520D01*
X43502775Y-31691848D01*
X43504774Y-31701898D01*
X43582795Y-31890256D01*
X43696063Y-32059774D01*
X43840226Y-32203937D01*
X44009744Y-32317205D01*
X44198102Y-32395226D01*
X44398061Y-32435000D01*
X44601939Y-32435000D01*
X44801898Y-32395226D01*
X44990256Y-32317205D01*
X45159774Y-32203937D01*
X45303937Y-32059774D01*
X45417205Y-31890256D01*
X45495226Y-31701898D01*
X45535000Y-31501939D01*
X45535000Y-31298061D01*
X45495226Y-31098102D01*
X45417205Y-30909744D01*
X45303937Y-30740226D01*
X45159774Y-30596063D01*
X44990256Y-30482795D01*
X44801898Y-30404774D01*
X44601939Y-30365000D01*
X44398061Y-30365000D01*
X44198102Y-30404774D01*
X44009744Y-30482795D01*
X43840226Y-30596063D01*
X43703988Y-30732301D01*
X43691383Y-30668933D01*
X43605824Y-30462376D01*
X43481612Y-30276480D01*
X43323520Y-30118388D01*
X43137624Y-29994176D01*
X42931067Y-29908617D01*
X42877999Y-29898061D01*
X45665000Y-29898061D01*
X45665000Y-30101939D01*
X45704774Y-30301898D01*
X45782795Y-30490256D01*
X45896063Y-30659774D01*
X46040226Y-30803937D01*
X46209744Y-30917205D01*
X46398102Y-30995226D01*
X46598061Y-31035000D01*
X46801939Y-31035000D01*
X47001898Y-30995226D01*
X47190256Y-30917205D01*
X47359774Y-30803937D01*
X47503937Y-30659774D01*
X47617205Y-30490256D01*
X47695226Y-30301898D01*
X47735000Y-30101939D01*
X47735000Y-29898061D01*
X47695226Y-29698102D01*
X47617205Y-29509744D01*
X47503937Y-29340226D01*
X47359774Y-29196063D01*
X47190256Y-29082795D01*
X47001898Y-29004774D01*
X46801939Y-28965000D01*
X46598061Y-28965000D01*
X46398102Y-29004774D01*
X46209744Y-29082795D01*
X46040226Y-29196063D01*
X45896063Y-29340226D01*
X45782795Y-29509744D01*
X45704774Y-29698102D01*
X45665000Y-29898061D01*
X42877999Y-29898061D01*
X42711788Y-29865000D01*
X42488212Y-29865000D01*
X42268933Y-29908617D01*
X42062376Y-29994176D01*
X41876480Y-30118388D01*
X41718388Y-30276480D01*
X41594176Y-30462376D01*
X41508617Y-30668933D01*
X41465000Y-30888212D01*
X40927000Y-30888212D01*
X40927000Y-28525836D01*
X40959774Y-28503937D01*
X41103937Y-28359774D01*
X41217205Y-28190256D01*
X41295226Y-28001898D01*
X41335000Y-27801939D01*
X41335000Y-27598061D01*
X41295226Y-27398102D01*
X41217205Y-27209744D01*
X41103937Y-27040226D01*
X40959774Y-26896063D01*
X40927000Y-26874164D01*
X40927000Y-23998061D01*
X43465000Y-23998061D01*
X43465000Y-24201939D01*
X43504774Y-24401898D01*
X43582795Y-24590256D01*
X43696063Y-24759774D01*
X43840226Y-24903937D01*
X44009744Y-25017205D01*
X44198102Y-25095226D01*
X44398061Y-25135000D01*
X44601939Y-25135000D01*
X44801898Y-25095226D01*
X44990256Y-25017205D01*
X45159774Y-24903937D01*
X45303937Y-24759774D01*
X45417205Y-24590256D01*
X45495226Y-24401898D01*
X45535000Y-24201939D01*
X45535000Y-23998061D01*
X45495226Y-23798102D01*
X45417205Y-23609744D01*
X45303937Y-23440226D01*
X45159774Y-23296063D01*
X44990256Y-23182795D01*
X44801898Y-23104774D01*
X44601939Y-23065000D01*
X44398061Y-23065000D01*
X44198102Y-23104774D01*
X44009744Y-23182795D01*
X43840226Y-23296063D01*
X43696063Y-23440226D01*
X43582795Y-23609744D01*
X43504774Y-23798102D01*
X43465000Y-23998061D01*
X40927000Y-23998061D01*
X40927000Y-20660000D01*
X47873000Y-20660000D01*
X47873000Y-21811928D01*
M02*
