M48
; DRILL file {KiCad (5.1.6)-1} date 06/29/20 22:16:46
; FORMAT={3:3/ absolute / metric / suppress leading zeros}
; #@! TF.CreationDate,2020-06-29T22:16:46+02:00
; #@! TF.GenerationSoftware,Kicad,Pcbnew,(5.1.6)-1
FMAT,2
METRIC,TZ
T1C0.400
T2C0.600
T3C0.800
T4C1.000
T5C4.300
%
G90
G05
T1
X21500Y-55300
X21500Y-56300
X24400Y-36800
X24400Y-37800
X24400Y-38800
X24400Y-46700
X24400Y-47700
X24400Y-56800
X31600Y-34200
X33300Y-36000
X34700Y-32900
X35400Y-50700
X35500Y-49400
X35600Y-68400
X35900Y-32900
X36200Y-65800
X36300Y-67000
X38200Y-26600
X39700Y-68400
X39800Y-67200
X40300Y-27700
X40300Y-38000
X40400Y-50600
X40400Y-51900
X40500Y-55650
X40600Y-36000
X40600Y-40500
X43900Y-34300
X44200Y-39300
X44300Y-54400
X44400Y-56900
X44500Y-24100
X44500Y-31400
X44600Y-48100
X44800Y-55800
X45500Y-34500
X46000Y-40700
X46000Y-43600
X46000Y-45500
X46700Y-30000
X47700Y-57400
X47850Y-59300
X48750Y-52900
X49300Y-44900
X49300Y-46200
X49400Y-43600
X51400Y-38400
X51500Y-43900
X51500Y-45000
X51500Y-46000
X51500Y-60200
X51700Y-33500
X55200Y-40500
X55300Y-49000
X55600Y-55800
X55800Y-61100
X55800Y-62200
X55900Y-32100
X56700Y-33000
X56700Y-34000
X56700Y-35000
X57100Y-49200
X57300Y-52600
X58800Y-42500
X59100Y-51200
X59200Y-27900
X59800Y-44550
X60400Y-51150
X60400Y-52050
X60900Y-44550
X63300Y-28800
X63300Y-40400
X63600Y-53500
X64300Y-48200
X65000Y-44100
X65000Y-45200
X65000Y-46400
X65400Y-50400
X65400Y-53500
X66200Y-27300
X66306Y-42790
X67350Y-32900
X67500Y-37800
X67500Y-38900
X67600Y-42900
X67700Y-27400
X68834Y-43074
X70300Y-43000
X70700Y-28800
X71600Y-43000
X73150Y-35650
X73500Y-54400
X73600Y-55600
X74500Y-54400
X74600Y-40000
X74600Y-41400
X75700Y-52200
X76400Y-45800
X76400Y-47000
X78000Y-42100
X78000Y-43100
X80200Y-53500
X87200Y-55500
X87200Y-58700
T2
X22775Y-74000
X23720Y-71720
X23720Y-76280
X26000Y-70775
X26000Y-77225
X28280Y-71720
X28280Y-76280
X29225Y-74000
X22775Y-26000
X23720Y-23720
X23720Y-28280
X26000Y-22775
X26000Y-29225
X28280Y-23720
X28280Y-28280
X29225Y-26000
X94850Y-74000
X95795Y-71720
X95795Y-76280
X98075Y-70775
X98075Y-77225
X100355Y-71720
X100355Y-76280
X101300Y-74000
X94850Y-26000
X95795Y-23720
X95795Y-28280
X98075Y-22775
X98075Y-29225
X100355Y-23720
X100355Y-28280
X101300Y-26000
T3
X22500Y-61800
X23900Y-61700
X28800Y-66900
X28900Y-69000
X31100Y-48100
X33500Y-72600
X33500Y-77400
X33700Y-26900
X35700Y-26700
X37600Y-24200
X37600Y-25700
X38200Y-31000
X39200Y-27700
X41700Y-26500
X42600Y-31000
X42600Y-34350
X42900Y-25100
X43200Y-22000
X46100Y-39600
X46150Y-59250
X46200Y-64100
X48100Y-65800
X49800Y-41600
X49900Y-28250
X51100Y-28250
X52250Y-57600
X52800Y-36800
X54500Y-65700
X54750Y-39650
X56850Y-40150
X62000Y-33900
X62000Y-35600
X62400Y-37700
X62400Y-39000
X63700Y-39100
X64300Y-33900
X65650Y-71650
X71400Y-63650
X75800Y-36500
X77100Y-26500
X77200Y-36500
X80200Y-28900
X80200Y-30700
X81000Y-46100
X81000Y-50900
X81300Y-37300
X82500Y-28900
X82500Y-30700
X85800Y-23700
X85800Y-26600
X87300Y-60600
X87300Y-62300
X73200Y-69180
X73200Y-76800
T4
X88400Y-46250
X88400Y-48790
X23825Y-64285
X23825Y-66825
X26365Y-64285
X26365Y-66825
X80475Y-76350
X83015Y-76350
X59200Y-23300
X61740Y-23300
X72860Y-23350
X75400Y-23350
X47400Y-23300
X49940Y-23300
X52480Y-23300
X55020Y-23300
X65875Y-23300
X68415Y-23300
T5
X26000Y-74000
X26000Y-26000
X98075Y-74000
X98075Y-26000
T0
M30
