G04 #@! TF.GenerationSoftware,KiCad,Pcbnew,(5.1.6)-1*
G04 #@! TF.CreationDate,2020-06-29T20:37:26+02:00*
G04 #@! TF.ProjectId,SensorArray,53656e73-6f72-4417-9272-61792e6b6963,rev?*
G04 #@! TF.SameCoordinates,Original*
G04 #@! TF.FileFunction,Copper,L4,Bot*
G04 #@! TF.FilePolarity,Positive*
%FSLAX46Y46*%
G04 Gerber Fmt 4.6, Leading zero omitted, Abs format (unit mm)*
G04 Created by KiCad (PCBNEW (5.1.6)-1) date 2020-06-29 20:37:26*
%MOMM*%
%LPD*%
G01*
G04 APERTURE LIST*
G04 #@! TA.AperFunction,ComponentPad*
%ADD10C,0.900000*%
G04 #@! TD*
G04 #@! TA.AperFunction,ComponentPad*
%ADD11C,8.600000*%
G04 #@! TD*
G04 #@! TA.AperFunction,ComponentPad*
%ADD12R,1.700000X1.700000*%
G04 #@! TD*
G04 #@! TA.AperFunction,ComponentPad*
%ADD13O,1.700000X1.700000*%
G04 #@! TD*
G04 #@! TA.AperFunction,ComponentPad*
%ADD14R,1.600000X1.600000*%
G04 #@! TD*
G04 #@! TA.AperFunction,ComponentPad*
%ADD15O,1.600000X1.600000*%
G04 #@! TD*
G04 #@! TA.AperFunction,ViaPad*
%ADD16C,1.000000*%
G04 #@! TD*
G04 #@! TA.AperFunction,ViaPad*
%ADD17C,0.800000*%
G04 #@! TD*
G04 #@! TA.AperFunction,Conductor*
%ADD18C,0.500000*%
G04 #@! TD*
G04 #@! TA.AperFunction,Conductor*
%ADD19C,0.300000*%
G04 #@! TD*
G04 #@! TA.AperFunction,Conductor*
%ADD20C,0.400000*%
G04 #@! TD*
G04 #@! TA.AperFunction,Conductor*
%ADD21C,0.254000*%
G04 #@! TD*
G04 APERTURE END LIST*
D10*
X28280419Y-23719581D03*
X26000000Y-22775000D03*
X23719581Y-23719581D03*
X22775000Y-26000000D03*
X23719581Y-28280419D03*
X26000000Y-29225000D03*
X28280419Y-28280419D03*
X29225000Y-26000000D03*
D11*
X26000000Y-26000000D03*
X98075000Y-26000000D03*
D10*
X101300000Y-26000000D03*
X100355419Y-28280419D03*
X98075000Y-29225000D03*
X95794581Y-28280419D03*
X94850000Y-26000000D03*
X95794581Y-23719581D03*
X98075000Y-22775000D03*
X100355419Y-23719581D03*
X100355419Y-71719581D03*
X98075000Y-70775000D03*
X95794581Y-71719581D03*
X94850000Y-74000000D03*
X95794581Y-76280419D03*
X98075000Y-77225000D03*
X100355419Y-76280419D03*
X101300000Y-74000000D03*
D11*
X98075000Y-74000000D03*
X26000000Y-74000000D03*
D10*
X29225000Y-74000000D03*
X28280419Y-76280419D03*
X26000000Y-77225000D03*
X23719581Y-76280419D03*
X22775000Y-74000000D03*
X23719581Y-71719581D03*
X26000000Y-70775000D03*
X28280419Y-71719581D03*
D12*
X80475000Y-76350000D03*
D13*
X83015000Y-76350000D03*
D12*
X65875000Y-23300000D03*
D13*
X68415000Y-23300000D03*
X88400000Y-48790000D03*
D12*
X88400000Y-46250000D03*
X47400000Y-23300000D03*
D13*
X49940000Y-23300000D03*
X52480000Y-23300000D03*
X55020000Y-23300000D03*
D12*
X72860000Y-23350000D03*
D13*
X75400000Y-23350000D03*
X26365000Y-66825000D03*
X23825000Y-66825000D03*
X26365000Y-64285000D03*
D12*
X23825000Y-64285000D03*
D14*
X73200000Y-76800000D03*
D15*
X73200000Y-69180000D03*
D12*
X59200000Y-23300000D03*
D13*
X61740000Y-23300000D03*
D16*
X46100000Y-39600000D03*
X62400000Y-37700000D03*
X62400000Y-39000000D03*
X63700000Y-39100000D03*
X52250000Y-57600000D03*
D17*
X46000000Y-40700000D03*
D16*
X43200000Y-22000000D03*
X42900000Y-25100000D03*
X41700000Y-26500000D03*
D17*
X49400000Y-43600000D03*
D16*
X42600000Y-34350010D03*
D17*
X73150000Y-35650000D03*
X67350000Y-32900000D03*
D16*
X33700000Y-26900000D03*
X42600000Y-31000000D03*
X52800000Y-36800000D03*
D17*
X58800000Y-42500000D03*
X35600000Y-68400000D03*
D16*
X46200000Y-64100000D03*
X48100000Y-65800000D03*
D17*
X44800000Y-55800000D03*
X51500000Y-60200000D03*
X74600000Y-40000000D03*
X78000000Y-43100000D03*
X75700000Y-52200000D03*
X73600000Y-55600000D03*
X87200000Y-58700000D03*
X87200000Y-55500000D03*
X51400000Y-38400000D03*
X59100000Y-51200000D03*
X31599996Y-34200000D03*
X44600000Y-48100000D03*
D16*
X33500000Y-77400000D03*
X81000000Y-46100000D03*
X64300000Y-33900000D03*
X62000000Y-33900000D03*
X62000000Y-35600000D03*
D17*
X44300000Y-54400000D03*
D16*
X46150000Y-59250000D03*
D17*
X47850000Y-59300000D03*
X47700000Y-57400000D03*
X48750000Y-52900000D03*
X40300000Y-38000000D03*
D16*
X49900000Y-28250000D03*
X65650000Y-71650000D03*
X71400000Y-63650000D03*
D17*
X55200000Y-40500000D03*
D16*
X54750000Y-39650000D03*
X56850000Y-40150000D03*
D17*
X59800000Y-44550000D03*
X60900000Y-44550000D03*
X60400000Y-52050000D03*
D16*
X51100000Y-28250000D03*
D17*
X35900000Y-32900000D03*
D16*
X38200000Y-31000000D03*
X87300000Y-60600000D03*
X87300000Y-62300000D03*
X75800000Y-36500000D03*
X77200000Y-36500000D03*
X82500000Y-28900000D03*
X80200000Y-28900000D03*
X81300000Y-37300000D03*
X80200000Y-30700000D03*
X82500000Y-30700000D03*
X85800000Y-23700000D03*
X77100000Y-26500000D03*
X85800000Y-26600000D03*
D17*
X63300000Y-28800000D03*
X78000000Y-42100000D03*
X74600000Y-41400000D03*
X70700000Y-28800000D03*
X73500000Y-54400000D03*
X74500000Y-54400000D03*
X60400000Y-51150010D03*
X21500000Y-55300000D03*
D16*
X23900000Y-61700000D03*
X39200000Y-27700000D03*
D17*
X38200000Y-26600000D03*
D16*
X37600000Y-25700000D03*
X35700000Y-26700000D03*
D17*
X21500000Y-56300000D03*
D16*
X28900000Y-69000000D03*
X37600000Y-24200000D03*
X81000000Y-50900000D03*
D17*
X49300000Y-46200000D03*
D16*
X54500000Y-65700000D03*
D17*
X33300000Y-36000000D03*
X44500000Y-31400000D03*
X45500000Y-34500000D03*
X46700000Y-30000000D03*
X40600000Y-36000000D03*
D16*
X49800000Y-41600000D03*
D17*
X49300000Y-44900000D03*
X46000000Y-43600000D03*
X67500000Y-38900000D03*
X67500000Y-37800000D03*
X40300000Y-27700000D03*
X44500000Y-24100000D03*
X24400000Y-36800000D03*
D16*
X28800000Y-66900000D03*
D17*
X24400000Y-56800000D03*
D16*
X33500000Y-72600000D03*
D17*
X55600000Y-55800000D03*
X57300000Y-52600000D03*
X63600000Y-53500000D03*
X43900000Y-34300000D03*
X46000000Y-45500000D03*
X59200000Y-27900000D03*
X63300000Y-40400000D03*
X71600000Y-43000000D03*
X80200000Y-53500000D03*
X76400000Y-47000000D03*
X67700000Y-27400000D03*
X76400000Y-45800000D03*
X66200000Y-27300000D03*
X65000000Y-44100000D03*
X51500000Y-46000000D03*
X56700000Y-33000000D03*
X65000000Y-45200000D03*
X51500000Y-45000000D03*
X56700000Y-35000000D03*
X55800000Y-62200000D03*
X65000000Y-46400000D03*
X51500000Y-43900000D03*
X56700000Y-34000000D03*
X55800000Y-61100000D03*
X24400000Y-47700000D03*
X40500000Y-55650000D03*
X24400000Y-46700000D03*
X44400000Y-56900000D03*
X24400000Y-38800000D03*
X44200000Y-39300000D03*
X40600000Y-40500000D03*
X24400000Y-37800000D03*
D16*
X31100000Y-48100000D03*
X22500000Y-61800000D03*
D17*
X51700000Y-33500000D03*
X34700000Y-32900000D03*
X70300000Y-43000000D03*
X36200000Y-65800000D03*
X36300000Y-67000000D03*
X68834346Y-43073671D03*
X39800000Y-67200000D03*
X67600000Y-42900000D03*
X39700000Y-68400000D03*
X66306104Y-42789565D03*
X35500000Y-49400000D03*
X55300000Y-49000000D03*
X57100000Y-49200000D03*
X35400000Y-50700000D03*
X65400000Y-50400000D03*
X40400000Y-50600000D03*
X65400000Y-53500000D03*
X40400000Y-51900000D03*
X64300000Y-48200000D03*
X55900000Y-32100000D03*
D18*
X58200000Y-53500000D02*
X63600000Y-53500000D01*
X57300000Y-52600000D02*
X58200000Y-53500000D01*
X44041998Y-34300000D02*
X45091999Y-35350001D01*
X43900000Y-34300000D02*
X44041998Y-34300000D01*
X46000000Y-44858002D02*
X46000000Y-45500000D01*
X45091999Y-43950001D02*
X46000000Y-44858002D01*
X45091999Y-35350001D02*
X45091999Y-43950001D01*
D19*
X62541998Y-40400000D02*
X59200000Y-37058002D01*
X63300000Y-40400000D02*
X62541998Y-40400000D01*
D18*
X58841998Y-27900000D02*
X59200000Y-27900000D01*
X51391997Y-35350001D02*
X58841998Y-27900000D01*
X45091999Y-35350001D02*
X51391997Y-35350001D01*
D19*
X59200000Y-37058002D02*
X59200000Y-27900000D01*
D18*
X72400032Y-45700032D02*
X72400032Y-43800032D01*
X72400032Y-43800032D02*
X71600000Y-43000000D01*
X80200000Y-53500000D02*
X72400032Y-45700032D01*
X71539952Y-27249989D02*
X67850011Y-27249989D01*
X76700010Y-29610047D02*
X75589953Y-28499990D01*
X75589953Y-28499990D02*
X72789952Y-28499990D01*
X76400000Y-47000000D02*
X76965685Y-47000000D01*
X76965685Y-47000000D02*
X79550011Y-44415674D01*
X67850011Y-27249989D02*
X67700000Y-27400000D01*
X79550011Y-44415674D02*
X79550011Y-35460049D01*
X79550011Y-35460049D02*
X76700010Y-32610048D01*
X72789952Y-28499990D02*
X71539952Y-27249989D01*
X76700010Y-32610048D02*
X76700010Y-29610047D01*
X76400000Y-45800000D02*
X76965685Y-45800000D01*
X78850001Y-43915684D02*
X78850001Y-35750001D01*
X76965685Y-45800000D02*
X78850001Y-43915684D01*
X78850001Y-35750001D02*
X76000000Y-32900000D01*
X76000000Y-32900000D02*
X76000000Y-29900000D01*
X76000000Y-29900000D02*
X75300000Y-29200000D01*
X75300000Y-29200000D02*
X72500000Y-29200000D01*
X67150001Y-28250001D02*
X66200000Y-27300000D01*
X68408003Y-27949999D02*
X68108001Y-28250001D01*
X71249999Y-27949999D02*
X68408003Y-27949999D01*
X68108001Y-28250001D02*
X67150001Y-28250001D01*
X72500000Y-29200000D02*
X71249999Y-27949999D01*
D19*
X57265685Y-33000000D02*
X56700000Y-33000000D01*
X57700001Y-40558001D02*
X57700001Y-33434316D01*
X52358002Y-45900000D02*
X57700001Y-40558001D01*
X57700001Y-33434316D02*
X57265685Y-33000000D01*
X51500000Y-45900000D02*
X52358002Y-45900000D01*
X63200000Y-45900000D02*
X65000000Y-44100000D01*
X51500000Y-45900000D02*
X63200000Y-45900000D01*
X52065685Y-44900000D02*
X55999999Y-40965686D01*
X55999999Y-35700001D02*
X56700000Y-35000000D01*
X55999999Y-40965686D02*
X55999999Y-35700001D01*
X51500000Y-44900000D02*
X52065685Y-44900000D01*
X64607120Y-45200000D02*
X65000000Y-45200000D01*
X63157119Y-46650001D02*
X64607120Y-45200000D01*
X50934315Y-45000000D02*
X51500000Y-45000000D01*
X50749999Y-45184316D02*
X50934315Y-45000000D01*
X50749999Y-46360001D02*
X50749999Y-45184316D01*
X52450001Y-46750001D02*
X51139999Y-46750001D01*
X51139999Y-46750001D02*
X50749999Y-46360001D01*
X52550001Y-46650001D02*
X52450001Y-46750001D01*
X63157119Y-46650001D02*
X52550001Y-46650001D01*
X66650011Y-46850011D02*
X65000000Y-45200000D01*
X66650011Y-54067111D02*
X66650011Y-46850011D01*
X58517122Y-62200000D02*
X66650011Y-54067111D01*
X55800000Y-62200000D02*
X58517122Y-62200000D01*
X56134315Y-34000000D02*
X56700000Y-34000000D01*
X53650001Y-41749999D02*
X53650001Y-36484314D01*
X53650001Y-36484314D02*
X56134315Y-34000000D01*
X51500000Y-43900000D02*
X53650001Y-41749999D01*
X50249989Y-44977206D02*
X51327195Y-43900000D01*
X50249989Y-46567111D02*
X50249989Y-44977206D01*
X51327195Y-43900000D02*
X51500000Y-43900000D01*
X50932889Y-47250011D02*
X50249989Y-46567111D01*
X64149989Y-47250011D02*
X50932889Y-47250011D01*
X65000000Y-46400000D02*
X64149989Y-47250011D01*
X66150001Y-47550001D02*
X65000000Y-46400000D01*
X58910002Y-61100000D02*
X66150001Y-53860001D01*
X66150001Y-53860001D02*
X66150001Y-47550001D01*
X55800000Y-61100000D02*
X58910002Y-61100000D01*
D20*
X24400000Y-47700000D02*
X25800000Y-47700000D01*
X33750000Y-55650000D02*
X40500000Y-55650000D01*
X25800000Y-47700000D02*
X33750000Y-55650000D01*
X42150000Y-54650000D02*
X44400000Y-56900000D01*
X34000000Y-54650000D02*
X42150000Y-54650000D01*
X24400000Y-46700000D02*
X26050000Y-46700000D01*
X26050000Y-46700000D02*
X34000000Y-54650000D01*
D19*
X24400000Y-38800000D02*
X37700000Y-38800000D01*
X37700000Y-38800000D02*
X40400000Y-41500000D01*
X40400000Y-41500000D02*
X43800000Y-41500000D01*
X43800000Y-41500000D02*
X44200000Y-41100000D01*
X44200000Y-41100000D02*
X44200000Y-39300000D01*
X37900000Y-37800000D02*
X40600000Y-40500000D01*
X24400000Y-37800000D02*
X37900000Y-37800000D01*
D18*
X23991999Y-45849999D02*
X22500000Y-47341998D01*
X31100000Y-48100000D02*
X28849999Y-45849999D01*
X22500000Y-47341998D02*
X22500000Y-61800000D01*
X28849999Y-45849999D02*
X23991999Y-45849999D01*
D19*
X35960001Y-34160001D02*
X34700000Y-32900000D01*
X36620002Y-33500000D02*
X35960001Y-34160001D01*
X51700000Y-33500000D02*
X36620002Y-33500000D01*
X34849999Y-67150001D02*
X34849999Y-68760001D01*
X56914214Y-72000030D02*
X70800021Y-58114221D01*
X70800021Y-43500021D02*
X70300000Y-43000000D01*
X38090028Y-72000030D02*
X56914214Y-72000030D01*
X36200000Y-65800000D02*
X34849999Y-67150001D01*
X34849999Y-68760001D02*
X38090028Y-72000030D01*
X70800021Y-58114221D02*
X70800021Y-43500021D01*
X70300011Y-57907111D02*
X70300011Y-44539336D01*
X36300000Y-67000000D02*
X40800020Y-71500020D01*
X56707102Y-71500020D02*
X70300011Y-57907111D01*
X70300011Y-44539336D02*
X68834346Y-43073671D01*
X40800020Y-71500020D02*
X56707102Y-71500020D01*
X69800000Y-45100000D02*
X67600000Y-42900000D01*
X69800000Y-57700000D02*
X69800000Y-45100000D01*
X41190008Y-71000010D02*
X56499990Y-71000010D01*
X38949999Y-68760001D02*
X41190008Y-71000010D01*
X39800000Y-67200000D02*
X38949999Y-68050001D01*
X38949999Y-68050001D02*
X38949999Y-68760001D01*
X56499990Y-71000010D02*
X69800000Y-57700000D01*
X69300000Y-45783461D02*
X66306104Y-42789565D01*
X69300000Y-57492880D02*
X69300000Y-45783461D01*
X39700000Y-68400000D02*
X58392880Y-68400000D01*
X58392880Y-68400000D02*
X69300000Y-57492880D01*
X35500000Y-49400000D02*
X35900000Y-49000000D01*
X35900000Y-49000000D02*
X55300000Y-49000000D01*
X36250001Y-49849999D02*
X35400000Y-50700000D01*
X57100000Y-49200000D02*
X56450001Y-49849999D01*
X56450001Y-49849999D02*
X36250001Y-49849999D01*
X65400000Y-50400000D02*
X40600000Y-50400000D01*
X40600000Y-50400000D02*
X40400000Y-50600000D01*
X45610002Y-54600000D02*
X42910002Y-51900000D01*
X65400000Y-53500000D02*
X64300000Y-54600000D01*
X42910002Y-51900000D02*
X40400000Y-51900000D01*
X64300000Y-54600000D02*
X45610002Y-54600000D01*
X50189998Y-48200000D02*
X64300000Y-48200000D01*
X48549999Y-39450001D02*
X48549999Y-46560001D01*
X48549999Y-46560001D02*
X50189998Y-48200000D01*
X55900000Y-32100000D02*
X48549999Y-39450001D01*
D21*
G36*
X98946797Y-20733902D02*
G01*
X99795182Y-20947001D01*
X100597371Y-21295803D01*
X101331818Y-21770938D01*
X101978798Y-22359646D01*
X102520946Y-23046125D01*
X102943692Y-23811928D01*
X103235684Y-24636491D01*
X103391116Y-25509076D01*
X103415000Y-26015547D01*
X103415001Y-73972899D01*
X103341098Y-74871802D01*
X103127999Y-75720180D01*
X102779197Y-76522371D01*
X102304062Y-77256818D01*
X101715354Y-77903799D01*
X101028875Y-78445946D01*
X100263076Y-78868691D01*
X99438514Y-79160683D01*
X98565925Y-79316116D01*
X98059453Y-79340000D01*
X26027089Y-79340000D01*
X25128198Y-79266098D01*
X24279820Y-79052999D01*
X23477629Y-78704197D01*
X22743182Y-78229062D01*
X22096201Y-77640354D01*
X21554054Y-76953875D01*
X21131309Y-76188076D01*
X20839317Y-75363514D01*
X20683884Y-74490925D01*
X20660000Y-73984453D01*
X20660000Y-73513945D01*
X21065000Y-73513945D01*
X21065000Y-74486055D01*
X21254650Y-75439486D01*
X21626660Y-76337599D01*
X22166735Y-77145879D01*
X22854121Y-77833265D01*
X23662401Y-78373340D01*
X24560514Y-78745350D01*
X25513945Y-78935000D01*
X26486055Y-78935000D01*
X27439486Y-78745350D01*
X28337599Y-78373340D01*
X29145879Y-77833265D01*
X29690932Y-77288212D01*
X32365000Y-77288212D01*
X32365000Y-77511788D01*
X32408617Y-77731067D01*
X32494176Y-77937624D01*
X32618388Y-78123520D01*
X32776480Y-78281612D01*
X32962376Y-78405824D01*
X33168933Y-78491383D01*
X33388212Y-78535000D01*
X33611788Y-78535000D01*
X33831067Y-78491383D01*
X34037624Y-78405824D01*
X34223520Y-78281612D01*
X34381612Y-78123520D01*
X34505824Y-77937624D01*
X34591383Y-77731067D01*
X34635000Y-77511788D01*
X34635000Y-77288212D01*
X34591383Y-77068933D01*
X34505824Y-76862376D01*
X34381612Y-76676480D01*
X34223520Y-76518388D01*
X34037624Y-76394176D01*
X33831067Y-76308617D01*
X33611788Y-76265000D01*
X33388212Y-76265000D01*
X33168933Y-76308617D01*
X32962376Y-76394176D01*
X32776480Y-76518388D01*
X32618388Y-76676480D01*
X32494176Y-76862376D01*
X32408617Y-77068933D01*
X32365000Y-77288212D01*
X29690932Y-77288212D01*
X29833265Y-77145879D01*
X30373340Y-76337599D01*
X30513177Y-76000000D01*
X71761928Y-76000000D01*
X71761928Y-77600000D01*
X71774188Y-77724482D01*
X71810498Y-77844180D01*
X71869463Y-77954494D01*
X71948815Y-78051185D01*
X72045506Y-78130537D01*
X72155820Y-78189502D01*
X72275518Y-78225812D01*
X72400000Y-78238072D01*
X74000000Y-78238072D01*
X74124482Y-78225812D01*
X74244180Y-78189502D01*
X74354494Y-78130537D01*
X74451185Y-78051185D01*
X74530537Y-77954494D01*
X74589502Y-77844180D01*
X74625812Y-77724482D01*
X74638072Y-77600000D01*
X74638072Y-76000000D01*
X74625812Y-75875518D01*
X74589502Y-75755820D01*
X74530537Y-75645506D01*
X74451185Y-75548815D01*
X74391704Y-75500000D01*
X78986928Y-75500000D01*
X78986928Y-77200000D01*
X78999188Y-77324482D01*
X79035498Y-77444180D01*
X79094463Y-77554494D01*
X79173815Y-77651185D01*
X79270506Y-77730537D01*
X79380820Y-77789502D01*
X79500518Y-77825812D01*
X79625000Y-77838072D01*
X81325000Y-77838072D01*
X81449482Y-77825812D01*
X81569180Y-77789502D01*
X81679494Y-77730537D01*
X81776185Y-77651185D01*
X81855537Y-77554494D01*
X81914502Y-77444180D01*
X81936513Y-77371620D01*
X82068368Y-77503475D01*
X82311589Y-77665990D01*
X82581842Y-77777932D01*
X82868740Y-77835000D01*
X83161260Y-77835000D01*
X83448158Y-77777932D01*
X83718411Y-77665990D01*
X83961632Y-77503475D01*
X84168475Y-77296632D01*
X84330990Y-77053411D01*
X84442932Y-76783158D01*
X84500000Y-76496260D01*
X84500000Y-76203740D01*
X84442932Y-75916842D01*
X84330990Y-75646589D01*
X84168475Y-75403368D01*
X83961632Y-75196525D01*
X83718411Y-75034010D01*
X83448158Y-74922068D01*
X83161260Y-74865000D01*
X82868740Y-74865000D01*
X82581842Y-74922068D01*
X82311589Y-75034010D01*
X82068368Y-75196525D01*
X81936513Y-75328380D01*
X81914502Y-75255820D01*
X81855537Y-75145506D01*
X81776185Y-75048815D01*
X81679494Y-74969463D01*
X81569180Y-74910498D01*
X81449482Y-74874188D01*
X81325000Y-74861928D01*
X79625000Y-74861928D01*
X79500518Y-74874188D01*
X79380820Y-74910498D01*
X79270506Y-74969463D01*
X79173815Y-75048815D01*
X79094463Y-75145506D01*
X79035498Y-75255820D01*
X78999188Y-75375518D01*
X78986928Y-75500000D01*
X74391704Y-75500000D01*
X74354494Y-75469463D01*
X74244180Y-75410498D01*
X74124482Y-75374188D01*
X74000000Y-75361928D01*
X72400000Y-75361928D01*
X72275518Y-75374188D01*
X72155820Y-75410498D01*
X72045506Y-75469463D01*
X71948815Y-75548815D01*
X71869463Y-75645506D01*
X71810498Y-75755820D01*
X71774188Y-75875518D01*
X71761928Y-76000000D01*
X30513177Y-76000000D01*
X30745350Y-75439486D01*
X30935000Y-74486055D01*
X30935000Y-73513945D01*
X93140000Y-73513945D01*
X93140000Y-74486055D01*
X93329650Y-75439486D01*
X93701660Y-76337599D01*
X94241735Y-77145879D01*
X94929121Y-77833265D01*
X95737401Y-78373340D01*
X96635514Y-78745350D01*
X97588945Y-78935000D01*
X98561055Y-78935000D01*
X99514486Y-78745350D01*
X100412599Y-78373340D01*
X101220879Y-77833265D01*
X101908265Y-77145879D01*
X102448340Y-76337599D01*
X102820350Y-75439486D01*
X103010000Y-74486055D01*
X103010000Y-73513945D01*
X102820350Y-72560514D01*
X102448340Y-71662401D01*
X101908265Y-70854121D01*
X101220879Y-70166735D01*
X100412599Y-69626660D01*
X99514486Y-69254650D01*
X98561055Y-69065000D01*
X97588945Y-69065000D01*
X96635514Y-69254650D01*
X95737401Y-69626660D01*
X94929121Y-70166735D01*
X94241735Y-70854121D01*
X93701660Y-71662401D01*
X93329650Y-72560514D01*
X93140000Y-73513945D01*
X30935000Y-73513945D01*
X30745350Y-72560514D01*
X30373340Y-71662401D01*
X29833265Y-70854121D01*
X29145879Y-70166735D01*
X29078519Y-70121726D01*
X29231067Y-70091383D01*
X29437624Y-70005824D01*
X29623520Y-69881612D01*
X29781612Y-69723520D01*
X29905824Y-69537624D01*
X29991383Y-69331067D01*
X30035000Y-69111788D01*
X30035000Y-68888212D01*
X29991383Y-68668933D01*
X29905824Y-68462376D01*
X29781612Y-68276480D01*
X29623520Y-68118388D01*
X29437624Y-67994176D01*
X29231067Y-67908617D01*
X29011788Y-67865000D01*
X28788212Y-67865000D01*
X28568933Y-67908617D01*
X28362376Y-67994176D01*
X28176480Y-68118388D01*
X28018388Y-68276480D01*
X27894176Y-68462376D01*
X27808617Y-68668933D01*
X27765000Y-68888212D01*
X27765000Y-69111788D01*
X27808617Y-69331067D01*
X27846858Y-69423389D01*
X27439486Y-69254650D01*
X26486055Y-69065000D01*
X25513945Y-69065000D01*
X24560514Y-69254650D01*
X23662401Y-69626660D01*
X22854121Y-70166735D01*
X22166735Y-70854121D01*
X21626660Y-71662401D01*
X21254650Y-72560514D01*
X21065000Y-73513945D01*
X20660000Y-73513945D01*
X20660000Y-56905802D01*
X20696063Y-56959774D01*
X20840226Y-57103937D01*
X21009744Y-57217205D01*
X21198102Y-57295226D01*
X21398061Y-57335000D01*
X21601939Y-57335000D01*
X21615001Y-57332402D01*
X21615001Y-61081549D01*
X21494176Y-61262376D01*
X21408617Y-61468933D01*
X21365000Y-61688212D01*
X21365000Y-61911788D01*
X21408617Y-62131067D01*
X21494176Y-62337624D01*
X21618388Y-62523520D01*
X21776480Y-62681612D01*
X21962376Y-62805824D01*
X22168933Y-62891383D01*
X22388212Y-62935000D01*
X22583296Y-62935000D01*
X22523815Y-62983815D01*
X22444463Y-63080506D01*
X22385498Y-63190820D01*
X22349188Y-63310518D01*
X22336928Y-63435000D01*
X22336928Y-65135000D01*
X22349188Y-65259482D01*
X22385498Y-65379180D01*
X22444463Y-65489494D01*
X22523815Y-65586185D01*
X22620506Y-65665537D01*
X22730820Y-65724502D01*
X22803380Y-65746513D01*
X22671525Y-65878368D01*
X22509010Y-66121589D01*
X22397068Y-66391842D01*
X22340000Y-66678740D01*
X22340000Y-66971260D01*
X22397068Y-67258158D01*
X22509010Y-67528411D01*
X22671525Y-67771632D01*
X22878368Y-67978475D01*
X23121589Y-68140990D01*
X23391842Y-68252932D01*
X23678740Y-68310000D01*
X23971260Y-68310000D01*
X24258158Y-68252932D01*
X24528411Y-68140990D01*
X24771632Y-67978475D01*
X24978475Y-67771632D01*
X25096100Y-67595594D01*
X25267412Y-67825269D01*
X25483645Y-68020178D01*
X25733748Y-68169157D01*
X26008109Y-68266481D01*
X26238000Y-68145814D01*
X26238000Y-66952000D01*
X26492000Y-66952000D01*
X26492000Y-68145814D01*
X26721891Y-68266481D01*
X26996252Y-68169157D01*
X27246355Y-68020178D01*
X27462588Y-67825269D01*
X27636641Y-67591920D01*
X27761825Y-67329099D01*
X27806476Y-67181890D01*
X27685155Y-66952000D01*
X26492000Y-66952000D01*
X26238000Y-66952000D01*
X26218000Y-66952000D01*
X26218000Y-66698000D01*
X26238000Y-66698000D01*
X26238000Y-66678000D01*
X26492000Y-66678000D01*
X26492000Y-66698000D01*
X27685155Y-66698000D01*
X27806476Y-66468110D01*
X27761825Y-66320901D01*
X27636641Y-66058080D01*
X27462588Y-65824731D01*
X27246355Y-65629822D01*
X27129466Y-65560195D01*
X27311632Y-65438475D01*
X27518475Y-65231632D01*
X27680990Y-64988411D01*
X27792932Y-64718158D01*
X27850000Y-64431260D01*
X27850000Y-64138740D01*
X27820058Y-63988212D01*
X45065000Y-63988212D01*
X45065000Y-64211788D01*
X45108617Y-64431067D01*
X45194176Y-64637624D01*
X45318388Y-64823520D01*
X45476480Y-64981612D01*
X45662376Y-65105824D01*
X45868933Y-65191383D01*
X46088212Y-65235000D01*
X46311788Y-65235000D01*
X46531067Y-65191383D01*
X46737624Y-65105824D01*
X46923520Y-64981612D01*
X47081612Y-64823520D01*
X47205824Y-64637624D01*
X47291383Y-64431067D01*
X47335000Y-64211788D01*
X47335000Y-63988212D01*
X47291383Y-63768933D01*
X47205824Y-63562376D01*
X47081612Y-63376480D01*
X46923520Y-63218388D01*
X46737624Y-63094176D01*
X46531067Y-63008617D01*
X46311788Y-62965000D01*
X46088212Y-62965000D01*
X45868933Y-63008617D01*
X45662376Y-63094176D01*
X45476480Y-63218388D01*
X45318388Y-63376480D01*
X45194176Y-63562376D01*
X45108617Y-63768933D01*
X45065000Y-63988212D01*
X27820058Y-63988212D01*
X27792932Y-63851842D01*
X27680990Y-63581589D01*
X27518475Y-63338368D01*
X27311632Y-63131525D01*
X27068411Y-62969010D01*
X26798158Y-62857068D01*
X26511260Y-62800000D01*
X26218740Y-62800000D01*
X25931842Y-62857068D01*
X25661589Y-62969010D01*
X25418368Y-63131525D01*
X25286513Y-63263380D01*
X25264502Y-63190820D01*
X25205537Y-63080506D01*
X25126185Y-62983815D01*
X25029494Y-62904463D01*
X24919180Y-62845498D01*
X24799482Y-62809188D01*
X24675000Y-62796928D01*
X24203190Y-62796928D01*
X24231067Y-62791383D01*
X24437624Y-62705824D01*
X24623520Y-62581612D01*
X24781612Y-62423520D01*
X24905824Y-62237624D01*
X24991383Y-62031067D01*
X25035000Y-61811788D01*
X25035000Y-61588212D01*
X24991383Y-61368933D01*
X24905824Y-61162376D01*
X24781612Y-60976480D01*
X24623520Y-60818388D01*
X24437624Y-60694176D01*
X24231067Y-60608617D01*
X24011788Y-60565000D01*
X23788212Y-60565000D01*
X23568933Y-60608617D01*
X23385000Y-60684805D01*
X23385000Y-59138212D01*
X45015000Y-59138212D01*
X45015000Y-59361788D01*
X45058617Y-59581067D01*
X45144176Y-59787624D01*
X45268388Y-59973520D01*
X45426480Y-60131612D01*
X45612376Y-60255824D01*
X45818933Y-60341383D01*
X46038212Y-60385000D01*
X46261788Y-60385000D01*
X46481067Y-60341383D01*
X46687624Y-60255824D01*
X46873520Y-60131612D01*
X47031612Y-59973520D01*
X47043430Y-59955833D01*
X47046063Y-59959774D01*
X47190226Y-60103937D01*
X47359744Y-60217205D01*
X47548102Y-60295226D01*
X47748061Y-60335000D01*
X47951939Y-60335000D01*
X48151898Y-60295226D01*
X48340256Y-60217205D01*
X48509774Y-60103937D01*
X48515650Y-60098061D01*
X50465000Y-60098061D01*
X50465000Y-60301939D01*
X50504774Y-60501898D01*
X50582795Y-60690256D01*
X50696063Y-60859774D01*
X50840226Y-61003937D01*
X51009744Y-61117205D01*
X51198102Y-61195226D01*
X51398061Y-61235000D01*
X51601939Y-61235000D01*
X51801898Y-61195226D01*
X51990256Y-61117205D01*
X52159774Y-61003937D01*
X52303937Y-60859774D01*
X52417205Y-60690256D01*
X52495226Y-60501898D01*
X52535000Y-60301939D01*
X52535000Y-60098061D01*
X52495226Y-59898102D01*
X52417205Y-59709744D01*
X52303937Y-59540226D01*
X52159774Y-59396063D01*
X51990256Y-59282795D01*
X51801898Y-59204774D01*
X51601939Y-59165000D01*
X51398061Y-59165000D01*
X51198102Y-59204774D01*
X51009744Y-59282795D01*
X50840226Y-59396063D01*
X50696063Y-59540226D01*
X50582795Y-59709744D01*
X50504774Y-59898102D01*
X50465000Y-60098061D01*
X48515650Y-60098061D01*
X48653937Y-59959774D01*
X48767205Y-59790256D01*
X48845226Y-59601898D01*
X48885000Y-59401939D01*
X48885000Y-59198061D01*
X48845226Y-58998102D01*
X48767205Y-58809744D01*
X48653937Y-58640226D01*
X48509774Y-58496063D01*
X48340256Y-58382795D01*
X48186082Y-58318934D01*
X48190256Y-58317205D01*
X48359774Y-58203937D01*
X48503937Y-58059774D01*
X48617205Y-57890256D01*
X48695226Y-57701898D01*
X48735000Y-57501939D01*
X48735000Y-57488212D01*
X51115000Y-57488212D01*
X51115000Y-57711788D01*
X51158617Y-57931067D01*
X51244176Y-58137624D01*
X51368388Y-58323520D01*
X51526480Y-58481612D01*
X51712376Y-58605824D01*
X51918933Y-58691383D01*
X52138212Y-58735000D01*
X52361788Y-58735000D01*
X52581067Y-58691383D01*
X52787624Y-58605824D01*
X52973520Y-58481612D01*
X53131612Y-58323520D01*
X53255824Y-58137624D01*
X53341383Y-57931067D01*
X53385000Y-57711788D01*
X53385000Y-57488212D01*
X53341383Y-57268933D01*
X53255824Y-57062376D01*
X53131612Y-56876480D01*
X52973520Y-56718388D01*
X52787624Y-56594176D01*
X52581067Y-56508617D01*
X52361788Y-56465000D01*
X52138212Y-56465000D01*
X51918933Y-56508617D01*
X51712376Y-56594176D01*
X51526480Y-56718388D01*
X51368388Y-56876480D01*
X51244176Y-57062376D01*
X51158617Y-57268933D01*
X51115000Y-57488212D01*
X48735000Y-57488212D01*
X48735000Y-57298061D01*
X48695226Y-57098102D01*
X48617205Y-56909744D01*
X48503937Y-56740226D01*
X48359774Y-56596063D01*
X48190256Y-56482795D01*
X48001898Y-56404774D01*
X47801939Y-56365000D01*
X47598061Y-56365000D01*
X47398102Y-56404774D01*
X47209744Y-56482795D01*
X47040226Y-56596063D01*
X46896063Y-56740226D01*
X46782795Y-56909744D01*
X46704774Y-57098102D01*
X46665000Y-57298061D01*
X46665000Y-57501939D01*
X46704774Y-57701898D01*
X46782795Y-57890256D01*
X46896063Y-58059774D01*
X47040226Y-58203937D01*
X47209744Y-58317205D01*
X47363918Y-58381066D01*
X47359744Y-58382795D01*
X47190226Y-58496063D01*
X47082961Y-58603328D01*
X47031612Y-58526480D01*
X46873520Y-58368388D01*
X46687624Y-58244176D01*
X46481067Y-58158617D01*
X46261788Y-58115000D01*
X46038212Y-58115000D01*
X45818933Y-58158617D01*
X45612376Y-58244176D01*
X45426480Y-58368388D01*
X45268388Y-58526480D01*
X45144176Y-58712376D01*
X45058617Y-58918933D01*
X45015000Y-59138212D01*
X23385000Y-59138212D01*
X23385000Y-47902487D01*
X23404774Y-48001898D01*
X23482795Y-48190256D01*
X23596063Y-48359774D01*
X23740226Y-48503937D01*
X23909744Y-48617205D01*
X24098102Y-48695226D01*
X24298061Y-48735000D01*
X24501939Y-48735000D01*
X24701898Y-48695226D01*
X24890256Y-48617205D01*
X25013285Y-48535000D01*
X25454133Y-48535000D01*
X33130563Y-56211432D01*
X33156709Y-56243291D01*
X33188568Y-56269437D01*
X33188570Y-56269439D01*
X33237719Y-56309774D01*
X33283854Y-56347636D01*
X33428913Y-56425172D01*
X33586311Y-56472918D01*
X33686594Y-56482795D01*
X33750000Y-56489040D01*
X33791018Y-56485000D01*
X39886715Y-56485000D01*
X40009744Y-56567205D01*
X40198102Y-56645226D01*
X40398061Y-56685000D01*
X40601939Y-56685000D01*
X40801898Y-56645226D01*
X40990256Y-56567205D01*
X41159774Y-56453937D01*
X41303937Y-56309774D01*
X41417205Y-56140256D01*
X41495226Y-55951898D01*
X41535000Y-55751939D01*
X41535000Y-55548061D01*
X41522456Y-55485000D01*
X41804133Y-55485000D01*
X43375908Y-57056776D01*
X43404774Y-57201898D01*
X43482795Y-57390256D01*
X43596063Y-57559774D01*
X43740226Y-57703937D01*
X43909744Y-57817205D01*
X44098102Y-57895226D01*
X44298061Y-57935000D01*
X44501939Y-57935000D01*
X44701898Y-57895226D01*
X44890256Y-57817205D01*
X45059774Y-57703937D01*
X45203937Y-57559774D01*
X45317205Y-57390256D01*
X45395226Y-57201898D01*
X45435000Y-57001939D01*
X45435000Y-56798061D01*
X45403823Y-56641322D01*
X45459774Y-56603937D01*
X45603937Y-56459774D01*
X45717205Y-56290256D01*
X45795226Y-56101898D01*
X45835000Y-55901939D01*
X45835000Y-55698061D01*
X45795226Y-55498102D01*
X45748377Y-55385000D01*
X63514845Y-55385000D01*
X58584845Y-60315000D01*
X56478711Y-60315000D01*
X56459774Y-60296063D01*
X56290256Y-60182795D01*
X56101898Y-60104774D01*
X55901939Y-60065000D01*
X55698061Y-60065000D01*
X55498102Y-60104774D01*
X55309744Y-60182795D01*
X55140226Y-60296063D01*
X54996063Y-60440226D01*
X54882795Y-60609744D01*
X54804774Y-60798102D01*
X54765000Y-60998061D01*
X54765000Y-61201939D01*
X54804774Y-61401898D01*
X54882795Y-61590256D01*
X54922715Y-61650000D01*
X54882795Y-61709744D01*
X54804774Y-61898102D01*
X54765000Y-62098061D01*
X54765000Y-62301939D01*
X54804774Y-62501898D01*
X54882795Y-62690256D01*
X54996063Y-62859774D01*
X55140226Y-63003937D01*
X55309744Y-63117205D01*
X55498102Y-63195226D01*
X55698061Y-63235000D01*
X55901939Y-63235000D01*
X56101898Y-63195226D01*
X56290256Y-63117205D01*
X56459774Y-63003937D01*
X56478711Y-62985000D01*
X58478569Y-62985000D01*
X58517122Y-62988797D01*
X58555675Y-62985000D01*
X58555683Y-62985000D01*
X58671009Y-62973641D01*
X58818982Y-62928754D01*
X58955355Y-62855862D01*
X59074886Y-62757764D01*
X59099469Y-62727810D01*
X67177828Y-54649452D01*
X67207775Y-54624875D01*
X67237419Y-54588755D01*
X67256914Y-54565000D01*
X67305873Y-54505344D01*
X67378765Y-54368971D01*
X67390916Y-54328914D01*
X67423653Y-54220998D01*
X67432731Y-54128817D01*
X67435011Y-54105672D01*
X67435011Y-54105667D01*
X67438808Y-54067111D01*
X67435011Y-54028556D01*
X67435011Y-46888566D01*
X67438808Y-46850011D01*
X67435011Y-46811455D01*
X67435011Y-46811450D01*
X67428959Y-46750000D01*
X67423653Y-46696124D01*
X67378765Y-46548151D01*
X67371736Y-46535000D01*
X67305873Y-46411778D01*
X67247151Y-46340226D01*
X67232356Y-46322198D01*
X67232353Y-46322195D01*
X67207775Y-46292247D01*
X67177827Y-46267669D01*
X66035000Y-45124843D01*
X66035000Y-45098061D01*
X65995226Y-44898102D01*
X65917205Y-44709744D01*
X65877285Y-44650000D01*
X65917205Y-44590256D01*
X65995226Y-44401898D01*
X66035000Y-44201939D01*
X66035000Y-43998061D01*
X65995226Y-43798102D01*
X65986711Y-43777544D01*
X66004206Y-43784791D01*
X66204165Y-43824565D01*
X66230947Y-43824565D01*
X68515001Y-46108620D01*
X68515000Y-57167722D01*
X58067723Y-67615000D01*
X40748377Y-67615000D01*
X40795226Y-67501898D01*
X40835000Y-67301939D01*
X40835000Y-67098061D01*
X40795226Y-66898102D01*
X40717205Y-66709744D01*
X40603937Y-66540226D01*
X40459774Y-66396063D01*
X40290256Y-66282795D01*
X40101898Y-66204774D01*
X39901939Y-66165000D01*
X39698061Y-66165000D01*
X39498102Y-66204774D01*
X39309744Y-66282795D01*
X39140226Y-66396063D01*
X38996063Y-66540226D01*
X38882795Y-66709744D01*
X38804774Y-66898102D01*
X38765000Y-67098061D01*
X38765000Y-67124843D01*
X38422189Y-67467654D01*
X38392235Y-67492237D01*
X38294137Y-67611769D01*
X38221245Y-67748142D01*
X38206595Y-67796437D01*
X37335000Y-66924843D01*
X37335000Y-66898061D01*
X37295226Y-66698102D01*
X37217205Y-66509744D01*
X37103937Y-66340226D01*
X37091875Y-66328164D01*
X37117205Y-66290256D01*
X37195226Y-66101898D01*
X37235000Y-65901939D01*
X37235000Y-65698061D01*
X37233041Y-65688212D01*
X46965000Y-65688212D01*
X46965000Y-65911788D01*
X47008617Y-66131067D01*
X47094176Y-66337624D01*
X47218388Y-66523520D01*
X47376480Y-66681612D01*
X47562376Y-66805824D01*
X47768933Y-66891383D01*
X47988212Y-66935000D01*
X48211788Y-66935000D01*
X48431067Y-66891383D01*
X48637624Y-66805824D01*
X48823520Y-66681612D01*
X48981612Y-66523520D01*
X49105824Y-66337624D01*
X49191383Y-66131067D01*
X49235000Y-65911788D01*
X49235000Y-65688212D01*
X49191383Y-65468933D01*
X49105824Y-65262376D01*
X48981612Y-65076480D01*
X48823520Y-64918388D01*
X48637624Y-64794176D01*
X48431067Y-64708617D01*
X48211788Y-64665000D01*
X47988212Y-64665000D01*
X47768933Y-64708617D01*
X47562376Y-64794176D01*
X47376480Y-64918388D01*
X47218388Y-65076480D01*
X47094176Y-65262376D01*
X47008617Y-65468933D01*
X46965000Y-65688212D01*
X37233041Y-65688212D01*
X37195226Y-65498102D01*
X37117205Y-65309744D01*
X37003937Y-65140226D01*
X36859774Y-64996063D01*
X36690256Y-64882795D01*
X36501898Y-64804774D01*
X36301939Y-64765000D01*
X36098061Y-64765000D01*
X35898102Y-64804774D01*
X35709744Y-64882795D01*
X35540226Y-64996063D01*
X35396063Y-65140226D01*
X35282795Y-65309744D01*
X35204774Y-65498102D01*
X35165000Y-65698061D01*
X35165000Y-65724843D01*
X34322189Y-66567654D01*
X34292235Y-66592237D01*
X34194137Y-66711769D01*
X34121245Y-66848142D01*
X34076358Y-66996115D01*
X34064999Y-67111441D01*
X34064999Y-67111448D01*
X34061202Y-67150001D01*
X34064999Y-67188554D01*
X34065000Y-68721439D01*
X34061202Y-68760001D01*
X34076358Y-68913887D01*
X34121245Y-69061860D01*
X34147932Y-69111788D01*
X34194138Y-69198234D01*
X34234689Y-69247645D01*
X34267654Y-69287813D01*
X34267658Y-69287817D01*
X34292236Y-69317765D01*
X34322184Y-69342343D01*
X37507686Y-72527846D01*
X37532264Y-72557794D01*
X37562212Y-72582372D01*
X37562215Y-72582375D01*
X37591587Y-72606480D01*
X37651795Y-72655892D01*
X37788168Y-72728784D01*
X37936141Y-72773672D01*
X38011054Y-72781050D01*
X38051467Y-72785030D01*
X38051472Y-72785030D01*
X38090028Y-72788827D01*
X38128583Y-72785030D01*
X56875659Y-72785030D01*
X56914214Y-72788827D01*
X56952767Y-72785030D01*
X56952775Y-72785030D01*
X57068101Y-72773671D01*
X57216074Y-72728784D01*
X57352447Y-72655892D01*
X57471978Y-72557794D01*
X57496561Y-72527840D01*
X58486188Y-71538212D01*
X64515000Y-71538212D01*
X64515000Y-71761788D01*
X64558617Y-71981067D01*
X64644176Y-72187624D01*
X64768388Y-72373520D01*
X64926480Y-72531612D01*
X65112376Y-72655824D01*
X65318933Y-72741383D01*
X65538212Y-72785000D01*
X65761788Y-72785000D01*
X65981067Y-72741383D01*
X66187624Y-72655824D01*
X66373520Y-72531612D01*
X66531612Y-72373520D01*
X66655824Y-72187624D01*
X66741383Y-71981067D01*
X66785000Y-71761788D01*
X66785000Y-71538212D01*
X66741383Y-71318933D01*
X66655824Y-71112376D01*
X66531612Y-70926480D01*
X66373520Y-70768388D01*
X66187624Y-70644176D01*
X65981067Y-70558617D01*
X65761788Y-70515000D01*
X65538212Y-70515000D01*
X65318933Y-70558617D01*
X65112376Y-70644176D01*
X64926480Y-70768388D01*
X64768388Y-70926480D01*
X64644176Y-71112376D01*
X64558617Y-71318933D01*
X64515000Y-71538212D01*
X58486188Y-71538212D01*
X60985735Y-69038665D01*
X71765000Y-69038665D01*
X71765000Y-69321335D01*
X71820147Y-69598574D01*
X71928320Y-69859727D01*
X72085363Y-70094759D01*
X72285241Y-70294637D01*
X72520273Y-70451680D01*
X72781426Y-70559853D01*
X73058665Y-70615000D01*
X73341335Y-70615000D01*
X73618574Y-70559853D01*
X73879727Y-70451680D01*
X74114759Y-70294637D01*
X74314637Y-70094759D01*
X74471680Y-69859727D01*
X74579853Y-69598574D01*
X74635000Y-69321335D01*
X74635000Y-69038665D01*
X74579853Y-68761426D01*
X74471680Y-68500273D01*
X74314637Y-68265241D01*
X74114759Y-68065363D01*
X73879727Y-67908320D01*
X73618574Y-67800147D01*
X73341335Y-67745000D01*
X73058665Y-67745000D01*
X72781426Y-67800147D01*
X72520273Y-67908320D01*
X72285241Y-68065363D01*
X72085363Y-68265241D01*
X71928320Y-68500273D01*
X71820147Y-68761426D01*
X71765000Y-69038665D01*
X60985735Y-69038665D01*
X66486188Y-63538212D01*
X70265000Y-63538212D01*
X70265000Y-63761788D01*
X70308617Y-63981067D01*
X70394176Y-64187624D01*
X70518388Y-64373520D01*
X70676480Y-64531612D01*
X70862376Y-64655824D01*
X71068933Y-64741383D01*
X71288212Y-64785000D01*
X71511788Y-64785000D01*
X71731067Y-64741383D01*
X71937624Y-64655824D01*
X72123520Y-64531612D01*
X72281612Y-64373520D01*
X72405824Y-64187624D01*
X72491383Y-63981067D01*
X72535000Y-63761788D01*
X72535000Y-63538212D01*
X72491383Y-63318933D01*
X72405824Y-63112376D01*
X72281612Y-62926480D01*
X72123520Y-62768388D01*
X71937624Y-62644176D01*
X71731067Y-62558617D01*
X71511788Y-62515000D01*
X71288212Y-62515000D01*
X71068933Y-62558617D01*
X70862376Y-62644176D01*
X70676480Y-62768388D01*
X70518388Y-62926480D01*
X70394176Y-63112376D01*
X70308617Y-63318933D01*
X70265000Y-63538212D01*
X66486188Y-63538212D01*
X71327838Y-58696562D01*
X71357785Y-58671985D01*
X71383850Y-58640226D01*
X71418454Y-58598061D01*
X86165000Y-58598061D01*
X86165000Y-58801939D01*
X86204774Y-59001898D01*
X86282795Y-59190256D01*
X86396063Y-59359774D01*
X86540226Y-59503937D01*
X86709744Y-59617205D01*
X86720959Y-59621850D01*
X86576480Y-59718388D01*
X86418388Y-59876480D01*
X86294176Y-60062376D01*
X86208617Y-60268933D01*
X86165000Y-60488212D01*
X86165000Y-60711788D01*
X86208617Y-60931067D01*
X86294176Y-61137624D01*
X86418388Y-61323520D01*
X86544868Y-61450000D01*
X86418388Y-61576480D01*
X86294176Y-61762376D01*
X86208617Y-61968933D01*
X86165000Y-62188212D01*
X86165000Y-62411788D01*
X86208617Y-62631067D01*
X86294176Y-62837624D01*
X86418388Y-63023520D01*
X86576480Y-63181612D01*
X86762376Y-63305824D01*
X86968933Y-63391383D01*
X87188212Y-63435000D01*
X87411788Y-63435000D01*
X87631067Y-63391383D01*
X87837624Y-63305824D01*
X88023520Y-63181612D01*
X88181612Y-63023520D01*
X88305824Y-62837624D01*
X88391383Y-62631067D01*
X88435000Y-62411788D01*
X88435000Y-62188212D01*
X88391383Y-61968933D01*
X88305824Y-61762376D01*
X88181612Y-61576480D01*
X88055132Y-61450000D01*
X88181612Y-61323520D01*
X88305824Y-61137624D01*
X88391383Y-60931067D01*
X88435000Y-60711788D01*
X88435000Y-60488212D01*
X88391383Y-60268933D01*
X88305824Y-60062376D01*
X88181612Y-59876480D01*
X88023520Y-59718388D01*
X87837624Y-59594176D01*
X87767928Y-59565307D01*
X87859774Y-59503937D01*
X88003937Y-59359774D01*
X88117205Y-59190256D01*
X88195226Y-59001898D01*
X88235000Y-58801939D01*
X88235000Y-58598061D01*
X88195226Y-58398102D01*
X88117205Y-58209744D01*
X88003937Y-58040226D01*
X87859774Y-57896063D01*
X87690256Y-57782795D01*
X87501898Y-57704774D01*
X87301939Y-57665000D01*
X87098061Y-57665000D01*
X86898102Y-57704774D01*
X86709744Y-57782795D01*
X86540226Y-57896063D01*
X86396063Y-58040226D01*
X86282795Y-58209744D01*
X86204774Y-58398102D01*
X86165000Y-58598061D01*
X71418454Y-58598061D01*
X71455883Y-58552454D01*
X71528775Y-58416081D01*
X71538872Y-58382795D01*
X71573663Y-58268108D01*
X71584446Y-58158617D01*
X71585021Y-58152782D01*
X71585021Y-58152777D01*
X71588818Y-58114221D01*
X71585021Y-58075668D01*
X71585021Y-54298061D01*
X72465000Y-54298061D01*
X72465000Y-54501939D01*
X72504774Y-54701898D01*
X72582795Y-54890256D01*
X72696063Y-55059774D01*
X72708125Y-55071836D01*
X72682795Y-55109744D01*
X72604774Y-55298102D01*
X72565000Y-55498061D01*
X72565000Y-55701939D01*
X72604774Y-55901898D01*
X72682795Y-56090256D01*
X72796063Y-56259774D01*
X72940226Y-56403937D01*
X73109744Y-56517205D01*
X73298102Y-56595226D01*
X73498061Y-56635000D01*
X73701939Y-56635000D01*
X73901898Y-56595226D01*
X74090256Y-56517205D01*
X74259774Y-56403937D01*
X74403937Y-56259774D01*
X74517205Y-56090256D01*
X74595226Y-55901898D01*
X74635000Y-55701939D01*
X74635000Y-55498061D01*
X74621676Y-55431074D01*
X74787645Y-55398061D01*
X86165000Y-55398061D01*
X86165000Y-55601939D01*
X86204774Y-55801898D01*
X86282795Y-55990256D01*
X86396063Y-56159774D01*
X86540226Y-56303937D01*
X86709744Y-56417205D01*
X86898102Y-56495226D01*
X87098061Y-56535000D01*
X87301939Y-56535000D01*
X87501898Y-56495226D01*
X87690256Y-56417205D01*
X87859774Y-56303937D01*
X88003937Y-56159774D01*
X88117205Y-55990256D01*
X88195226Y-55801898D01*
X88235000Y-55601939D01*
X88235000Y-55398061D01*
X88195226Y-55198102D01*
X88117205Y-55009744D01*
X88003937Y-54840226D01*
X87859774Y-54696063D01*
X87690256Y-54582795D01*
X87501898Y-54504774D01*
X87301939Y-54465000D01*
X87098061Y-54465000D01*
X86898102Y-54504774D01*
X86709744Y-54582795D01*
X86540226Y-54696063D01*
X86396063Y-54840226D01*
X86282795Y-55009744D01*
X86204774Y-55198102D01*
X86165000Y-55398061D01*
X74787645Y-55398061D01*
X74801898Y-55395226D01*
X74990256Y-55317205D01*
X75159774Y-55203937D01*
X75303937Y-55059774D01*
X75417205Y-54890256D01*
X75495226Y-54701898D01*
X75535000Y-54501939D01*
X75535000Y-54298061D01*
X75495226Y-54098102D01*
X75417205Y-53909744D01*
X75303937Y-53740226D01*
X75159774Y-53596063D01*
X74990256Y-53482795D01*
X74801898Y-53404774D01*
X74601939Y-53365000D01*
X74398061Y-53365000D01*
X74198102Y-53404774D01*
X74009744Y-53482795D01*
X74000000Y-53489306D01*
X73990256Y-53482795D01*
X73801898Y-53404774D01*
X73601939Y-53365000D01*
X73398061Y-53365000D01*
X73198102Y-53404774D01*
X73009744Y-53482795D01*
X72840226Y-53596063D01*
X72696063Y-53740226D01*
X72582795Y-53909744D01*
X72504774Y-54098102D01*
X72465000Y-54298061D01*
X71585021Y-54298061D01*
X71585021Y-52098061D01*
X74665000Y-52098061D01*
X74665000Y-52301939D01*
X74704774Y-52501898D01*
X74782795Y-52690256D01*
X74896063Y-52859774D01*
X75040226Y-53003937D01*
X75209744Y-53117205D01*
X75398102Y-53195226D01*
X75598061Y-53235000D01*
X75801939Y-53235000D01*
X76001898Y-53195226D01*
X76190256Y-53117205D01*
X76359774Y-53003937D01*
X76503937Y-52859774D01*
X76617205Y-52690256D01*
X76695226Y-52501898D01*
X76735000Y-52301939D01*
X76735000Y-52098061D01*
X76695226Y-51898102D01*
X76617205Y-51709744D01*
X76503937Y-51540226D01*
X76359774Y-51396063D01*
X76190256Y-51282795D01*
X76001898Y-51204774D01*
X75801939Y-51165000D01*
X75598061Y-51165000D01*
X75398102Y-51204774D01*
X75209744Y-51282795D01*
X75040226Y-51396063D01*
X74896063Y-51540226D01*
X74782795Y-51709744D01*
X74704774Y-51898102D01*
X74665000Y-52098061D01*
X71585021Y-52098061D01*
X71585021Y-46052651D01*
X71660621Y-46194090D01*
X71771215Y-46328849D01*
X71804988Y-46356566D01*
X79193465Y-53745044D01*
X79204774Y-53801898D01*
X79282795Y-53990256D01*
X79396063Y-54159774D01*
X79540226Y-54303937D01*
X79709744Y-54417205D01*
X79898102Y-54495226D01*
X80098061Y-54535000D01*
X80301939Y-54535000D01*
X80501898Y-54495226D01*
X80690256Y-54417205D01*
X80859774Y-54303937D01*
X81003937Y-54159774D01*
X81117205Y-53990256D01*
X81195226Y-53801898D01*
X81235000Y-53601939D01*
X81235000Y-53398061D01*
X81195226Y-53198102D01*
X81117205Y-53009744D01*
X81003937Y-52840226D01*
X80859774Y-52696063D01*
X80690256Y-52582795D01*
X80501898Y-52504774D01*
X80445044Y-52493465D01*
X75786303Y-47834724D01*
X75909744Y-47917205D01*
X76098102Y-47995226D01*
X76298061Y-48035000D01*
X76501939Y-48035000D01*
X76701898Y-47995226D01*
X76890256Y-47917205D01*
X76936368Y-47886394D01*
X76965685Y-47889281D01*
X77009154Y-47885000D01*
X77009162Y-47885000D01*
X77139175Y-47872195D01*
X77305998Y-47821589D01*
X77459744Y-47739411D01*
X77594502Y-47628817D01*
X77622219Y-47595044D01*
X79229051Y-45988212D01*
X79865000Y-45988212D01*
X79865000Y-46211788D01*
X79908617Y-46431067D01*
X79994176Y-46637624D01*
X80118388Y-46823520D01*
X80276480Y-46981612D01*
X80462376Y-47105824D01*
X80668933Y-47191383D01*
X80888212Y-47235000D01*
X81111788Y-47235000D01*
X81331067Y-47191383D01*
X81537624Y-47105824D01*
X81723520Y-46981612D01*
X81881612Y-46823520D01*
X82005824Y-46637624D01*
X82091383Y-46431067D01*
X82135000Y-46211788D01*
X82135000Y-45988212D01*
X82091383Y-45768933D01*
X82005824Y-45562376D01*
X81897328Y-45400000D01*
X86911928Y-45400000D01*
X86911928Y-47100000D01*
X86924188Y-47224482D01*
X86960498Y-47344180D01*
X87019463Y-47454494D01*
X87098815Y-47551185D01*
X87195506Y-47630537D01*
X87305820Y-47689502D01*
X87378380Y-47711513D01*
X87246525Y-47843368D01*
X87084010Y-48086589D01*
X86972068Y-48356842D01*
X86915000Y-48643740D01*
X86915000Y-48936260D01*
X86972068Y-49223158D01*
X87084010Y-49493411D01*
X87246525Y-49736632D01*
X87453368Y-49943475D01*
X87696589Y-50105990D01*
X87966842Y-50217932D01*
X88253740Y-50275000D01*
X88546260Y-50275000D01*
X88833158Y-50217932D01*
X89103411Y-50105990D01*
X89346632Y-49943475D01*
X89553475Y-49736632D01*
X89715990Y-49493411D01*
X89827932Y-49223158D01*
X89885000Y-48936260D01*
X89885000Y-48643740D01*
X89827932Y-48356842D01*
X89715990Y-48086589D01*
X89553475Y-47843368D01*
X89421620Y-47711513D01*
X89494180Y-47689502D01*
X89604494Y-47630537D01*
X89701185Y-47551185D01*
X89780537Y-47454494D01*
X89839502Y-47344180D01*
X89875812Y-47224482D01*
X89888072Y-47100000D01*
X89888072Y-45400000D01*
X89875812Y-45275518D01*
X89839502Y-45155820D01*
X89780537Y-45045506D01*
X89701185Y-44948815D01*
X89604494Y-44869463D01*
X89494180Y-44810498D01*
X89374482Y-44774188D01*
X89250000Y-44761928D01*
X87550000Y-44761928D01*
X87425518Y-44774188D01*
X87305820Y-44810498D01*
X87195506Y-44869463D01*
X87098815Y-44948815D01*
X87019463Y-45045506D01*
X86960498Y-45155820D01*
X86924188Y-45275518D01*
X86911928Y-45400000D01*
X81897328Y-45400000D01*
X81881612Y-45376480D01*
X81723520Y-45218388D01*
X81537624Y-45094176D01*
X81331067Y-45008617D01*
X81111788Y-44965000D01*
X80888212Y-44965000D01*
X80668933Y-45008617D01*
X80462376Y-45094176D01*
X80276480Y-45218388D01*
X80118388Y-45376480D01*
X79994176Y-45562376D01*
X79908617Y-45768933D01*
X79865000Y-45988212D01*
X79229051Y-45988212D01*
X80145061Y-45072203D01*
X80178828Y-45044491D01*
X80207345Y-45009744D01*
X80289422Y-44909733D01*
X80295618Y-44898141D01*
X80371600Y-44755987D01*
X80422206Y-44589164D01*
X80435011Y-44459151D01*
X80435011Y-44459143D01*
X80439292Y-44415674D01*
X80435011Y-44372205D01*
X80435011Y-38040143D01*
X80576480Y-38181612D01*
X80762376Y-38305824D01*
X80968933Y-38391383D01*
X81188212Y-38435000D01*
X81411788Y-38435000D01*
X81631067Y-38391383D01*
X81837624Y-38305824D01*
X82023520Y-38181612D01*
X82181612Y-38023520D01*
X82305824Y-37837624D01*
X82391383Y-37631067D01*
X82435000Y-37411788D01*
X82435000Y-37188212D01*
X82391383Y-36968933D01*
X82305824Y-36762376D01*
X82181612Y-36576480D01*
X82023520Y-36418388D01*
X81837624Y-36294176D01*
X81631067Y-36208617D01*
X81411788Y-36165000D01*
X81188212Y-36165000D01*
X80968933Y-36208617D01*
X80762376Y-36294176D01*
X80576480Y-36418388D01*
X80435011Y-36559857D01*
X80435011Y-35503515D01*
X80439292Y-35460048D01*
X80435011Y-35416582D01*
X80435011Y-35416572D01*
X80422206Y-35286559D01*
X80371600Y-35119736D01*
X80289422Y-34965990D01*
X80233674Y-34898061D01*
X80206543Y-34865002D01*
X80206541Y-34865000D01*
X80178828Y-34831232D01*
X80145060Y-34803519D01*
X77585010Y-32243470D01*
X77585010Y-29653516D01*
X77589291Y-29610047D01*
X77585010Y-29566578D01*
X77585010Y-29566570D01*
X77572205Y-29436557D01*
X77532283Y-29304953D01*
X77521599Y-29269733D01*
X77439421Y-29115988D01*
X77356542Y-29015000D01*
X77356540Y-29014998D01*
X77328827Y-28981230D01*
X77295059Y-28953517D01*
X77129754Y-28788212D01*
X79065000Y-28788212D01*
X79065000Y-29011788D01*
X79108617Y-29231067D01*
X79194176Y-29437624D01*
X79318388Y-29623520D01*
X79476480Y-29781612D01*
X79504000Y-29800000D01*
X79476480Y-29818388D01*
X79318388Y-29976480D01*
X79194176Y-30162376D01*
X79108617Y-30368933D01*
X79065000Y-30588212D01*
X79065000Y-30811788D01*
X79108617Y-31031067D01*
X79194176Y-31237624D01*
X79318388Y-31423520D01*
X79476480Y-31581612D01*
X79662376Y-31705824D01*
X79868933Y-31791383D01*
X80088212Y-31835000D01*
X80311788Y-31835000D01*
X80531067Y-31791383D01*
X80737624Y-31705824D01*
X80923520Y-31581612D01*
X81081612Y-31423520D01*
X81205824Y-31237624D01*
X81291383Y-31031067D01*
X81335000Y-30811788D01*
X81335000Y-30588212D01*
X81291383Y-30368933D01*
X81205824Y-30162376D01*
X81081612Y-29976480D01*
X80923520Y-29818388D01*
X80896000Y-29800000D01*
X80923520Y-29781612D01*
X81081612Y-29623520D01*
X81205824Y-29437624D01*
X81291383Y-29231067D01*
X81335000Y-29011788D01*
X81335000Y-28788212D01*
X81365000Y-28788212D01*
X81365000Y-29011788D01*
X81408617Y-29231067D01*
X81494176Y-29437624D01*
X81618388Y-29623520D01*
X81776480Y-29781612D01*
X81804000Y-29800000D01*
X81776480Y-29818388D01*
X81618388Y-29976480D01*
X81494176Y-30162376D01*
X81408617Y-30368933D01*
X81365000Y-30588212D01*
X81365000Y-30811788D01*
X81408617Y-31031067D01*
X81494176Y-31237624D01*
X81618388Y-31423520D01*
X81776480Y-31581612D01*
X81962376Y-31705824D01*
X82168933Y-31791383D01*
X82388212Y-31835000D01*
X82611788Y-31835000D01*
X82831067Y-31791383D01*
X83037624Y-31705824D01*
X83223520Y-31581612D01*
X83381612Y-31423520D01*
X83505824Y-31237624D01*
X83591383Y-31031067D01*
X83635000Y-30811788D01*
X83635000Y-30588212D01*
X83591383Y-30368933D01*
X83505824Y-30162376D01*
X83381612Y-29976480D01*
X83223520Y-29818388D01*
X83196000Y-29800000D01*
X83223520Y-29781612D01*
X83381612Y-29623520D01*
X83505824Y-29437624D01*
X83591383Y-29231067D01*
X83635000Y-29011788D01*
X83635000Y-28788212D01*
X83591383Y-28568933D01*
X83505824Y-28362376D01*
X83381612Y-28176480D01*
X83223520Y-28018388D01*
X83037624Y-27894176D01*
X82831067Y-27808617D01*
X82611788Y-27765000D01*
X82388212Y-27765000D01*
X82168933Y-27808617D01*
X81962376Y-27894176D01*
X81776480Y-28018388D01*
X81618388Y-28176480D01*
X81494176Y-28362376D01*
X81408617Y-28568933D01*
X81365000Y-28788212D01*
X81335000Y-28788212D01*
X81291383Y-28568933D01*
X81205824Y-28362376D01*
X81081612Y-28176480D01*
X80923520Y-28018388D01*
X80737624Y-27894176D01*
X80531067Y-27808617D01*
X80311788Y-27765000D01*
X80088212Y-27765000D01*
X79868933Y-27808617D01*
X79662376Y-27894176D01*
X79476480Y-28018388D01*
X79318388Y-28176480D01*
X79194176Y-28362376D01*
X79108617Y-28568933D01*
X79065000Y-28788212D01*
X77129754Y-28788212D01*
X76246487Y-27904946D01*
X76218770Y-27871173D01*
X76084012Y-27760579D01*
X75930266Y-27678401D01*
X75763443Y-27627795D01*
X75633430Y-27614990D01*
X75633422Y-27614990D01*
X75589953Y-27610709D01*
X75546484Y-27614990D01*
X73156531Y-27614990D01*
X72196486Y-26654945D01*
X72168769Y-26621172D01*
X72034011Y-26510578D01*
X71880265Y-26428400D01*
X71747786Y-26388212D01*
X75965000Y-26388212D01*
X75965000Y-26611788D01*
X76008617Y-26831067D01*
X76094176Y-27037624D01*
X76218388Y-27223520D01*
X76376480Y-27381612D01*
X76562376Y-27505824D01*
X76768933Y-27591383D01*
X76988212Y-27635000D01*
X77211788Y-27635000D01*
X77431067Y-27591383D01*
X77637624Y-27505824D01*
X77823520Y-27381612D01*
X77981612Y-27223520D01*
X78105824Y-27037624D01*
X78191383Y-26831067D01*
X78235000Y-26611788D01*
X78235000Y-26488212D01*
X84665000Y-26488212D01*
X84665000Y-26711788D01*
X84708617Y-26931067D01*
X84794176Y-27137624D01*
X84918388Y-27323520D01*
X85076480Y-27481612D01*
X85262376Y-27605824D01*
X85468933Y-27691383D01*
X85688212Y-27735000D01*
X85911788Y-27735000D01*
X86131067Y-27691383D01*
X86337624Y-27605824D01*
X86523520Y-27481612D01*
X86681612Y-27323520D01*
X86805824Y-27137624D01*
X86891383Y-26931067D01*
X86935000Y-26711788D01*
X86935000Y-26488212D01*
X86891383Y-26268933D01*
X86805824Y-26062376D01*
X86681612Y-25876480D01*
X86523520Y-25718388D01*
X86337624Y-25594176D01*
X86143930Y-25513945D01*
X93140000Y-25513945D01*
X93140000Y-26486055D01*
X93329650Y-27439486D01*
X93701660Y-28337599D01*
X94241735Y-29145879D01*
X94929121Y-29833265D01*
X95737401Y-30373340D01*
X96635514Y-30745350D01*
X97588945Y-30935000D01*
X98561055Y-30935000D01*
X99514486Y-30745350D01*
X100412599Y-30373340D01*
X101220879Y-29833265D01*
X101908265Y-29145879D01*
X102448340Y-28337599D01*
X102820350Y-27439486D01*
X103010000Y-26486055D01*
X103010000Y-25513945D01*
X102820350Y-24560514D01*
X102448340Y-23662401D01*
X101908265Y-22854121D01*
X101220879Y-22166735D01*
X100412599Y-21626660D01*
X99514486Y-21254650D01*
X98561055Y-21065000D01*
X97588945Y-21065000D01*
X96635514Y-21254650D01*
X95737401Y-21626660D01*
X94929121Y-22166735D01*
X94241735Y-22854121D01*
X93701660Y-23662401D01*
X93329650Y-24560514D01*
X93140000Y-25513945D01*
X86143930Y-25513945D01*
X86131067Y-25508617D01*
X85911788Y-25465000D01*
X85688212Y-25465000D01*
X85468933Y-25508617D01*
X85262376Y-25594176D01*
X85076480Y-25718388D01*
X84918388Y-25876480D01*
X84794176Y-26062376D01*
X84708617Y-26268933D01*
X84665000Y-26488212D01*
X78235000Y-26488212D01*
X78235000Y-26388212D01*
X78191383Y-26168933D01*
X78105824Y-25962376D01*
X77981612Y-25776480D01*
X77823520Y-25618388D01*
X77637624Y-25494176D01*
X77431067Y-25408617D01*
X77211788Y-25365000D01*
X76988212Y-25365000D01*
X76768933Y-25408617D01*
X76562376Y-25494176D01*
X76376480Y-25618388D01*
X76218388Y-25776480D01*
X76094176Y-25962376D01*
X76008617Y-26168933D01*
X75965000Y-26388212D01*
X71747786Y-26388212D01*
X71713442Y-26377794D01*
X71583429Y-26364989D01*
X71583418Y-26364989D01*
X71539952Y-26360708D01*
X71496483Y-26364989D01*
X67893480Y-26364989D01*
X67850011Y-26360708D01*
X67806542Y-26364989D01*
X67806534Y-26364989D01*
X67803424Y-26365295D01*
X67801939Y-26365000D01*
X67598061Y-26365000D01*
X67398102Y-26404774D01*
X67209744Y-26482795D01*
X67040226Y-26596063D01*
X67000000Y-26636289D01*
X66859774Y-26496063D01*
X66690256Y-26382795D01*
X66501898Y-26304774D01*
X66301939Y-26265000D01*
X66098061Y-26265000D01*
X65898102Y-26304774D01*
X65709744Y-26382795D01*
X65540226Y-26496063D01*
X65396063Y-26640226D01*
X65282795Y-26809744D01*
X65204774Y-26998102D01*
X65165000Y-27198061D01*
X65165000Y-27401939D01*
X65204774Y-27601898D01*
X65282795Y-27790256D01*
X65396063Y-27959774D01*
X65540226Y-28103937D01*
X65709744Y-28217205D01*
X65898102Y-28295226D01*
X65954957Y-28306535D01*
X66493471Y-28845050D01*
X66521184Y-28878818D01*
X66554952Y-28906531D01*
X66554954Y-28906533D01*
X66557372Y-28908517D01*
X66655942Y-28989412D01*
X66809688Y-29071590D01*
X66976511Y-29122196D01*
X67106524Y-29135001D01*
X67106534Y-29135001D01*
X67150000Y-29139282D01*
X67193466Y-29135001D01*
X68064532Y-29135001D01*
X68108001Y-29139282D01*
X68151470Y-29135001D01*
X68151478Y-29135001D01*
X68281491Y-29122196D01*
X68448314Y-29071590D01*
X68602060Y-28989412D01*
X68736818Y-28878818D01*
X68764535Y-28845045D01*
X68774581Y-28834999D01*
X69665000Y-28834999D01*
X69665000Y-28901939D01*
X69704774Y-29101898D01*
X69782795Y-29290256D01*
X69896063Y-29459774D01*
X70040226Y-29603937D01*
X70209744Y-29717205D01*
X70398102Y-29795226D01*
X70598061Y-29835000D01*
X70801939Y-29835000D01*
X71001898Y-29795226D01*
X71190256Y-29717205D01*
X71359774Y-29603937D01*
X71503937Y-29459774D01*
X71505643Y-29457221D01*
X71843470Y-29795049D01*
X71871183Y-29828817D01*
X71904951Y-29856530D01*
X71904953Y-29856532D01*
X71957918Y-29899999D01*
X72005941Y-29939411D01*
X72159687Y-30021589D01*
X72326510Y-30072195D01*
X72456523Y-30085000D01*
X72456533Y-30085000D01*
X72499999Y-30089281D01*
X72543465Y-30085000D01*
X74933422Y-30085000D01*
X75115001Y-30266579D01*
X75115000Y-32856531D01*
X75110719Y-32900000D01*
X75115000Y-32943469D01*
X75115000Y-32943476D01*
X75127805Y-33073489D01*
X75178411Y-33240312D01*
X75260589Y-33394058D01*
X75371183Y-33528817D01*
X75404956Y-33556534D01*
X77213421Y-35365000D01*
X77088212Y-35365000D01*
X76868933Y-35408617D01*
X76662376Y-35494176D01*
X76500000Y-35602672D01*
X76337624Y-35494176D01*
X76131067Y-35408617D01*
X75911788Y-35365000D01*
X75688212Y-35365000D01*
X75468933Y-35408617D01*
X75262376Y-35494176D01*
X75076480Y-35618388D01*
X74918388Y-35776480D01*
X74794176Y-35962376D01*
X74708617Y-36168933D01*
X74665000Y-36388212D01*
X74665000Y-36611788D01*
X74708617Y-36831067D01*
X74794176Y-37037624D01*
X74918388Y-37223520D01*
X75076480Y-37381612D01*
X75262376Y-37505824D01*
X75468933Y-37591383D01*
X75688212Y-37635000D01*
X75911788Y-37635000D01*
X76131067Y-37591383D01*
X76337624Y-37505824D01*
X76500000Y-37397328D01*
X76662376Y-37505824D01*
X76868933Y-37591383D01*
X77088212Y-37635000D01*
X77311788Y-37635000D01*
X77531067Y-37591383D01*
X77737624Y-37505824D01*
X77923520Y-37381612D01*
X77965002Y-37340130D01*
X77965001Y-41065000D01*
X77898061Y-41065000D01*
X77698102Y-41104774D01*
X77509744Y-41182795D01*
X77340226Y-41296063D01*
X77196063Y-41440226D01*
X77082795Y-41609744D01*
X77004774Y-41798102D01*
X76965000Y-41998061D01*
X76965000Y-42201939D01*
X77004774Y-42401898D01*
X77082795Y-42590256D01*
X77089306Y-42600000D01*
X77082795Y-42609744D01*
X77004774Y-42798102D01*
X76965000Y-42998061D01*
X76965000Y-43201939D01*
X77004774Y-43401898D01*
X77082795Y-43590256D01*
X77196063Y-43759774D01*
X77340226Y-43903937D01*
X77502045Y-44012061D01*
X76707155Y-44806952D01*
X76701898Y-44804774D01*
X76501939Y-44765000D01*
X76298061Y-44765000D01*
X76098102Y-44804774D01*
X75909744Y-44882795D01*
X75740226Y-44996063D01*
X75596063Y-45140226D01*
X75482795Y-45309744D01*
X75404774Y-45498102D01*
X75365000Y-45698061D01*
X75365000Y-45901939D01*
X75404774Y-46101898D01*
X75482795Y-46290256D01*
X75556123Y-46400000D01*
X75482795Y-46509744D01*
X75404774Y-46698102D01*
X75365000Y-46898061D01*
X75365000Y-47101939D01*
X75404774Y-47301898D01*
X75482795Y-47490256D01*
X75565276Y-47613697D01*
X73285032Y-45333454D01*
X73285032Y-43843497D01*
X73289313Y-43800031D01*
X73285032Y-43756565D01*
X73285032Y-43756555D01*
X73272227Y-43626542D01*
X73221621Y-43459719D01*
X73139443Y-43305973D01*
X73088696Y-43244138D01*
X73056564Y-43204985D01*
X73056562Y-43204983D01*
X73028849Y-43171215D01*
X72995081Y-43143502D01*
X72606535Y-42754956D01*
X72595226Y-42698102D01*
X72517205Y-42509744D01*
X72403937Y-42340226D01*
X72259774Y-42196063D01*
X72090256Y-42082795D01*
X71901898Y-42004774D01*
X71701939Y-41965000D01*
X71498061Y-41965000D01*
X71298102Y-42004774D01*
X71109744Y-42082795D01*
X70950000Y-42189532D01*
X70790256Y-42082795D01*
X70601898Y-42004774D01*
X70401939Y-41965000D01*
X70198061Y-41965000D01*
X69998102Y-42004774D01*
X69809744Y-42082795D01*
X69640226Y-42196063D01*
X69530338Y-42305952D01*
X69494120Y-42269734D01*
X69324602Y-42156466D01*
X69136244Y-42078445D01*
X68936285Y-42038671D01*
X68732407Y-42038671D01*
X68532448Y-42078445D01*
X68344090Y-42156466D01*
X68329755Y-42166044D01*
X68259774Y-42096063D01*
X68090256Y-41982795D01*
X67901898Y-41904774D01*
X67701939Y-41865000D01*
X67498061Y-41865000D01*
X67298102Y-41904774D01*
X67109744Y-41982795D01*
X67021804Y-42041554D01*
X66965878Y-41985628D01*
X66796360Y-41872360D01*
X66608002Y-41794339D01*
X66408043Y-41754565D01*
X66204165Y-41754565D01*
X66004206Y-41794339D01*
X65815848Y-41872360D01*
X65646330Y-41985628D01*
X65502167Y-42129791D01*
X65388899Y-42299309D01*
X65310878Y-42487667D01*
X65271104Y-42687626D01*
X65271104Y-42891504D01*
X65310878Y-43091463D01*
X65319393Y-43112021D01*
X65301898Y-43104774D01*
X65101939Y-43065000D01*
X64898061Y-43065000D01*
X64698102Y-43104774D01*
X64509744Y-43182795D01*
X64340226Y-43296063D01*
X64196063Y-43440226D01*
X64082795Y-43609744D01*
X64004774Y-43798102D01*
X63965000Y-43998061D01*
X63965000Y-44024842D01*
X62874843Y-45115000D01*
X61767263Y-45115000D01*
X61817205Y-45040256D01*
X61895226Y-44851898D01*
X61935000Y-44651939D01*
X61935000Y-44448061D01*
X61895226Y-44248102D01*
X61817205Y-44059744D01*
X61703937Y-43890226D01*
X61559774Y-43746063D01*
X61390256Y-43632795D01*
X61201898Y-43554774D01*
X61001939Y-43515000D01*
X60798061Y-43515000D01*
X60598102Y-43554774D01*
X60409744Y-43632795D01*
X60350000Y-43672715D01*
X60290256Y-43632795D01*
X60101898Y-43554774D01*
X59901939Y-43515000D01*
X59698061Y-43515000D01*
X59498102Y-43554774D01*
X59309744Y-43632795D01*
X59140226Y-43746063D01*
X58996063Y-43890226D01*
X58882795Y-44059744D01*
X58804774Y-44248102D01*
X58765000Y-44448061D01*
X58765000Y-44651939D01*
X58804774Y-44851898D01*
X58882795Y-45040256D01*
X58932737Y-45115000D01*
X54253159Y-45115000D01*
X56970098Y-42398061D01*
X57765000Y-42398061D01*
X57765000Y-42601939D01*
X57804774Y-42801898D01*
X57882795Y-42990256D01*
X57996063Y-43159774D01*
X58140226Y-43303937D01*
X58309744Y-43417205D01*
X58498102Y-43495226D01*
X58698061Y-43535000D01*
X58901939Y-43535000D01*
X59101898Y-43495226D01*
X59290256Y-43417205D01*
X59459774Y-43303937D01*
X59603937Y-43159774D01*
X59717205Y-42990256D01*
X59795226Y-42801898D01*
X59835000Y-42601939D01*
X59835000Y-42398061D01*
X59795226Y-42198102D01*
X59717205Y-42009744D01*
X59603937Y-41840226D01*
X59459774Y-41696063D01*
X59290256Y-41582795D01*
X59101898Y-41504774D01*
X58901939Y-41465000D01*
X58698061Y-41465000D01*
X58498102Y-41504774D01*
X58309744Y-41582795D01*
X58140226Y-41696063D01*
X57996063Y-41840226D01*
X57882795Y-42009744D01*
X57804774Y-42198102D01*
X57765000Y-42398061D01*
X56970098Y-42398061D01*
X58227818Y-41140342D01*
X58257765Y-41115765D01*
X58285193Y-41082345D01*
X58324048Y-41035000D01*
X58355863Y-40996234D01*
X58428755Y-40859861D01*
X58473642Y-40711888D01*
X58485001Y-40596562D01*
X58485001Y-40596555D01*
X58488798Y-40558002D01*
X58485001Y-40519449D01*
X58485001Y-37385595D01*
X58544138Y-37496234D01*
X58642236Y-37615766D01*
X58672190Y-37640349D01*
X61959656Y-40927816D01*
X61984234Y-40957764D01*
X62014182Y-40982342D01*
X62014185Y-40982345D01*
X62023825Y-40990256D01*
X62103765Y-41055862D01*
X62222963Y-41119574D01*
X62240138Y-41128754D01*
X62388111Y-41173642D01*
X62463024Y-41181020D01*
X62503437Y-41185000D01*
X62503442Y-41185000D01*
X62541998Y-41188797D01*
X62580554Y-41185000D01*
X62621289Y-41185000D01*
X62640226Y-41203937D01*
X62809744Y-41317205D01*
X62998102Y-41395226D01*
X63198061Y-41435000D01*
X63401939Y-41435000D01*
X63601898Y-41395226D01*
X63790256Y-41317205D01*
X63959774Y-41203937D01*
X64103937Y-41059774D01*
X64217205Y-40890256D01*
X64295226Y-40701898D01*
X64335000Y-40501939D01*
X64335000Y-40298061D01*
X64295226Y-40098102D01*
X64285245Y-40074005D01*
X64423520Y-39981612D01*
X64581612Y-39823520D01*
X64705824Y-39637624D01*
X64791383Y-39431067D01*
X64835000Y-39211788D01*
X64835000Y-38988212D01*
X64791383Y-38768933D01*
X64705824Y-38562376D01*
X64581612Y-38376480D01*
X64423520Y-38218388D01*
X64237624Y-38094176D01*
X64031067Y-38008617D01*
X63811788Y-37965000D01*
X63588212Y-37965000D01*
X63501077Y-37982332D01*
X63535000Y-37811788D01*
X63535000Y-37588212D01*
X63491383Y-37368933D01*
X63405824Y-37162376D01*
X63281612Y-36976480D01*
X63123520Y-36818388D01*
X62937624Y-36694176D01*
X62731067Y-36608617D01*
X62578779Y-36578325D01*
X62723520Y-36481612D01*
X62881612Y-36323520D01*
X63005824Y-36137624D01*
X63091383Y-35931067D01*
X63135000Y-35711788D01*
X63135000Y-35488212D01*
X63091383Y-35268933D01*
X63005824Y-35062376D01*
X62881612Y-34876480D01*
X62755132Y-34750000D01*
X62881612Y-34623520D01*
X63005824Y-34437624D01*
X63091383Y-34231067D01*
X63135000Y-34011788D01*
X63135000Y-33788212D01*
X63165000Y-33788212D01*
X63165000Y-34011788D01*
X63208617Y-34231067D01*
X63294176Y-34437624D01*
X63418388Y-34623520D01*
X63576480Y-34781612D01*
X63762376Y-34905824D01*
X63968933Y-34991383D01*
X64188212Y-35035000D01*
X64411788Y-35035000D01*
X64631067Y-34991383D01*
X64837624Y-34905824D01*
X65023520Y-34781612D01*
X65181612Y-34623520D01*
X65305824Y-34437624D01*
X65391383Y-34231067D01*
X65435000Y-34011788D01*
X65435000Y-33788212D01*
X65391383Y-33568933D01*
X65305824Y-33362376D01*
X65181612Y-33176480D01*
X65023520Y-33018388D01*
X64837624Y-32894176D01*
X64631067Y-32808617D01*
X64411788Y-32765000D01*
X64188212Y-32765000D01*
X63968933Y-32808617D01*
X63762376Y-32894176D01*
X63576480Y-33018388D01*
X63418388Y-33176480D01*
X63294176Y-33362376D01*
X63208617Y-33568933D01*
X63165000Y-33788212D01*
X63135000Y-33788212D01*
X63091383Y-33568933D01*
X63005824Y-33362376D01*
X62881612Y-33176480D01*
X62723520Y-33018388D01*
X62537624Y-32894176D01*
X62331067Y-32808617D01*
X62111788Y-32765000D01*
X61888212Y-32765000D01*
X61668933Y-32808617D01*
X61462376Y-32894176D01*
X61276480Y-33018388D01*
X61118388Y-33176480D01*
X60994176Y-33362376D01*
X60908617Y-33568933D01*
X60865000Y-33788212D01*
X60865000Y-34011788D01*
X60908617Y-34231067D01*
X60994176Y-34437624D01*
X61118388Y-34623520D01*
X61244868Y-34750000D01*
X61118388Y-34876480D01*
X60994176Y-35062376D01*
X60908617Y-35268933D01*
X60865000Y-35488212D01*
X60865000Y-35711788D01*
X60908617Y-35931067D01*
X60994176Y-36137624D01*
X61118388Y-36323520D01*
X61276480Y-36481612D01*
X61462376Y-36605824D01*
X61668933Y-36691383D01*
X61821221Y-36721675D01*
X61676480Y-36818388D01*
X61518388Y-36976480D01*
X61394176Y-37162376D01*
X61308617Y-37368933D01*
X61265000Y-37588212D01*
X61265000Y-37811788D01*
X61308617Y-38031067D01*
X61326574Y-38074418D01*
X59985000Y-36732845D01*
X59985000Y-31000000D01*
X65823000Y-31000000D01*
X65823000Y-37000000D01*
X65825440Y-37024776D01*
X65832667Y-37048601D01*
X65844403Y-37070557D01*
X65860197Y-37089803D01*
X65879443Y-37105597D01*
X65901399Y-37117333D01*
X65925224Y-37124560D01*
X65950000Y-37127000D01*
X67823000Y-37127000D01*
X67823000Y-39700000D01*
X67825440Y-39724776D01*
X67832667Y-39748601D01*
X67844403Y-39770557D01*
X67860197Y-39789803D01*
X67879443Y-39805597D01*
X67901399Y-39817333D01*
X67925224Y-39824560D01*
X67950000Y-39827000D01*
X69023000Y-39827000D01*
X69023000Y-41450000D01*
X69025440Y-41474776D01*
X69032667Y-41498601D01*
X69044403Y-41520557D01*
X69060197Y-41539803D01*
X69079443Y-41555597D01*
X69101399Y-41567333D01*
X69125224Y-41574560D01*
X69150000Y-41577000D01*
X70600000Y-41577000D01*
X70624776Y-41574560D01*
X70648601Y-41567333D01*
X70670557Y-41555597D01*
X70689803Y-41539803D01*
X70705597Y-41520557D01*
X70717333Y-41498601D01*
X70724560Y-41474776D01*
X70727000Y-41450000D01*
X70727000Y-39898061D01*
X73565000Y-39898061D01*
X73565000Y-40101939D01*
X73604774Y-40301898D01*
X73682795Y-40490256D01*
X73796063Y-40659774D01*
X73836289Y-40700000D01*
X73796063Y-40740226D01*
X73682795Y-40909744D01*
X73604774Y-41098102D01*
X73565000Y-41298061D01*
X73565000Y-41501939D01*
X73604774Y-41701898D01*
X73682795Y-41890256D01*
X73796063Y-42059774D01*
X73940226Y-42203937D01*
X74109744Y-42317205D01*
X74298102Y-42395226D01*
X74498061Y-42435000D01*
X74701939Y-42435000D01*
X74901898Y-42395226D01*
X75090256Y-42317205D01*
X75259774Y-42203937D01*
X75403937Y-42059774D01*
X75517205Y-41890256D01*
X75595226Y-41701898D01*
X75635000Y-41501939D01*
X75635000Y-41298061D01*
X75595226Y-41098102D01*
X75517205Y-40909744D01*
X75403937Y-40740226D01*
X75363711Y-40700000D01*
X75403937Y-40659774D01*
X75517205Y-40490256D01*
X75595226Y-40301898D01*
X75635000Y-40101939D01*
X75635000Y-39898061D01*
X75595226Y-39698102D01*
X75517205Y-39509744D01*
X75403937Y-39340226D01*
X75259774Y-39196063D01*
X75090256Y-39082795D01*
X74901898Y-39004774D01*
X74701939Y-38965000D01*
X74498061Y-38965000D01*
X74298102Y-39004774D01*
X74109744Y-39082795D01*
X73940226Y-39196063D01*
X73796063Y-39340226D01*
X73682795Y-39509744D01*
X73604774Y-39698102D01*
X73565000Y-39898061D01*
X70727000Y-39898061D01*
X70727000Y-37127000D01*
X74400000Y-37127000D01*
X74424776Y-37124560D01*
X74448601Y-37117333D01*
X74470557Y-37105597D01*
X74489803Y-37089803D01*
X74505597Y-37070557D01*
X74517333Y-37048601D01*
X74524560Y-37024776D01*
X74527000Y-37000000D01*
X74527000Y-31000000D01*
X74524560Y-30975224D01*
X74517333Y-30951399D01*
X74505597Y-30929443D01*
X74489803Y-30910197D01*
X74470557Y-30894403D01*
X74448601Y-30882667D01*
X74424776Y-30875440D01*
X74400000Y-30873000D01*
X65950000Y-30873000D01*
X65925224Y-30875440D01*
X65901399Y-30882667D01*
X65879443Y-30894403D01*
X65860197Y-30910197D01*
X65844403Y-30929443D01*
X65832667Y-30951399D01*
X65825440Y-30975224D01*
X65823000Y-31000000D01*
X59985000Y-31000000D01*
X59985000Y-28698061D01*
X62265000Y-28698061D01*
X62265000Y-28901939D01*
X62304774Y-29101898D01*
X62382795Y-29290256D01*
X62496063Y-29459774D01*
X62640226Y-29603937D01*
X62809744Y-29717205D01*
X62998102Y-29795226D01*
X63198061Y-29835000D01*
X63401939Y-29835000D01*
X63601898Y-29795226D01*
X63790256Y-29717205D01*
X63959774Y-29603937D01*
X64103937Y-29459774D01*
X64217205Y-29290256D01*
X64295226Y-29101898D01*
X64335000Y-28901939D01*
X64335000Y-28698061D01*
X64295226Y-28498102D01*
X64217205Y-28309744D01*
X64103937Y-28140226D01*
X63959774Y-27996063D01*
X63790256Y-27882795D01*
X63601898Y-27804774D01*
X63401939Y-27765000D01*
X63198061Y-27765000D01*
X62998102Y-27804774D01*
X62809744Y-27882795D01*
X62640226Y-27996063D01*
X62496063Y-28140226D01*
X62382795Y-28309744D01*
X62304774Y-28498102D01*
X62265000Y-28698061D01*
X59985000Y-28698061D01*
X59985000Y-28578711D01*
X60003937Y-28559774D01*
X60117205Y-28390256D01*
X60195226Y-28201898D01*
X60235000Y-28001939D01*
X60235000Y-27798061D01*
X60195226Y-27598102D01*
X60117205Y-27409744D01*
X60003937Y-27240226D01*
X59859774Y-27096063D01*
X59690256Y-26982795D01*
X59501898Y-26904774D01*
X59301939Y-26865000D01*
X59098061Y-26865000D01*
X58898102Y-26904774D01*
X58709744Y-26982795D01*
X58620658Y-27042321D01*
X58501685Y-27078411D01*
X58347939Y-27160589D01*
X58347937Y-27160590D01*
X58347938Y-27160590D01*
X58246951Y-27243468D01*
X58246949Y-27243470D01*
X58213181Y-27271183D01*
X58185468Y-27304951D01*
X52562519Y-32927901D01*
X52503937Y-32840226D01*
X52359774Y-32696063D01*
X52190256Y-32582795D01*
X52001898Y-32504774D01*
X51801939Y-32465000D01*
X51598061Y-32465000D01*
X51398102Y-32504774D01*
X51209744Y-32582795D01*
X51040226Y-32696063D01*
X51021289Y-32715000D01*
X36918478Y-32715000D01*
X36895226Y-32598102D01*
X36817205Y-32409744D01*
X36703937Y-32240226D01*
X36559774Y-32096063D01*
X36390256Y-31982795D01*
X36201898Y-31904774D01*
X36001939Y-31865000D01*
X35798061Y-31865000D01*
X35598102Y-31904774D01*
X35409744Y-31982795D01*
X35300000Y-32056123D01*
X35190256Y-31982795D01*
X35001898Y-31904774D01*
X34801939Y-31865000D01*
X34598061Y-31865000D01*
X34398102Y-31904774D01*
X34209744Y-31982795D01*
X34040226Y-32096063D01*
X33896063Y-32240226D01*
X33782795Y-32409744D01*
X33704774Y-32598102D01*
X33665000Y-32798061D01*
X33665000Y-33001939D01*
X33704774Y-33201898D01*
X33782795Y-33390256D01*
X33896063Y-33559774D01*
X34040226Y-33703937D01*
X34209744Y-33817205D01*
X34398102Y-33895226D01*
X34598061Y-33935000D01*
X34624843Y-33935000D01*
X35377657Y-34687814D01*
X35402237Y-34717765D01*
X35432188Y-34742345D01*
X35432189Y-34742346D01*
X35521769Y-34815862D01*
X35658141Y-34888755D01*
X35806114Y-34933643D01*
X35960001Y-34948798D01*
X36113888Y-34933643D01*
X36261860Y-34888755D01*
X36398233Y-34815862D01*
X36517765Y-34717765D01*
X36542345Y-34687814D01*
X36945160Y-34285000D01*
X41465000Y-34285000D01*
X41465000Y-34461798D01*
X41508617Y-34681077D01*
X41594176Y-34887634D01*
X41718388Y-35073530D01*
X41876480Y-35231622D01*
X42062376Y-35355834D01*
X42268933Y-35441393D01*
X42488212Y-35485010D01*
X42711788Y-35485010D01*
X42931067Y-35441393D01*
X43137624Y-35355834D01*
X43323520Y-35231622D01*
X43366699Y-35188443D01*
X43409744Y-35217205D01*
X43598102Y-35295226D01*
X43798061Y-35335000D01*
X43825420Y-35335000D01*
X44206999Y-35716580D01*
X44206999Y-38265000D01*
X44098061Y-38265000D01*
X43898102Y-38304774D01*
X43709744Y-38382795D01*
X43540226Y-38496063D01*
X43396063Y-38640226D01*
X43282795Y-38809744D01*
X43204774Y-38998102D01*
X43165000Y-39198061D01*
X43165000Y-39401939D01*
X43204774Y-39601898D01*
X43282795Y-39790256D01*
X43396063Y-39959774D01*
X43415001Y-39978712D01*
X43415000Y-40715000D01*
X41612511Y-40715000D01*
X41635000Y-40601939D01*
X41635000Y-40398061D01*
X41595226Y-40198102D01*
X41517205Y-40009744D01*
X41403937Y-39840226D01*
X41259774Y-39696063D01*
X41090256Y-39582795D01*
X40901898Y-39504774D01*
X40701939Y-39465000D01*
X40675157Y-39465000D01*
X40245157Y-39035000D01*
X40401939Y-39035000D01*
X40601898Y-38995226D01*
X40790256Y-38917205D01*
X40959774Y-38803937D01*
X41103937Y-38659774D01*
X41217205Y-38490256D01*
X41295226Y-38301898D01*
X41335000Y-38101939D01*
X41335000Y-37898061D01*
X41295226Y-37698102D01*
X41217205Y-37509744D01*
X41103937Y-37340226D01*
X40959774Y-37196063D01*
X40790256Y-37082795D01*
X40601898Y-37004774D01*
X40401939Y-36965000D01*
X40198061Y-36965000D01*
X39998102Y-37004774D01*
X39809744Y-37082795D01*
X39640226Y-37196063D01*
X39496063Y-37340226D01*
X39382795Y-37509744D01*
X39304774Y-37698102D01*
X39265000Y-37898061D01*
X39265000Y-38054843D01*
X38482347Y-37272190D01*
X38457764Y-37242236D01*
X38338233Y-37144138D01*
X38201860Y-37071246D01*
X38053887Y-37026359D01*
X37938561Y-37015000D01*
X37938553Y-37015000D01*
X37900000Y-37011203D01*
X37861447Y-37015000D01*
X25078711Y-37015000D01*
X25059774Y-36996063D01*
X24890256Y-36882795D01*
X24701898Y-36804774D01*
X24501939Y-36765000D01*
X24298061Y-36765000D01*
X24098102Y-36804774D01*
X23909744Y-36882795D01*
X23740226Y-36996063D01*
X23596063Y-37140226D01*
X23482795Y-37309744D01*
X23404774Y-37498102D01*
X23365000Y-37698061D01*
X23365000Y-37901939D01*
X23404774Y-38101898D01*
X23482795Y-38290256D01*
X23489306Y-38300000D01*
X23482795Y-38309744D01*
X23404774Y-38498102D01*
X23365000Y-38698061D01*
X23365000Y-38901939D01*
X23404774Y-39101898D01*
X23482795Y-39290256D01*
X23596063Y-39459774D01*
X23740226Y-39603937D01*
X23909744Y-39717205D01*
X24098102Y-39795226D01*
X24298061Y-39835000D01*
X24501939Y-39835000D01*
X24701898Y-39795226D01*
X24890256Y-39717205D01*
X25059774Y-39603937D01*
X25078711Y-39585000D01*
X37374843Y-39585000D01*
X39817653Y-42027810D01*
X39842236Y-42057764D01*
X39961767Y-42155862D01*
X40093659Y-42226359D01*
X40098140Y-42228754D01*
X40246113Y-42273642D01*
X40321026Y-42281020D01*
X40361439Y-42285000D01*
X40361444Y-42285000D01*
X40400000Y-42288797D01*
X40438556Y-42285000D01*
X43761447Y-42285000D01*
X43800000Y-42288797D01*
X43838553Y-42285000D01*
X43838561Y-42285000D01*
X43953887Y-42273641D01*
X44101860Y-42228754D01*
X44207000Y-42172556D01*
X44207000Y-43906522D01*
X44202718Y-43950001D01*
X44219804Y-44123491D01*
X44270411Y-44290314D01*
X44352589Y-44444060D01*
X44435467Y-44545047D01*
X44435470Y-44545050D01*
X44463183Y-44578818D01*
X44496950Y-44606530D01*
X45029303Y-45138884D01*
X45004774Y-45198102D01*
X44965000Y-45398061D01*
X44965000Y-45601939D01*
X45004774Y-45801898D01*
X45082795Y-45990256D01*
X45196063Y-46159774D01*
X45340226Y-46303937D01*
X45509744Y-46417205D01*
X45698102Y-46495226D01*
X45898061Y-46535000D01*
X46101939Y-46535000D01*
X46301898Y-46495226D01*
X46490256Y-46417205D01*
X46659774Y-46303937D01*
X46803937Y-46159774D01*
X46917205Y-45990256D01*
X46995226Y-45801898D01*
X47035000Y-45601939D01*
X47035000Y-45398061D01*
X46995226Y-45198102D01*
X46917205Y-45009744D01*
X46885000Y-44961546D01*
X46885000Y-44901467D01*
X46889281Y-44858001D01*
X46885000Y-44814535D01*
X46885000Y-44814525D01*
X46872195Y-44684512D01*
X46821589Y-44517689D01*
X46739411Y-44363943D01*
X46628817Y-44229185D01*
X46595050Y-44201473D01*
X45976999Y-43583423D01*
X45976999Y-41735000D01*
X46101939Y-41735000D01*
X46301898Y-41695226D01*
X46490256Y-41617205D01*
X46659774Y-41503937D01*
X46803937Y-41359774D01*
X46917205Y-41190256D01*
X46995226Y-41001898D01*
X47035000Y-40801939D01*
X47035000Y-40598061D01*
X46995226Y-40398102D01*
X46969394Y-40335738D01*
X46981612Y-40323520D01*
X47105824Y-40137624D01*
X47191383Y-39931067D01*
X47235000Y-39711788D01*
X47235000Y-39488212D01*
X47191383Y-39268933D01*
X47105824Y-39062376D01*
X46981612Y-38876480D01*
X46823520Y-38718388D01*
X46637624Y-38594176D01*
X46431067Y-38508617D01*
X46211788Y-38465000D01*
X45988212Y-38465000D01*
X45976999Y-38467230D01*
X45976999Y-36235001D01*
X50654842Y-36235001D01*
X48022189Y-38867654D01*
X47992235Y-38892237D01*
X47894137Y-39011769D01*
X47821245Y-39148142D01*
X47776358Y-39296115D01*
X47764999Y-39411441D01*
X47764999Y-39411448D01*
X47761202Y-39450001D01*
X47764999Y-39488554D01*
X47765000Y-46521438D01*
X47761202Y-46560001D01*
X47776358Y-46713887D01*
X47821245Y-46861860D01*
X47850828Y-46917205D01*
X47894138Y-46998234D01*
X47934689Y-47047645D01*
X47967654Y-47087813D01*
X47967658Y-47087817D01*
X47992236Y-47117765D01*
X48022184Y-47142343D01*
X49094841Y-48215000D01*
X45632402Y-48215000D01*
X45635000Y-48201939D01*
X45635000Y-47998061D01*
X45595226Y-47798102D01*
X45517205Y-47609744D01*
X45403937Y-47440226D01*
X45259774Y-47296063D01*
X45090256Y-47182795D01*
X44901898Y-47104774D01*
X44701939Y-47065000D01*
X44498061Y-47065000D01*
X44298102Y-47104774D01*
X44109744Y-47182795D01*
X43940226Y-47296063D01*
X43796063Y-47440226D01*
X43682795Y-47609744D01*
X43604774Y-47798102D01*
X43565000Y-47998061D01*
X43565000Y-48201939D01*
X43567598Y-48215000D01*
X35938552Y-48215000D01*
X35899999Y-48211203D01*
X35861446Y-48215000D01*
X35861439Y-48215000D01*
X35760490Y-48224943D01*
X35746112Y-48226359D01*
X35711672Y-48236806D01*
X35598140Y-48271246D01*
X35461767Y-48344138D01*
X35436347Y-48365000D01*
X35398061Y-48365000D01*
X35198102Y-48404774D01*
X35009744Y-48482795D01*
X34840226Y-48596063D01*
X34696063Y-48740226D01*
X34582795Y-48909744D01*
X34504774Y-49098102D01*
X34465000Y-49298061D01*
X34465000Y-49501939D01*
X34504774Y-49701898D01*
X34582795Y-49890256D01*
X34648179Y-49988110D01*
X34596063Y-50040226D01*
X34482795Y-50209744D01*
X34404774Y-50398102D01*
X34365000Y-50598061D01*
X34365000Y-50801939D01*
X34404774Y-51001898D01*
X34482795Y-51190256D01*
X34596063Y-51359774D01*
X34740226Y-51503937D01*
X34909744Y-51617205D01*
X35098102Y-51695226D01*
X35298061Y-51735000D01*
X35501939Y-51735000D01*
X35701898Y-51695226D01*
X35890256Y-51617205D01*
X36059774Y-51503937D01*
X36203937Y-51359774D01*
X36317205Y-51190256D01*
X36395226Y-51001898D01*
X36435000Y-50801939D01*
X36435000Y-50775158D01*
X36575159Y-50634999D01*
X39365000Y-50634999D01*
X39365000Y-50701939D01*
X39404774Y-50901898D01*
X39482795Y-51090256D01*
X39589532Y-51250000D01*
X39482795Y-51409744D01*
X39404774Y-51598102D01*
X39365000Y-51798061D01*
X39365000Y-52001939D01*
X39404774Y-52201898D01*
X39482795Y-52390256D01*
X39596063Y-52559774D01*
X39740226Y-52703937D01*
X39909744Y-52817205D01*
X40098102Y-52895226D01*
X40298061Y-52935000D01*
X40501939Y-52935000D01*
X40701898Y-52895226D01*
X40890256Y-52817205D01*
X41059774Y-52703937D01*
X41078711Y-52685000D01*
X42584845Y-52685000D01*
X43568067Y-53668222D01*
X43496063Y-53740226D01*
X43382795Y-53909744D01*
X43304774Y-54098102D01*
X43265000Y-54298061D01*
X43265000Y-54501939D01*
X43285409Y-54604541D01*
X42769446Y-54088579D01*
X42743291Y-54056709D01*
X42616146Y-53952364D01*
X42471087Y-53874828D01*
X42313689Y-53827082D01*
X42191019Y-53815000D01*
X42191018Y-53815000D01*
X42150000Y-53810960D01*
X42108982Y-53815000D01*
X34345869Y-53815000D01*
X27265866Y-46734999D01*
X28483421Y-46734999D01*
X29966190Y-48217768D01*
X30008617Y-48431067D01*
X30094176Y-48637624D01*
X30218388Y-48823520D01*
X30376480Y-48981612D01*
X30562376Y-49105824D01*
X30768933Y-49191383D01*
X30988212Y-49235000D01*
X31211788Y-49235000D01*
X31431067Y-49191383D01*
X31637624Y-49105824D01*
X31823520Y-48981612D01*
X31981612Y-48823520D01*
X32105824Y-48637624D01*
X32191383Y-48431067D01*
X32235000Y-48211788D01*
X32235000Y-47988212D01*
X32191383Y-47768933D01*
X32105824Y-47562376D01*
X31981612Y-47376480D01*
X31823520Y-47218388D01*
X31637624Y-47094176D01*
X31431067Y-47008617D01*
X31217768Y-46966190D01*
X29506533Y-45254955D01*
X29478816Y-45221182D01*
X29344058Y-45110588D01*
X29190312Y-45028410D01*
X29023489Y-44977804D01*
X28893476Y-44964999D01*
X28893468Y-44964999D01*
X28849999Y-44960718D01*
X28806530Y-44964999D01*
X24035464Y-44964999D01*
X23991998Y-44960718D01*
X23948532Y-44964999D01*
X23948522Y-44964999D01*
X23818509Y-44977804D01*
X23651686Y-45028410D01*
X23497940Y-45110588D01*
X23497938Y-45110589D01*
X23497939Y-45110589D01*
X23396952Y-45193467D01*
X23396950Y-45193469D01*
X23363182Y-45221182D01*
X23335469Y-45254950D01*
X21904956Y-46685464D01*
X21871183Y-46713181D01*
X21760589Y-46847940D01*
X21678411Y-47001686D01*
X21627805Y-47168509D01*
X21615000Y-47298522D01*
X21615000Y-47298529D01*
X21610719Y-47341998D01*
X21615000Y-47385467D01*
X21615000Y-54267598D01*
X21601939Y-54265000D01*
X21398061Y-54265000D01*
X21198102Y-54304774D01*
X21009744Y-54382795D01*
X20840226Y-54496063D01*
X20696063Y-54640226D01*
X20660000Y-54694198D01*
X20660000Y-34098061D01*
X30564996Y-34098061D01*
X30564996Y-34301939D01*
X30604770Y-34501898D01*
X30682791Y-34690256D01*
X30796059Y-34859774D01*
X30940222Y-35003937D01*
X31109740Y-35117205D01*
X31298098Y-35195226D01*
X31498057Y-35235000D01*
X31701935Y-35235000D01*
X31901894Y-35195226D01*
X32090252Y-35117205D01*
X32259770Y-35003937D01*
X32403933Y-34859774D01*
X32517201Y-34690256D01*
X32595222Y-34501898D01*
X32634996Y-34301939D01*
X32634996Y-34098061D01*
X32595222Y-33898102D01*
X32517201Y-33709744D01*
X32403933Y-33540226D01*
X32259770Y-33396063D01*
X32090252Y-33282795D01*
X31901894Y-33204774D01*
X31701935Y-33165000D01*
X31498057Y-33165000D01*
X31298098Y-33204774D01*
X31109740Y-33282795D01*
X30940222Y-33396063D01*
X30796059Y-33540226D01*
X30682791Y-33709744D01*
X30604770Y-33898102D01*
X30564996Y-34098061D01*
X20660000Y-34098061D01*
X20660000Y-26027089D01*
X20702188Y-25513945D01*
X21065000Y-25513945D01*
X21065000Y-26486055D01*
X21254650Y-27439486D01*
X21626660Y-28337599D01*
X22166735Y-29145879D01*
X22854121Y-29833265D01*
X23662401Y-30373340D01*
X24560514Y-30745350D01*
X25513945Y-30935000D01*
X26486055Y-30935000D01*
X26721273Y-30888212D01*
X37065000Y-30888212D01*
X37065000Y-31111788D01*
X37108617Y-31331067D01*
X37194176Y-31537624D01*
X37318388Y-31723520D01*
X37476480Y-31881612D01*
X37662376Y-32005824D01*
X37868933Y-32091383D01*
X38088212Y-32135000D01*
X38311788Y-32135000D01*
X38531067Y-32091383D01*
X38737624Y-32005824D01*
X38923520Y-31881612D01*
X39081612Y-31723520D01*
X39205824Y-31537624D01*
X39291383Y-31331067D01*
X39335000Y-31111788D01*
X39335000Y-30888212D01*
X41465000Y-30888212D01*
X41465000Y-31111788D01*
X41508617Y-31331067D01*
X41594176Y-31537624D01*
X41718388Y-31723520D01*
X41876480Y-31881612D01*
X42062376Y-32005824D01*
X42268933Y-32091383D01*
X42488212Y-32135000D01*
X42711788Y-32135000D01*
X42931067Y-32091383D01*
X43137624Y-32005824D01*
X43323520Y-31881612D01*
X43481612Y-31723520D01*
X43605824Y-31537624D01*
X43691383Y-31331067D01*
X43735000Y-31111788D01*
X43735000Y-30888212D01*
X43691383Y-30668933D01*
X43605824Y-30462376D01*
X43481612Y-30276480D01*
X43323520Y-30118388D01*
X43137624Y-29994176D01*
X42931067Y-29908617D01*
X42711788Y-29865000D01*
X42488212Y-29865000D01*
X42268933Y-29908617D01*
X42062376Y-29994176D01*
X41876480Y-30118388D01*
X41718388Y-30276480D01*
X41594176Y-30462376D01*
X41508617Y-30668933D01*
X41465000Y-30888212D01*
X39335000Y-30888212D01*
X39291383Y-30668933D01*
X39205824Y-30462376D01*
X39081612Y-30276480D01*
X38923520Y-30118388D01*
X38737624Y-29994176D01*
X38531067Y-29908617D01*
X38311788Y-29865000D01*
X38088212Y-29865000D01*
X37868933Y-29908617D01*
X37662376Y-29994176D01*
X37476480Y-30118388D01*
X37318388Y-30276480D01*
X37194176Y-30462376D01*
X37108617Y-30668933D01*
X37065000Y-30888212D01*
X26721273Y-30888212D01*
X27439486Y-30745350D01*
X28337599Y-30373340D01*
X29145879Y-29833265D01*
X29833265Y-29145879D01*
X30373340Y-28337599D01*
X30745350Y-27439486D01*
X30874896Y-26788212D01*
X32565000Y-26788212D01*
X32565000Y-27011788D01*
X32608617Y-27231067D01*
X32694176Y-27437624D01*
X32818388Y-27623520D01*
X32976480Y-27781612D01*
X33162376Y-27905824D01*
X33368933Y-27991383D01*
X33588212Y-28035000D01*
X33811788Y-28035000D01*
X34031067Y-27991383D01*
X34237624Y-27905824D01*
X34423520Y-27781612D01*
X34581612Y-27623520D01*
X34705824Y-27437624D01*
X34752507Y-27324922D01*
X34818388Y-27423520D01*
X34976480Y-27581612D01*
X35162376Y-27705824D01*
X35368933Y-27791383D01*
X35588212Y-27835000D01*
X35811788Y-27835000D01*
X36031067Y-27791383D01*
X36237624Y-27705824D01*
X36423520Y-27581612D01*
X36581612Y-27423520D01*
X36705824Y-27237624D01*
X36791383Y-27031067D01*
X36835000Y-26811788D01*
X36835000Y-26588212D01*
X36823062Y-26528194D01*
X36876480Y-26581612D01*
X37062376Y-26705824D01*
X37175057Y-26752498D01*
X37204774Y-26901898D01*
X37282795Y-27090256D01*
X37396063Y-27259774D01*
X37540226Y-27403937D01*
X37709744Y-27517205D01*
X37898102Y-27595226D01*
X38065000Y-27628424D01*
X38065000Y-27811788D01*
X38108617Y-28031067D01*
X38194176Y-28237624D01*
X38318388Y-28423520D01*
X38476480Y-28581612D01*
X38662376Y-28705824D01*
X38868933Y-28791383D01*
X39088212Y-28835000D01*
X39311788Y-28835000D01*
X39531067Y-28791383D01*
X39737624Y-28705824D01*
X39923520Y-28581612D01*
X40081612Y-28423520D01*
X40205824Y-28237624D01*
X40247001Y-28138212D01*
X48765000Y-28138212D01*
X48765000Y-28361788D01*
X48808617Y-28581067D01*
X48894176Y-28787624D01*
X49018388Y-28973520D01*
X49176480Y-29131612D01*
X49362376Y-29255824D01*
X49568933Y-29341383D01*
X49788212Y-29385000D01*
X50011788Y-29385000D01*
X50231067Y-29341383D01*
X50437624Y-29255824D01*
X50500000Y-29214146D01*
X50562376Y-29255824D01*
X50768933Y-29341383D01*
X50988212Y-29385000D01*
X51211788Y-29385000D01*
X51431067Y-29341383D01*
X51637624Y-29255824D01*
X51823520Y-29131612D01*
X51981612Y-28973520D01*
X52105824Y-28787624D01*
X52191383Y-28581067D01*
X52235000Y-28361788D01*
X52235000Y-28138212D01*
X52191383Y-27918933D01*
X52105824Y-27712376D01*
X51981612Y-27526480D01*
X51823520Y-27368388D01*
X51637624Y-27244176D01*
X51431067Y-27158617D01*
X51211788Y-27115000D01*
X50988212Y-27115000D01*
X50768933Y-27158617D01*
X50562376Y-27244176D01*
X50500000Y-27285854D01*
X50437624Y-27244176D01*
X50231067Y-27158617D01*
X50011788Y-27115000D01*
X49788212Y-27115000D01*
X49568933Y-27158617D01*
X49362376Y-27244176D01*
X49176480Y-27368388D01*
X49018388Y-27526480D01*
X48894176Y-27712376D01*
X48808617Y-27918933D01*
X48765000Y-28138212D01*
X40247001Y-28138212D01*
X40291383Y-28031067D01*
X40335000Y-27811788D01*
X40335000Y-27588212D01*
X40291383Y-27368933D01*
X40205824Y-27162376D01*
X40081612Y-26976480D01*
X39923520Y-26818388D01*
X39737624Y-26694176D01*
X39531067Y-26608617D01*
X39311788Y-26565000D01*
X39235000Y-26565000D01*
X39235000Y-26498061D01*
X39213150Y-26388212D01*
X40565000Y-26388212D01*
X40565000Y-26611788D01*
X40608617Y-26831067D01*
X40694176Y-27037624D01*
X40818388Y-27223520D01*
X40976480Y-27381612D01*
X41162376Y-27505824D01*
X41368933Y-27591383D01*
X41588212Y-27635000D01*
X41811788Y-27635000D01*
X42031067Y-27591383D01*
X42237624Y-27505824D01*
X42423520Y-27381612D01*
X42581612Y-27223520D01*
X42705824Y-27037624D01*
X42791383Y-26831067D01*
X42835000Y-26611788D01*
X42835000Y-26388212D01*
X42804524Y-26235000D01*
X43011788Y-26235000D01*
X43231067Y-26191383D01*
X43437624Y-26105824D01*
X43623520Y-25981612D01*
X43781612Y-25823520D01*
X43905824Y-25637624D01*
X43991383Y-25431067D01*
X44035000Y-25211788D01*
X44035000Y-24988212D01*
X43991383Y-24768933D01*
X43905824Y-24562376D01*
X43781612Y-24376480D01*
X43623520Y-24218388D01*
X43437624Y-24094176D01*
X43231067Y-24008617D01*
X43011788Y-23965000D01*
X42788212Y-23965000D01*
X42568933Y-24008617D01*
X42362376Y-24094176D01*
X42176480Y-24218388D01*
X42018388Y-24376480D01*
X41894176Y-24562376D01*
X41808617Y-24768933D01*
X41765000Y-24988212D01*
X41765000Y-25211788D01*
X41795476Y-25365000D01*
X41588212Y-25365000D01*
X41368933Y-25408617D01*
X41162376Y-25494176D01*
X40976480Y-25618388D01*
X40818388Y-25776480D01*
X40694176Y-25962376D01*
X40608617Y-26168933D01*
X40565000Y-26388212D01*
X39213150Y-26388212D01*
X39195226Y-26298102D01*
X39117205Y-26109744D01*
X39003937Y-25940226D01*
X38859774Y-25796063D01*
X38735000Y-25712692D01*
X38735000Y-25588212D01*
X38691383Y-25368933D01*
X38605824Y-25162376D01*
X38481612Y-24976480D01*
X38455132Y-24950000D01*
X38481612Y-24923520D01*
X38605824Y-24737624D01*
X38691383Y-24531067D01*
X38735000Y-24311788D01*
X38735000Y-24088212D01*
X38691383Y-23868933D01*
X38605824Y-23662376D01*
X38481612Y-23476480D01*
X38323520Y-23318388D01*
X38137624Y-23194176D01*
X37931067Y-23108617D01*
X37711788Y-23065000D01*
X37488212Y-23065000D01*
X37268933Y-23108617D01*
X37062376Y-23194176D01*
X36876480Y-23318388D01*
X36718388Y-23476480D01*
X36594176Y-23662376D01*
X36508617Y-23868933D01*
X36465000Y-24088212D01*
X36465000Y-24311788D01*
X36508617Y-24531067D01*
X36594176Y-24737624D01*
X36718388Y-24923520D01*
X36744868Y-24950000D01*
X36718388Y-24976480D01*
X36594176Y-25162376D01*
X36508617Y-25368933D01*
X36465000Y-25588212D01*
X36465000Y-25811788D01*
X36476938Y-25871806D01*
X36423520Y-25818388D01*
X36237624Y-25694176D01*
X36031067Y-25608617D01*
X35811788Y-25565000D01*
X35588212Y-25565000D01*
X35368933Y-25608617D01*
X35162376Y-25694176D01*
X34976480Y-25818388D01*
X34818388Y-25976480D01*
X34694176Y-26162376D01*
X34647493Y-26275078D01*
X34581612Y-26176480D01*
X34423520Y-26018388D01*
X34237624Y-25894176D01*
X34031067Y-25808617D01*
X33811788Y-25765000D01*
X33588212Y-25765000D01*
X33368933Y-25808617D01*
X33162376Y-25894176D01*
X32976480Y-26018388D01*
X32818388Y-26176480D01*
X32694176Y-26362376D01*
X32608617Y-26568933D01*
X32565000Y-26788212D01*
X30874896Y-26788212D01*
X30935000Y-26486055D01*
X30935000Y-25513945D01*
X30745350Y-24560514D01*
X30373340Y-23662401D01*
X29833265Y-22854121D01*
X29145879Y-22166735D01*
X28729040Y-21888212D01*
X42065000Y-21888212D01*
X42065000Y-22111788D01*
X42108617Y-22331067D01*
X42194176Y-22537624D01*
X42318388Y-22723520D01*
X42476480Y-22881612D01*
X42662376Y-23005824D01*
X42868933Y-23091383D01*
X43088212Y-23135000D01*
X43311788Y-23135000D01*
X43531067Y-23091383D01*
X43737624Y-23005824D01*
X43923520Y-22881612D01*
X44081612Y-22723520D01*
X44205824Y-22537624D01*
X44242119Y-22450000D01*
X45911928Y-22450000D01*
X45911928Y-24150000D01*
X45924188Y-24274482D01*
X45960498Y-24394180D01*
X46019463Y-24504494D01*
X46098815Y-24601185D01*
X46195506Y-24680537D01*
X46305820Y-24739502D01*
X46425518Y-24775812D01*
X46550000Y-24788072D01*
X48250000Y-24788072D01*
X48374482Y-24775812D01*
X48494180Y-24739502D01*
X48604494Y-24680537D01*
X48701185Y-24601185D01*
X48780537Y-24504494D01*
X48839502Y-24394180D01*
X48861513Y-24321620D01*
X48993368Y-24453475D01*
X49236589Y-24615990D01*
X49506842Y-24727932D01*
X49793740Y-24785000D01*
X50086260Y-24785000D01*
X50373158Y-24727932D01*
X50643411Y-24615990D01*
X50886632Y-24453475D01*
X51093475Y-24246632D01*
X51210000Y-24072240D01*
X51326525Y-24246632D01*
X51533368Y-24453475D01*
X51776589Y-24615990D01*
X52046842Y-24727932D01*
X52333740Y-24785000D01*
X52626260Y-24785000D01*
X52913158Y-24727932D01*
X53183411Y-24615990D01*
X53426632Y-24453475D01*
X53633475Y-24246632D01*
X53750000Y-24072240D01*
X53866525Y-24246632D01*
X54073368Y-24453475D01*
X54316589Y-24615990D01*
X54586842Y-24727932D01*
X54873740Y-24785000D01*
X55166260Y-24785000D01*
X55453158Y-24727932D01*
X55723411Y-24615990D01*
X55966632Y-24453475D01*
X56173475Y-24246632D01*
X56335990Y-24003411D01*
X56447932Y-23733158D01*
X56505000Y-23446260D01*
X56505000Y-23153740D01*
X56447932Y-22866842D01*
X56335990Y-22596589D01*
X56238043Y-22450000D01*
X57711928Y-22450000D01*
X57711928Y-24150000D01*
X57724188Y-24274482D01*
X57760498Y-24394180D01*
X57819463Y-24504494D01*
X57898815Y-24601185D01*
X57995506Y-24680537D01*
X58105820Y-24739502D01*
X58225518Y-24775812D01*
X58350000Y-24788072D01*
X60050000Y-24788072D01*
X60174482Y-24775812D01*
X60294180Y-24739502D01*
X60404494Y-24680537D01*
X60501185Y-24601185D01*
X60580537Y-24504494D01*
X60639502Y-24394180D01*
X60661513Y-24321620D01*
X60793368Y-24453475D01*
X61036589Y-24615990D01*
X61306842Y-24727932D01*
X61593740Y-24785000D01*
X61886260Y-24785000D01*
X62173158Y-24727932D01*
X62443411Y-24615990D01*
X62686632Y-24453475D01*
X62893475Y-24246632D01*
X63055990Y-24003411D01*
X63167932Y-23733158D01*
X63225000Y-23446260D01*
X63225000Y-23153740D01*
X63167932Y-22866842D01*
X63055990Y-22596589D01*
X62958043Y-22450000D01*
X64386928Y-22450000D01*
X64386928Y-24150000D01*
X64399188Y-24274482D01*
X64435498Y-24394180D01*
X64494463Y-24504494D01*
X64573815Y-24601185D01*
X64670506Y-24680537D01*
X64780820Y-24739502D01*
X64900518Y-24775812D01*
X65025000Y-24788072D01*
X66725000Y-24788072D01*
X66849482Y-24775812D01*
X66969180Y-24739502D01*
X67079494Y-24680537D01*
X67176185Y-24601185D01*
X67255537Y-24504494D01*
X67314502Y-24394180D01*
X67336513Y-24321620D01*
X67468368Y-24453475D01*
X67711589Y-24615990D01*
X67981842Y-24727932D01*
X68268740Y-24785000D01*
X68561260Y-24785000D01*
X68848158Y-24727932D01*
X69118411Y-24615990D01*
X69361632Y-24453475D01*
X69568475Y-24246632D01*
X69730990Y-24003411D01*
X69842932Y-23733158D01*
X69900000Y-23446260D01*
X69900000Y-23153740D01*
X69842932Y-22866842D01*
X69730990Y-22596589D01*
X69666452Y-22500000D01*
X71371928Y-22500000D01*
X71371928Y-24200000D01*
X71384188Y-24324482D01*
X71420498Y-24444180D01*
X71479463Y-24554494D01*
X71558815Y-24651185D01*
X71655506Y-24730537D01*
X71765820Y-24789502D01*
X71885518Y-24825812D01*
X72010000Y-24838072D01*
X73710000Y-24838072D01*
X73834482Y-24825812D01*
X73954180Y-24789502D01*
X74064494Y-24730537D01*
X74161185Y-24651185D01*
X74240537Y-24554494D01*
X74299502Y-24444180D01*
X74321513Y-24371620D01*
X74453368Y-24503475D01*
X74696589Y-24665990D01*
X74966842Y-24777932D01*
X75253740Y-24835000D01*
X75546260Y-24835000D01*
X75833158Y-24777932D01*
X76103411Y-24665990D01*
X76346632Y-24503475D01*
X76553475Y-24296632D01*
X76715990Y-24053411D01*
X76827932Y-23783158D01*
X76866709Y-23588212D01*
X84665000Y-23588212D01*
X84665000Y-23811788D01*
X84708617Y-24031067D01*
X84794176Y-24237624D01*
X84918388Y-24423520D01*
X85076480Y-24581612D01*
X85262376Y-24705824D01*
X85468933Y-24791383D01*
X85688212Y-24835000D01*
X85911788Y-24835000D01*
X86131067Y-24791383D01*
X86337624Y-24705824D01*
X86523520Y-24581612D01*
X86681612Y-24423520D01*
X86805824Y-24237624D01*
X86891383Y-24031067D01*
X86935000Y-23811788D01*
X86935000Y-23588212D01*
X86891383Y-23368933D01*
X86805824Y-23162376D01*
X86681612Y-22976480D01*
X86523520Y-22818388D01*
X86337624Y-22694176D01*
X86131067Y-22608617D01*
X85911788Y-22565000D01*
X85688212Y-22565000D01*
X85468933Y-22608617D01*
X85262376Y-22694176D01*
X85076480Y-22818388D01*
X84918388Y-22976480D01*
X84794176Y-23162376D01*
X84708617Y-23368933D01*
X84665000Y-23588212D01*
X76866709Y-23588212D01*
X76885000Y-23496260D01*
X76885000Y-23203740D01*
X76827932Y-22916842D01*
X76715990Y-22646589D01*
X76553475Y-22403368D01*
X76346632Y-22196525D01*
X76103411Y-22034010D01*
X75833158Y-21922068D01*
X75546260Y-21865000D01*
X75253740Y-21865000D01*
X74966842Y-21922068D01*
X74696589Y-22034010D01*
X74453368Y-22196525D01*
X74321513Y-22328380D01*
X74299502Y-22255820D01*
X74240537Y-22145506D01*
X74161185Y-22048815D01*
X74064494Y-21969463D01*
X73954180Y-21910498D01*
X73834482Y-21874188D01*
X73710000Y-21861928D01*
X72010000Y-21861928D01*
X71885518Y-21874188D01*
X71765820Y-21910498D01*
X71655506Y-21969463D01*
X71558815Y-22048815D01*
X71479463Y-22145506D01*
X71420498Y-22255820D01*
X71384188Y-22375518D01*
X71371928Y-22500000D01*
X69666452Y-22500000D01*
X69568475Y-22353368D01*
X69361632Y-22146525D01*
X69118411Y-21984010D01*
X68848158Y-21872068D01*
X68561260Y-21815000D01*
X68268740Y-21815000D01*
X67981842Y-21872068D01*
X67711589Y-21984010D01*
X67468368Y-22146525D01*
X67336513Y-22278380D01*
X67314502Y-22205820D01*
X67255537Y-22095506D01*
X67176185Y-21998815D01*
X67079494Y-21919463D01*
X66969180Y-21860498D01*
X66849482Y-21824188D01*
X66725000Y-21811928D01*
X65025000Y-21811928D01*
X64900518Y-21824188D01*
X64780820Y-21860498D01*
X64670506Y-21919463D01*
X64573815Y-21998815D01*
X64494463Y-22095506D01*
X64435498Y-22205820D01*
X64399188Y-22325518D01*
X64386928Y-22450000D01*
X62958043Y-22450000D01*
X62893475Y-22353368D01*
X62686632Y-22146525D01*
X62443411Y-21984010D01*
X62173158Y-21872068D01*
X61886260Y-21815000D01*
X61593740Y-21815000D01*
X61306842Y-21872068D01*
X61036589Y-21984010D01*
X60793368Y-22146525D01*
X60661513Y-22278380D01*
X60639502Y-22205820D01*
X60580537Y-22095506D01*
X60501185Y-21998815D01*
X60404494Y-21919463D01*
X60294180Y-21860498D01*
X60174482Y-21824188D01*
X60050000Y-21811928D01*
X58350000Y-21811928D01*
X58225518Y-21824188D01*
X58105820Y-21860498D01*
X57995506Y-21919463D01*
X57898815Y-21998815D01*
X57819463Y-22095506D01*
X57760498Y-22205820D01*
X57724188Y-22325518D01*
X57711928Y-22450000D01*
X56238043Y-22450000D01*
X56173475Y-22353368D01*
X55966632Y-22146525D01*
X55723411Y-21984010D01*
X55453158Y-21872068D01*
X55166260Y-21815000D01*
X54873740Y-21815000D01*
X54586842Y-21872068D01*
X54316589Y-21984010D01*
X54073368Y-22146525D01*
X53866525Y-22353368D01*
X53750000Y-22527760D01*
X53633475Y-22353368D01*
X53426632Y-22146525D01*
X53183411Y-21984010D01*
X52913158Y-21872068D01*
X52626260Y-21815000D01*
X52333740Y-21815000D01*
X52046842Y-21872068D01*
X51776589Y-21984010D01*
X51533368Y-22146525D01*
X51326525Y-22353368D01*
X51210000Y-22527760D01*
X51093475Y-22353368D01*
X50886632Y-22146525D01*
X50643411Y-21984010D01*
X50373158Y-21872068D01*
X50086260Y-21815000D01*
X49793740Y-21815000D01*
X49506842Y-21872068D01*
X49236589Y-21984010D01*
X48993368Y-22146525D01*
X48861513Y-22278380D01*
X48839502Y-22205820D01*
X48780537Y-22095506D01*
X48701185Y-21998815D01*
X48604494Y-21919463D01*
X48494180Y-21860498D01*
X48374482Y-21824188D01*
X48250000Y-21811928D01*
X46550000Y-21811928D01*
X46425518Y-21824188D01*
X46305820Y-21860498D01*
X46195506Y-21919463D01*
X46098815Y-21998815D01*
X46019463Y-22095506D01*
X45960498Y-22205820D01*
X45924188Y-22325518D01*
X45911928Y-22450000D01*
X44242119Y-22450000D01*
X44291383Y-22331067D01*
X44335000Y-22111788D01*
X44335000Y-21888212D01*
X44291383Y-21668933D01*
X44205824Y-21462376D01*
X44081612Y-21276480D01*
X43923520Y-21118388D01*
X43737624Y-20994176D01*
X43531067Y-20908617D01*
X43311788Y-20865000D01*
X43088212Y-20865000D01*
X42868933Y-20908617D01*
X42662376Y-20994176D01*
X42476480Y-21118388D01*
X42318388Y-21276480D01*
X42194176Y-21462376D01*
X42108617Y-21668933D01*
X42065000Y-21888212D01*
X28729040Y-21888212D01*
X28337599Y-21626660D01*
X27439486Y-21254650D01*
X26486055Y-21065000D01*
X25513945Y-21065000D01*
X24560514Y-21254650D01*
X23662401Y-21626660D01*
X22854121Y-22166735D01*
X22166735Y-22854121D01*
X21626660Y-23662401D01*
X21254650Y-24560514D01*
X21065000Y-25513945D01*
X20702188Y-25513945D01*
X20733902Y-25128203D01*
X20947001Y-24279818D01*
X21295803Y-23477629D01*
X21770938Y-22743182D01*
X22359646Y-22096202D01*
X23046125Y-21554054D01*
X23811928Y-21131308D01*
X24636491Y-20839316D01*
X25509076Y-20683884D01*
X26015547Y-20660000D01*
X98047911Y-20660000D01*
X98946797Y-20733902D01*
G37*
X98946797Y-20733902D02*
X99795182Y-20947001D01*
X100597371Y-21295803D01*
X101331818Y-21770938D01*
X101978798Y-22359646D01*
X102520946Y-23046125D01*
X102943692Y-23811928D01*
X103235684Y-24636491D01*
X103391116Y-25509076D01*
X103415000Y-26015547D01*
X103415001Y-73972899D01*
X103341098Y-74871802D01*
X103127999Y-75720180D01*
X102779197Y-76522371D01*
X102304062Y-77256818D01*
X101715354Y-77903799D01*
X101028875Y-78445946D01*
X100263076Y-78868691D01*
X99438514Y-79160683D01*
X98565925Y-79316116D01*
X98059453Y-79340000D01*
X26027089Y-79340000D01*
X25128198Y-79266098D01*
X24279820Y-79052999D01*
X23477629Y-78704197D01*
X22743182Y-78229062D01*
X22096201Y-77640354D01*
X21554054Y-76953875D01*
X21131309Y-76188076D01*
X20839317Y-75363514D01*
X20683884Y-74490925D01*
X20660000Y-73984453D01*
X20660000Y-73513945D01*
X21065000Y-73513945D01*
X21065000Y-74486055D01*
X21254650Y-75439486D01*
X21626660Y-76337599D01*
X22166735Y-77145879D01*
X22854121Y-77833265D01*
X23662401Y-78373340D01*
X24560514Y-78745350D01*
X25513945Y-78935000D01*
X26486055Y-78935000D01*
X27439486Y-78745350D01*
X28337599Y-78373340D01*
X29145879Y-77833265D01*
X29690932Y-77288212D01*
X32365000Y-77288212D01*
X32365000Y-77511788D01*
X32408617Y-77731067D01*
X32494176Y-77937624D01*
X32618388Y-78123520D01*
X32776480Y-78281612D01*
X32962376Y-78405824D01*
X33168933Y-78491383D01*
X33388212Y-78535000D01*
X33611788Y-78535000D01*
X33831067Y-78491383D01*
X34037624Y-78405824D01*
X34223520Y-78281612D01*
X34381612Y-78123520D01*
X34505824Y-77937624D01*
X34591383Y-77731067D01*
X34635000Y-77511788D01*
X34635000Y-77288212D01*
X34591383Y-77068933D01*
X34505824Y-76862376D01*
X34381612Y-76676480D01*
X34223520Y-76518388D01*
X34037624Y-76394176D01*
X33831067Y-76308617D01*
X33611788Y-76265000D01*
X33388212Y-76265000D01*
X33168933Y-76308617D01*
X32962376Y-76394176D01*
X32776480Y-76518388D01*
X32618388Y-76676480D01*
X32494176Y-76862376D01*
X32408617Y-77068933D01*
X32365000Y-77288212D01*
X29690932Y-77288212D01*
X29833265Y-77145879D01*
X30373340Y-76337599D01*
X30513177Y-76000000D01*
X71761928Y-76000000D01*
X71761928Y-77600000D01*
X71774188Y-77724482D01*
X71810498Y-77844180D01*
X71869463Y-77954494D01*
X71948815Y-78051185D01*
X72045506Y-78130537D01*
X72155820Y-78189502D01*
X72275518Y-78225812D01*
X72400000Y-78238072D01*
X74000000Y-78238072D01*
X74124482Y-78225812D01*
X74244180Y-78189502D01*
X74354494Y-78130537D01*
X74451185Y-78051185D01*
X74530537Y-77954494D01*
X74589502Y-77844180D01*
X74625812Y-77724482D01*
X74638072Y-77600000D01*
X74638072Y-76000000D01*
X74625812Y-75875518D01*
X74589502Y-75755820D01*
X74530537Y-75645506D01*
X74451185Y-75548815D01*
X74391704Y-75500000D01*
X78986928Y-75500000D01*
X78986928Y-77200000D01*
X78999188Y-77324482D01*
X79035498Y-77444180D01*
X79094463Y-77554494D01*
X79173815Y-77651185D01*
X79270506Y-77730537D01*
X79380820Y-77789502D01*
X79500518Y-77825812D01*
X79625000Y-77838072D01*
X81325000Y-77838072D01*
X81449482Y-77825812D01*
X81569180Y-77789502D01*
X81679494Y-77730537D01*
X81776185Y-77651185D01*
X81855537Y-77554494D01*
X81914502Y-77444180D01*
X81936513Y-77371620D01*
X82068368Y-77503475D01*
X82311589Y-77665990D01*
X82581842Y-77777932D01*
X82868740Y-77835000D01*
X83161260Y-77835000D01*
X83448158Y-77777932D01*
X83718411Y-77665990D01*
X83961632Y-77503475D01*
X84168475Y-77296632D01*
X84330990Y-77053411D01*
X84442932Y-76783158D01*
X84500000Y-76496260D01*
X84500000Y-76203740D01*
X84442932Y-75916842D01*
X84330990Y-75646589D01*
X84168475Y-75403368D01*
X83961632Y-75196525D01*
X83718411Y-75034010D01*
X83448158Y-74922068D01*
X83161260Y-74865000D01*
X82868740Y-74865000D01*
X82581842Y-74922068D01*
X82311589Y-75034010D01*
X82068368Y-75196525D01*
X81936513Y-75328380D01*
X81914502Y-75255820D01*
X81855537Y-75145506D01*
X81776185Y-75048815D01*
X81679494Y-74969463D01*
X81569180Y-74910498D01*
X81449482Y-74874188D01*
X81325000Y-74861928D01*
X79625000Y-74861928D01*
X79500518Y-74874188D01*
X79380820Y-74910498D01*
X79270506Y-74969463D01*
X79173815Y-75048815D01*
X79094463Y-75145506D01*
X79035498Y-75255820D01*
X78999188Y-75375518D01*
X78986928Y-75500000D01*
X74391704Y-75500000D01*
X74354494Y-75469463D01*
X74244180Y-75410498D01*
X74124482Y-75374188D01*
X74000000Y-75361928D01*
X72400000Y-75361928D01*
X72275518Y-75374188D01*
X72155820Y-75410498D01*
X72045506Y-75469463D01*
X71948815Y-75548815D01*
X71869463Y-75645506D01*
X71810498Y-75755820D01*
X71774188Y-75875518D01*
X71761928Y-76000000D01*
X30513177Y-76000000D01*
X30745350Y-75439486D01*
X30935000Y-74486055D01*
X30935000Y-73513945D01*
X93140000Y-73513945D01*
X93140000Y-74486055D01*
X93329650Y-75439486D01*
X93701660Y-76337599D01*
X94241735Y-77145879D01*
X94929121Y-77833265D01*
X95737401Y-78373340D01*
X96635514Y-78745350D01*
X97588945Y-78935000D01*
X98561055Y-78935000D01*
X99514486Y-78745350D01*
X100412599Y-78373340D01*
X101220879Y-77833265D01*
X101908265Y-77145879D01*
X102448340Y-76337599D01*
X102820350Y-75439486D01*
X103010000Y-74486055D01*
X103010000Y-73513945D01*
X102820350Y-72560514D01*
X102448340Y-71662401D01*
X101908265Y-70854121D01*
X101220879Y-70166735D01*
X100412599Y-69626660D01*
X99514486Y-69254650D01*
X98561055Y-69065000D01*
X97588945Y-69065000D01*
X96635514Y-69254650D01*
X95737401Y-69626660D01*
X94929121Y-70166735D01*
X94241735Y-70854121D01*
X93701660Y-71662401D01*
X93329650Y-72560514D01*
X93140000Y-73513945D01*
X30935000Y-73513945D01*
X30745350Y-72560514D01*
X30373340Y-71662401D01*
X29833265Y-70854121D01*
X29145879Y-70166735D01*
X29078519Y-70121726D01*
X29231067Y-70091383D01*
X29437624Y-70005824D01*
X29623520Y-69881612D01*
X29781612Y-69723520D01*
X29905824Y-69537624D01*
X29991383Y-69331067D01*
X30035000Y-69111788D01*
X30035000Y-68888212D01*
X29991383Y-68668933D01*
X29905824Y-68462376D01*
X29781612Y-68276480D01*
X29623520Y-68118388D01*
X29437624Y-67994176D01*
X29231067Y-67908617D01*
X29011788Y-67865000D01*
X28788212Y-67865000D01*
X28568933Y-67908617D01*
X28362376Y-67994176D01*
X28176480Y-68118388D01*
X28018388Y-68276480D01*
X27894176Y-68462376D01*
X27808617Y-68668933D01*
X27765000Y-68888212D01*
X27765000Y-69111788D01*
X27808617Y-69331067D01*
X27846858Y-69423389D01*
X27439486Y-69254650D01*
X26486055Y-69065000D01*
X25513945Y-69065000D01*
X24560514Y-69254650D01*
X23662401Y-69626660D01*
X22854121Y-70166735D01*
X22166735Y-70854121D01*
X21626660Y-71662401D01*
X21254650Y-72560514D01*
X21065000Y-73513945D01*
X20660000Y-73513945D01*
X20660000Y-56905802D01*
X20696063Y-56959774D01*
X20840226Y-57103937D01*
X21009744Y-57217205D01*
X21198102Y-57295226D01*
X21398061Y-57335000D01*
X21601939Y-57335000D01*
X21615001Y-57332402D01*
X21615001Y-61081549D01*
X21494176Y-61262376D01*
X21408617Y-61468933D01*
X21365000Y-61688212D01*
X21365000Y-61911788D01*
X21408617Y-62131067D01*
X21494176Y-62337624D01*
X21618388Y-62523520D01*
X21776480Y-62681612D01*
X21962376Y-62805824D01*
X22168933Y-62891383D01*
X22388212Y-62935000D01*
X22583296Y-62935000D01*
X22523815Y-62983815D01*
X22444463Y-63080506D01*
X22385498Y-63190820D01*
X22349188Y-63310518D01*
X22336928Y-63435000D01*
X22336928Y-65135000D01*
X22349188Y-65259482D01*
X22385498Y-65379180D01*
X22444463Y-65489494D01*
X22523815Y-65586185D01*
X22620506Y-65665537D01*
X22730820Y-65724502D01*
X22803380Y-65746513D01*
X22671525Y-65878368D01*
X22509010Y-66121589D01*
X22397068Y-66391842D01*
X22340000Y-66678740D01*
X22340000Y-66971260D01*
X22397068Y-67258158D01*
X22509010Y-67528411D01*
X22671525Y-67771632D01*
X22878368Y-67978475D01*
X23121589Y-68140990D01*
X23391842Y-68252932D01*
X23678740Y-68310000D01*
X23971260Y-68310000D01*
X24258158Y-68252932D01*
X24528411Y-68140990D01*
X24771632Y-67978475D01*
X24978475Y-67771632D01*
X25096100Y-67595594D01*
X25267412Y-67825269D01*
X25483645Y-68020178D01*
X25733748Y-68169157D01*
X26008109Y-68266481D01*
X26238000Y-68145814D01*
X26238000Y-66952000D01*
X26492000Y-66952000D01*
X26492000Y-68145814D01*
X26721891Y-68266481D01*
X26996252Y-68169157D01*
X27246355Y-68020178D01*
X27462588Y-67825269D01*
X27636641Y-67591920D01*
X27761825Y-67329099D01*
X27806476Y-67181890D01*
X27685155Y-66952000D01*
X26492000Y-66952000D01*
X26238000Y-66952000D01*
X26218000Y-66952000D01*
X26218000Y-66698000D01*
X26238000Y-66698000D01*
X26238000Y-66678000D01*
X26492000Y-66678000D01*
X26492000Y-66698000D01*
X27685155Y-66698000D01*
X27806476Y-66468110D01*
X27761825Y-66320901D01*
X27636641Y-66058080D01*
X27462588Y-65824731D01*
X27246355Y-65629822D01*
X27129466Y-65560195D01*
X27311632Y-65438475D01*
X27518475Y-65231632D01*
X27680990Y-64988411D01*
X27792932Y-64718158D01*
X27850000Y-64431260D01*
X27850000Y-64138740D01*
X27820058Y-63988212D01*
X45065000Y-63988212D01*
X45065000Y-64211788D01*
X45108617Y-64431067D01*
X45194176Y-64637624D01*
X45318388Y-64823520D01*
X45476480Y-64981612D01*
X45662376Y-65105824D01*
X45868933Y-65191383D01*
X46088212Y-65235000D01*
X46311788Y-65235000D01*
X46531067Y-65191383D01*
X46737624Y-65105824D01*
X46923520Y-64981612D01*
X47081612Y-64823520D01*
X47205824Y-64637624D01*
X47291383Y-64431067D01*
X47335000Y-64211788D01*
X47335000Y-63988212D01*
X47291383Y-63768933D01*
X47205824Y-63562376D01*
X47081612Y-63376480D01*
X46923520Y-63218388D01*
X46737624Y-63094176D01*
X46531067Y-63008617D01*
X46311788Y-62965000D01*
X46088212Y-62965000D01*
X45868933Y-63008617D01*
X45662376Y-63094176D01*
X45476480Y-63218388D01*
X45318388Y-63376480D01*
X45194176Y-63562376D01*
X45108617Y-63768933D01*
X45065000Y-63988212D01*
X27820058Y-63988212D01*
X27792932Y-63851842D01*
X27680990Y-63581589D01*
X27518475Y-63338368D01*
X27311632Y-63131525D01*
X27068411Y-62969010D01*
X26798158Y-62857068D01*
X26511260Y-62800000D01*
X26218740Y-62800000D01*
X25931842Y-62857068D01*
X25661589Y-62969010D01*
X25418368Y-63131525D01*
X25286513Y-63263380D01*
X25264502Y-63190820D01*
X25205537Y-63080506D01*
X25126185Y-62983815D01*
X25029494Y-62904463D01*
X24919180Y-62845498D01*
X24799482Y-62809188D01*
X24675000Y-62796928D01*
X24203190Y-62796928D01*
X24231067Y-62791383D01*
X24437624Y-62705824D01*
X24623520Y-62581612D01*
X24781612Y-62423520D01*
X24905824Y-62237624D01*
X24991383Y-62031067D01*
X25035000Y-61811788D01*
X25035000Y-61588212D01*
X24991383Y-61368933D01*
X24905824Y-61162376D01*
X24781612Y-60976480D01*
X24623520Y-60818388D01*
X24437624Y-60694176D01*
X24231067Y-60608617D01*
X24011788Y-60565000D01*
X23788212Y-60565000D01*
X23568933Y-60608617D01*
X23385000Y-60684805D01*
X23385000Y-59138212D01*
X45015000Y-59138212D01*
X45015000Y-59361788D01*
X45058617Y-59581067D01*
X45144176Y-59787624D01*
X45268388Y-59973520D01*
X45426480Y-60131612D01*
X45612376Y-60255824D01*
X45818933Y-60341383D01*
X46038212Y-60385000D01*
X46261788Y-60385000D01*
X46481067Y-60341383D01*
X46687624Y-60255824D01*
X46873520Y-60131612D01*
X47031612Y-59973520D01*
X47043430Y-59955833D01*
X47046063Y-59959774D01*
X47190226Y-60103937D01*
X47359744Y-60217205D01*
X47548102Y-60295226D01*
X47748061Y-60335000D01*
X47951939Y-60335000D01*
X48151898Y-60295226D01*
X48340256Y-60217205D01*
X48509774Y-60103937D01*
X48515650Y-60098061D01*
X50465000Y-60098061D01*
X50465000Y-60301939D01*
X50504774Y-60501898D01*
X50582795Y-60690256D01*
X50696063Y-60859774D01*
X50840226Y-61003937D01*
X51009744Y-61117205D01*
X51198102Y-61195226D01*
X51398061Y-61235000D01*
X51601939Y-61235000D01*
X51801898Y-61195226D01*
X51990256Y-61117205D01*
X52159774Y-61003937D01*
X52303937Y-60859774D01*
X52417205Y-60690256D01*
X52495226Y-60501898D01*
X52535000Y-60301939D01*
X52535000Y-60098061D01*
X52495226Y-59898102D01*
X52417205Y-59709744D01*
X52303937Y-59540226D01*
X52159774Y-59396063D01*
X51990256Y-59282795D01*
X51801898Y-59204774D01*
X51601939Y-59165000D01*
X51398061Y-59165000D01*
X51198102Y-59204774D01*
X51009744Y-59282795D01*
X50840226Y-59396063D01*
X50696063Y-59540226D01*
X50582795Y-59709744D01*
X50504774Y-59898102D01*
X50465000Y-60098061D01*
X48515650Y-60098061D01*
X48653937Y-59959774D01*
X48767205Y-59790256D01*
X48845226Y-59601898D01*
X48885000Y-59401939D01*
X48885000Y-59198061D01*
X48845226Y-58998102D01*
X48767205Y-58809744D01*
X48653937Y-58640226D01*
X48509774Y-58496063D01*
X48340256Y-58382795D01*
X48186082Y-58318934D01*
X48190256Y-58317205D01*
X48359774Y-58203937D01*
X48503937Y-58059774D01*
X48617205Y-57890256D01*
X48695226Y-57701898D01*
X48735000Y-57501939D01*
X48735000Y-57488212D01*
X51115000Y-57488212D01*
X51115000Y-57711788D01*
X51158617Y-57931067D01*
X51244176Y-58137624D01*
X51368388Y-58323520D01*
X51526480Y-58481612D01*
X51712376Y-58605824D01*
X51918933Y-58691383D01*
X52138212Y-58735000D01*
X52361788Y-58735000D01*
X52581067Y-58691383D01*
X52787624Y-58605824D01*
X52973520Y-58481612D01*
X53131612Y-58323520D01*
X53255824Y-58137624D01*
X53341383Y-57931067D01*
X53385000Y-57711788D01*
X53385000Y-57488212D01*
X53341383Y-57268933D01*
X53255824Y-57062376D01*
X53131612Y-56876480D01*
X52973520Y-56718388D01*
X52787624Y-56594176D01*
X52581067Y-56508617D01*
X52361788Y-56465000D01*
X52138212Y-56465000D01*
X51918933Y-56508617D01*
X51712376Y-56594176D01*
X51526480Y-56718388D01*
X51368388Y-56876480D01*
X51244176Y-57062376D01*
X51158617Y-57268933D01*
X51115000Y-57488212D01*
X48735000Y-57488212D01*
X48735000Y-57298061D01*
X48695226Y-57098102D01*
X48617205Y-56909744D01*
X48503937Y-56740226D01*
X48359774Y-56596063D01*
X48190256Y-56482795D01*
X48001898Y-56404774D01*
X47801939Y-56365000D01*
X47598061Y-56365000D01*
X47398102Y-56404774D01*
X47209744Y-56482795D01*
X47040226Y-56596063D01*
X46896063Y-56740226D01*
X46782795Y-56909744D01*
X46704774Y-57098102D01*
X46665000Y-57298061D01*
X46665000Y-57501939D01*
X46704774Y-57701898D01*
X46782795Y-57890256D01*
X46896063Y-58059774D01*
X47040226Y-58203937D01*
X47209744Y-58317205D01*
X47363918Y-58381066D01*
X47359744Y-58382795D01*
X47190226Y-58496063D01*
X47082961Y-58603328D01*
X47031612Y-58526480D01*
X46873520Y-58368388D01*
X46687624Y-58244176D01*
X46481067Y-58158617D01*
X46261788Y-58115000D01*
X46038212Y-58115000D01*
X45818933Y-58158617D01*
X45612376Y-58244176D01*
X45426480Y-58368388D01*
X45268388Y-58526480D01*
X45144176Y-58712376D01*
X45058617Y-58918933D01*
X45015000Y-59138212D01*
X23385000Y-59138212D01*
X23385000Y-47902487D01*
X23404774Y-48001898D01*
X23482795Y-48190256D01*
X23596063Y-48359774D01*
X23740226Y-48503937D01*
X23909744Y-48617205D01*
X24098102Y-48695226D01*
X24298061Y-48735000D01*
X24501939Y-48735000D01*
X24701898Y-48695226D01*
X24890256Y-48617205D01*
X25013285Y-48535000D01*
X25454133Y-48535000D01*
X33130563Y-56211432D01*
X33156709Y-56243291D01*
X33188568Y-56269437D01*
X33188570Y-56269439D01*
X33237719Y-56309774D01*
X33283854Y-56347636D01*
X33428913Y-56425172D01*
X33586311Y-56472918D01*
X33686594Y-56482795D01*
X33750000Y-56489040D01*
X33791018Y-56485000D01*
X39886715Y-56485000D01*
X40009744Y-56567205D01*
X40198102Y-56645226D01*
X40398061Y-56685000D01*
X40601939Y-56685000D01*
X40801898Y-56645226D01*
X40990256Y-56567205D01*
X41159774Y-56453937D01*
X41303937Y-56309774D01*
X41417205Y-56140256D01*
X41495226Y-55951898D01*
X41535000Y-55751939D01*
X41535000Y-55548061D01*
X41522456Y-55485000D01*
X41804133Y-55485000D01*
X43375908Y-57056776D01*
X43404774Y-57201898D01*
X43482795Y-57390256D01*
X43596063Y-57559774D01*
X43740226Y-57703937D01*
X43909744Y-57817205D01*
X44098102Y-57895226D01*
X44298061Y-57935000D01*
X44501939Y-57935000D01*
X44701898Y-57895226D01*
X44890256Y-57817205D01*
X45059774Y-57703937D01*
X45203937Y-57559774D01*
X45317205Y-57390256D01*
X45395226Y-57201898D01*
X45435000Y-57001939D01*
X45435000Y-56798061D01*
X45403823Y-56641322D01*
X45459774Y-56603937D01*
X45603937Y-56459774D01*
X45717205Y-56290256D01*
X45795226Y-56101898D01*
X45835000Y-55901939D01*
X45835000Y-55698061D01*
X45795226Y-55498102D01*
X45748377Y-55385000D01*
X63514845Y-55385000D01*
X58584845Y-60315000D01*
X56478711Y-60315000D01*
X56459774Y-60296063D01*
X56290256Y-60182795D01*
X56101898Y-60104774D01*
X55901939Y-60065000D01*
X55698061Y-60065000D01*
X55498102Y-60104774D01*
X55309744Y-60182795D01*
X55140226Y-60296063D01*
X54996063Y-60440226D01*
X54882795Y-60609744D01*
X54804774Y-60798102D01*
X54765000Y-60998061D01*
X54765000Y-61201939D01*
X54804774Y-61401898D01*
X54882795Y-61590256D01*
X54922715Y-61650000D01*
X54882795Y-61709744D01*
X54804774Y-61898102D01*
X54765000Y-62098061D01*
X54765000Y-62301939D01*
X54804774Y-62501898D01*
X54882795Y-62690256D01*
X54996063Y-62859774D01*
X55140226Y-63003937D01*
X55309744Y-63117205D01*
X55498102Y-63195226D01*
X55698061Y-63235000D01*
X55901939Y-63235000D01*
X56101898Y-63195226D01*
X56290256Y-63117205D01*
X56459774Y-63003937D01*
X56478711Y-62985000D01*
X58478569Y-62985000D01*
X58517122Y-62988797D01*
X58555675Y-62985000D01*
X58555683Y-62985000D01*
X58671009Y-62973641D01*
X58818982Y-62928754D01*
X58955355Y-62855862D01*
X59074886Y-62757764D01*
X59099469Y-62727810D01*
X67177828Y-54649452D01*
X67207775Y-54624875D01*
X67237419Y-54588755D01*
X67256914Y-54565000D01*
X67305873Y-54505344D01*
X67378765Y-54368971D01*
X67390916Y-54328914D01*
X67423653Y-54220998D01*
X67432731Y-54128817D01*
X67435011Y-54105672D01*
X67435011Y-54105667D01*
X67438808Y-54067111D01*
X67435011Y-54028556D01*
X67435011Y-46888566D01*
X67438808Y-46850011D01*
X67435011Y-46811455D01*
X67435011Y-46811450D01*
X67428959Y-46750000D01*
X67423653Y-46696124D01*
X67378765Y-46548151D01*
X67371736Y-46535000D01*
X67305873Y-46411778D01*
X67247151Y-46340226D01*
X67232356Y-46322198D01*
X67232353Y-46322195D01*
X67207775Y-46292247D01*
X67177827Y-46267669D01*
X66035000Y-45124843D01*
X66035000Y-45098061D01*
X65995226Y-44898102D01*
X65917205Y-44709744D01*
X65877285Y-44650000D01*
X65917205Y-44590256D01*
X65995226Y-44401898D01*
X66035000Y-44201939D01*
X66035000Y-43998061D01*
X65995226Y-43798102D01*
X65986711Y-43777544D01*
X66004206Y-43784791D01*
X66204165Y-43824565D01*
X66230947Y-43824565D01*
X68515001Y-46108620D01*
X68515000Y-57167722D01*
X58067723Y-67615000D01*
X40748377Y-67615000D01*
X40795226Y-67501898D01*
X40835000Y-67301939D01*
X40835000Y-67098061D01*
X40795226Y-66898102D01*
X40717205Y-66709744D01*
X40603937Y-66540226D01*
X40459774Y-66396063D01*
X40290256Y-66282795D01*
X40101898Y-66204774D01*
X39901939Y-66165000D01*
X39698061Y-66165000D01*
X39498102Y-66204774D01*
X39309744Y-66282795D01*
X39140226Y-66396063D01*
X38996063Y-66540226D01*
X38882795Y-66709744D01*
X38804774Y-66898102D01*
X38765000Y-67098061D01*
X38765000Y-67124843D01*
X38422189Y-67467654D01*
X38392235Y-67492237D01*
X38294137Y-67611769D01*
X38221245Y-67748142D01*
X38206595Y-67796437D01*
X37335000Y-66924843D01*
X37335000Y-66898061D01*
X37295226Y-66698102D01*
X37217205Y-66509744D01*
X37103937Y-66340226D01*
X37091875Y-66328164D01*
X37117205Y-66290256D01*
X37195226Y-66101898D01*
X37235000Y-65901939D01*
X37235000Y-65698061D01*
X37233041Y-65688212D01*
X46965000Y-65688212D01*
X46965000Y-65911788D01*
X47008617Y-66131067D01*
X47094176Y-66337624D01*
X47218388Y-66523520D01*
X47376480Y-66681612D01*
X47562376Y-66805824D01*
X47768933Y-66891383D01*
X47988212Y-66935000D01*
X48211788Y-66935000D01*
X48431067Y-66891383D01*
X48637624Y-66805824D01*
X48823520Y-66681612D01*
X48981612Y-66523520D01*
X49105824Y-66337624D01*
X49191383Y-66131067D01*
X49235000Y-65911788D01*
X49235000Y-65688212D01*
X49191383Y-65468933D01*
X49105824Y-65262376D01*
X48981612Y-65076480D01*
X48823520Y-64918388D01*
X48637624Y-64794176D01*
X48431067Y-64708617D01*
X48211788Y-64665000D01*
X47988212Y-64665000D01*
X47768933Y-64708617D01*
X47562376Y-64794176D01*
X47376480Y-64918388D01*
X47218388Y-65076480D01*
X47094176Y-65262376D01*
X47008617Y-65468933D01*
X46965000Y-65688212D01*
X37233041Y-65688212D01*
X37195226Y-65498102D01*
X37117205Y-65309744D01*
X37003937Y-65140226D01*
X36859774Y-64996063D01*
X36690256Y-64882795D01*
X36501898Y-64804774D01*
X36301939Y-64765000D01*
X36098061Y-64765000D01*
X35898102Y-64804774D01*
X35709744Y-64882795D01*
X35540226Y-64996063D01*
X35396063Y-65140226D01*
X35282795Y-65309744D01*
X35204774Y-65498102D01*
X35165000Y-65698061D01*
X35165000Y-65724843D01*
X34322189Y-66567654D01*
X34292235Y-66592237D01*
X34194137Y-66711769D01*
X34121245Y-66848142D01*
X34076358Y-66996115D01*
X34064999Y-67111441D01*
X34064999Y-67111448D01*
X34061202Y-67150001D01*
X34064999Y-67188554D01*
X34065000Y-68721439D01*
X34061202Y-68760001D01*
X34076358Y-68913887D01*
X34121245Y-69061860D01*
X34147932Y-69111788D01*
X34194138Y-69198234D01*
X34234689Y-69247645D01*
X34267654Y-69287813D01*
X34267658Y-69287817D01*
X34292236Y-69317765D01*
X34322184Y-69342343D01*
X37507686Y-72527846D01*
X37532264Y-72557794D01*
X37562212Y-72582372D01*
X37562215Y-72582375D01*
X37591587Y-72606480D01*
X37651795Y-72655892D01*
X37788168Y-72728784D01*
X37936141Y-72773672D01*
X38011054Y-72781050D01*
X38051467Y-72785030D01*
X38051472Y-72785030D01*
X38090028Y-72788827D01*
X38128583Y-72785030D01*
X56875659Y-72785030D01*
X56914214Y-72788827D01*
X56952767Y-72785030D01*
X56952775Y-72785030D01*
X57068101Y-72773671D01*
X57216074Y-72728784D01*
X57352447Y-72655892D01*
X57471978Y-72557794D01*
X57496561Y-72527840D01*
X58486188Y-71538212D01*
X64515000Y-71538212D01*
X64515000Y-71761788D01*
X64558617Y-71981067D01*
X64644176Y-72187624D01*
X64768388Y-72373520D01*
X64926480Y-72531612D01*
X65112376Y-72655824D01*
X65318933Y-72741383D01*
X65538212Y-72785000D01*
X65761788Y-72785000D01*
X65981067Y-72741383D01*
X66187624Y-72655824D01*
X66373520Y-72531612D01*
X66531612Y-72373520D01*
X66655824Y-72187624D01*
X66741383Y-71981067D01*
X66785000Y-71761788D01*
X66785000Y-71538212D01*
X66741383Y-71318933D01*
X66655824Y-71112376D01*
X66531612Y-70926480D01*
X66373520Y-70768388D01*
X66187624Y-70644176D01*
X65981067Y-70558617D01*
X65761788Y-70515000D01*
X65538212Y-70515000D01*
X65318933Y-70558617D01*
X65112376Y-70644176D01*
X64926480Y-70768388D01*
X64768388Y-70926480D01*
X64644176Y-71112376D01*
X64558617Y-71318933D01*
X64515000Y-71538212D01*
X58486188Y-71538212D01*
X60985735Y-69038665D01*
X71765000Y-69038665D01*
X71765000Y-69321335D01*
X71820147Y-69598574D01*
X71928320Y-69859727D01*
X72085363Y-70094759D01*
X72285241Y-70294637D01*
X72520273Y-70451680D01*
X72781426Y-70559853D01*
X73058665Y-70615000D01*
X73341335Y-70615000D01*
X73618574Y-70559853D01*
X73879727Y-70451680D01*
X74114759Y-70294637D01*
X74314637Y-70094759D01*
X74471680Y-69859727D01*
X74579853Y-69598574D01*
X74635000Y-69321335D01*
X74635000Y-69038665D01*
X74579853Y-68761426D01*
X74471680Y-68500273D01*
X74314637Y-68265241D01*
X74114759Y-68065363D01*
X73879727Y-67908320D01*
X73618574Y-67800147D01*
X73341335Y-67745000D01*
X73058665Y-67745000D01*
X72781426Y-67800147D01*
X72520273Y-67908320D01*
X72285241Y-68065363D01*
X72085363Y-68265241D01*
X71928320Y-68500273D01*
X71820147Y-68761426D01*
X71765000Y-69038665D01*
X60985735Y-69038665D01*
X66486188Y-63538212D01*
X70265000Y-63538212D01*
X70265000Y-63761788D01*
X70308617Y-63981067D01*
X70394176Y-64187624D01*
X70518388Y-64373520D01*
X70676480Y-64531612D01*
X70862376Y-64655824D01*
X71068933Y-64741383D01*
X71288212Y-64785000D01*
X71511788Y-64785000D01*
X71731067Y-64741383D01*
X71937624Y-64655824D01*
X72123520Y-64531612D01*
X72281612Y-64373520D01*
X72405824Y-64187624D01*
X72491383Y-63981067D01*
X72535000Y-63761788D01*
X72535000Y-63538212D01*
X72491383Y-63318933D01*
X72405824Y-63112376D01*
X72281612Y-62926480D01*
X72123520Y-62768388D01*
X71937624Y-62644176D01*
X71731067Y-62558617D01*
X71511788Y-62515000D01*
X71288212Y-62515000D01*
X71068933Y-62558617D01*
X70862376Y-62644176D01*
X70676480Y-62768388D01*
X70518388Y-62926480D01*
X70394176Y-63112376D01*
X70308617Y-63318933D01*
X70265000Y-63538212D01*
X66486188Y-63538212D01*
X71327838Y-58696562D01*
X71357785Y-58671985D01*
X71383850Y-58640226D01*
X71418454Y-58598061D01*
X86165000Y-58598061D01*
X86165000Y-58801939D01*
X86204774Y-59001898D01*
X86282795Y-59190256D01*
X86396063Y-59359774D01*
X86540226Y-59503937D01*
X86709744Y-59617205D01*
X86720959Y-59621850D01*
X86576480Y-59718388D01*
X86418388Y-59876480D01*
X86294176Y-60062376D01*
X86208617Y-60268933D01*
X86165000Y-60488212D01*
X86165000Y-60711788D01*
X86208617Y-60931067D01*
X86294176Y-61137624D01*
X86418388Y-61323520D01*
X86544868Y-61450000D01*
X86418388Y-61576480D01*
X86294176Y-61762376D01*
X86208617Y-61968933D01*
X86165000Y-62188212D01*
X86165000Y-62411788D01*
X86208617Y-62631067D01*
X86294176Y-62837624D01*
X86418388Y-63023520D01*
X86576480Y-63181612D01*
X86762376Y-63305824D01*
X86968933Y-63391383D01*
X87188212Y-63435000D01*
X87411788Y-63435000D01*
X87631067Y-63391383D01*
X87837624Y-63305824D01*
X88023520Y-63181612D01*
X88181612Y-63023520D01*
X88305824Y-62837624D01*
X88391383Y-62631067D01*
X88435000Y-62411788D01*
X88435000Y-62188212D01*
X88391383Y-61968933D01*
X88305824Y-61762376D01*
X88181612Y-61576480D01*
X88055132Y-61450000D01*
X88181612Y-61323520D01*
X88305824Y-61137624D01*
X88391383Y-60931067D01*
X88435000Y-60711788D01*
X88435000Y-60488212D01*
X88391383Y-60268933D01*
X88305824Y-60062376D01*
X88181612Y-59876480D01*
X88023520Y-59718388D01*
X87837624Y-59594176D01*
X87767928Y-59565307D01*
X87859774Y-59503937D01*
X88003937Y-59359774D01*
X88117205Y-59190256D01*
X88195226Y-59001898D01*
X88235000Y-58801939D01*
X88235000Y-58598061D01*
X88195226Y-58398102D01*
X88117205Y-58209744D01*
X88003937Y-58040226D01*
X87859774Y-57896063D01*
X87690256Y-57782795D01*
X87501898Y-57704774D01*
X87301939Y-57665000D01*
X87098061Y-57665000D01*
X86898102Y-57704774D01*
X86709744Y-57782795D01*
X86540226Y-57896063D01*
X86396063Y-58040226D01*
X86282795Y-58209744D01*
X86204774Y-58398102D01*
X86165000Y-58598061D01*
X71418454Y-58598061D01*
X71455883Y-58552454D01*
X71528775Y-58416081D01*
X71538872Y-58382795D01*
X71573663Y-58268108D01*
X71584446Y-58158617D01*
X71585021Y-58152782D01*
X71585021Y-58152777D01*
X71588818Y-58114221D01*
X71585021Y-58075668D01*
X71585021Y-54298061D01*
X72465000Y-54298061D01*
X72465000Y-54501939D01*
X72504774Y-54701898D01*
X72582795Y-54890256D01*
X72696063Y-55059774D01*
X72708125Y-55071836D01*
X72682795Y-55109744D01*
X72604774Y-55298102D01*
X72565000Y-55498061D01*
X72565000Y-55701939D01*
X72604774Y-55901898D01*
X72682795Y-56090256D01*
X72796063Y-56259774D01*
X72940226Y-56403937D01*
X73109744Y-56517205D01*
X73298102Y-56595226D01*
X73498061Y-56635000D01*
X73701939Y-56635000D01*
X73901898Y-56595226D01*
X74090256Y-56517205D01*
X74259774Y-56403937D01*
X74403937Y-56259774D01*
X74517205Y-56090256D01*
X74595226Y-55901898D01*
X74635000Y-55701939D01*
X74635000Y-55498061D01*
X74621676Y-55431074D01*
X74787645Y-55398061D01*
X86165000Y-55398061D01*
X86165000Y-55601939D01*
X86204774Y-55801898D01*
X86282795Y-55990256D01*
X86396063Y-56159774D01*
X86540226Y-56303937D01*
X86709744Y-56417205D01*
X86898102Y-56495226D01*
X87098061Y-56535000D01*
X87301939Y-56535000D01*
X87501898Y-56495226D01*
X87690256Y-56417205D01*
X87859774Y-56303937D01*
X88003937Y-56159774D01*
X88117205Y-55990256D01*
X88195226Y-55801898D01*
X88235000Y-55601939D01*
X88235000Y-55398061D01*
X88195226Y-55198102D01*
X88117205Y-55009744D01*
X88003937Y-54840226D01*
X87859774Y-54696063D01*
X87690256Y-54582795D01*
X87501898Y-54504774D01*
X87301939Y-54465000D01*
X87098061Y-54465000D01*
X86898102Y-54504774D01*
X86709744Y-54582795D01*
X86540226Y-54696063D01*
X86396063Y-54840226D01*
X86282795Y-55009744D01*
X86204774Y-55198102D01*
X86165000Y-55398061D01*
X74787645Y-55398061D01*
X74801898Y-55395226D01*
X74990256Y-55317205D01*
X75159774Y-55203937D01*
X75303937Y-55059774D01*
X75417205Y-54890256D01*
X75495226Y-54701898D01*
X75535000Y-54501939D01*
X75535000Y-54298061D01*
X75495226Y-54098102D01*
X75417205Y-53909744D01*
X75303937Y-53740226D01*
X75159774Y-53596063D01*
X74990256Y-53482795D01*
X74801898Y-53404774D01*
X74601939Y-53365000D01*
X74398061Y-53365000D01*
X74198102Y-53404774D01*
X74009744Y-53482795D01*
X74000000Y-53489306D01*
X73990256Y-53482795D01*
X73801898Y-53404774D01*
X73601939Y-53365000D01*
X73398061Y-53365000D01*
X73198102Y-53404774D01*
X73009744Y-53482795D01*
X72840226Y-53596063D01*
X72696063Y-53740226D01*
X72582795Y-53909744D01*
X72504774Y-54098102D01*
X72465000Y-54298061D01*
X71585021Y-54298061D01*
X71585021Y-52098061D01*
X74665000Y-52098061D01*
X74665000Y-52301939D01*
X74704774Y-52501898D01*
X74782795Y-52690256D01*
X74896063Y-52859774D01*
X75040226Y-53003937D01*
X75209744Y-53117205D01*
X75398102Y-53195226D01*
X75598061Y-53235000D01*
X75801939Y-53235000D01*
X76001898Y-53195226D01*
X76190256Y-53117205D01*
X76359774Y-53003937D01*
X76503937Y-52859774D01*
X76617205Y-52690256D01*
X76695226Y-52501898D01*
X76735000Y-52301939D01*
X76735000Y-52098061D01*
X76695226Y-51898102D01*
X76617205Y-51709744D01*
X76503937Y-51540226D01*
X76359774Y-51396063D01*
X76190256Y-51282795D01*
X76001898Y-51204774D01*
X75801939Y-51165000D01*
X75598061Y-51165000D01*
X75398102Y-51204774D01*
X75209744Y-51282795D01*
X75040226Y-51396063D01*
X74896063Y-51540226D01*
X74782795Y-51709744D01*
X74704774Y-51898102D01*
X74665000Y-52098061D01*
X71585021Y-52098061D01*
X71585021Y-46052651D01*
X71660621Y-46194090D01*
X71771215Y-46328849D01*
X71804988Y-46356566D01*
X79193465Y-53745044D01*
X79204774Y-53801898D01*
X79282795Y-53990256D01*
X79396063Y-54159774D01*
X79540226Y-54303937D01*
X79709744Y-54417205D01*
X79898102Y-54495226D01*
X80098061Y-54535000D01*
X80301939Y-54535000D01*
X80501898Y-54495226D01*
X80690256Y-54417205D01*
X80859774Y-54303937D01*
X81003937Y-54159774D01*
X81117205Y-53990256D01*
X81195226Y-53801898D01*
X81235000Y-53601939D01*
X81235000Y-53398061D01*
X81195226Y-53198102D01*
X81117205Y-53009744D01*
X81003937Y-52840226D01*
X80859774Y-52696063D01*
X80690256Y-52582795D01*
X80501898Y-52504774D01*
X80445044Y-52493465D01*
X75786303Y-47834724D01*
X75909744Y-47917205D01*
X76098102Y-47995226D01*
X76298061Y-48035000D01*
X76501939Y-48035000D01*
X76701898Y-47995226D01*
X76890256Y-47917205D01*
X76936368Y-47886394D01*
X76965685Y-47889281D01*
X77009154Y-47885000D01*
X77009162Y-47885000D01*
X77139175Y-47872195D01*
X77305998Y-47821589D01*
X77459744Y-47739411D01*
X77594502Y-47628817D01*
X77622219Y-47595044D01*
X79229051Y-45988212D01*
X79865000Y-45988212D01*
X79865000Y-46211788D01*
X79908617Y-46431067D01*
X79994176Y-46637624D01*
X80118388Y-46823520D01*
X80276480Y-46981612D01*
X80462376Y-47105824D01*
X80668933Y-47191383D01*
X80888212Y-47235000D01*
X81111788Y-47235000D01*
X81331067Y-47191383D01*
X81537624Y-47105824D01*
X81723520Y-46981612D01*
X81881612Y-46823520D01*
X82005824Y-46637624D01*
X82091383Y-46431067D01*
X82135000Y-46211788D01*
X82135000Y-45988212D01*
X82091383Y-45768933D01*
X82005824Y-45562376D01*
X81897328Y-45400000D01*
X86911928Y-45400000D01*
X86911928Y-47100000D01*
X86924188Y-47224482D01*
X86960498Y-47344180D01*
X87019463Y-47454494D01*
X87098815Y-47551185D01*
X87195506Y-47630537D01*
X87305820Y-47689502D01*
X87378380Y-47711513D01*
X87246525Y-47843368D01*
X87084010Y-48086589D01*
X86972068Y-48356842D01*
X86915000Y-48643740D01*
X86915000Y-48936260D01*
X86972068Y-49223158D01*
X87084010Y-49493411D01*
X87246525Y-49736632D01*
X87453368Y-49943475D01*
X87696589Y-50105990D01*
X87966842Y-50217932D01*
X88253740Y-50275000D01*
X88546260Y-50275000D01*
X88833158Y-50217932D01*
X89103411Y-50105990D01*
X89346632Y-49943475D01*
X89553475Y-49736632D01*
X89715990Y-49493411D01*
X89827932Y-49223158D01*
X89885000Y-48936260D01*
X89885000Y-48643740D01*
X89827932Y-48356842D01*
X89715990Y-48086589D01*
X89553475Y-47843368D01*
X89421620Y-47711513D01*
X89494180Y-47689502D01*
X89604494Y-47630537D01*
X89701185Y-47551185D01*
X89780537Y-47454494D01*
X89839502Y-47344180D01*
X89875812Y-47224482D01*
X89888072Y-47100000D01*
X89888072Y-45400000D01*
X89875812Y-45275518D01*
X89839502Y-45155820D01*
X89780537Y-45045506D01*
X89701185Y-44948815D01*
X89604494Y-44869463D01*
X89494180Y-44810498D01*
X89374482Y-44774188D01*
X89250000Y-44761928D01*
X87550000Y-44761928D01*
X87425518Y-44774188D01*
X87305820Y-44810498D01*
X87195506Y-44869463D01*
X87098815Y-44948815D01*
X87019463Y-45045506D01*
X86960498Y-45155820D01*
X86924188Y-45275518D01*
X86911928Y-45400000D01*
X81897328Y-45400000D01*
X81881612Y-45376480D01*
X81723520Y-45218388D01*
X81537624Y-45094176D01*
X81331067Y-45008617D01*
X81111788Y-44965000D01*
X80888212Y-44965000D01*
X80668933Y-45008617D01*
X80462376Y-45094176D01*
X80276480Y-45218388D01*
X80118388Y-45376480D01*
X79994176Y-45562376D01*
X79908617Y-45768933D01*
X79865000Y-45988212D01*
X79229051Y-45988212D01*
X80145061Y-45072203D01*
X80178828Y-45044491D01*
X80207345Y-45009744D01*
X80289422Y-44909733D01*
X80295618Y-44898141D01*
X80371600Y-44755987D01*
X80422206Y-44589164D01*
X80435011Y-44459151D01*
X80435011Y-44459143D01*
X80439292Y-44415674D01*
X80435011Y-44372205D01*
X80435011Y-38040143D01*
X80576480Y-38181612D01*
X80762376Y-38305824D01*
X80968933Y-38391383D01*
X81188212Y-38435000D01*
X81411788Y-38435000D01*
X81631067Y-38391383D01*
X81837624Y-38305824D01*
X82023520Y-38181612D01*
X82181612Y-38023520D01*
X82305824Y-37837624D01*
X82391383Y-37631067D01*
X82435000Y-37411788D01*
X82435000Y-37188212D01*
X82391383Y-36968933D01*
X82305824Y-36762376D01*
X82181612Y-36576480D01*
X82023520Y-36418388D01*
X81837624Y-36294176D01*
X81631067Y-36208617D01*
X81411788Y-36165000D01*
X81188212Y-36165000D01*
X80968933Y-36208617D01*
X80762376Y-36294176D01*
X80576480Y-36418388D01*
X80435011Y-36559857D01*
X80435011Y-35503515D01*
X80439292Y-35460048D01*
X80435011Y-35416582D01*
X80435011Y-35416572D01*
X80422206Y-35286559D01*
X80371600Y-35119736D01*
X80289422Y-34965990D01*
X80233674Y-34898061D01*
X80206543Y-34865002D01*
X80206541Y-34865000D01*
X80178828Y-34831232D01*
X80145060Y-34803519D01*
X77585010Y-32243470D01*
X77585010Y-29653516D01*
X77589291Y-29610047D01*
X77585010Y-29566578D01*
X77585010Y-29566570D01*
X77572205Y-29436557D01*
X77532283Y-29304953D01*
X77521599Y-29269733D01*
X77439421Y-29115988D01*
X77356542Y-29015000D01*
X77356540Y-29014998D01*
X77328827Y-28981230D01*
X77295059Y-28953517D01*
X77129754Y-28788212D01*
X79065000Y-28788212D01*
X79065000Y-29011788D01*
X79108617Y-29231067D01*
X79194176Y-29437624D01*
X79318388Y-29623520D01*
X79476480Y-29781612D01*
X79504000Y-29800000D01*
X79476480Y-29818388D01*
X79318388Y-29976480D01*
X79194176Y-30162376D01*
X79108617Y-30368933D01*
X79065000Y-30588212D01*
X79065000Y-30811788D01*
X79108617Y-31031067D01*
X79194176Y-31237624D01*
X79318388Y-31423520D01*
X79476480Y-31581612D01*
X79662376Y-31705824D01*
X79868933Y-31791383D01*
X80088212Y-31835000D01*
X80311788Y-31835000D01*
X80531067Y-31791383D01*
X80737624Y-31705824D01*
X80923520Y-31581612D01*
X81081612Y-31423520D01*
X81205824Y-31237624D01*
X81291383Y-31031067D01*
X81335000Y-30811788D01*
X81335000Y-30588212D01*
X81291383Y-30368933D01*
X81205824Y-30162376D01*
X81081612Y-29976480D01*
X80923520Y-29818388D01*
X80896000Y-29800000D01*
X80923520Y-29781612D01*
X81081612Y-29623520D01*
X81205824Y-29437624D01*
X81291383Y-29231067D01*
X81335000Y-29011788D01*
X81335000Y-28788212D01*
X81365000Y-28788212D01*
X81365000Y-29011788D01*
X81408617Y-29231067D01*
X81494176Y-29437624D01*
X81618388Y-29623520D01*
X81776480Y-29781612D01*
X81804000Y-29800000D01*
X81776480Y-29818388D01*
X81618388Y-29976480D01*
X81494176Y-30162376D01*
X81408617Y-30368933D01*
X81365000Y-30588212D01*
X81365000Y-30811788D01*
X81408617Y-31031067D01*
X81494176Y-31237624D01*
X81618388Y-31423520D01*
X81776480Y-31581612D01*
X81962376Y-31705824D01*
X82168933Y-31791383D01*
X82388212Y-31835000D01*
X82611788Y-31835000D01*
X82831067Y-31791383D01*
X83037624Y-31705824D01*
X83223520Y-31581612D01*
X83381612Y-31423520D01*
X83505824Y-31237624D01*
X83591383Y-31031067D01*
X83635000Y-30811788D01*
X83635000Y-30588212D01*
X83591383Y-30368933D01*
X83505824Y-30162376D01*
X83381612Y-29976480D01*
X83223520Y-29818388D01*
X83196000Y-29800000D01*
X83223520Y-29781612D01*
X83381612Y-29623520D01*
X83505824Y-29437624D01*
X83591383Y-29231067D01*
X83635000Y-29011788D01*
X83635000Y-28788212D01*
X83591383Y-28568933D01*
X83505824Y-28362376D01*
X83381612Y-28176480D01*
X83223520Y-28018388D01*
X83037624Y-27894176D01*
X82831067Y-27808617D01*
X82611788Y-27765000D01*
X82388212Y-27765000D01*
X82168933Y-27808617D01*
X81962376Y-27894176D01*
X81776480Y-28018388D01*
X81618388Y-28176480D01*
X81494176Y-28362376D01*
X81408617Y-28568933D01*
X81365000Y-28788212D01*
X81335000Y-28788212D01*
X81291383Y-28568933D01*
X81205824Y-28362376D01*
X81081612Y-28176480D01*
X80923520Y-28018388D01*
X80737624Y-27894176D01*
X80531067Y-27808617D01*
X80311788Y-27765000D01*
X80088212Y-27765000D01*
X79868933Y-27808617D01*
X79662376Y-27894176D01*
X79476480Y-28018388D01*
X79318388Y-28176480D01*
X79194176Y-28362376D01*
X79108617Y-28568933D01*
X79065000Y-28788212D01*
X77129754Y-28788212D01*
X76246487Y-27904946D01*
X76218770Y-27871173D01*
X76084012Y-27760579D01*
X75930266Y-27678401D01*
X75763443Y-27627795D01*
X75633430Y-27614990D01*
X75633422Y-27614990D01*
X75589953Y-27610709D01*
X75546484Y-27614990D01*
X73156531Y-27614990D01*
X72196486Y-26654945D01*
X72168769Y-26621172D01*
X72034011Y-26510578D01*
X71880265Y-26428400D01*
X71747786Y-26388212D01*
X75965000Y-26388212D01*
X75965000Y-26611788D01*
X76008617Y-26831067D01*
X76094176Y-27037624D01*
X76218388Y-27223520D01*
X76376480Y-27381612D01*
X76562376Y-27505824D01*
X76768933Y-27591383D01*
X76988212Y-27635000D01*
X77211788Y-27635000D01*
X77431067Y-27591383D01*
X77637624Y-27505824D01*
X77823520Y-27381612D01*
X77981612Y-27223520D01*
X78105824Y-27037624D01*
X78191383Y-26831067D01*
X78235000Y-26611788D01*
X78235000Y-26488212D01*
X84665000Y-26488212D01*
X84665000Y-26711788D01*
X84708617Y-26931067D01*
X84794176Y-27137624D01*
X84918388Y-27323520D01*
X85076480Y-27481612D01*
X85262376Y-27605824D01*
X85468933Y-27691383D01*
X85688212Y-27735000D01*
X85911788Y-27735000D01*
X86131067Y-27691383D01*
X86337624Y-27605824D01*
X86523520Y-27481612D01*
X86681612Y-27323520D01*
X86805824Y-27137624D01*
X86891383Y-26931067D01*
X86935000Y-26711788D01*
X86935000Y-26488212D01*
X86891383Y-26268933D01*
X86805824Y-26062376D01*
X86681612Y-25876480D01*
X86523520Y-25718388D01*
X86337624Y-25594176D01*
X86143930Y-25513945D01*
X93140000Y-25513945D01*
X93140000Y-26486055D01*
X93329650Y-27439486D01*
X93701660Y-28337599D01*
X94241735Y-29145879D01*
X94929121Y-29833265D01*
X95737401Y-30373340D01*
X96635514Y-30745350D01*
X97588945Y-30935000D01*
X98561055Y-30935000D01*
X99514486Y-30745350D01*
X100412599Y-30373340D01*
X101220879Y-29833265D01*
X101908265Y-29145879D01*
X102448340Y-28337599D01*
X102820350Y-27439486D01*
X103010000Y-26486055D01*
X103010000Y-25513945D01*
X102820350Y-24560514D01*
X102448340Y-23662401D01*
X101908265Y-22854121D01*
X101220879Y-22166735D01*
X100412599Y-21626660D01*
X99514486Y-21254650D01*
X98561055Y-21065000D01*
X97588945Y-21065000D01*
X96635514Y-21254650D01*
X95737401Y-21626660D01*
X94929121Y-22166735D01*
X94241735Y-22854121D01*
X93701660Y-23662401D01*
X93329650Y-24560514D01*
X93140000Y-25513945D01*
X86143930Y-25513945D01*
X86131067Y-25508617D01*
X85911788Y-25465000D01*
X85688212Y-25465000D01*
X85468933Y-25508617D01*
X85262376Y-25594176D01*
X85076480Y-25718388D01*
X84918388Y-25876480D01*
X84794176Y-26062376D01*
X84708617Y-26268933D01*
X84665000Y-26488212D01*
X78235000Y-26488212D01*
X78235000Y-26388212D01*
X78191383Y-26168933D01*
X78105824Y-25962376D01*
X77981612Y-25776480D01*
X77823520Y-25618388D01*
X77637624Y-25494176D01*
X77431067Y-25408617D01*
X77211788Y-25365000D01*
X76988212Y-25365000D01*
X76768933Y-25408617D01*
X76562376Y-25494176D01*
X76376480Y-25618388D01*
X76218388Y-25776480D01*
X76094176Y-25962376D01*
X76008617Y-26168933D01*
X75965000Y-26388212D01*
X71747786Y-26388212D01*
X71713442Y-26377794D01*
X71583429Y-26364989D01*
X71583418Y-26364989D01*
X71539952Y-26360708D01*
X71496483Y-26364989D01*
X67893480Y-26364989D01*
X67850011Y-26360708D01*
X67806542Y-26364989D01*
X67806534Y-26364989D01*
X67803424Y-26365295D01*
X67801939Y-26365000D01*
X67598061Y-26365000D01*
X67398102Y-26404774D01*
X67209744Y-26482795D01*
X67040226Y-26596063D01*
X67000000Y-26636289D01*
X66859774Y-26496063D01*
X66690256Y-26382795D01*
X66501898Y-26304774D01*
X66301939Y-26265000D01*
X66098061Y-26265000D01*
X65898102Y-26304774D01*
X65709744Y-26382795D01*
X65540226Y-26496063D01*
X65396063Y-26640226D01*
X65282795Y-26809744D01*
X65204774Y-26998102D01*
X65165000Y-27198061D01*
X65165000Y-27401939D01*
X65204774Y-27601898D01*
X65282795Y-27790256D01*
X65396063Y-27959774D01*
X65540226Y-28103937D01*
X65709744Y-28217205D01*
X65898102Y-28295226D01*
X65954957Y-28306535D01*
X66493471Y-28845050D01*
X66521184Y-28878818D01*
X66554952Y-28906531D01*
X66554954Y-28906533D01*
X66557372Y-28908517D01*
X66655942Y-28989412D01*
X66809688Y-29071590D01*
X66976511Y-29122196D01*
X67106524Y-29135001D01*
X67106534Y-29135001D01*
X67150000Y-29139282D01*
X67193466Y-29135001D01*
X68064532Y-29135001D01*
X68108001Y-29139282D01*
X68151470Y-29135001D01*
X68151478Y-29135001D01*
X68281491Y-29122196D01*
X68448314Y-29071590D01*
X68602060Y-28989412D01*
X68736818Y-28878818D01*
X68764535Y-28845045D01*
X68774581Y-28834999D01*
X69665000Y-28834999D01*
X69665000Y-28901939D01*
X69704774Y-29101898D01*
X69782795Y-29290256D01*
X69896063Y-29459774D01*
X70040226Y-29603937D01*
X70209744Y-29717205D01*
X70398102Y-29795226D01*
X70598061Y-29835000D01*
X70801939Y-29835000D01*
X71001898Y-29795226D01*
X71190256Y-29717205D01*
X71359774Y-29603937D01*
X71503937Y-29459774D01*
X71505643Y-29457221D01*
X71843470Y-29795049D01*
X71871183Y-29828817D01*
X71904951Y-29856530D01*
X71904953Y-29856532D01*
X71957918Y-29899999D01*
X72005941Y-29939411D01*
X72159687Y-30021589D01*
X72326510Y-30072195D01*
X72456523Y-30085000D01*
X72456533Y-30085000D01*
X72499999Y-30089281D01*
X72543465Y-30085000D01*
X74933422Y-30085000D01*
X75115001Y-30266579D01*
X75115000Y-32856531D01*
X75110719Y-32900000D01*
X75115000Y-32943469D01*
X75115000Y-32943476D01*
X75127805Y-33073489D01*
X75178411Y-33240312D01*
X75260589Y-33394058D01*
X75371183Y-33528817D01*
X75404956Y-33556534D01*
X77213421Y-35365000D01*
X77088212Y-35365000D01*
X76868933Y-35408617D01*
X76662376Y-35494176D01*
X76500000Y-35602672D01*
X76337624Y-35494176D01*
X76131067Y-35408617D01*
X75911788Y-35365000D01*
X75688212Y-35365000D01*
X75468933Y-35408617D01*
X75262376Y-35494176D01*
X75076480Y-35618388D01*
X74918388Y-35776480D01*
X74794176Y-35962376D01*
X74708617Y-36168933D01*
X74665000Y-36388212D01*
X74665000Y-36611788D01*
X74708617Y-36831067D01*
X74794176Y-37037624D01*
X74918388Y-37223520D01*
X75076480Y-37381612D01*
X75262376Y-37505824D01*
X75468933Y-37591383D01*
X75688212Y-37635000D01*
X75911788Y-37635000D01*
X76131067Y-37591383D01*
X76337624Y-37505824D01*
X76500000Y-37397328D01*
X76662376Y-37505824D01*
X76868933Y-37591383D01*
X77088212Y-37635000D01*
X77311788Y-37635000D01*
X77531067Y-37591383D01*
X77737624Y-37505824D01*
X77923520Y-37381612D01*
X77965002Y-37340130D01*
X77965001Y-41065000D01*
X77898061Y-41065000D01*
X77698102Y-41104774D01*
X77509744Y-41182795D01*
X77340226Y-41296063D01*
X77196063Y-41440226D01*
X77082795Y-41609744D01*
X77004774Y-41798102D01*
X76965000Y-41998061D01*
X76965000Y-42201939D01*
X77004774Y-42401898D01*
X77082795Y-42590256D01*
X77089306Y-42600000D01*
X77082795Y-42609744D01*
X77004774Y-42798102D01*
X76965000Y-42998061D01*
X76965000Y-43201939D01*
X77004774Y-43401898D01*
X77082795Y-43590256D01*
X77196063Y-43759774D01*
X77340226Y-43903937D01*
X77502045Y-44012061D01*
X76707155Y-44806952D01*
X76701898Y-44804774D01*
X76501939Y-44765000D01*
X76298061Y-44765000D01*
X76098102Y-44804774D01*
X75909744Y-44882795D01*
X75740226Y-44996063D01*
X75596063Y-45140226D01*
X75482795Y-45309744D01*
X75404774Y-45498102D01*
X75365000Y-45698061D01*
X75365000Y-45901939D01*
X75404774Y-46101898D01*
X75482795Y-46290256D01*
X75556123Y-46400000D01*
X75482795Y-46509744D01*
X75404774Y-46698102D01*
X75365000Y-46898061D01*
X75365000Y-47101939D01*
X75404774Y-47301898D01*
X75482795Y-47490256D01*
X75565276Y-47613697D01*
X73285032Y-45333454D01*
X73285032Y-43843497D01*
X73289313Y-43800031D01*
X73285032Y-43756565D01*
X73285032Y-43756555D01*
X73272227Y-43626542D01*
X73221621Y-43459719D01*
X73139443Y-43305973D01*
X73088696Y-43244138D01*
X73056564Y-43204985D01*
X73056562Y-43204983D01*
X73028849Y-43171215D01*
X72995081Y-43143502D01*
X72606535Y-42754956D01*
X72595226Y-42698102D01*
X72517205Y-42509744D01*
X72403937Y-42340226D01*
X72259774Y-42196063D01*
X72090256Y-42082795D01*
X71901898Y-42004774D01*
X71701939Y-41965000D01*
X71498061Y-41965000D01*
X71298102Y-42004774D01*
X71109744Y-42082795D01*
X70950000Y-42189532D01*
X70790256Y-42082795D01*
X70601898Y-42004774D01*
X70401939Y-41965000D01*
X70198061Y-41965000D01*
X69998102Y-42004774D01*
X69809744Y-42082795D01*
X69640226Y-42196063D01*
X69530338Y-42305952D01*
X69494120Y-42269734D01*
X69324602Y-42156466D01*
X69136244Y-42078445D01*
X68936285Y-42038671D01*
X68732407Y-42038671D01*
X68532448Y-42078445D01*
X68344090Y-42156466D01*
X68329755Y-42166044D01*
X68259774Y-42096063D01*
X68090256Y-41982795D01*
X67901898Y-41904774D01*
X67701939Y-41865000D01*
X67498061Y-41865000D01*
X67298102Y-41904774D01*
X67109744Y-41982795D01*
X67021804Y-42041554D01*
X66965878Y-41985628D01*
X66796360Y-41872360D01*
X66608002Y-41794339D01*
X66408043Y-41754565D01*
X66204165Y-41754565D01*
X66004206Y-41794339D01*
X65815848Y-41872360D01*
X65646330Y-41985628D01*
X65502167Y-42129791D01*
X65388899Y-42299309D01*
X65310878Y-42487667D01*
X65271104Y-42687626D01*
X65271104Y-42891504D01*
X65310878Y-43091463D01*
X65319393Y-43112021D01*
X65301898Y-43104774D01*
X65101939Y-43065000D01*
X64898061Y-43065000D01*
X64698102Y-43104774D01*
X64509744Y-43182795D01*
X64340226Y-43296063D01*
X64196063Y-43440226D01*
X64082795Y-43609744D01*
X64004774Y-43798102D01*
X63965000Y-43998061D01*
X63965000Y-44024842D01*
X62874843Y-45115000D01*
X61767263Y-45115000D01*
X61817205Y-45040256D01*
X61895226Y-44851898D01*
X61935000Y-44651939D01*
X61935000Y-44448061D01*
X61895226Y-44248102D01*
X61817205Y-44059744D01*
X61703937Y-43890226D01*
X61559774Y-43746063D01*
X61390256Y-43632795D01*
X61201898Y-43554774D01*
X61001939Y-43515000D01*
X60798061Y-43515000D01*
X60598102Y-43554774D01*
X60409744Y-43632795D01*
X60350000Y-43672715D01*
X60290256Y-43632795D01*
X60101898Y-43554774D01*
X59901939Y-43515000D01*
X59698061Y-43515000D01*
X59498102Y-43554774D01*
X59309744Y-43632795D01*
X59140226Y-43746063D01*
X58996063Y-43890226D01*
X58882795Y-44059744D01*
X58804774Y-44248102D01*
X58765000Y-44448061D01*
X58765000Y-44651939D01*
X58804774Y-44851898D01*
X58882795Y-45040256D01*
X58932737Y-45115000D01*
X54253159Y-45115000D01*
X56970098Y-42398061D01*
X57765000Y-42398061D01*
X57765000Y-42601939D01*
X57804774Y-42801898D01*
X57882795Y-42990256D01*
X57996063Y-43159774D01*
X58140226Y-43303937D01*
X58309744Y-43417205D01*
X58498102Y-43495226D01*
X58698061Y-43535000D01*
X58901939Y-43535000D01*
X59101898Y-43495226D01*
X59290256Y-43417205D01*
X59459774Y-43303937D01*
X59603937Y-43159774D01*
X59717205Y-42990256D01*
X59795226Y-42801898D01*
X59835000Y-42601939D01*
X59835000Y-42398061D01*
X59795226Y-42198102D01*
X59717205Y-42009744D01*
X59603937Y-41840226D01*
X59459774Y-41696063D01*
X59290256Y-41582795D01*
X59101898Y-41504774D01*
X58901939Y-41465000D01*
X58698061Y-41465000D01*
X58498102Y-41504774D01*
X58309744Y-41582795D01*
X58140226Y-41696063D01*
X57996063Y-41840226D01*
X57882795Y-42009744D01*
X57804774Y-42198102D01*
X57765000Y-42398061D01*
X56970098Y-42398061D01*
X58227818Y-41140342D01*
X58257765Y-41115765D01*
X58285193Y-41082345D01*
X58324048Y-41035000D01*
X58355863Y-40996234D01*
X58428755Y-40859861D01*
X58473642Y-40711888D01*
X58485001Y-40596562D01*
X58485001Y-40596555D01*
X58488798Y-40558002D01*
X58485001Y-40519449D01*
X58485001Y-37385595D01*
X58544138Y-37496234D01*
X58642236Y-37615766D01*
X58672190Y-37640349D01*
X61959656Y-40927816D01*
X61984234Y-40957764D01*
X62014182Y-40982342D01*
X62014185Y-40982345D01*
X62023825Y-40990256D01*
X62103765Y-41055862D01*
X62222963Y-41119574D01*
X62240138Y-41128754D01*
X62388111Y-41173642D01*
X62463024Y-41181020D01*
X62503437Y-41185000D01*
X62503442Y-41185000D01*
X62541998Y-41188797D01*
X62580554Y-41185000D01*
X62621289Y-41185000D01*
X62640226Y-41203937D01*
X62809744Y-41317205D01*
X62998102Y-41395226D01*
X63198061Y-41435000D01*
X63401939Y-41435000D01*
X63601898Y-41395226D01*
X63790256Y-41317205D01*
X63959774Y-41203937D01*
X64103937Y-41059774D01*
X64217205Y-40890256D01*
X64295226Y-40701898D01*
X64335000Y-40501939D01*
X64335000Y-40298061D01*
X64295226Y-40098102D01*
X64285245Y-40074005D01*
X64423520Y-39981612D01*
X64581612Y-39823520D01*
X64705824Y-39637624D01*
X64791383Y-39431067D01*
X64835000Y-39211788D01*
X64835000Y-38988212D01*
X64791383Y-38768933D01*
X64705824Y-38562376D01*
X64581612Y-38376480D01*
X64423520Y-38218388D01*
X64237624Y-38094176D01*
X64031067Y-38008617D01*
X63811788Y-37965000D01*
X63588212Y-37965000D01*
X63501077Y-37982332D01*
X63535000Y-37811788D01*
X63535000Y-37588212D01*
X63491383Y-37368933D01*
X63405824Y-37162376D01*
X63281612Y-36976480D01*
X63123520Y-36818388D01*
X62937624Y-36694176D01*
X62731067Y-36608617D01*
X62578779Y-36578325D01*
X62723520Y-36481612D01*
X62881612Y-36323520D01*
X63005824Y-36137624D01*
X63091383Y-35931067D01*
X63135000Y-35711788D01*
X63135000Y-35488212D01*
X63091383Y-35268933D01*
X63005824Y-35062376D01*
X62881612Y-34876480D01*
X62755132Y-34750000D01*
X62881612Y-34623520D01*
X63005824Y-34437624D01*
X63091383Y-34231067D01*
X63135000Y-34011788D01*
X63135000Y-33788212D01*
X63165000Y-33788212D01*
X63165000Y-34011788D01*
X63208617Y-34231067D01*
X63294176Y-34437624D01*
X63418388Y-34623520D01*
X63576480Y-34781612D01*
X63762376Y-34905824D01*
X63968933Y-34991383D01*
X64188212Y-35035000D01*
X64411788Y-35035000D01*
X64631067Y-34991383D01*
X64837624Y-34905824D01*
X65023520Y-34781612D01*
X65181612Y-34623520D01*
X65305824Y-34437624D01*
X65391383Y-34231067D01*
X65435000Y-34011788D01*
X65435000Y-33788212D01*
X65391383Y-33568933D01*
X65305824Y-33362376D01*
X65181612Y-33176480D01*
X65023520Y-33018388D01*
X64837624Y-32894176D01*
X64631067Y-32808617D01*
X64411788Y-32765000D01*
X64188212Y-32765000D01*
X63968933Y-32808617D01*
X63762376Y-32894176D01*
X63576480Y-33018388D01*
X63418388Y-33176480D01*
X63294176Y-33362376D01*
X63208617Y-33568933D01*
X63165000Y-33788212D01*
X63135000Y-33788212D01*
X63091383Y-33568933D01*
X63005824Y-33362376D01*
X62881612Y-33176480D01*
X62723520Y-33018388D01*
X62537624Y-32894176D01*
X62331067Y-32808617D01*
X62111788Y-32765000D01*
X61888212Y-32765000D01*
X61668933Y-32808617D01*
X61462376Y-32894176D01*
X61276480Y-33018388D01*
X61118388Y-33176480D01*
X60994176Y-33362376D01*
X60908617Y-33568933D01*
X60865000Y-33788212D01*
X60865000Y-34011788D01*
X60908617Y-34231067D01*
X60994176Y-34437624D01*
X61118388Y-34623520D01*
X61244868Y-34750000D01*
X61118388Y-34876480D01*
X60994176Y-35062376D01*
X60908617Y-35268933D01*
X60865000Y-35488212D01*
X60865000Y-35711788D01*
X60908617Y-35931067D01*
X60994176Y-36137624D01*
X61118388Y-36323520D01*
X61276480Y-36481612D01*
X61462376Y-36605824D01*
X61668933Y-36691383D01*
X61821221Y-36721675D01*
X61676480Y-36818388D01*
X61518388Y-36976480D01*
X61394176Y-37162376D01*
X61308617Y-37368933D01*
X61265000Y-37588212D01*
X61265000Y-37811788D01*
X61308617Y-38031067D01*
X61326574Y-38074418D01*
X59985000Y-36732845D01*
X59985000Y-31000000D01*
X65823000Y-31000000D01*
X65823000Y-37000000D01*
X65825440Y-37024776D01*
X65832667Y-37048601D01*
X65844403Y-37070557D01*
X65860197Y-37089803D01*
X65879443Y-37105597D01*
X65901399Y-37117333D01*
X65925224Y-37124560D01*
X65950000Y-37127000D01*
X67823000Y-37127000D01*
X67823000Y-39700000D01*
X67825440Y-39724776D01*
X67832667Y-39748601D01*
X67844403Y-39770557D01*
X67860197Y-39789803D01*
X67879443Y-39805597D01*
X67901399Y-39817333D01*
X67925224Y-39824560D01*
X67950000Y-39827000D01*
X69023000Y-39827000D01*
X69023000Y-41450000D01*
X69025440Y-41474776D01*
X69032667Y-41498601D01*
X69044403Y-41520557D01*
X69060197Y-41539803D01*
X69079443Y-41555597D01*
X69101399Y-41567333D01*
X69125224Y-41574560D01*
X69150000Y-41577000D01*
X70600000Y-41577000D01*
X70624776Y-41574560D01*
X70648601Y-41567333D01*
X70670557Y-41555597D01*
X70689803Y-41539803D01*
X70705597Y-41520557D01*
X70717333Y-41498601D01*
X70724560Y-41474776D01*
X70727000Y-41450000D01*
X70727000Y-39898061D01*
X73565000Y-39898061D01*
X73565000Y-40101939D01*
X73604774Y-40301898D01*
X73682795Y-40490256D01*
X73796063Y-40659774D01*
X73836289Y-40700000D01*
X73796063Y-40740226D01*
X73682795Y-40909744D01*
X73604774Y-41098102D01*
X73565000Y-41298061D01*
X73565000Y-41501939D01*
X73604774Y-41701898D01*
X73682795Y-41890256D01*
X73796063Y-42059774D01*
X73940226Y-42203937D01*
X74109744Y-42317205D01*
X74298102Y-42395226D01*
X74498061Y-42435000D01*
X74701939Y-42435000D01*
X74901898Y-42395226D01*
X75090256Y-42317205D01*
X75259774Y-42203937D01*
X75403937Y-42059774D01*
X75517205Y-41890256D01*
X75595226Y-41701898D01*
X75635000Y-41501939D01*
X75635000Y-41298061D01*
X75595226Y-41098102D01*
X75517205Y-40909744D01*
X75403937Y-40740226D01*
X75363711Y-40700000D01*
X75403937Y-40659774D01*
X75517205Y-40490256D01*
X75595226Y-40301898D01*
X75635000Y-40101939D01*
X75635000Y-39898061D01*
X75595226Y-39698102D01*
X75517205Y-39509744D01*
X75403937Y-39340226D01*
X75259774Y-39196063D01*
X75090256Y-39082795D01*
X74901898Y-39004774D01*
X74701939Y-38965000D01*
X74498061Y-38965000D01*
X74298102Y-39004774D01*
X74109744Y-39082795D01*
X73940226Y-39196063D01*
X73796063Y-39340226D01*
X73682795Y-39509744D01*
X73604774Y-39698102D01*
X73565000Y-39898061D01*
X70727000Y-39898061D01*
X70727000Y-37127000D01*
X74400000Y-37127000D01*
X74424776Y-37124560D01*
X74448601Y-37117333D01*
X74470557Y-37105597D01*
X74489803Y-37089803D01*
X74505597Y-37070557D01*
X74517333Y-37048601D01*
X74524560Y-37024776D01*
X74527000Y-37000000D01*
X74527000Y-31000000D01*
X74524560Y-30975224D01*
X74517333Y-30951399D01*
X74505597Y-30929443D01*
X74489803Y-30910197D01*
X74470557Y-30894403D01*
X74448601Y-30882667D01*
X74424776Y-30875440D01*
X74400000Y-30873000D01*
X65950000Y-30873000D01*
X65925224Y-30875440D01*
X65901399Y-30882667D01*
X65879443Y-30894403D01*
X65860197Y-30910197D01*
X65844403Y-30929443D01*
X65832667Y-30951399D01*
X65825440Y-30975224D01*
X65823000Y-31000000D01*
X59985000Y-31000000D01*
X59985000Y-28698061D01*
X62265000Y-28698061D01*
X62265000Y-28901939D01*
X62304774Y-29101898D01*
X62382795Y-29290256D01*
X62496063Y-29459774D01*
X62640226Y-29603937D01*
X62809744Y-29717205D01*
X62998102Y-29795226D01*
X63198061Y-29835000D01*
X63401939Y-29835000D01*
X63601898Y-29795226D01*
X63790256Y-29717205D01*
X63959774Y-29603937D01*
X64103937Y-29459774D01*
X64217205Y-29290256D01*
X64295226Y-29101898D01*
X64335000Y-28901939D01*
X64335000Y-28698061D01*
X64295226Y-28498102D01*
X64217205Y-28309744D01*
X64103937Y-28140226D01*
X63959774Y-27996063D01*
X63790256Y-27882795D01*
X63601898Y-27804774D01*
X63401939Y-27765000D01*
X63198061Y-27765000D01*
X62998102Y-27804774D01*
X62809744Y-27882795D01*
X62640226Y-27996063D01*
X62496063Y-28140226D01*
X62382795Y-28309744D01*
X62304774Y-28498102D01*
X62265000Y-28698061D01*
X59985000Y-28698061D01*
X59985000Y-28578711D01*
X60003937Y-28559774D01*
X60117205Y-28390256D01*
X60195226Y-28201898D01*
X60235000Y-28001939D01*
X60235000Y-27798061D01*
X60195226Y-27598102D01*
X60117205Y-27409744D01*
X60003937Y-27240226D01*
X59859774Y-27096063D01*
X59690256Y-26982795D01*
X59501898Y-26904774D01*
X59301939Y-26865000D01*
X59098061Y-26865000D01*
X58898102Y-26904774D01*
X58709744Y-26982795D01*
X58620658Y-27042321D01*
X58501685Y-27078411D01*
X58347939Y-27160589D01*
X58347937Y-27160590D01*
X58347938Y-27160590D01*
X58246951Y-27243468D01*
X58246949Y-27243470D01*
X58213181Y-27271183D01*
X58185468Y-27304951D01*
X52562519Y-32927901D01*
X52503937Y-32840226D01*
X52359774Y-32696063D01*
X52190256Y-32582795D01*
X52001898Y-32504774D01*
X51801939Y-32465000D01*
X51598061Y-32465000D01*
X51398102Y-32504774D01*
X51209744Y-32582795D01*
X51040226Y-32696063D01*
X51021289Y-32715000D01*
X36918478Y-32715000D01*
X36895226Y-32598102D01*
X36817205Y-32409744D01*
X36703937Y-32240226D01*
X36559774Y-32096063D01*
X36390256Y-31982795D01*
X36201898Y-31904774D01*
X36001939Y-31865000D01*
X35798061Y-31865000D01*
X35598102Y-31904774D01*
X35409744Y-31982795D01*
X35300000Y-32056123D01*
X35190256Y-31982795D01*
X35001898Y-31904774D01*
X34801939Y-31865000D01*
X34598061Y-31865000D01*
X34398102Y-31904774D01*
X34209744Y-31982795D01*
X34040226Y-32096063D01*
X33896063Y-32240226D01*
X33782795Y-32409744D01*
X33704774Y-32598102D01*
X33665000Y-32798061D01*
X33665000Y-33001939D01*
X33704774Y-33201898D01*
X33782795Y-33390256D01*
X33896063Y-33559774D01*
X34040226Y-33703937D01*
X34209744Y-33817205D01*
X34398102Y-33895226D01*
X34598061Y-33935000D01*
X34624843Y-33935000D01*
X35377657Y-34687814D01*
X35402237Y-34717765D01*
X35432188Y-34742345D01*
X35432189Y-34742346D01*
X35521769Y-34815862D01*
X35658141Y-34888755D01*
X35806114Y-34933643D01*
X35960001Y-34948798D01*
X36113888Y-34933643D01*
X36261860Y-34888755D01*
X36398233Y-34815862D01*
X36517765Y-34717765D01*
X36542345Y-34687814D01*
X36945160Y-34285000D01*
X41465000Y-34285000D01*
X41465000Y-34461798D01*
X41508617Y-34681077D01*
X41594176Y-34887634D01*
X41718388Y-35073530D01*
X41876480Y-35231622D01*
X42062376Y-35355834D01*
X42268933Y-35441393D01*
X42488212Y-35485010D01*
X42711788Y-35485010D01*
X42931067Y-35441393D01*
X43137624Y-35355834D01*
X43323520Y-35231622D01*
X43366699Y-35188443D01*
X43409744Y-35217205D01*
X43598102Y-35295226D01*
X43798061Y-35335000D01*
X43825420Y-35335000D01*
X44206999Y-35716580D01*
X44206999Y-38265000D01*
X44098061Y-38265000D01*
X43898102Y-38304774D01*
X43709744Y-38382795D01*
X43540226Y-38496063D01*
X43396063Y-38640226D01*
X43282795Y-38809744D01*
X43204774Y-38998102D01*
X43165000Y-39198061D01*
X43165000Y-39401939D01*
X43204774Y-39601898D01*
X43282795Y-39790256D01*
X43396063Y-39959774D01*
X43415001Y-39978712D01*
X43415000Y-40715000D01*
X41612511Y-40715000D01*
X41635000Y-40601939D01*
X41635000Y-40398061D01*
X41595226Y-40198102D01*
X41517205Y-40009744D01*
X41403937Y-39840226D01*
X41259774Y-39696063D01*
X41090256Y-39582795D01*
X40901898Y-39504774D01*
X40701939Y-39465000D01*
X40675157Y-39465000D01*
X40245157Y-39035000D01*
X40401939Y-39035000D01*
X40601898Y-38995226D01*
X40790256Y-38917205D01*
X40959774Y-38803937D01*
X41103937Y-38659774D01*
X41217205Y-38490256D01*
X41295226Y-38301898D01*
X41335000Y-38101939D01*
X41335000Y-37898061D01*
X41295226Y-37698102D01*
X41217205Y-37509744D01*
X41103937Y-37340226D01*
X40959774Y-37196063D01*
X40790256Y-37082795D01*
X40601898Y-37004774D01*
X40401939Y-36965000D01*
X40198061Y-36965000D01*
X39998102Y-37004774D01*
X39809744Y-37082795D01*
X39640226Y-37196063D01*
X39496063Y-37340226D01*
X39382795Y-37509744D01*
X39304774Y-37698102D01*
X39265000Y-37898061D01*
X39265000Y-38054843D01*
X38482347Y-37272190D01*
X38457764Y-37242236D01*
X38338233Y-37144138D01*
X38201860Y-37071246D01*
X38053887Y-37026359D01*
X37938561Y-37015000D01*
X37938553Y-37015000D01*
X37900000Y-37011203D01*
X37861447Y-37015000D01*
X25078711Y-37015000D01*
X25059774Y-36996063D01*
X24890256Y-36882795D01*
X24701898Y-36804774D01*
X24501939Y-36765000D01*
X24298061Y-36765000D01*
X24098102Y-36804774D01*
X23909744Y-36882795D01*
X23740226Y-36996063D01*
X23596063Y-37140226D01*
X23482795Y-37309744D01*
X23404774Y-37498102D01*
X23365000Y-37698061D01*
X23365000Y-37901939D01*
X23404774Y-38101898D01*
X23482795Y-38290256D01*
X23489306Y-38300000D01*
X23482795Y-38309744D01*
X23404774Y-38498102D01*
X23365000Y-38698061D01*
X23365000Y-38901939D01*
X23404774Y-39101898D01*
X23482795Y-39290256D01*
X23596063Y-39459774D01*
X23740226Y-39603937D01*
X23909744Y-39717205D01*
X24098102Y-39795226D01*
X24298061Y-39835000D01*
X24501939Y-39835000D01*
X24701898Y-39795226D01*
X24890256Y-39717205D01*
X25059774Y-39603937D01*
X25078711Y-39585000D01*
X37374843Y-39585000D01*
X39817653Y-42027810D01*
X39842236Y-42057764D01*
X39961767Y-42155862D01*
X40093659Y-42226359D01*
X40098140Y-42228754D01*
X40246113Y-42273642D01*
X40321026Y-42281020D01*
X40361439Y-42285000D01*
X40361444Y-42285000D01*
X40400000Y-42288797D01*
X40438556Y-42285000D01*
X43761447Y-42285000D01*
X43800000Y-42288797D01*
X43838553Y-42285000D01*
X43838561Y-42285000D01*
X43953887Y-42273641D01*
X44101860Y-42228754D01*
X44207000Y-42172556D01*
X44207000Y-43906522D01*
X44202718Y-43950001D01*
X44219804Y-44123491D01*
X44270411Y-44290314D01*
X44352589Y-44444060D01*
X44435467Y-44545047D01*
X44435470Y-44545050D01*
X44463183Y-44578818D01*
X44496950Y-44606530D01*
X45029303Y-45138884D01*
X45004774Y-45198102D01*
X44965000Y-45398061D01*
X44965000Y-45601939D01*
X45004774Y-45801898D01*
X45082795Y-45990256D01*
X45196063Y-46159774D01*
X45340226Y-46303937D01*
X45509744Y-46417205D01*
X45698102Y-46495226D01*
X45898061Y-46535000D01*
X46101939Y-46535000D01*
X46301898Y-46495226D01*
X46490256Y-46417205D01*
X46659774Y-46303937D01*
X46803937Y-46159774D01*
X46917205Y-45990256D01*
X46995226Y-45801898D01*
X47035000Y-45601939D01*
X47035000Y-45398061D01*
X46995226Y-45198102D01*
X46917205Y-45009744D01*
X46885000Y-44961546D01*
X46885000Y-44901467D01*
X46889281Y-44858001D01*
X46885000Y-44814535D01*
X46885000Y-44814525D01*
X46872195Y-44684512D01*
X46821589Y-44517689D01*
X46739411Y-44363943D01*
X46628817Y-44229185D01*
X46595050Y-44201473D01*
X45976999Y-43583423D01*
X45976999Y-41735000D01*
X46101939Y-41735000D01*
X46301898Y-41695226D01*
X46490256Y-41617205D01*
X46659774Y-41503937D01*
X46803937Y-41359774D01*
X46917205Y-41190256D01*
X46995226Y-41001898D01*
X47035000Y-40801939D01*
X47035000Y-40598061D01*
X46995226Y-40398102D01*
X46969394Y-40335738D01*
X46981612Y-40323520D01*
X47105824Y-40137624D01*
X47191383Y-39931067D01*
X47235000Y-39711788D01*
X47235000Y-39488212D01*
X47191383Y-39268933D01*
X47105824Y-39062376D01*
X46981612Y-38876480D01*
X46823520Y-38718388D01*
X46637624Y-38594176D01*
X46431067Y-38508617D01*
X46211788Y-38465000D01*
X45988212Y-38465000D01*
X45976999Y-38467230D01*
X45976999Y-36235001D01*
X50654842Y-36235001D01*
X48022189Y-38867654D01*
X47992235Y-38892237D01*
X47894137Y-39011769D01*
X47821245Y-39148142D01*
X47776358Y-39296115D01*
X47764999Y-39411441D01*
X47764999Y-39411448D01*
X47761202Y-39450001D01*
X47764999Y-39488554D01*
X47765000Y-46521438D01*
X47761202Y-46560001D01*
X47776358Y-46713887D01*
X47821245Y-46861860D01*
X47850828Y-46917205D01*
X47894138Y-46998234D01*
X47934689Y-47047645D01*
X47967654Y-47087813D01*
X47967658Y-47087817D01*
X47992236Y-47117765D01*
X48022184Y-47142343D01*
X49094841Y-48215000D01*
X45632402Y-48215000D01*
X45635000Y-48201939D01*
X45635000Y-47998061D01*
X45595226Y-47798102D01*
X45517205Y-47609744D01*
X45403937Y-47440226D01*
X45259774Y-47296063D01*
X45090256Y-47182795D01*
X44901898Y-47104774D01*
X44701939Y-47065000D01*
X44498061Y-47065000D01*
X44298102Y-47104774D01*
X44109744Y-47182795D01*
X43940226Y-47296063D01*
X43796063Y-47440226D01*
X43682795Y-47609744D01*
X43604774Y-47798102D01*
X43565000Y-47998061D01*
X43565000Y-48201939D01*
X43567598Y-48215000D01*
X35938552Y-48215000D01*
X35899999Y-48211203D01*
X35861446Y-48215000D01*
X35861439Y-48215000D01*
X35760490Y-48224943D01*
X35746112Y-48226359D01*
X35711672Y-48236806D01*
X35598140Y-48271246D01*
X35461767Y-48344138D01*
X35436347Y-48365000D01*
X35398061Y-48365000D01*
X35198102Y-48404774D01*
X35009744Y-48482795D01*
X34840226Y-48596063D01*
X34696063Y-48740226D01*
X34582795Y-48909744D01*
X34504774Y-49098102D01*
X34465000Y-49298061D01*
X34465000Y-49501939D01*
X34504774Y-49701898D01*
X34582795Y-49890256D01*
X34648179Y-49988110D01*
X34596063Y-50040226D01*
X34482795Y-50209744D01*
X34404774Y-50398102D01*
X34365000Y-50598061D01*
X34365000Y-50801939D01*
X34404774Y-51001898D01*
X34482795Y-51190256D01*
X34596063Y-51359774D01*
X34740226Y-51503937D01*
X34909744Y-51617205D01*
X35098102Y-51695226D01*
X35298061Y-51735000D01*
X35501939Y-51735000D01*
X35701898Y-51695226D01*
X35890256Y-51617205D01*
X36059774Y-51503937D01*
X36203937Y-51359774D01*
X36317205Y-51190256D01*
X36395226Y-51001898D01*
X36435000Y-50801939D01*
X36435000Y-50775158D01*
X36575159Y-50634999D01*
X39365000Y-50634999D01*
X39365000Y-50701939D01*
X39404774Y-50901898D01*
X39482795Y-51090256D01*
X39589532Y-51250000D01*
X39482795Y-51409744D01*
X39404774Y-51598102D01*
X39365000Y-51798061D01*
X39365000Y-52001939D01*
X39404774Y-52201898D01*
X39482795Y-52390256D01*
X39596063Y-52559774D01*
X39740226Y-52703937D01*
X39909744Y-52817205D01*
X40098102Y-52895226D01*
X40298061Y-52935000D01*
X40501939Y-52935000D01*
X40701898Y-52895226D01*
X40890256Y-52817205D01*
X41059774Y-52703937D01*
X41078711Y-52685000D01*
X42584845Y-52685000D01*
X43568067Y-53668222D01*
X43496063Y-53740226D01*
X43382795Y-53909744D01*
X43304774Y-54098102D01*
X43265000Y-54298061D01*
X43265000Y-54501939D01*
X43285409Y-54604541D01*
X42769446Y-54088579D01*
X42743291Y-54056709D01*
X42616146Y-53952364D01*
X42471087Y-53874828D01*
X42313689Y-53827082D01*
X42191019Y-53815000D01*
X42191018Y-53815000D01*
X42150000Y-53810960D01*
X42108982Y-53815000D01*
X34345869Y-53815000D01*
X27265866Y-46734999D01*
X28483421Y-46734999D01*
X29966190Y-48217768D01*
X30008617Y-48431067D01*
X30094176Y-48637624D01*
X30218388Y-48823520D01*
X30376480Y-48981612D01*
X30562376Y-49105824D01*
X30768933Y-49191383D01*
X30988212Y-49235000D01*
X31211788Y-49235000D01*
X31431067Y-49191383D01*
X31637624Y-49105824D01*
X31823520Y-48981612D01*
X31981612Y-48823520D01*
X32105824Y-48637624D01*
X32191383Y-48431067D01*
X32235000Y-48211788D01*
X32235000Y-47988212D01*
X32191383Y-47768933D01*
X32105824Y-47562376D01*
X31981612Y-47376480D01*
X31823520Y-47218388D01*
X31637624Y-47094176D01*
X31431067Y-47008617D01*
X31217768Y-46966190D01*
X29506533Y-45254955D01*
X29478816Y-45221182D01*
X29344058Y-45110588D01*
X29190312Y-45028410D01*
X29023489Y-44977804D01*
X28893476Y-44964999D01*
X28893468Y-44964999D01*
X28849999Y-44960718D01*
X28806530Y-44964999D01*
X24035464Y-44964999D01*
X23991998Y-44960718D01*
X23948532Y-44964999D01*
X23948522Y-44964999D01*
X23818509Y-44977804D01*
X23651686Y-45028410D01*
X23497940Y-45110588D01*
X23497938Y-45110589D01*
X23497939Y-45110589D01*
X23396952Y-45193467D01*
X23396950Y-45193469D01*
X23363182Y-45221182D01*
X23335469Y-45254950D01*
X21904956Y-46685464D01*
X21871183Y-46713181D01*
X21760589Y-46847940D01*
X21678411Y-47001686D01*
X21627805Y-47168509D01*
X21615000Y-47298522D01*
X21615000Y-47298529D01*
X21610719Y-47341998D01*
X21615000Y-47385467D01*
X21615000Y-54267598D01*
X21601939Y-54265000D01*
X21398061Y-54265000D01*
X21198102Y-54304774D01*
X21009744Y-54382795D01*
X20840226Y-54496063D01*
X20696063Y-54640226D01*
X20660000Y-54694198D01*
X20660000Y-34098061D01*
X30564996Y-34098061D01*
X30564996Y-34301939D01*
X30604770Y-34501898D01*
X30682791Y-34690256D01*
X30796059Y-34859774D01*
X30940222Y-35003937D01*
X31109740Y-35117205D01*
X31298098Y-35195226D01*
X31498057Y-35235000D01*
X31701935Y-35235000D01*
X31901894Y-35195226D01*
X32090252Y-35117205D01*
X32259770Y-35003937D01*
X32403933Y-34859774D01*
X32517201Y-34690256D01*
X32595222Y-34501898D01*
X32634996Y-34301939D01*
X32634996Y-34098061D01*
X32595222Y-33898102D01*
X32517201Y-33709744D01*
X32403933Y-33540226D01*
X32259770Y-33396063D01*
X32090252Y-33282795D01*
X31901894Y-33204774D01*
X31701935Y-33165000D01*
X31498057Y-33165000D01*
X31298098Y-33204774D01*
X31109740Y-33282795D01*
X30940222Y-33396063D01*
X30796059Y-33540226D01*
X30682791Y-33709744D01*
X30604770Y-33898102D01*
X30564996Y-34098061D01*
X20660000Y-34098061D01*
X20660000Y-26027089D01*
X20702188Y-25513945D01*
X21065000Y-25513945D01*
X21065000Y-26486055D01*
X21254650Y-27439486D01*
X21626660Y-28337599D01*
X22166735Y-29145879D01*
X22854121Y-29833265D01*
X23662401Y-30373340D01*
X24560514Y-30745350D01*
X25513945Y-30935000D01*
X26486055Y-30935000D01*
X26721273Y-30888212D01*
X37065000Y-30888212D01*
X37065000Y-31111788D01*
X37108617Y-31331067D01*
X37194176Y-31537624D01*
X37318388Y-31723520D01*
X37476480Y-31881612D01*
X37662376Y-32005824D01*
X37868933Y-32091383D01*
X38088212Y-32135000D01*
X38311788Y-32135000D01*
X38531067Y-32091383D01*
X38737624Y-32005824D01*
X38923520Y-31881612D01*
X39081612Y-31723520D01*
X39205824Y-31537624D01*
X39291383Y-31331067D01*
X39335000Y-31111788D01*
X39335000Y-30888212D01*
X41465000Y-30888212D01*
X41465000Y-31111788D01*
X41508617Y-31331067D01*
X41594176Y-31537624D01*
X41718388Y-31723520D01*
X41876480Y-31881612D01*
X42062376Y-32005824D01*
X42268933Y-32091383D01*
X42488212Y-32135000D01*
X42711788Y-32135000D01*
X42931067Y-32091383D01*
X43137624Y-32005824D01*
X43323520Y-31881612D01*
X43481612Y-31723520D01*
X43605824Y-31537624D01*
X43691383Y-31331067D01*
X43735000Y-31111788D01*
X43735000Y-30888212D01*
X43691383Y-30668933D01*
X43605824Y-30462376D01*
X43481612Y-30276480D01*
X43323520Y-30118388D01*
X43137624Y-29994176D01*
X42931067Y-29908617D01*
X42711788Y-29865000D01*
X42488212Y-29865000D01*
X42268933Y-29908617D01*
X42062376Y-29994176D01*
X41876480Y-30118388D01*
X41718388Y-30276480D01*
X41594176Y-30462376D01*
X41508617Y-30668933D01*
X41465000Y-30888212D01*
X39335000Y-30888212D01*
X39291383Y-30668933D01*
X39205824Y-30462376D01*
X39081612Y-30276480D01*
X38923520Y-30118388D01*
X38737624Y-29994176D01*
X38531067Y-29908617D01*
X38311788Y-29865000D01*
X38088212Y-29865000D01*
X37868933Y-29908617D01*
X37662376Y-29994176D01*
X37476480Y-30118388D01*
X37318388Y-30276480D01*
X37194176Y-30462376D01*
X37108617Y-30668933D01*
X37065000Y-30888212D01*
X26721273Y-30888212D01*
X27439486Y-30745350D01*
X28337599Y-30373340D01*
X29145879Y-29833265D01*
X29833265Y-29145879D01*
X30373340Y-28337599D01*
X30745350Y-27439486D01*
X30874896Y-26788212D01*
X32565000Y-26788212D01*
X32565000Y-27011788D01*
X32608617Y-27231067D01*
X32694176Y-27437624D01*
X32818388Y-27623520D01*
X32976480Y-27781612D01*
X33162376Y-27905824D01*
X33368933Y-27991383D01*
X33588212Y-28035000D01*
X33811788Y-28035000D01*
X34031067Y-27991383D01*
X34237624Y-27905824D01*
X34423520Y-27781612D01*
X34581612Y-27623520D01*
X34705824Y-27437624D01*
X34752507Y-27324922D01*
X34818388Y-27423520D01*
X34976480Y-27581612D01*
X35162376Y-27705824D01*
X35368933Y-27791383D01*
X35588212Y-27835000D01*
X35811788Y-27835000D01*
X36031067Y-27791383D01*
X36237624Y-27705824D01*
X36423520Y-27581612D01*
X36581612Y-27423520D01*
X36705824Y-27237624D01*
X36791383Y-27031067D01*
X36835000Y-26811788D01*
X36835000Y-26588212D01*
X36823062Y-26528194D01*
X36876480Y-26581612D01*
X37062376Y-26705824D01*
X37175057Y-26752498D01*
X37204774Y-26901898D01*
X37282795Y-27090256D01*
X37396063Y-27259774D01*
X37540226Y-27403937D01*
X37709744Y-27517205D01*
X37898102Y-27595226D01*
X38065000Y-27628424D01*
X38065000Y-27811788D01*
X38108617Y-28031067D01*
X38194176Y-28237624D01*
X38318388Y-28423520D01*
X38476480Y-28581612D01*
X38662376Y-28705824D01*
X38868933Y-28791383D01*
X39088212Y-28835000D01*
X39311788Y-28835000D01*
X39531067Y-28791383D01*
X39737624Y-28705824D01*
X39923520Y-28581612D01*
X40081612Y-28423520D01*
X40205824Y-28237624D01*
X40247001Y-28138212D01*
X48765000Y-28138212D01*
X48765000Y-28361788D01*
X48808617Y-28581067D01*
X48894176Y-28787624D01*
X49018388Y-28973520D01*
X49176480Y-29131612D01*
X49362376Y-29255824D01*
X49568933Y-29341383D01*
X49788212Y-29385000D01*
X50011788Y-29385000D01*
X50231067Y-29341383D01*
X50437624Y-29255824D01*
X50500000Y-29214146D01*
X50562376Y-29255824D01*
X50768933Y-29341383D01*
X50988212Y-29385000D01*
X51211788Y-29385000D01*
X51431067Y-29341383D01*
X51637624Y-29255824D01*
X51823520Y-29131612D01*
X51981612Y-28973520D01*
X52105824Y-28787624D01*
X52191383Y-28581067D01*
X52235000Y-28361788D01*
X52235000Y-28138212D01*
X52191383Y-27918933D01*
X52105824Y-27712376D01*
X51981612Y-27526480D01*
X51823520Y-27368388D01*
X51637624Y-27244176D01*
X51431067Y-27158617D01*
X51211788Y-27115000D01*
X50988212Y-27115000D01*
X50768933Y-27158617D01*
X50562376Y-27244176D01*
X50500000Y-27285854D01*
X50437624Y-27244176D01*
X50231067Y-27158617D01*
X50011788Y-27115000D01*
X49788212Y-27115000D01*
X49568933Y-27158617D01*
X49362376Y-27244176D01*
X49176480Y-27368388D01*
X49018388Y-27526480D01*
X48894176Y-27712376D01*
X48808617Y-27918933D01*
X48765000Y-28138212D01*
X40247001Y-28138212D01*
X40291383Y-28031067D01*
X40335000Y-27811788D01*
X40335000Y-27588212D01*
X40291383Y-27368933D01*
X40205824Y-27162376D01*
X40081612Y-26976480D01*
X39923520Y-26818388D01*
X39737624Y-26694176D01*
X39531067Y-26608617D01*
X39311788Y-26565000D01*
X39235000Y-26565000D01*
X39235000Y-26498061D01*
X39213150Y-26388212D01*
X40565000Y-26388212D01*
X40565000Y-26611788D01*
X40608617Y-26831067D01*
X40694176Y-27037624D01*
X40818388Y-27223520D01*
X40976480Y-27381612D01*
X41162376Y-27505824D01*
X41368933Y-27591383D01*
X41588212Y-27635000D01*
X41811788Y-27635000D01*
X42031067Y-27591383D01*
X42237624Y-27505824D01*
X42423520Y-27381612D01*
X42581612Y-27223520D01*
X42705824Y-27037624D01*
X42791383Y-26831067D01*
X42835000Y-26611788D01*
X42835000Y-26388212D01*
X42804524Y-26235000D01*
X43011788Y-26235000D01*
X43231067Y-26191383D01*
X43437624Y-26105824D01*
X43623520Y-25981612D01*
X43781612Y-25823520D01*
X43905824Y-25637624D01*
X43991383Y-25431067D01*
X44035000Y-25211788D01*
X44035000Y-24988212D01*
X43991383Y-24768933D01*
X43905824Y-24562376D01*
X43781612Y-24376480D01*
X43623520Y-24218388D01*
X43437624Y-24094176D01*
X43231067Y-24008617D01*
X43011788Y-23965000D01*
X42788212Y-23965000D01*
X42568933Y-24008617D01*
X42362376Y-24094176D01*
X42176480Y-24218388D01*
X42018388Y-24376480D01*
X41894176Y-24562376D01*
X41808617Y-24768933D01*
X41765000Y-24988212D01*
X41765000Y-25211788D01*
X41795476Y-25365000D01*
X41588212Y-25365000D01*
X41368933Y-25408617D01*
X41162376Y-25494176D01*
X40976480Y-25618388D01*
X40818388Y-25776480D01*
X40694176Y-25962376D01*
X40608617Y-26168933D01*
X40565000Y-26388212D01*
X39213150Y-26388212D01*
X39195226Y-26298102D01*
X39117205Y-26109744D01*
X39003937Y-25940226D01*
X38859774Y-25796063D01*
X38735000Y-25712692D01*
X38735000Y-25588212D01*
X38691383Y-25368933D01*
X38605824Y-25162376D01*
X38481612Y-24976480D01*
X38455132Y-24950000D01*
X38481612Y-24923520D01*
X38605824Y-24737624D01*
X38691383Y-24531067D01*
X38735000Y-24311788D01*
X38735000Y-24088212D01*
X38691383Y-23868933D01*
X38605824Y-23662376D01*
X38481612Y-23476480D01*
X38323520Y-23318388D01*
X38137624Y-23194176D01*
X37931067Y-23108617D01*
X37711788Y-23065000D01*
X37488212Y-23065000D01*
X37268933Y-23108617D01*
X37062376Y-23194176D01*
X36876480Y-23318388D01*
X36718388Y-23476480D01*
X36594176Y-23662376D01*
X36508617Y-23868933D01*
X36465000Y-24088212D01*
X36465000Y-24311788D01*
X36508617Y-24531067D01*
X36594176Y-24737624D01*
X36718388Y-24923520D01*
X36744868Y-24950000D01*
X36718388Y-24976480D01*
X36594176Y-25162376D01*
X36508617Y-25368933D01*
X36465000Y-25588212D01*
X36465000Y-25811788D01*
X36476938Y-25871806D01*
X36423520Y-25818388D01*
X36237624Y-25694176D01*
X36031067Y-25608617D01*
X35811788Y-25565000D01*
X35588212Y-25565000D01*
X35368933Y-25608617D01*
X35162376Y-25694176D01*
X34976480Y-25818388D01*
X34818388Y-25976480D01*
X34694176Y-26162376D01*
X34647493Y-26275078D01*
X34581612Y-26176480D01*
X34423520Y-26018388D01*
X34237624Y-25894176D01*
X34031067Y-25808617D01*
X33811788Y-25765000D01*
X33588212Y-25765000D01*
X33368933Y-25808617D01*
X33162376Y-25894176D01*
X32976480Y-26018388D01*
X32818388Y-26176480D01*
X32694176Y-26362376D01*
X32608617Y-26568933D01*
X32565000Y-26788212D01*
X30874896Y-26788212D01*
X30935000Y-26486055D01*
X30935000Y-25513945D01*
X30745350Y-24560514D01*
X30373340Y-23662401D01*
X29833265Y-22854121D01*
X29145879Y-22166735D01*
X28729040Y-21888212D01*
X42065000Y-21888212D01*
X42065000Y-22111788D01*
X42108617Y-22331067D01*
X42194176Y-22537624D01*
X42318388Y-22723520D01*
X42476480Y-22881612D01*
X42662376Y-23005824D01*
X42868933Y-23091383D01*
X43088212Y-23135000D01*
X43311788Y-23135000D01*
X43531067Y-23091383D01*
X43737624Y-23005824D01*
X43923520Y-22881612D01*
X44081612Y-22723520D01*
X44205824Y-22537624D01*
X44242119Y-22450000D01*
X45911928Y-22450000D01*
X45911928Y-24150000D01*
X45924188Y-24274482D01*
X45960498Y-24394180D01*
X46019463Y-24504494D01*
X46098815Y-24601185D01*
X46195506Y-24680537D01*
X46305820Y-24739502D01*
X46425518Y-24775812D01*
X46550000Y-24788072D01*
X48250000Y-24788072D01*
X48374482Y-24775812D01*
X48494180Y-24739502D01*
X48604494Y-24680537D01*
X48701185Y-24601185D01*
X48780537Y-24504494D01*
X48839502Y-24394180D01*
X48861513Y-24321620D01*
X48993368Y-24453475D01*
X49236589Y-24615990D01*
X49506842Y-24727932D01*
X49793740Y-24785000D01*
X50086260Y-24785000D01*
X50373158Y-24727932D01*
X50643411Y-24615990D01*
X50886632Y-24453475D01*
X51093475Y-24246632D01*
X51210000Y-24072240D01*
X51326525Y-24246632D01*
X51533368Y-24453475D01*
X51776589Y-24615990D01*
X52046842Y-24727932D01*
X52333740Y-24785000D01*
X52626260Y-24785000D01*
X52913158Y-24727932D01*
X53183411Y-24615990D01*
X53426632Y-24453475D01*
X53633475Y-24246632D01*
X53750000Y-24072240D01*
X53866525Y-24246632D01*
X54073368Y-24453475D01*
X54316589Y-24615990D01*
X54586842Y-24727932D01*
X54873740Y-24785000D01*
X55166260Y-24785000D01*
X55453158Y-24727932D01*
X55723411Y-24615990D01*
X55966632Y-24453475D01*
X56173475Y-24246632D01*
X56335990Y-24003411D01*
X56447932Y-23733158D01*
X56505000Y-23446260D01*
X56505000Y-23153740D01*
X56447932Y-22866842D01*
X56335990Y-22596589D01*
X56238043Y-22450000D01*
X57711928Y-22450000D01*
X57711928Y-24150000D01*
X57724188Y-24274482D01*
X57760498Y-24394180D01*
X57819463Y-24504494D01*
X57898815Y-24601185D01*
X57995506Y-24680537D01*
X58105820Y-24739502D01*
X58225518Y-24775812D01*
X58350000Y-24788072D01*
X60050000Y-24788072D01*
X60174482Y-24775812D01*
X60294180Y-24739502D01*
X60404494Y-24680537D01*
X60501185Y-24601185D01*
X60580537Y-24504494D01*
X60639502Y-24394180D01*
X60661513Y-24321620D01*
X60793368Y-24453475D01*
X61036589Y-24615990D01*
X61306842Y-24727932D01*
X61593740Y-24785000D01*
X61886260Y-24785000D01*
X62173158Y-24727932D01*
X62443411Y-24615990D01*
X62686632Y-24453475D01*
X62893475Y-24246632D01*
X63055990Y-24003411D01*
X63167932Y-23733158D01*
X63225000Y-23446260D01*
X63225000Y-23153740D01*
X63167932Y-22866842D01*
X63055990Y-22596589D01*
X62958043Y-22450000D01*
X64386928Y-22450000D01*
X64386928Y-24150000D01*
X64399188Y-24274482D01*
X64435498Y-24394180D01*
X64494463Y-24504494D01*
X64573815Y-24601185D01*
X64670506Y-24680537D01*
X64780820Y-24739502D01*
X64900518Y-24775812D01*
X65025000Y-24788072D01*
X66725000Y-24788072D01*
X66849482Y-24775812D01*
X66969180Y-24739502D01*
X67079494Y-24680537D01*
X67176185Y-24601185D01*
X67255537Y-24504494D01*
X67314502Y-24394180D01*
X67336513Y-24321620D01*
X67468368Y-24453475D01*
X67711589Y-24615990D01*
X67981842Y-24727932D01*
X68268740Y-24785000D01*
X68561260Y-24785000D01*
X68848158Y-24727932D01*
X69118411Y-24615990D01*
X69361632Y-24453475D01*
X69568475Y-24246632D01*
X69730990Y-24003411D01*
X69842932Y-23733158D01*
X69900000Y-23446260D01*
X69900000Y-23153740D01*
X69842932Y-22866842D01*
X69730990Y-22596589D01*
X69666452Y-22500000D01*
X71371928Y-22500000D01*
X71371928Y-24200000D01*
X71384188Y-24324482D01*
X71420498Y-24444180D01*
X71479463Y-24554494D01*
X71558815Y-24651185D01*
X71655506Y-24730537D01*
X71765820Y-24789502D01*
X71885518Y-24825812D01*
X72010000Y-24838072D01*
X73710000Y-24838072D01*
X73834482Y-24825812D01*
X73954180Y-24789502D01*
X74064494Y-24730537D01*
X74161185Y-24651185D01*
X74240537Y-24554494D01*
X74299502Y-24444180D01*
X74321513Y-24371620D01*
X74453368Y-24503475D01*
X74696589Y-24665990D01*
X74966842Y-24777932D01*
X75253740Y-24835000D01*
X75546260Y-24835000D01*
X75833158Y-24777932D01*
X76103411Y-24665990D01*
X76346632Y-24503475D01*
X76553475Y-24296632D01*
X76715990Y-24053411D01*
X76827932Y-23783158D01*
X76866709Y-23588212D01*
X84665000Y-23588212D01*
X84665000Y-23811788D01*
X84708617Y-24031067D01*
X84794176Y-24237624D01*
X84918388Y-24423520D01*
X85076480Y-24581612D01*
X85262376Y-24705824D01*
X85468933Y-24791383D01*
X85688212Y-24835000D01*
X85911788Y-24835000D01*
X86131067Y-24791383D01*
X86337624Y-24705824D01*
X86523520Y-24581612D01*
X86681612Y-24423520D01*
X86805824Y-24237624D01*
X86891383Y-24031067D01*
X86935000Y-23811788D01*
X86935000Y-23588212D01*
X86891383Y-23368933D01*
X86805824Y-23162376D01*
X86681612Y-22976480D01*
X86523520Y-22818388D01*
X86337624Y-22694176D01*
X86131067Y-22608617D01*
X85911788Y-22565000D01*
X85688212Y-22565000D01*
X85468933Y-22608617D01*
X85262376Y-22694176D01*
X85076480Y-22818388D01*
X84918388Y-22976480D01*
X84794176Y-23162376D01*
X84708617Y-23368933D01*
X84665000Y-23588212D01*
X76866709Y-23588212D01*
X76885000Y-23496260D01*
X76885000Y-23203740D01*
X76827932Y-22916842D01*
X76715990Y-22646589D01*
X76553475Y-22403368D01*
X76346632Y-22196525D01*
X76103411Y-22034010D01*
X75833158Y-21922068D01*
X75546260Y-21865000D01*
X75253740Y-21865000D01*
X74966842Y-21922068D01*
X74696589Y-22034010D01*
X74453368Y-22196525D01*
X74321513Y-22328380D01*
X74299502Y-22255820D01*
X74240537Y-22145506D01*
X74161185Y-22048815D01*
X74064494Y-21969463D01*
X73954180Y-21910498D01*
X73834482Y-21874188D01*
X73710000Y-21861928D01*
X72010000Y-21861928D01*
X71885518Y-21874188D01*
X71765820Y-21910498D01*
X71655506Y-21969463D01*
X71558815Y-22048815D01*
X71479463Y-22145506D01*
X71420498Y-22255820D01*
X71384188Y-22375518D01*
X71371928Y-22500000D01*
X69666452Y-22500000D01*
X69568475Y-22353368D01*
X69361632Y-22146525D01*
X69118411Y-21984010D01*
X68848158Y-21872068D01*
X68561260Y-21815000D01*
X68268740Y-21815000D01*
X67981842Y-21872068D01*
X67711589Y-21984010D01*
X67468368Y-22146525D01*
X67336513Y-22278380D01*
X67314502Y-22205820D01*
X67255537Y-22095506D01*
X67176185Y-21998815D01*
X67079494Y-21919463D01*
X66969180Y-21860498D01*
X66849482Y-21824188D01*
X66725000Y-21811928D01*
X65025000Y-21811928D01*
X64900518Y-21824188D01*
X64780820Y-21860498D01*
X64670506Y-21919463D01*
X64573815Y-21998815D01*
X64494463Y-22095506D01*
X64435498Y-22205820D01*
X64399188Y-22325518D01*
X64386928Y-22450000D01*
X62958043Y-22450000D01*
X62893475Y-22353368D01*
X62686632Y-22146525D01*
X62443411Y-21984010D01*
X62173158Y-21872068D01*
X61886260Y-21815000D01*
X61593740Y-21815000D01*
X61306842Y-21872068D01*
X61036589Y-21984010D01*
X60793368Y-22146525D01*
X60661513Y-22278380D01*
X60639502Y-22205820D01*
X60580537Y-22095506D01*
X60501185Y-21998815D01*
X60404494Y-21919463D01*
X60294180Y-21860498D01*
X60174482Y-21824188D01*
X60050000Y-21811928D01*
X58350000Y-21811928D01*
X58225518Y-21824188D01*
X58105820Y-21860498D01*
X57995506Y-21919463D01*
X57898815Y-21998815D01*
X57819463Y-22095506D01*
X57760498Y-22205820D01*
X57724188Y-22325518D01*
X57711928Y-22450000D01*
X56238043Y-22450000D01*
X56173475Y-22353368D01*
X55966632Y-22146525D01*
X55723411Y-21984010D01*
X55453158Y-21872068D01*
X55166260Y-21815000D01*
X54873740Y-21815000D01*
X54586842Y-21872068D01*
X54316589Y-21984010D01*
X54073368Y-22146525D01*
X53866525Y-22353368D01*
X53750000Y-22527760D01*
X53633475Y-22353368D01*
X53426632Y-22146525D01*
X53183411Y-21984010D01*
X52913158Y-21872068D01*
X52626260Y-21815000D01*
X52333740Y-21815000D01*
X52046842Y-21872068D01*
X51776589Y-21984010D01*
X51533368Y-22146525D01*
X51326525Y-22353368D01*
X51210000Y-22527760D01*
X51093475Y-22353368D01*
X50886632Y-22146525D01*
X50643411Y-21984010D01*
X50373158Y-21872068D01*
X50086260Y-21815000D01*
X49793740Y-21815000D01*
X49506842Y-21872068D01*
X49236589Y-21984010D01*
X48993368Y-22146525D01*
X48861513Y-22278380D01*
X48839502Y-22205820D01*
X48780537Y-22095506D01*
X48701185Y-21998815D01*
X48604494Y-21919463D01*
X48494180Y-21860498D01*
X48374482Y-21824188D01*
X48250000Y-21811928D01*
X46550000Y-21811928D01*
X46425518Y-21824188D01*
X46305820Y-21860498D01*
X46195506Y-21919463D01*
X46098815Y-21998815D01*
X46019463Y-22095506D01*
X45960498Y-22205820D01*
X45924188Y-22325518D01*
X45911928Y-22450000D01*
X44242119Y-22450000D01*
X44291383Y-22331067D01*
X44335000Y-22111788D01*
X44335000Y-21888212D01*
X44291383Y-21668933D01*
X44205824Y-21462376D01*
X44081612Y-21276480D01*
X43923520Y-21118388D01*
X43737624Y-20994176D01*
X43531067Y-20908617D01*
X43311788Y-20865000D01*
X43088212Y-20865000D01*
X42868933Y-20908617D01*
X42662376Y-20994176D01*
X42476480Y-21118388D01*
X42318388Y-21276480D01*
X42194176Y-21462376D01*
X42108617Y-21668933D01*
X42065000Y-21888212D01*
X28729040Y-21888212D01*
X28337599Y-21626660D01*
X27439486Y-21254650D01*
X26486055Y-21065000D01*
X25513945Y-21065000D01*
X24560514Y-21254650D01*
X23662401Y-21626660D01*
X22854121Y-22166735D01*
X22166735Y-22854121D01*
X21626660Y-23662401D01*
X21254650Y-24560514D01*
X21065000Y-25513945D01*
X20702188Y-25513945D01*
X20733902Y-25128203D01*
X20947001Y-24279818D01*
X21295803Y-23477629D01*
X21770938Y-22743182D01*
X22359646Y-22096202D01*
X23046125Y-21554054D01*
X23811928Y-21131308D01*
X24636491Y-20839316D01*
X25509076Y-20683884D01*
X26015547Y-20660000D01*
X98047911Y-20660000D01*
X98946797Y-20733902D01*
G36*
X49521235Y-44675347D02*
G01*
X49476348Y-44823320D01*
X49461192Y-44977206D01*
X49464990Y-45015768D01*
X49464989Y-46364834D01*
X49334999Y-46234844D01*
X49334999Y-44635000D01*
X49501939Y-44635000D01*
X49547662Y-44625905D01*
X49521235Y-44675347D01*
G37*
X49521235Y-44675347D02*
X49476348Y-44823320D01*
X49461192Y-44977206D01*
X49464990Y-45015768D01*
X49464989Y-46364834D01*
X49334999Y-46234844D01*
X49334999Y-44635000D01*
X49501939Y-44635000D01*
X49547662Y-44625905D01*
X49521235Y-44675347D01*
G36*
X52262376Y-37805824D02*
G01*
X52468933Y-37891383D01*
X52688212Y-37935000D01*
X52865002Y-37935000D01*
X52865001Y-41424842D01*
X51424843Y-42865000D01*
X51398061Y-42865000D01*
X51198102Y-42904774D01*
X51009744Y-42982795D01*
X50840226Y-43096063D01*
X50696063Y-43240226D01*
X50582795Y-43409744D01*
X50504774Y-43598102D01*
X50501258Y-43615780D01*
X50435000Y-43682037D01*
X50435000Y-43498061D01*
X50395226Y-43298102D01*
X50317205Y-43109744D01*
X50203937Y-42940226D01*
X50059774Y-42796063D01*
X49890256Y-42682795D01*
X49701898Y-42604774D01*
X49501939Y-42565000D01*
X49334999Y-42565000D01*
X49334999Y-39775158D01*
X50405795Y-38704362D01*
X50482795Y-38890256D01*
X50596063Y-39059774D01*
X50740226Y-39203937D01*
X50909744Y-39317205D01*
X51098102Y-39395226D01*
X51298061Y-39435000D01*
X51501939Y-39435000D01*
X51701898Y-39395226D01*
X51890256Y-39317205D01*
X52059774Y-39203937D01*
X52203937Y-39059774D01*
X52317205Y-38890256D01*
X52395226Y-38701898D01*
X52435000Y-38501939D01*
X52435000Y-38298061D01*
X52395226Y-38098102D01*
X52317205Y-37909744D01*
X52235986Y-37788191D01*
X52262376Y-37805824D01*
G37*
X52262376Y-37805824D02*
X52468933Y-37891383D01*
X52688212Y-37935000D01*
X52865002Y-37935000D01*
X52865001Y-41424842D01*
X51424843Y-42865000D01*
X51398061Y-42865000D01*
X51198102Y-42904774D01*
X51009744Y-42982795D01*
X50840226Y-43096063D01*
X50696063Y-43240226D01*
X50582795Y-43409744D01*
X50504774Y-43598102D01*
X50501258Y-43615780D01*
X50435000Y-43682037D01*
X50435000Y-43498061D01*
X50395226Y-43298102D01*
X50317205Y-43109744D01*
X50203937Y-42940226D01*
X50059774Y-42796063D01*
X49890256Y-42682795D01*
X49701898Y-42604774D01*
X49501939Y-42565000D01*
X49334999Y-42565000D01*
X49334999Y-39775158D01*
X50405795Y-38704362D01*
X50482795Y-38890256D01*
X50596063Y-39059774D01*
X50740226Y-39203937D01*
X50909744Y-39317205D01*
X51098102Y-39395226D01*
X51298061Y-39435000D01*
X51501939Y-39435000D01*
X51701898Y-39395226D01*
X51890256Y-39317205D01*
X52059774Y-39203937D01*
X52203937Y-39059774D01*
X52317205Y-38890256D01*
X52395226Y-38701898D01*
X52435000Y-38501939D01*
X52435000Y-38298061D01*
X52395226Y-38098102D01*
X52317205Y-37909744D01*
X52235986Y-37788191D01*
X52262376Y-37805824D01*
G36*
X51040226Y-34303937D02*
G01*
X51127901Y-34362519D01*
X51025419Y-34465001D01*
X45458578Y-34465001D01*
X45278577Y-34285000D01*
X51021289Y-34285000D01*
X51040226Y-34303937D01*
G37*
X51040226Y-34303937D02*
X51127901Y-34362519D01*
X51025419Y-34465001D01*
X45458578Y-34465001D01*
X45278577Y-34285000D01*
X51021289Y-34285000D01*
X51040226Y-34303937D01*
M02*
