G04 #@! TF.GenerationSoftware,KiCad,Pcbnew,(5.1.6)-1*
G04 #@! TF.CreationDate,2020-06-29T22:16:51+02:00*
G04 #@! TF.ProjectId,SensorArray,53656e73-6f72-4417-9272-61792e6b6963,rev?*
G04 #@! TF.SameCoordinates,Original*
G04 #@! TF.FileFunction,Legend,Bot*
G04 #@! TF.FilePolarity,Positive*
%FSLAX46Y46*%
G04 Gerber Fmt 4.6, Leading zero omitted, Abs format (unit mm)*
G04 Created by KiCad (PCBNEW (5.1.6)-1) date 2020-06-29 22:16:51*
%MOMM*%
%LPD*%
G01*
G04 APERTURE LIST*
%ADD10C,0.200000*%
%ADD11C,0.150000*%
G04 APERTURE END LIST*
D10*
X98228571Y-33285714D02*
X96728571Y-33285714D01*
X98228571Y-33928571D02*
X97442857Y-33928571D01*
X97300000Y-33857142D01*
X97228571Y-33714285D01*
X97228571Y-33500000D01*
X97300000Y-33357142D01*
X97371428Y-33285714D01*
X97228571Y-34428571D02*
X97228571Y-34999999D01*
X96728571Y-34642857D02*
X98014285Y-34642857D01*
X98157142Y-34714285D01*
X98228571Y-34857142D01*
X98228571Y-34999999D01*
X97228571Y-35285714D02*
X97228571Y-35857142D01*
X96728571Y-35500000D02*
X98014285Y-35500000D01*
X98157142Y-35571428D01*
X98228571Y-35714285D01*
X98228571Y-35857142D01*
X97228571Y-36357142D02*
X98728571Y-36357142D01*
X97300000Y-36357142D02*
X97228571Y-36500000D01*
X97228571Y-36785714D01*
X97300000Y-36928571D01*
X97371428Y-37000000D01*
X97514285Y-37071428D01*
X97942857Y-37071428D01*
X98085714Y-37000000D01*
X98157142Y-36928571D01*
X98228571Y-36785714D01*
X98228571Y-36500000D01*
X98157142Y-36357142D01*
X98157142Y-37642857D02*
X98228571Y-37785714D01*
X98228571Y-38071428D01*
X98157142Y-38214285D01*
X98014285Y-38285714D01*
X97942857Y-38285714D01*
X97800000Y-38214285D01*
X97728571Y-38071428D01*
X97728571Y-37857142D01*
X97657142Y-37714285D01*
X97514285Y-37642857D01*
X97442857Y-37642857D01*
X97300000Y-37714285D01*
X97228571Y-37857142D01*
X97228571Y-38071428D01*
X97300000Y-38214285D01*
X98085714Y-38928571D02*
X98157142Y-39000000D01*
X98228571Y-38928571D01*
X98157142Y-38857142D01*
X98085714Y-38928571D01*
X98228571Y-38928571D01*
X97300000Y-38928571D02*
X97371428Y-39000000D01*
X97442857Y-38928571D01*
X97371428Y-38857142D01*
X97300000Y-38928571D01*
X97442857Y-38928571D01*
X96657142Y-40714285D02*
X98585714Y-39428571D01*
X96657142Y-42285714D02*
X98585714Y-40999999D01*
X97228571Y-43428571D02*
X98442857Y-43428571D01*
X98585714Y-43357142D01*
X98657142Y-43285714D01*
X98728571Y-43142857D01*
X98728571Y-42928571D01*
X98657142Y-42785714D01*
X98157142Y-43428571D02*
X98228571Y-43285714D01*
X98228571Y-42999999D01*
X98157142Y-42857142D01*
X98085714Y-42785714D01*
X97942857Y-42714285D01*
X97514285Y-42714285D01*
X97371428Y-42785714D01*
X97300000Y-42857142D01*
X97228571Y-42999999D01*
X97228571Y-43285714D01*
X97300000Y-43428571D01*
X98228571Y-44142857D02*
X97228571Y-44142857D01*
X96728571Y-44142857D02*
X96800000Y-44071428D01*
X96871428Y-44142857D01*
X96800000Y-44214285D01*
X96728571Y-44142857D01*
X96871428Y-44142857D01*
X97228571Y-44642857D02*
X97228571Y-45214285D01*
X96728571Y-44857142D02*
X98014285Y-44857142D01*
X98157142Y-44928571D01*
X98228571Y-45071428D01*
X98228571Y-45214285D01*
X98228571Y-45714285D02*
X96728571Y-45714285D01*
X98228571Y-46357142D02*
X97442857Y-46357142D01*
X97300000Y-46285714D01*
X97228571Y-46142857D01*
X97228571Y-45928571D01*
X97300000Y-45785714D01*
X97371428Y-45714285D01*
X97228571Y-47714285D02*
X98228571Y-47714285D01*
X97228571Y-47071428D02*
X98014285Y-47071428D01*
X98157142Y-47142857D01*
X98228571Y-47285714D01*
X98228571Y-47500000D01*
X98157142Y-47642857D01*
X98085714Y-47714285D01*
X98228571Y-48428571D02*
X96728571Y-48428571D01*
X97300000Y-48428571D02*
X97228571Y-48571428D01*
X97228571Y-48857142D01*
X97300000Y-49000000D01*
X97371428Y-49071428D01*
X97514285Y-49142857D01*
X97942857Y-49142857D01*
X98085714Y-49071428D01*
X98157142Y-49000000D01*
X98228571Y-48857142D01*
X98228571Y-48571428D01*
X98157142Y-48428571D01*
X98085714Y-49785714D02*
X98157142Y-49857142D01*
X98228571Y-49785714D01*
X98157142Y-49714285D01*
X98085714Y-49785714D01*
X98228571Y-49785714D01*
X98157142Y-51142857D02*
X98228571Y-50999999D01*
X98228571Y-50714285D01*
X98157142Y-50571428D01*
X98085714Y-50499999D01*
X97942857Y-50428571D01*
X97514285Y-50428571D01*
X97371428Y-50499999D01*
X97300000Y-50571428D01*
X97228571Y-50714285D01*
X97228571Y-50999999D01*
X97300000Y-51142857D01*
X98228571Y-51999999D02*
X98157142Y-51857142D01*
X98085714Y-51785714D01*
X97942857Y-51714285D01*
X97514285Y-51714285D01*
X97371428Y-51785714D01*
X97300000Y-51857142D01*
X97228571Y-51999999D01*
X97228571Y-52214285D01*
X97300000Y-52357142D01*
X97371428Y-52428571D01*
X97514285Y-52499999D01*
X97942857Y-52499999D01*
X98085714Y-52428571D01*
X98157142Y-52357142D01*
X98228571Y-52214285D01*
X98228571Y-51999999D01*
X98228571Y-53142857D02*
X97228571Y-53142857D01*
X97371428Y-53142857D02*
X97300000Y-53214285D01*
X97228571Y-53357142D01*
X97228571Y-53571428D01*
X97300000Y-53714285D01*
X97442857Y-53785714D01*
X98228571Y-53785714D01*
X97442857Y-53785714D02*
X97300000Y-53857142D01*
X97228571Y-53999999D01*
X97228571Y-54214285D01*
X97300000Y-54357142D01*
X97442857Y-54428571D01*
X98228571Y-54428571D01*
X96657142Y-56214285D02*
X98585714Y-54928571D01*
X98228571Y-56714285D02*
X97228571Y-56714285D01*
X97371428Y-56714285D02*
X97300000Y-56785714D01*
X97228571Y-56928571D01*
X97228571Y-57142857D01*
X97300000Y-57285714D01*
X97442857Y-57357142D01*
X98228571Y-57357142D01*
X97442857Y-57357142D02*
X97300000Y-57428571D01*
X97228571Y-57571428D01*
X97228571Y-57785714D01*
X97300000Y-57928571D01*
X97442857Y-57999999D01*
X98228571Y-57999999D01*
X97228571Y-59357142D02*
X98442857Y-59357142D01*
X98585714Y-59285714D01*
X98657142Y-59214285D01*
X98728571Y-59071428D01*
X98728571Y-58857142D01*
X98657142Y-58714285D01*
X98157142Y-59357142D02*
X98228571Y-59214285D01*
X98228571Y-58928571D01*
X98157142Y-58785714D01*
X98085714Y-58714285D01*
X97942857Y-58642857D01*
X97514285Y-58642857D01*
X97371428Y-58714285D01*
X97300000Y-58785714D01*
X97228571Y-58928571D01*
X97228571Y-59214285D01*
X97300000Y-59357142D01*
X97228571Y-59928571D02*
X98228571Y-60285714D01*
X97228571Y-60642857D01*
X98228571Y-61857142D02*
X97442857Y-61857142D01*
X97300000Y-61785714D01*
X97228571Y-61642857D01*
X97228571Y-61357142D01*
X97300000Y-61214285D01*
X98157142Y-61857142D02*
X98228571Y-61714285D01*
X98228571Y-61357142D01*
X98157142Y-61214285D01*
X98014285Y-61142857D01*
X97871428Y-61142857D01*
X97728571Y-61214285D01*
X97657142Y-61357142D01*
X97657142Y-61714285D01*
X97585714Y-61857142D01*
X98228571Y-62571428D02*
X97228571Y-62571428D01*
X97514285Y-62571428D02*
X97371428Y-62642857D01*
X97300000Y-62714285D01*
X97228571Y-62857142D01*
X97228571Y-62999999D01*
X97228571Y-64142857D02*
X98442857Y-64142857D01*
X98585714Y-64071428D01*
X98657142Y-63999999D01*
X98728571Y-63857142D01*
X98728571Y-63642857D01*
X98657142Y-63499999D01*
X98157142Y-64142857D02*
X98228571Y-63999999D01*
X98228571Y-63714285D01*
X98157142Y-63571428D01*
X98085714Y-63499999D01*
X97942857Y-63428571D01*
X97514285Y-63428571D01*
X97371428Y-63499999D01*
X97300000Y-63571428D01*
X97228571Y-63714285D01*
X97228571Y-63999999D01*
X97300000Y-64142857D01*
X98228571Y-65499999D02*
X97442857Y-65499999D01*
X97300000Y-65428571D01*
X97228571Y-65285714D01*
X97228571Y-64999999D01*
X97300000Y-64857142D01*
X98157142Y-65499999D02*
X98228571Y-65357142D01*
X98228571Y-64999999D01*
X98157142Y-64857142D01*
X98014285Y-64785714D01*
X97871428Y-64785714D01*
X97728571Y-64857142D01*
X97657142Y-64999999D01*
X97657142Y-65357142D01*
X97585714Y-65499999D01*
X98157142Y-66142857D02*
X98228571Y-66285714D01*
X98228571Y-66571428D01*
X98157142Y-66714285D01*
X98014285Y-66785714D01*
X97942857Y-66785714D01*
X97800000Y-66714285D01*
X97728571Y-66571428D01*
X97728571Y-66357142D01*
X97657142Y-66214285D01*
X97514285Y-66142857D01*
X97442857Y-66142857D01*
X97300000Y-66214285D01*
X97228571Y-66357142D01*
X97228571Y-66571428D01*
X97300000Y-66714285D01*
D11*
X55219047Y-75552380D02*
X55219047Y-76266666D01*
X55266666Y-76409523D01*
X55361904Y-76504761D01*
X55504761Y-76552380D01*
X55600000Y-76552380D01*
X54266666Y-76552380D02*
X54742857Y-76552380D01*
X54742857Y-75552380D01*
X53361904Y-76457142D02*
X53409523Y-76504761D01*
X53552380Y-76552380D01*
X53647619Y-76552380D01*
X53790476Y-76504761D01*
X53885714Y-76409523D01*
X53933333Y-76314285D01*
X53980952Y-76123809D01*
X53980952Y-75980952D01*
X53933333Y-75790476D01*
X53885714Y-75695238D01*
X53790476Y-75600000D01*
X53647619Y-75552380D01*
X53552380Y-75552380D01*
X53409523Y-75600000D01*
X53361904Y-75647619D01*
X52647619Y-75552380D02*
X52647619Y-76266666D01*
X52695238Y-76409523D01*
X52790476Y-76504761D01*
X52933333Y-76552380D01*
X53028571Y-76552380D01*
X51695238Y-76552380D02*
X52171428Y-76552380D01*
X52171428Y-75552380D01*
X50790476Y-76457142D02*
X50838095Y-76504761D01*
X50980952Y-76552380D01*
X51076190Y-76552380D01*
X51219047Y-76504761D01*
X51314285Y-76409523D01*
X51361904Y-76314285D01*
X51409523Y-76123809D01*
X51409523Y-75980952D01*
X51361904Y-75790476D01*
X51314285Y-75695238D01*
X51219047Y-75600000D01*
X51076190Y-75552380D01*
X50980952Y-75552380D01*
X50838095Y-75600000D01*
X50790476Y-75647619D01*
X50076190Y-75552380D02*
X50076190Y-76266666D01*
X50123809Y-76409523D01*
X50219047Y-76504761D01*
X50361904Y-76552380D01*
X50457142Y-76552380D01*
X49123809Y-76552380D02*
X49600000Y-76552380D01*
X49600000Y-75552380D01*
X48219047Y-76457142D02*
X48266666Y-76504761D01*
X48409523Y-76552380D01*
X48504761Y-76552380D01*
X48647619Y-76504761D01*
X48742857Y-76409523D01*
X48790476Y-76314285D01*
X48838095Y-76123809D01*
X48838095Y-75980952D01*
X48790476Y-75790476D01*
X48742857Y-75695238D01*
X48647619Y-75600000D01*
X48504761Y-75552380D01*
X48409523Y-75552380D01*
X48266666Y-75600000D01*
X48219047Y-75647619D01*
X47504761Y-75552380D02*
X47504761Y-76266666D01*
X47552380Y-76409523D01*
X47647619Y-76504761D01*
X47790476Y-76552380D01*
X47885714Y-76552380D01*
X46552380Y-76552380D02*
X47028571Y-76552380D01*
X47028571Y-75552380D01*
X45647619Y-76457142D02*
X45695238Y-76504761D01*
X45838095Y-76552380D01*
X45933333Y-76552380D01*
X46076190Y-76504761D01*
X46171428Y-76409523D01*
X46219047Y-76314285D01*
X46266666Y-76123809D01*
X46266666Y-75980952D01*
X46219047Y-75790476D01*
X46171428Y-75695238D01*
X46076190Y-75600000D01*
X45933333Y-75552380D01*
X45838095Y-75552380D01*
X45695238Y-75600000D01*
X45647619Y-75647619D01*
X28261904Y-62471428D02*
X27500000Y-62471428D01*
X27880952Y-62852380D02*
X27880952Y-62090476D01*
X26500000Y-62852380D02*
X27071428Y-62852380D01*
X26785714Y-62852380D02*
X26785714Y-61852380D01*
X26880952Y-61995238D01*
X26976190Y-62090476D01*
X27071428Y-62138095D01*
X26214285Y-61852380D02*
X25880952Y-62852380D01*
X25547619Y-61852380D01*
X25023809Y-61852380D02*
X24928571Y-61852380D01*
X24833333Y-61900000D01*
X24785714Y-61947619D01*
X24738095Y-62042857D01*
X24690476Y-62233333D01*
X24690476Y-62471428D01*
X24738095Y-62661904D01*
X24785714Y-62757142D01*
X24833333Y-62804761D01*
X24928571Y-62852380D01*
X25023809Y-62852380D01*
X25119047Y-62804761D01*
X25166666Y-62757142D01*
X25214285Y-62661904D01*
X25261904Y-62471428D01*
X25261904Y-62233333D01*
X25214285Y-62042857D01*
X25166666Y-61947619D01*
X25119047Y-61900000D01*
X25023809Y-61852380D01*
X27914285Y-69004761D02*
X27771428Y-69052380D01*
X27533333Y-69052380D01*
X27438095Y-69004761D01*
X27390476Y-68957142D01*
X27342857Y-68861904D01*
X27342857Y-68766666D01*
X27390476Y-68671428D01*
X27438095Y-68623809D01*
X27533333Y-68576190D01*
X27723809Y-68528571D01*
X27819047Y-68480952D01*
X27866666Y-68433333D01*
X27914285Y-68338095D01*
X27914285Y-68242857D01*
X27866666Y-68147619D01*
X27819047Y-68100000D01*
X27723809Y-68052380D01*
X27485714Y-68052380D01*
X27342857Y-68100000D01*
X26533333Y-69004761D02*
X26628571Y-69052380D01*
X26819047Y-69052380D01*
X26914285Y-69004761D01*
X26961904Y-68909523D01*
X26961904Y-68528571D01*
X26914285Y-68433333D01*
X26819047Y-68385714D01*
X26628571Y-68385714D01*
X26533333Y-68433333D01*
X26485714Y-68528571D01*
X26485714Y-68623809D01*
X26961904Y-68719047D01*
X26057142Y-68385714D02*
X26057142Y-69052380D01*
X26057142Y-68480952D02*
X26009523Y-68433333D01*
X25914285Y-68385714D01*
X25771428Y-68385714D01*
X25676190Y-68433333D01*
X25628571Y-68528571D01*
X25628571Y-69052380D01*
X25200000Y-69004761D02*
X25104761Y-69052380D01*
X24914285Y-69052380D01*
X24819047Y-69004761D01*
X24771428Y-68909523D01*
X24771428Y-68861904D01*
X24819047Y-68766666D01*
X24914285Y-68719047D01*
X25057142Y-68719047D01*
X25152380Y-68671428D01*
X25200000Y-68576190D01*
X25200000Y-68528571D01*
X25152380Y-68433333D01*
X25057142Y-68385714D01*
X24914285Y-68385714D01*
X24819047Y-68433333D01*
X24200000Y-69052380D02*
X24295238Y-69004761D01*
X24342857Y-68957142D01*
X24390476Y-68861904D01*
X24390476Y-68576190D01*
X24342857Y-68480952D01*
X24295238Y-68433333D01*
X24200000Y-68385714D01*
X24057142Y-68385714D01*
X23961904Y-68433333D01*
X23914285Y-68480952D01*
X23866666Y-68576190D01*
X23866666Y-68861904D01*
X23914285Y-68957142D01*
X23961904Y-69004761D01*
X24057142Y-69052380D01*
X24200000Y-69052380D01*
X23438095Y-69052380D02*
X23438095Y-68385714D01*
X23438095Y-68576190D02*
X23390476Y-68480952D01*
X23342857Y-68433333D01*
X23247619Y-68385714D01*
X23152380Y-68385714D01*
X23057142Y-69147619D02*
X22295238Y-69147619D01*
X21723809Y-68528571D02*
X21580952Y-68576190D01*
X21533333Y-68623809D01*
X21485714Y-68719047D01*
X21485714Y-68861904D01*
X21533333Y-68957142D01*
X21580952Y-69004761D01*
X21676190Y-69052380D01*
X22057142Y-69052380D01*
X22057142Y-68052380D01*
X21723809Y-68052380D01*
X21628571Y-68100000D01*
X21580952Y-68147619D01*
X21533333Y-68242857D01*
X21533333Y-68338095D01*
X21580952Y-68433333D01*
X21628571Y-68480952D01*
X21723809Y-68528571D01*
X22057142Y-68528571D01*
X33942857Y-64704761D02*
X33800000Y-64752380D01*
X33561904Y-64752380D01*
X33466666Y-64704761D01*
X33419047Y-64657142D01*
X33371428Y-64561904D01*
X33371428Y-64466666D01*
X33419047Y-64371428D01*
X33466666Y-64323809D01*
X33561904Y-64276190D01*
X33752380Y-64228571D01*
X33847619Y-64180952D01*
X33895238Y-64133333D01*
X33942857Y-64038095D01*
X33942857Y-63942857D01*
X33895238Y-63847619D01*
X33847619Y-63800000D01*
X33752380Y-63752380D01*
X33514285Y-63752380D01*
X33371428Y-63800000D01*
X32561904Y-64704761D02*
X32657142Y-64752380D01*
X32847619Y-64752380D01*
X32942857Y-64704761D01*
X32990476Y-64609523D01*
X32990476Y-64228571D01*
X32942857Y-64133333D01*
X32847619Y-64085714D01*
X32657142Y-64085714D01*
X32561904Y-64133333D01*
X32514285Y-64228571D01*
X32514285Y-64323809D01*
X32990476Y-64419047D01*
X32085714Y-64085714D02*
X32085714Y-64752380D01*
X32085714Y-64180952D02*
X32038095Y-64133333D01*
X31942857Y-64085714D01*
X31800000Y-64085714D01*
X31704761Y-64133333D01*
X31657142Y-64228571D01*
X31657142Y-64752380D01*
X31228571Y-64704761D02*
X31133333Y-64752380D01*
X30942857Y-64752380D01*
X30847619Y-64704761D01*
X30800000Y-64609523D01*
X30800000Y-64561904D01*
X30847619Y-64466666D01*
X30942857Y-64419047D01*
X31085714Y-64419047D01*
X31180952Y-64371428D01*
X31228571Y-64276190D01*
X31228571Y-64228571D01*
X31180952Y-64133333D01*
X31085714Y-64085714D01*
X30942857Y-64085714D01*
X30847619Y-64133333D01*
X30228571Y-64752380D02*
X30323809Y-64704761D01*
X30371428Y-64657142D01*
X30419047Y-64561904D01*
X30419047Y-64276190D01*
X30371428Y-64180952D01*
X30323809Y-64133333D01*
X30228571Y-64085714D01*
X30085714Y-64085714D01*
X29990476Y-64133333D01*
X29942857Y-64180952D01*
X29895238Y-64276190D01*
X29895238Y-64561904D01*
X29942857Y-64657142D01*
X29990476Y-64704761D01*
X30085714Y-64752380D01*
X30228571Y-64752380D01*
X29466666Y-64752380D02*
X29466666Y-64085714D01*
X29466666Y-64276190D02*
X29419047Y-64180952D01*
X29371428Y-64133333D01*
X29276190Y-64085714D01*
X29180952Y-64085714D01*
X29085714Y-64847619D02*
X28323809Y-64847619D01*
X28133333Y-64466666D02*
X27657142Y-64466666D01*
X28228571Y-64752380D02*
X27895238Y-63752380D01*
X27561904Y-64752380D01*
X32490476Y-66400000D02*
X32585714Y-66352380D01*
X32728571Y-66352380D01*
X32871428Y-66400000D01*
X32966666Y-66495238D01*
X33014285Y-66590476D01*
X33061904Y-66780952D01*
X33061904Y-66923809D01*
X33014285Y-67114285D01*
X32966666Y-67209523D01*
X32871428Y-67304761D01*
X32728571Y-67352380D01*
X32633333Y-67352380D01*
X32490476Y-67304761D01*
X32442857Y-67257142D01*
X32442857Y-66923809D01*
X32633333Y-66923809D01*
X32014285Y-67352380D02*
X32014285Y-66352380D01*
X31442857Y-67352380D01*
X31442857Y-66352380D01*
X30966666Y-67352380D02*
X30966666Y-66352380D01*
X30728571Y-66352380D01*
X30585714Y-66400000D01*
X30490476Y-66495238D01*
X30442857Y-66590476D01*
X30395238Y-66780952D01*
X30395238Y-66923809D01*
X30442857Y-67114285D01*
X30490476Y-67209523D01*
X30585714Y-67304761D01*
X30728571Y-67352380D01*
X30966666Y-67352380D01*
X30014285Y-67066666D02*
X29538095Y-67066666D01*
X30109523Y-67352380D02*
X29776190Y-66352380D01*
X29442857Y-67352380D01*
X72895238Y-67800000D02*
X72847619Y-67657142D01*
X72847619Y-67419047D01*
X72895238Y-67323809D01*
X72942857Y-67276190D01*
X73038095Y-67228571D01*
X73133333Y-67228571D01*
X73228571Y-67276190D01*
X73276190Y-67323809D01*
X73323809Y-67419047D01*
X73371428Y-67609523D01*
X73419047Y-67704761D01*
X73466666Y-67752380D01*
X73561904Y-67800000D01*
X73657142Y-67800000D01*
X73752380Y-67752380D01*
X73800000Y-67704761D01*
X73847619Y-67609523D01*
X73847619Y-67371428D01*
X73800000Y-67228571D01*
X73847619Y-66895238D02*
X72847619Y-66657142D01*
X73561904Y-66466666D01*
X72847619Y-66276190D01*
X73847619Y-66038095D01*
X72847619Y-65657142D02*
X73847619Y-65657142D01*
X73847619Y-65323809D02*
X73847619Y-64752380D01*
X72847619Y-65038095D02*
X73847619Y-65038095D01*
X72942857Y-63847619D02*
X72895238Y-63895238D01*
X72847619Y-64038095D01*
X72847619Y-64133333D01*
X72895238Y-64276190D01*
X72990476Y-64371428D01*
X73085714Y-64419047D01*
X73276190Y-64466666D01*
X73419047Y-64466666D01*
X73609523Y-64419047D01*
X73704761Y-64371428D01*
X73800000Y-64276190D01*
X73847619Y-64133333D01*
X73847619Y-64038095D01*
X73800000Y-63895238D01*
X73752380Y-63847619D01*
X72847619Y-63419047D02*
X73847619Y-63419047D01*
X73371428Y-63419047D02*
X73371428Y-62847619D01*
X72847619Y-62847619D02*
X73847619Y-62847619D01*
X73800000Y-74861904D02*
X73847619Y-74957142D01*
X73847619Y-75100000D01*
X73800000Y-75242857D01*
X73704761Y-75338095D01*
X73609523Y-75385714D01*
X73419047Y-75433333D01*
X73276190Y-75433333D01*
X73085714Y-75385714D01*
X72990476Y-75338095D01*
X72895238Y-75242857D01*
X72847619Y-75100000D01*
X72847619Y-75004761D01*
X72895238Y-74861904D01*
X72942857Y-74814285D01*
X73276190Y-74814285D01*
X73276190Y-75004761D01*
X72847619Y-74385714D02*
X73847619Y-74385714D01*
X72847619Y-73814285D01*
X73847619Y-73814285D01*
X72847619Y-73338095D02*
X73847619Y-73338095D01*
X73847619Y-73100000D01*
X73800000Y-72957142D01*
X73704761Y-72861904D01*
X73609523Y-72814285D01*
X73419047Y-72766666D01*
X73276190Y-72766666D01*
X73085714Y-72814285D01*
X72990476Y-72861904D01*
X72895238Y-72957142D01*
X72847619Y-73100000D01*
X72847619Y-73338095D01*
X82547619Y-73666666D02*
X83023809Y-74000000D01*
X82547619Y-74238095D02*
X83547619Y-74238095D01*
X83547619Y-73857142D01*
X83500000Y-73761904D01*
X83452380Y-73714285D01*
X83357142Y-73666666D01*
X83214285Y-73666666D01*
X83119047Y-73714285D01*
X83071428Y-73761904D01*
X83023809Y-73857142D01*
X83023809Y-74238095D01*
X83547619Y-73333333D02*
X82547619Y-72666666D01*
X83547619Y-72666666D02*
X82547619Y-73333333D01*
X80947619Y-74261904D02*
X80947619Y-73690476D01*
X79947619Y-73976190D02*
X80947619Y-73976190D01*
X80947619Y-73452380D02*
X79947619Y-72785714D01*
X80947619Y-72785714D02*
X79947619Y-73452380D01*
X86261904Y-48300000D02*
X86357142Y-48252380D01*
X86500000Y-48252380D01*
X86642857Y-48300000D01*
X86738095Y-48395238D01*
X86785714Y-48490476D01*
X86833333Y-48680952D01*
X86833333Y-48823809D01*
X86785714Y-49014285D01*
X86738095Y-49109523D01*
X86642857Y-49204761D01*
X86500000Y-49252380D01*
X86404761Y-49252380D01*
X86261904Y-49204761D01*
X86214285Y-49157142D01*
X86214285Y-48823809D01*
X86404761Y-48823809D01*
X85785714Y-49252380D02*
X85785714Y-48252380D01*
X85214285Y-49252380D01*
X85214285Y-48252380D01*
X84738095Y-49252380D02*
X84738095Y-48252380D01*
X84500000Y-48252380D01*
X84357142Y-48300000D01*
X84261904Y-48395238D01*
X84214285Y-48490476D01*
X84166666Y-48680952D01*
X84166666Y-48823809D01*
X84214285Y-49014285D01*
X84261904Y-49109523D01*
X84357142Y-49204761D01*
X84500000Y-49252380D01*
X84738095Y-49252380D01*
X86833333Y-45752380D02*
X86500000Y-46752380D01*
X86166666Y-45752380D01*
X85261904Y-46657142D02*
X85309523Y-46704761D01*
X85452380Y-46752380D01*
X85547619Y-46752380D01*
X85690476Y-46704761D01*
X85785714Y-46609523D01*
X85833333Y-46514285D01*
X85880952Y-46323809D01*
X85880952Y-46180952D01*
X85833333Y-45990476D01*
X85785714Y-45895238D01*
X85690476Y-45800000D01*
X85547619Y-45752380D01*
X85452380Y-45752380D01*
X85309523Y-45800000D01*
X85261904Y-45847619D01*
X84261904Y-46657142D02*
X84309523Y-46704761D01*
X84452380Y-46752380D01*
X84547619Y-46752380D01*
X84690476Y-46704761D01*
X84785714Y-46609523D01*
X84833333Y-46514285D01*
X84880952Y-46323809D01*
X84880952Y-46180952D01*
X84833333Y-45990476D01*
X84785714Y-45895238D01*
X84690476Y-45800000D01*
X84547619Y-45752380D01*
X84452380Y-45752380D01*
X84309523Y-45800000D01*
X84261904Y-45847619D01*
X47757142Y-25833333D02*
X47804761Y-25785714D01*
X47852380Y-25642857D01*
X47852380Y-25547619D01*
X47804761Y-25404761D01*
X47709523Y-25309523D01*
X47614285Y-25261904D01*
X47423809Y-25214285D01*
X47280952Y-25214285D01*
X47090476Y-25261904D01*
X46995238Y-25309523D01*
X46900000Y-25404761D01*
X46852380Y-25547619D01*
X46852380Y-25642857D01*
X46900000Y-25785714D01*
X46947619Y-25833333D01*
X47804761Y-26214285D02*
X47852380Y-26357142D01*
X47852380Y-26595238D01*
X47804761Y-26690476D01*
X47757142Y-26738095D01*
X47661904Y-26785714D01*
X47566666Y-26785714D01*
X47471428Y-26738095D01*
X47423809Y-26690476D01*
X47376190Y-26595238D01*
X47328571Y-26404761D01*
X47280952Y-26309523D01*
X47233333Y-26261904D01*
X47138095Y-26214285D01*
X47042857Y-26214285D01*
X46947619Y-26261904D01*
X46900000Y-26309523D01*
X46852380Y-26404761D01*
X46852380Y-26642857D01*
X46900000Y-26785714D01*
X50304761Y-25214285D02*
X50352380Y-25357142D01*
X50352380Y-25595238D01*
X50304761Y-25690476D01*
X50257142Y-25738095D01*
X50161904Y-25785714D01*
X50066666Y-25785714D01*
X49971428Y-25738095D01*
X49923809Y-25690476D01*
X49876190Y-25595238D01*
X49828571Y-25404761D01*
X49780952Y-25309523D01*
X49733333Y-25261904D01*
X49638095Y-25214285D01*
X49542857Y-25214285D01*
X49447619Y-25261904D01*
X49400000Y-25309523D01*
X49352380Y-25404761D01*
X49352380Y-25642857D01*
X49400000Y-25785714D01*
X50257142Y-26785714D02*
X50304761Y-26738095D01*
X50352380Y-26595238D01*
X50352380Y-26500000D01*
X50304761Y-26357142D01*
X50209523Y-26261904D01*
X50114285Y-26214285D01*
X49923809Y-26166666D01*
X49780952Y-26166666D01*
X49590476Y-26214285D01*
X49495238Y-26261904D01*
X49400000Y-26357142D01*
X49352380Y-26500000D01*
X49352380Y-26595238D01*
X49400000Y-26738095D01*
X49447619Y-26785714D01*
X50352380Y-27214285D02*
X49352380Y-27214285D01*
X50352380Y-27785714D02*
X49780952Y-27357142D01*
X49352380Y-27785714D02*
X49923809Y-27214285D01*
X52952380Y-25228571D02*
X51952380Y-25228571D01*
X52666666Y-25561904D01*
X51952380Y-25895238D01*
X52952380Y-25895238D01*
X52952380Y-26371428D02*
X51952380Y-26371428D01*
X52904761Y-26800000D02*
X52952380Y-26942857D01*
X52952380Y-27180952D01*
X52904761Y-27276190D01*
X52857142Y-27323809D01*
X52761904Y-27371428D01*
X52666666Y-27371428D01*
X52571428Y-27323809D01*
X52523809Y-27276190D01*
X52476190Y-27180952D01*
X52428571Y-26990476D01*
X52380952Y-26895238D01*
X52333333Y-26847619D01*
X52238095Y-26800000D01*
X52142857Y-26800000D01*
X52047619Y-26847619D01*
X52000000Y-26895238D01*
X51952380Y-26990476D01*
X51952380Y-27228571D01*
X52000000Y-27371428D01*
X51952380Y-27990476D02*
X51952380Y-28180952D01*
X52000000Y-28276190D01*
X52095238Y-28371428D01*
X52285714Y-28419047D01*
X52619047Y-28419047D01*
X52809523Y-28371428D01*
X52904761Y-28276190D01*
X52952380Y-28180952D01*
X52952380Y-27990476D01*
X52904761Y-27895238D01*
X52809523Y-27800000D01*
X52619047Y-27752380D01*
X52285714Y-27752380D01*
X52095238Y-27800000D01*
X52000000Y-27895238D01*
X51952380Y-27990476D01*
X55452380Y-25228571D02*
X54452380Y-25228571D01*
X55166666Y-25561904D01*
X54452380Y-25895238D01*
X55452380Y-25895238D01*
X54452380Y-26561904D02*
X54452380Y-26752380D01*
X54500000Y-26847619D01*
X54595238Y-26942857D01*
X54785714Y-26990476D01*
X55119047Y-26990476D01*
X55309523Y-26942857D01*
X55404761Y-26847619D01*
X55452380Y-26752380D01*
X55452380Y-26561904D01*
X55404761Y-26466666D01*
X55309523Y-26371428D01*
X55119047Y-26323809D01*
X54785714Y-26323809D01*
X54595238Y-26371428D01*
X54500000Y-26466666D01*
X54452380Y-26561904D01*
X55404761Y-27371428D02*
X55452380Y-27514285D01*
X55452380Y-27752380D01*
X55404761Y-27847619D01*
X55357142Y-27895238D01*
X55261904Y-27942857D01*
X55166666Y-27942857D01*
X55071428Y-27895238D01*
X55023809Y-27847619D01*
X54976190Y-27752380D01*
X54928571Y-27561904D01*
X54880952Y-27466666D01*
X54833333Y-27419047D01*
X54738095Y-27371428D01*
X54642857Y-27371428D01*
X54547619Y-27419047D01*
X54500000Y-27466666D01*
X54452380Y-27561904D01*
X54452380Y-27800000D01*
X54500000Y-27942857D01*
X55452380Y-28371428D02*
X54452380Y-28371428D01*
X59366666Y-25500000D02*
X59366666Y-25976190D01*
X59652380Y-25404761D02*
X58652380Y-25738095D01*
X59652380Y-26071428D01*
X59652380Y-26404761D02*
X58652380Y-26404761D01*
X59366666Y-26738095D01*
X58652380Y-27071428D01*
X59652380Y-27071428D01*
X59652380Y-27547619D02*
X58652380Y-27547619D01*
X58652380Y-27928571D01*
X58700000Y-28023809D01*
X58747619Y-28071428D01*
X58842857Y-28119047D01*
X58985714Y-28119047D01*
X59080952Y-28071428D01*
X59128571Y-28023809D01*
X59176190Y-27928571D01*
X59176190Y-27547619D01*
X59747619Y-28309523D02*
X59747619Y-29071428D01*
X58652380Y-29500000D02*
X58652380Y-29690476D01*
X58700000Y-29785714D01*
X58795238Y-29880952D01*
X58985714Y-29928571D01*
X59319047Y-29928571D01*
X59509523Y-29880952D01*
X59604761Y-29785714D01*
X59652380Y-29690476D01*
X59652380Y-29500000D01*
X59604761Y-29404761D01*
X59509523Y-29309523D01*
X59319047Y-29261904D01*
X58985714Y-29261904D01*
X58795238Y-29309523D01*
X58700000Y-29404761D01*
X58652380Y-29500000D01*
X58652380Y-30357142D02*
X59461904Y-30357142D01*
X59557142Y-30404761D01*
X59604761Y-30452380D01*
X59652380Y-30547619D01*
X59652380Y-30738095D01*
X59604761Y-30833333D01*
X59557142Y-30880952D01*
X59461904Y-30928571D01*
X58652380Y-30928571D01*
X58652380Y-31261904D02*
X58652380Y-31833333D01*
X59652380Y-31547619D02*
X58652380Y-31547619D01*
X59747619Y-31928571D02*
X59747619Y-32690476D01*
X59128571Y-33261904D02*
X59176190Y-33404761D01*
X59223809Y-33452380D01*
X59319047Y-33500000D01*
X59461904Y-33500000D01*
X59557142Y-33452380D01*
X59604761Y-33404761D01*
X59652380Y-33309523D01*
X59652380Y-32928571D01*
X58652380Y-32928571D01*
X58652380Y-33261904D01*
X58700000Y-33357142D01*
X58747619Y-33404761D01*
X58842857Y-33452380D01*
X58938095Y-33452380D01*
X59033333Y-33404761D01*
X59080952Y-33357142D01*
X59128571Y-33261904D01*
X59128571Y-32928571D01*
X61866666Y-25371428D02*
X61866666Y-25847619D01*
X62152380Y-25276190D02*
X61152380Y-25609523D01*
X62152380Y-25942857D01*
X62152380Y-26276190D02*
X61152380Y-26276190D01*
X61866666Y-26609523D01*
X61152380Y-26942857D01*
X62152380Y-26942857D01*
X62152380Y-27419047D02*
X61152380Y-27419047D01*
X61152380Y-27800000D01*
X61200000Y-27895238D01*
X61247619Y-27942857D01*
X61342857Y-27990476D01*
X61485714Y-27990476D01*
X61580952Y-27942857D01*
X61628571Y-27895238D01*
X61676190Y-27800000D01*
X61676190Y-27419047D01*
X62247619Y-28180952D02*
X62247619Y-28942857D01*
X61152380Y-29371428D02*
X61152380Y-29561904D01*
X61200000Y-29657142D01*
X61295238Y-29752380D01*
X61485714Y-29800000D01*
X61819047Y-29800000D01*
X62009523Y-29752380D01*
X62104761Y-29657142D01*
X62152380Y-29561904D01*
X62152380Y-29371428D01*
X62104761Y-29276190D01*
X62009523Y-29180952D01*
X61819047Y-29133333D01*
X61485714Y-29133333D01*
X61295238Y-29180952D01*
X61200000Y-29276190D01*
X61152380Y-29371428D01*
X61152380Y-30228571D02*
X61961904Y-30228571D01*
X62057142Y-30276190D01*
X62104761Y-30323809D01*
X62152380Y-30419047D01*
X62152380Y-30609523D01*
X62104761Y-30704761D01*
X62057142Y-30752380D01*
X61961904Y-30800000D01*
X61152380Y-30800000D01*
X61152380Y-31133333D02*
X61152380Y-31704761D01*
X62152380Y-31419047D02*
X61152380Y-31419047D01*
X62247619Y-31800000D02*
X62247619Y-32561904D01*
X61866666Y-32752380D02*
X61866666Y-33228571D01*
X62152380Y-32657142D02*
X61152380Y-32990476D01*
X62152380Y-33323809D01*
X74900000Y-26038095D02*
X74852380Y-25942857D01*
X74852380Y-25800000D01*
X74900000Y-25657142D01*
X74995238Y-25561904D01*
X75090476Y-25514285D01*
X75280952Y-25466666D01*
X75423809Y-25466666D01*
X75614285Y-25514285D01*
X75709523Y-25561904D01*
X75804761Y-25657142D01*
X75852380Y-25800000D01*
X75852380Y-25895238D01*
X75804761Y-26038095D01*
X75757142Y-26085714D01*
X75423809Y-26085714D01*
X75423809Y-25895238D01*
X75852380Y-26514285D02*
X74852380Y-26514285D01*
X75852380Y-27085714D01*
X74852380Y-27085714D01*
X75852380Y-27561904D02*
X74852380Y-27561904D01*
X74852380Y-27800000D01*
X74900000Y-27942857D01*
X74995238Y-28038095D01*
X75090476Y-28085714D01*
X75280952Y-28133333D01*
X75423809Y-28133333D01*
X75614285Y-28085714D01*
X75709523Y-28038095D01*
X75804761Y-27942857D01*
X75852380Y-27800000D01*
X75852380Y-27561904D01*
X72771428Y-24838095D02*
X72771428Y-25600000D01*
X73152380Y-25219047D02*
X72390476Y-25219047D01*
X72152380Y-25980952D02*
X72152380Y-26600000D01*
X72533333Y-26266666D01*
X72533333Y-26409523D01*
X72580952Y-26504761D01*
X72628571Y-26552380D01*
X72723809Y-26600000D01*
X72961904Y-26600000D01*
X73057142Y-26552380D01*
X73104761Y-26504761D01*
X73152380Y-26409523D01*
X73152380Y-26123809D01*
X73104761Y-26028571D01*
X73057142Y-25980952D01*
X72152380Y-26885714D02*
X73152380Y-27219047D01*
X72152380Y-27552380D01*
X72152380Y-27790476D02*
X72152380Y-28409523D01*
X72533333Y-28076190D01*
X72533333Y-28219047D01*
X72580952Y-28314285D01*
X72628571Y-28361904D01*
X72723809Y-28409523D01*
X72961904Y-28409523D01*
X73057142Y-28361904D01*
X73104761Y-28314285D01*
X73152380Y-28219047D01*
X73152380Y-27933333D01*
X73104761Y-27838095D01*
X73057142Y-27790476D01*
X69204761Y-25509523D02*
X69252380Y-25652380D01*
X69252380Y-25890476D01*
X69204761Y-25985714D01*
X69157142Y-26033333D01*
X69061904Y-26080952D01*
X68966666Y-26080952D01*
X68871428Y-26033333D01*
X68823809Y-25985714D01*
X68776190Y-25890476D01*
X68728571Y-25700000D01*
X68680952Y-25604761D01*
X68633333Y-25557142D01*
X68538095Y-25509523D01*
X68442857Y-25509523D01*
X68347619Y-25557142D01*
X68300000Y-25604761D01*
X68252380Y-25700000D01*
X68252380Y-25938095D01*
X68300000Y-26080952D01*
X69157142Y-27080952D02*
X69204761Y-27033333D01*
X69252380Y-26890476D01*
X69252380Y-26795238D01*
X69204761Y-26652380D01*
X69109523Y-26557142D01*
X69014285Y-26509523D01*
X68823809Y-26461904D01*
X68680952Y-26461904D01*
X68490476Y-26509523D01*
X68395238Y-26557142D01*
X68300000Y-26652380D01*
X68252380Y-26795238D01*
X68252380Y-26890476D01*
X68300000Y-27033333D01*
X68347619Y-27080952D01*
X69252380Y-27985714D02*
X69252380Y-27509523D01*
X68252380Y-27509523D01*
X65604761Y-25385714D02*
X65652380Y-25528571D01*
X65652380Y-25766666D01*
X65604761Y-25861904D01*
X65557142Y-25909523D01*
X65461904Y-25957142D01*
X65366666Y-25957142D01*
X65271428Y-25909523D01*
X65223809Y-25861904D01*
X65176190Y-25766666D01*
X65128571Y-25576190D01*
X65080952Y-25480952D01*
X65033333Y-25433333D01*
X64938095Y-25385714D01*
X64842857Y-25385714D01*
X64747619Y-25433333D01*
X64700000Y-25480952D01*
X64652380Y-25576190D01*
X64652380Y-25814285D01*
X64700000Y-25957142D01*
X65652380Y-26385714D02*
X64652380Y-26385714D01*
X64652380Y-26623809D01*
X64700000Y-26766666D01*
X64795238Y-26861904D01*
X64890476Y-26909523D01*
X65080952Y-26957142D01*
X65223809Y-26957142D01*
X65414285Y-26909523D01*
X65509523Y-26861904D01*
X65604761Y-26766666D01*
X65652380Y-26623809D01*
X65652380Y-26385714D01*
X65366666Y-27338095D02*
X65366666Y-27814285D01*
X65652380Y-27242857D02*
X64652380Y-27576190D01*
X65652380Y-27909523D01*
M02*
