G04 #@! TF.GenerationSoftware,KiCad,Pcbnew,(5.1.6)-1*
G04 #@! TF.CreationDate,2020-06-29T20:37:26+02:00*
G04 #@! TF.ProjectId,SensorArray,53656e73-6f72-4417-9272-61792e6b6963,rev?*
G04 #@! TF.SameCoordinates,Original*
G04 #@! TF.FileFunction,Paste,Top*
G04 #@! TF.FilePolarity,Positive*
%FSLAX46Y46*%
G04 Gerber Fmt 4.6, Leading zero omitted, Abs format (unit mm)*
G04 Created by KiCad (PCBNEW (5.1.6)-1) date 2020-06-29 20:37:26*
%MOMM*%
%LPD*%
G01*
G04 APERTURE LIST*
%ADD10R,1.000000X0.400000*%
%ADD11R,1.300000X2.000000*%
%ADD12R,0.900000X1.200000*%
%ADD13R,1.400000X1.200000*%
%ADD14R,2.400000X0.740000*%
%ADD15R,1.550000X0.850000*%
%ADD16R,3.800000X2.000000*%
%ADD17R,1.500000X2.000000*%
%ADD18R,1.060000X0.650000*%
%ADD19R,1.400000X0.300000*%
%ADD20R,1.600000X0.300000*%
G04 APERTURE END LIST*
G36*
G01*
X72025000Y-39800000D02*
X72175000Y-39800000D01*
G75*
G02*
X72250000Y-39875000I0J-75000D01*
G01*
X72250000Y-41275000D01*
G75*
G02*
X72175000Y-41350000I-75000J0D01*
G01*
X72025000Y-41350000D01*
G75*
G02*
X71950000Y-41275000I0J75000D01*
G01*
X71950000Y-39875000D01*
G75*
G02*
X72025000Y-39800000I75000J0D01*
G01*
G37*
G36*
G01*
X71525000Y-39800000D02*
X71675000Y-39800000D01*
G75*
G02*
X71750000Y-39875000I0J-75000D01*
G01*
X71750000Y-41275000D01*
G75*
G02*
X71675000Y-41350000I-75000J0D01*
G01*
X71525000Y-41350000D01*
G75*
G02*
X71450000Y-41275000I0J75000D01*
G01*
X71450000Y-39875000D01*
G75*
G02*
X71525000Y-39800000I75000J0D01*
G01*
G37*
G36*
G01*
X71025000Y-39800000D02*
X71175000Y-39800000D01*
G75*
G02*
X71250000Y-39875000I0J-75000D01*
G01*
X71250000Y-41275000D01*
G75*
G02*
X71175000Y-41350000I-75000J0D01*
G01*
X71025000Y-41350000D01*
G75*
G02*
X70950000Y-41275000I0J75000D01*
G01*
X70950000Y-39875000D01*
G75*
G02*
X71025000Y-39800000I75000J0D01*
G01*
G37*
G36*
G01*
X70525000Y-39800000D02*
X70675000Y-39800000D01*
G75*
G02*
X70750000Y-39875000I0J-75000D01*
G01*
X70750000Y-41275000D01*
G75*
G02*
X70675000Y-41350000I-75000J0D01*
G01*
X70525000Y-41350000D01*
G75*
G02*
X70450000Y-41275000I0J75000D01*
G01*
X70450000Y-39875000D01*
G75*
G02*
X70525000Y-39800000I75000J0D01*
G01*
G37*
G36*
G01*
X70025000Y-39800000D02*
X70175000Y-39800000D01*
G75*
G02*
X70250000Y-39875000I0J-75000D01*
G01*
X70250000Y-41275000D01*
G75*
G02*
X70175000Y-41350000I-75000J0D01*
G01*
X70025000Y-41350000D01*
G75*
G02*
X69950000Y-41275000I0J75000D01*
G01*
X69950000Y-39875000D01*
G75*
G02*
X70025000Y-39800000I75000J0D01*
G01*
G37*
G36*
G01*
X69525000Y-39800000D02*
X69675000Y-39800000D01*
G75*
G02*
X69750000Y-39875000I0J-75000D01*
G01*
X69750000Y-41275000D01*
G75*
G02*
X69675000Y-41350000I-75000J0D01*
G01*
X69525000Y-41350000D01*
G75*
G02*
X69450000Y-41275000I0J75000D01*
G01*
X69450000Y-39875000D01*
G75*
G02*
X69525000Y-39800000I75000J0D01*
G01*
G37*
G36*
G01*
X69025000Y-39800000D02*
X69175000Y-39800000D01*
G75*
G02*
X69250000Y-39875000I0J-75000D01*
G01*
X69250000Y-41275000D01*
G75*
G02*
X69175000Y-41350000I-75000J0D01*
G01*
X69025000Y-41350000D01*
G75*
G02*
X68950000Y-41275000I0J75000D01*
G01*
X68950000Y-39875000D01*
G75*
G02*
X69025000Y-39800000I75000J0D01*
G01*
G37*
G36*
G01*
X68525000Y-39800000D02*
X68675000Y-39800000D01*
G75*
G02*
X68750000Y-39875000I0J-75000D01*
G01*
X68750000Y-41275000D01*
G75*
G02*
X68675000Y-41350000I-75000J0D01*
G01*
X68525000Y-41350000D01*
G75*
G02*
X68450000Y-41275000I0J75000D01*
G01*
X68450000Y-39875000D01*
G75*
G02*
X68525000Y-39800000I75000J0D01*
G01*
G37*
G36*
G01*
X68025000Y-39800000D02*
X68175000Y-39800000D01*
G75*
G02*
X68250000Y-39875000I0J-75000D01*
G01*
X68250000Y-41275000D01*
G75*
G02*
X68175000Y-41350000I-75000J0D01*
G01*
X68025000Y-41350000D01*
G75*
G02*
X67950000Y-41275000I0J75000D01*
G01*
X67950000Y-39875000D01*
G75*
G02*
X68025000Y-39800000I75000J0D01*
G01*
G37*
G36*
G01*
X67525000Y-39800000D02*
X67675000Y-39800000D01*
G75*
G02*
X67750000Y-39875000I0J-75000D01*
G01*
X67750000Y-41275000D01*
G75*
G02*
X67675000Y-41350000I-75000J0D01*
G01*
X67525000Y-41350000D01*
G75*
G02*
X67450000Y-41275000I0J75000D01*
G01*
X67450000Y-39875000D01*
G75*
G02*
X67525000Y-39800000I75000J0D01*
G01*
G37*
G36*
G01*
X67025000Y-39800000D02*
X67175000Y-39800000D01*
G75*
G02*
X67250000Y-39875000I0J-75000D01*
G01*
X67250000Y-41275000D01*
G75*
G02*
X67175000Y-41350000I-75000J0D01*
G01*
X67025000Y-41350000D01*
G75*
G02*
X66950000Y-41275000I0J75000D01*
G01*
X66950000Y-39875000D01*
G75*
G02*
X67025000Y-39800000I75000J0D01*
G01*
G37*
G36*
G01*
X66525000Y-39800000D02*
X66675000Y-39800000D01*
G75*
G02*
X66750000Y-39875000I0J-75000D01*
G01*
X66750000Y-41275000D01*
G75*
G02*
X66675000Y-41350000I-75000J0D01*
G01*
X66525000Y-41350000D01*
G75*
G02*
X66450000Y-41275000I0J75000D01*
G01*
X66450000Y-39875000D01*
G75*
G02*
X66525000Y-39800000I75000J0D01*
G01*
G37*
G36*
G01*
X66025000Y-39800000D02*
X66175000Y-39800000D01*
G75*
G02*
X66250000Y-39875000I0J-75000D01*
G01*
X66250000Y-41275000D01*
G75*
G02*
X66175000Y-41350000I-75000J0D01*
G01*
X66025000Y-41350000D01*
G75*
G02*
X65950000Y-41275000I0J75000D01*
G01*
X65950000Y-39875000D01*
G75*
G02*
X66025000Y-39800000I75000J0D01*
G01*
G37*
G36*
G01*
X65525000Y-39800000D02*
X65675000Y-39800000D01*
G75*
G02*
X65750000Y-39875000I0J-75000D01*
G01*
X65750000Y-41275000D01*
G75*
G02*
X65675000Y-41350000I-75000J0D01*
G01*
X65525000Y-41350000D01*
G75*
G02*
X65450000Y-41275000I0J75000D01*
G01*
X65450000Y-39875000D01*
G75*
G02*
X65525000Y-39800000I75000J0D01*
G01*
G37*
G36*
G01*
X65025000Y-39800000D02*
X65175000Y-39800000D01*
G75*
G02*
X65250000Y-39875000I0J-75000D01*
G01*
X65250000Y-41275000D01*
G75*
G02*
X65175000Y-41350000I-75000J0D01*
G01*
X65025000Y-41350000D01*
G75*
G02*
X64950000Y-41275000I0J75000D01*
G01*
X64950000Y-39875000D01*
G75*
G02*
X65025000Y-39800000I75000J0D01*
G01*
G37*
G36*
G01*
X64525000Y-39800000D02*
X64675000Y-39800000D01*
G75*
G02*
X64750000Y-39875000I0J-75000D01*
G01*
X64750000Y-41275000D01*
G75*
G02*
X64675000Y-41350000I-75000J0D01*
G01*
X64525000Y-41350000D01*
G75*
G02*
X64450000Y-41275000I0J75000D01*
G01*
X64450000Y-39875000D01*
G75*
G02*
X64525000Y-39800000I75000J0D01*
G01*
G37*
G36*
G01*
X61975000Y-42350000D02*
X63375000Y-42350000D01*
G75*
G02*
X63450000Y-42425000I0J-75000D01*
G01*
X63450000Y-42575000D01*
G75*
G02*
X63375000Y-42650000I-75000J0D01*
G01*
X61975000Y-42650000D01*
G75*
G02*
X61900000Y-42575000I0J75000D01*
G01*
X61900000Y-42425000D01*
G75*
G02*
X61975000Y-42350000I75000J0D01*
G01*
G37*
G36*
G01*
X61975000Y-42850000D02*
X63375000Y-42850000D01*
G75*
G02*
X63450000Y-42925000I0J-75000D01*
G01*
X63450000Y-43075000D01*
G75*
G02*
X63375000Y-43150000I-75000J0D01*
G01*
X61975000Y-43150000D01*
G75*
G02*
X61900000Y-43075000I0J75000D01*
G01*
X61900000Y-42925000D01*
G75*
G02*
X61975000Y-42850000I75000J0D01*
G01*
G37*
G36*
G01*
X61975000Y-43350000D02*
X63375000Y-43350000D01*
G75*
G02*
X63450000Y-43425000I0J-75000D01*
G01*
X63450000Y-43575000D01*
G75*
G02*
X63375000Y-43650000I-75000J0D01*
G01*
X61975000Y-43650000D01*
G75*
G02*
X61900000Y-43575000I0J75000D01*
G01*
X61900000Y-43425000D01*
G75*
G02*
X61975000Y-43350000I75000J0D01*
G01*
G37*
G36*
G01*
X61975000Y-43850000D02*
X63375000Y-43850000D01*
G75*
G02*
X63450000Y-43925000I0J-75000D01*
G01*
X63450000Y-44075000D01*
G75*
G02*
X63375000Y-44150000I-75000J0D01*
G01*
X61975000Y-44150000D01*
G75*
G02*
X61900000Y-44075000I0J75000D01*
G01*
X61900000Y-43925000D01*
G75*
G02*
X61975000Y-43850000I75000J0D01*
G01*
G37*
G36*
G01*
X61975000Y-44350000D02*
X63375000Y-44350000D01*
G75*
G02*
X63450000Y-44425000I0J-75000D01*
G01*
X63450000Y-44575000D01*
G75*
G02*
X63375000Y-44650000I-75000J0D01*
G01*
X61975000Y-44650000D01*
G75*
G02*
X61900000Y-44575000I0J75000D01*
G01*
X61900000Y-44425000D01*
G75*
G02*
X61975000Y-44350000I75000J0D01*
G01*
G37*
G36*
G01*
X61975000Y-44850000D02*
X63375000Y-44850000D01*
G75*
G02*
X63450000Y-44925000I0J-75000D01*
G01*
X63450000Y-45075000D01*
G75*
G02*
X63375000Y-45150000I-75000J0D01*
G01*
X61975000Y-45150000D01*
G75*
G02*
X61900000Y-45075000I0J75000D01*
G01*
X61900000Y-44925000D01*
G75*
G02*
X61975000Y-44850000I75000J0D01*
G01*
G37*
G36*
G01*
X61975000Y-45350000D02*
X63375000Y-45350000D01*
G75*
G02*
X63450000Y-45425000I0J-75000D01*
G01*
X63450000Y-45575000D01*
G75*
G02*
X63375000Y-45650000I-75000J0D01*
G01*
X61975000Y-45650000D01*
G75*
G02*
X61900000Y-45575000I0J75000D01*
G01*
X61900000Y-45425000D01*
G75*
G02*
X61975000Y-45350000I75000J0D01*
G01*
G37*
G36*
G01*
X61975000Y-45850000D02*
X63375000Y-45850000D01*
G75*
G02*
X63450000Y-45925000I0J-75000D01*
G01*
X63450000Y-46075000D01*
G75*
G02*
X63375000Y-46150000I-75000J0D01*
G01*
X61975000Y-46150000D01*
G75*
G02*
X61900000Y-46075000I0J75000D01*
G01*
X61900000Y-45925000D01*
G75*
G02*
X61975000Y-45850000I75000J0D01*
G01*
G37*
G36*
G01*
X61975000Y-46350000D02*
X63375000Y-46350000D01*
G75*
G02*
X63450000Y-46425000I0J-75000D01*
G01*
X63450000Y-46575000D01*
G75*
G02*
X63375000Y-46650000I-75000J0D01*
G01*
X61975000Y-46650000D01*
G75*
G02*
X61900000Y-46575000I0J75000D01*
G01*
X61900000Y-46425000D01*
G75*
G02*
X61975000Y-46350000I75000J0D01*
G01*
G37*
G36*
G01*
X61975000Y-46850000D02*
X63375000Y-46850000D01*
G75*
G02*
X63450000Y-46925000I0J-75000D01*
G01*
X63450000Y-47075000D01*
G75*
G02*
X63375000Y-47150000I-75000J0D01*
G01*
X61975000Y-47150000D01*
G75*
G02*
X61900000Y-47075000I0J75000D01*
G01*
X61900000Y-46925000D01*
G75*
G02*
X61975000Y-46850000I75000J0D01*
G01*
G37*
G36*
G01*
X61975000Y-47350000D02*
X63375000Y-47350000D01*
G75*
G02*
X63450000Y-47425000I0J-75000D01*
G01*
X63450000Y-47575000D01*
G75*
G02*
X63375000Y-47650000I-75000J0D01*
G01*
X61975000Y-47650000D01*
G75*
G02*
X61900000Y-47575000I0J75000D01*
G01*
X61900000Y-47425000D01*
G75*
G02*
X61975000Y-47350000I75000J0D01*
G01*
G37*
G36*
G01*
X61975000Y-47850000D02*
X63375000Y-47850000D01*
G75*
G02*
X63450000Y-47925000I0J-75000D01*
G01*
X63450000Y-48075000D01*
G75*
G02*
X63375000Y-48150000I-75000J0D01*
G01*
X61975000Y-48150000D01*
G75*
G02*
X61900000Y-48075000I0J75000D01*
G01*
X61900000Y-47925000D01*
G75*
G02*
X61975000Y-47850000I75000J0D01*
G01*
G37*
G36*
G01*
X61975000Y-48350000D02*
X63375000Y-48350000D01*
G75*
G02*
X63450000Y-48425000I0J-75000D01*
G01*
X63450000Y-48575000D01*
G75*
G02*
X63375000Y-48650000I-75000J0D01*
G01*
X61975000Y-48650000D01*
G75*
G02*
X61900000Y-48575000I0J75000D01*
G01*
X61900000Y-48425000D01*
G75*
G02*
X61975000Y-48350000I75000J0D01*
G01*
G37*
G36*
G01*
X61975000Y-48850000D02*
X63375000Y-48850000D01*
G75*
G02*
X63450000Y-48925000I0J-75000D01*
G01*
X63450000Y-49075000D01*
G75*
G02*
X63375000Y-49150000I-75000J0D01*
G01*
X61975000Y-49150000D01*
G75*
G02*
X61900000Y-49075000I0J75000D01*
G01*
X61900000Y-48925000D01*
G75*
G02*
X61975000Y-48850000I75000J0D01*
G01*
G37*
G36*
G01*
X61975000Y-49350000D02*
X63375000Y-49350000D01*
G75*
G02*
X63450000Y-49425000I0J-75000D01*
G01*
X63450000Y-49575000D01*
G75*
G02*
X63375000Y-49650000I-75000J0D01*
G01*
X61975000Y-49650000D01*
G75*
G02*
X61900000Y-49575000I0J75000D01*
G01*
X61900000Y-49425000D01*
G75*
G02*
X61975000Y-49350000I75000J0D01*
G01*
G37*
G36*
G01*
X61975000Y-49850000D02*
X63375000Y-49850000D01*
G75*
G02*
X63450000Y-49925000I0J-75000D01*
G01*
X63450000Y-50075000D01*
G75*
G02*
X63375000Y-50150000I-75000J0D01*
G01*
X61975000Y-50150000D01*
G75*
G02*
X61900000Y-50075000I0J75000D01*
G01*
X61900000Y-49925000D01*
G75*
G02*
X61975000Y-49850000I75000J0D01*
G01*
G37*
G36*
G01*
X64525000Y-51150000D02*
X64675000Y-51150000D01*
G75*
G02*
X64750000Y-51225000I0J-75000D01*
G01*
X64750000Y-52625000D01*
G75*
G02*
X64675000Y-52700000I-75000J0D01*
G01*
X64525000Y-52700000D01*
G75*
G02*
X64450000Y-52625000I0J75000D01*
G01*
X64450000Y-51225000D01*
G75*
G02*
X64525000Y-51150000I75000J0D01*
G01*
G37*
G36*
G01*
X65025000Y-51150000D02*
X65175000Y-51150000D01*
G75*
G02*
X65250000Y-51225000I0J-75000D01*
G01*
X65250000Y-52625000D01*
G75*
G02*
X65175000Y-52700000I-75000J0D01*
G01*
X65025000Y-52700000D01*
G75*
G02*
X64950000Y-52625000I0J75000D01*
G01*
X64950000Y-51225000D01*
G75*
G02*
X65025000Y-51150000I75000J0D01*
G01*
G37*
G36*
G01*
X65525000Y-51150000D02*
X65675000Y-51150000D01*
G75*
G02*
X65750000Y-51225000I0J-75000D01*
G01*
X65750000Y-52625000D01*
G75*
G02*
X65675000Y-52700000I-75000J0D01*
G01*
X65525000Y-52700000D01*
G75*
G02*
X65450000Y-52625000I0J75000D01*
G01*
X65450000Y-51225000D01*
G75*
G02*
X65525000Y-51150000I75000J0D01*
G01*
G37*
G36*
G01*
X66025000Y-51150000D02*
X66175000Y-51150000D01*
G75*
G02*
X66250000Y-51225000I0J-75000D01*
G01*
X66250000Y-52625000D01*
G75*
G02*
X66175000Y-52700000I-75000J0D01*
G01*
X66025000Y-52700000D01*
G75*
G02*
X65950000Y-52625000I0J75000D01*
G01*
X65950000Y-51225000D01*
G75*
G02*
X66025000Y-51150000I75000J0D01*
G01*
G37*
G36*
G01*
X66525000Y-51150000D02*
X66675000Y-51150000D01*
G75*
G02*
X66750000Y-51225000I0J-75000D01*
G01*
X66750000Y-52625000D01*
G75*
G02*
X66675000Y-52700000I-75000J0D01*
G01*
X66525000Y-52700000D01*
G75*
G02*
X66450000Y-52625000I0J75000D01*
G01*
X66450000Y-51225000D01*
G75*
G02*
X66525000Y-51150000I75000J0D01*
G01*
G37*
G36*
G01*
X67025000Y-51150000D02*
X67175000Y-51150000D01*
G75*
G02*
X67250000Y-51225000I0J-75000D01*
G01*
X67250000Y-52625000D01*
G75*
G02*
X67175000Y-52700000I-75000J0D01*
G01*
X67025000Y-52700000D01*
G75*
G02*
X66950000Y-52625000I0J75000D01*
G01*
X66950000Y-51225000D01*
G75*
G02*
X67025000Y-51150000I75000J0D01*
G01*
G37*
G36*
G01*
X67525000Y-51150000D02*
X67675000Y-51150000D01*
G75*
G02*
X67750000Y-51225000I0J-75000D01*
G01*
X67750000Y-52625000D01*
G75*
G02*
X67675000Y-52700000I-75000J0D01*
G01*
X67525000Y-52700000D01*
G75*
G02*
X67450000Y-52625000I0J75000D01*
G01*
X67450000Y-51225000D01*
G75*
G02*
X67525000Y-51150000I75000J0D01*
G01*
G37*
G36*
G01*
X68025000Y-51150000D02*
X68175000Y-51150000D01*
G75*
G02*
X68250000Y-51225000I0J-75000D01*
G01*
X68250000Y-52625000D01*
G75*
G02*
X68175000Y-52700000I-75000J0D01*
G01*
X68025000Y-52700000D01*
G75*
G02*
X67950000Y-52625000I0J75000D01*
G01*
X67950000Y-51225000D01*
G75*
G02*
X68025000Y-51150000I75000J0D01*
G01*
G37*
G36*
G01*
X68525000Y-51150000D02*
X68675000Y-51150000D01*
G75*
G02*
X68750000Y-51225000I0J-75000D01*
G01*
X68750000Y-52625000D01*
G75*
G02*
X68675000Y-52700000I-75000J0D01*
G01*
X68525000Y-52700000D01*
G75*
G02*
X68450000Y-52625000I0J75000D01*
G01*
X68450000Y-51225000D01*
G75*
G02*
X68525000Y-51150000I75000J0D01*
G01*
G37*
G36*
G01*
X69025000Y-51150000D02*
X69175000Y-51150000D01*
G75*
G02*
X69250000Y-51225000I0J-75000D01*
G01*
X69250000Y-52625000D01*
G75*
G02*
X69175000Y-52700000I-75000J0D01*
G01*
X69025000Y-52700000D01*
G75*
G02*
X68950000Y-52625000I0J75000D01*
G01*
X68950000Y-51225000D01*
G75*
G02*
X69025000Y-51150000I75000J0D01*
G01*
G37*
G36*
G01*
X69525000Y-51150000D02*
X69675000Y-51150000D01*
G75*
G02*
X69750000Y-51225000I0J-75000D01*
G01*
X69750000Y-52625000D01*
G75*
G02*
X69675000Y-52700000I-75000J0D01*
G01*
X69525000Y-52700000D01*
G75*
G02*
X69450000Y-52625000I0J75000D01*
G01*
X69450000Y-51225000D01*
G75*
G02*
X69525000Y-51150000I75000J0D01*
G01*
G37*
G36*
G01*
X70025000Y-51150000D02*
X70175000Y-51150000D01*
G75*
G02*
X70250000Y-51225000I0J-75000D01*
G01*
X70250000Y-52625000D01*
G75*
G02*
X70175000Y-52700000I-75000J0D01*
G01*
X70025000Y-52700000D01*
G75*
G02*
X69950000Y-52625000I0J75000D01*
G01*
X69950000Y-51225000D01*
G75*
G02*
X70025000Y-51150000I75000J0D01*
G01*
G37*
G36*
G01*
X70525000Y-51150000D02*
X70675000Y-51150000D01*
G75*
G02*
X70750000Y-51225000I0J-75000D01*
G01*
X70750000Y-52625000D01*
G75*
G02*
X70675000Y-52700000I-75000J0D01*
G01*
X70525000Y-52700000D01*
G75*
G02*
X70450000Y-52625000I0J75000D01*
G01*
X70450000Y-51225000D01*
G75*
G02*
X70525000Y-51150000I75000J0D01*
G01*
G37*
G36*
G01*
X71025000Y-51150000D02*
X71175000Y-51150000D01*
G75*
G02*
X71250000Y-51225000I0J-75000D01*
G01*
X71250000Y-52625000D01*
G75*
G02*
X71175000Y-52700000I-75000J0D01*
G01*
X71025000Y-52700000D01*
G75*
G02*
X70950000Y-52625000I0J75000D01*
G01*
X70950000Y-51225000D01*
G75*
G02*
X71025000Y-51150000I75000J0D01*
G01*
G37*
G36*
G01*
X71525000Y-51150000D02*
X71675000Y-51150000D01*
G75*
G02*
X71750000Y-51225000I0J-75000D01*
G01*
X71750000Y-52625000D01*
G75*
G02*
X71675000Y-52700000I-75000J0D01*
G01*
X71525000Y-52700000D01*
G75*
G02*
X71450000Y-52625000I0J75000D01*
G01*
X71450000Y-51225000D01*
G75*
G02*
X71525000Y-51150000I75000J0D01*
G01*
G37*
G36*
G01*
X72025000Y-51150000D02*
X72175000Y-51150000D01*
G75*
G02*
X72250000Y-51225000I0J-75000D01*
G01*
X72250000Y-52625000D01*
G75*
G02*
X72175000Y-52700000I-75000J0D01*
G01*
X72025000Y-52700000D01*
G75*
G02*
X71950000Y-52625000I0J75000D01*
G01*
X71950000Y-51225000D01*
G75*
G02*
X72025000Y-51150000I75000J0D01*
G01*
G37*
G36*
G01*
X73325000Y-49850000D02*
X74725000Y-49850000D01*
G75*
G02*
X74800000Y-49925000I0J-75000D01*
G01*
X74800000Y-50075000D01*
G75*
G02*
X74725000Y-50150000I-75000J0D01*
G01*
X73325000Y-50150000D01*
G75*
G02*
X73250000Y-50075000I0J75000D01*
G01*
X73250000Y-49925000D01*
G75*
G02*
X73325000Y-49850000I75000J0D01*
G01*
G37*
G36*
G01*
X73325000Y-49350000D02*
X74725000Y-49350000D01*
G75*
G02*
X74800000Y-49425000I0J-75000D01*
G01*
X74800000Y-49575000D01*
G75*
G02*
X74725000Y-49650000I-75000J0D01*
G01*
X73325000Y-49650000D01*
G75*
G02*
X73250000Y-49575000I0J75000D01*
G01*
X73250000Y-49425000D01*
G75*
G02*
X73325000Y-49350000I75000J0D01*
G01*
G37*
G36*
G01*
X73325000Y-48850000D02*
X74725000Y-48850000D01*
G75*
G02*
X74800000Y-48925000I0J-75000D01*
G01*
X74800000Y-49075000D01*
G75*
G02*
X74725000Y-49150000I-75000J0D01*
G01*
X73325000Y-49150000D01*
G75*
G02*
X73250000Y-49075000I0J75000D01*
G01*
X73250000Y-48925000D01*
G75*
G02*
X73325000Y-48850000I75000J0D01*
G01*
G37*
G36*
G01*
X73325000Y-48350000D02*
X74725000Y-48350000D01*
G75*
G02*
X74800000Y-48425000I0J-75000D01*
G01*
X74800000Y-48575000D01*
G75*
G02*
X74725000Y-48650000I-75000J0D01*
G01*
X73325000Y-48650000D01*
G75*
G02*
X73250000Y-48575000I0J75000D01*
G01*
X73250000Y-48425000D01*
G75*
G02*
X73325000Y-48350000I75000J0D01*
G01*
G37*
G36*
G01*
X73325000Y-47850000D02*
X74725000Y-47850000D01*
G75*
G02*
X74800000Y-47925000I0J-75000D01*
G01*
X74800000Y-48075000D01*
G75*
G02*
X74725000Y-48150000I-75000J0D01*
G01*
X73325000Y-48150000D01*
G75*
G02*
X73250000Y-48075000I0J75000D01*
G01*
X73250000Y-47925000D01*
G75*
G02*
X73325000Y-47850000I75000J0D01*
G01*
G37*
G36*
G01*
X73325000Y-47350000D02*
X74725000Y-47350000D01*
G75*
G02*
X74800000Y-47425000I0J-75000D01*
G01*
X74800000Y-47575000D01*
G75*
G02*
X74725000Y-47650000I-75000J0D01*
G01*
X73325000Y-47650000D01*
G75*
G02*
X73250000Y-47575000I0J75000D01*
G01*
X73250000Y-47425000D01*
G75*
G02*
X73325000Y-47350000I75000J0D01*
G01*
G37*
G36*
G01*
X73325000Y-46850000D02*
X74725000Y-46850000D01*
G75*
G02*
X74800000Y-46925000I0J-75000D01*
G01*
X74800000Y-47075000D01*
G75*
G02*
X74725000Y-47150000I-75000J0D01*
G01*
X73325000Y-47150000D01*
G75*
G02*
X73250000Y-47075000I0J75000D01*
G01*
X73250000Y-46925000D01*
G75*
G02*
X73325000Y-46850000I75000J0D01*
G01*
G37*
G36*
G01*
X73325000Y-46350000D02*
X74725000Y-46350000D01*
G75*
G02*
X74800000Y-46425000I0J-75000D01*
G01*
X74800000Y-46575000D01*
G75*
G02*
X74725000Y-46650000I-75000J0D01*
G01*
X73325000Y-46650000D01*
G75*
G02*
X73250000Y-46575000I0J75000D01*
G01*
X73250000Y-46425000D01*
G75*
G02*
X73325000Y-46350000I75000J0D01*
G01*
G37*
G36*
G01*
X73325000Y-45850000D02*
X74725000Y-45850000D01*
G75*
G02*
X74800000Y-45925000I0J-75000D01*
G01*
X74800000Y-46075000D01*
G75*
G02*
X74725000Y-46150000I-75000J0D01*
G01*
X73325000Y-46150000D01*
G75*
G02*
X73250000Y-46075000I0J75000D01*
G01*
X73250000Y-45925000D01*
G75*
G02*
X73325000Y-45850000I75000J0D01*
G01*
G37*
G36*
G01*
X73325000Y-45350000D02*
X74725000Y-45350000D01*
G75*
G02*
X74800000Y-45425000I0J-75000D01*
G01*
X74800000Y-45575000D01*
G75*
G02*
X74725000Y-45650000I-75000J0D01*
G01*
X73325000Y-45650000D01*
G75*
G02*
X73250000Y-45575000I0J75000D01*
G01*
X73250000Y-45425000D01*
G75*
G02*
X73325000Y-45350000I75000J0D01*
G01*
G37*
G36*
G01*
X73325000Y-44850000D02*
X74725000Y-44850000D01*
G75*
G02*
X74800000Y-44925000I0J-75000D01*
G01*
X74800000Y-45075000D01*
G75*
G02*
X74725000Y-45150000I-75000J0D01*
G01*
X73325000Y-45150000D01*
G75*
G02*
X73250000Y-45075000I0J75000D01*
G01*
X73250000Y-44925000D01*
G75*
G02*
X73325000Y-44850000I75000J0D01*
G01*
G37*
G36*
G01*
X73325000Y-44350000D02*
X74725000Y-44350000D01*
G75*
G02*
X74800000Y-44425000I0J-75000D01*
G01*
X74800000Y-44575000D01*
G75*
G02*
X74725000Y-44650000I-75000J0D01*
G01*
X73325000Y-44650000D01*
G75*
G02*
X73250000Y-44575000I0J75000D01*
G01*
X73250000Y-44425000D01*
G75*
G02*
X73325000Y-44350000I75000J0D01*
G01*
G37*
G36*
G01*
X73325000Y-43850000D02*
X74725000Y-43850000D01*
G75*
G02*
X74800000Y-43925000I0J-75000D01*
G01*
X74800000Y-44075000D01*
G75*
G02*
X74725000Y-44150000I-75000J0D01*
G01*
X73325000Y-44150000D01*
G75*
G02*
X73250000Y-44075000I0J75000D01*
G01*
X73250000Y-43925000D01*
G75*
G02*
X73325000Y-43850000I75000J0D01*
G01*
G37*
G36*
G01*
X73325000Y-43350000D02*
X74725000Y-43350000D01*
G75*
G02*
X74800000Y-43425000I0J-75000D01*
G01*
X74800000Y-43575000D01*
G75*
G02*
X74725000Y-43650000I-75000J0D01*
G01*
X73325000Y-43650000D01*
G75*
G02*
X73250000Y-43575000I0J75000D01*
G01*
X73250000Y-43425000D01*
G75*
G02*
X73325000Y-43350000I75000J0D01*
G01*
G37*
G36*
G01*
X73325000Y-42850000D02*
X74725000Y-42850000D01*
G75*
G02*
X74800000Y-42925000I0J-75000D01*
G01*
X74800000Y-43075000D01*
G75*
G02*
X74725000Y-43150000I-75000J0D01*
G01*
X73325000Y-43150000D01*
G75*
G02*
X73250000Y-43075000I0J75000D01*
G01*
X73250000Y-42925000D01*
G75*
G02*
X73325000Y-42850000I75000J0D01*
G01*
G37*
G36*
G01*
X73325000Y-42350000D02*
X74725000Y-42350000D01*
G75*
G02*
X74800000Y-42425000I0J-75000D01*
G01*
X74800000Y-42575000D01*
G75*
G02*
X74725000Y-42650000I-75000J0D01*
G01*
X73325000Y-42650000D01*
G75*
G02*
X73250000Y-42575000I0J75000D01*
G01*
X73250000Y-42425000D01*
G75*
G02*
X73325000Y-42350000I75000J0D01*
G01*
G37*
D10*
X23015000Y-35725000D03*
X23015000Y-36725000D03*
X23015000Y-37725000D03*
X23015000Y-38725000D03*
X23015000Y-39725000D03*
X23015000Y-40725000D03*
X23015000Y-41725000D03*
X23015000Y-42725000D03*
X23015000Y-43725000D03*
X23015000Y-44725000D03*
X23015000Y-45725000D03*
X23015000Y-46725000D03*
X23015000Y-47725000D03*
X23015000Y-48725000D03*
X23015000Y-49725000D03*
X23015000Y-50725000D03*
X23015000Y-51725000D03*
X23015000Y-52725000D03*
X23015000Y-53725000D03*
X23015000Y-54725000D03*
X23015000Y-55725000D03*
X23015000Y-56725000D03*
D11*
X25715000Y-32925000D03*
X25715000Y-59525000D03*
G36*
G01*
X74462500Y-38856250D02*
X74462500Y-37943750D01*
G75*
G02*
X74706250Y-37700000I243750J0D01*
G01*
X75193750Y-37700000D01*
G75*
G02*
X75437500Y-37943750I0J-243750D01*
G01*
X75437500Y-38856250D01*
G75*
G02*
X75193750Y-39100000I-243750J0D01*
G01*
X74706250Y-39100000D01*
G75*
G02*
X74462500Y-38856250I0J243750D01*
G01*
G37*
G36*
G01*
X76337500Y-38856250D02*
X76337500Y-37943750D01*
G75*
G02*
X76581250Y-37700000I243750J0D01*
G01*
X77068750Y-37700000D01*
G75*
G02*
X77312500Y-37943750I0J-243750D01*
G01*
X77312500Y-38856250D01*
G75*
G02*
X77068750Y-39100000I-243750J0D01*
G01*
X76581250Y-39100000D01*
G75*
G02*
X76337500Y-38856250I0J243750D01*
G01*
G37*
G36*
G01*
X71805000Y-38972500D02*
X71805000Y-38627500D01*
G75*
G02*
X71952500Y-38480000I147500J0D01*
G01*
X72247500Y-38480000D01*
G75*
G02*
X72395000Y-38627500I0J-147500D01*
G01*
X72395000Y-38972500D01*
G75*
G02*
X72247500Y-39120000I-147500J0D01*
G01*
X71952500Y-39120000D01*
G75*
G02*
X71805000Y-38972500I0J147500D01*
G01*
G37*
G36*
G01*
X72775000Y-38972500D02*
X72775000Y-38627500D01*
G75*
G02*
X72922500Y-38480000I147500J0D01*
G01*
X73217500Y-38480000D01*
G75*
G02*
X73365000Y-38627500I0J-147500D01*
G01*
X73365000Y-38972500D01*
G75*
G02*
X73217500Y-39120000I-147500J0D01*
G01*
X72922500Y-39120000D01*
G75*
G02*
X72775000Y-38972500I0J147500D01*
G01*
G37*
G36*
G01*
X61072500Y-43780000D02*
X60727500Y-43780000D01*
G75*
G02*
X60580000Y-43632500I0J147500D01*
G01*
X60580000Y-43337500D01*
G75*
G02*
X60727500Y-43190000I147500J0D01*
G01*
X61072500Y-43190000D01*
G75*
G02*
X61220000Y-43337500I0J-147500D01*
G01*
X61220000Y-43632500D01*
G75*
G02*
X61072500Y-43780000I-147500J0D01*
G01*
G37*
G36*
G01*
X61072500Y-42810000D02*
X60727500Y-42810000D01*
G75*
G02*
X60580000Y-42662500I0J147500D01*
G01*
X60580000Y-42367500D01*
G75*
G02*
X60727500Y-42220000I147500J0D01*
G01*
X61072500Y-42220000D01*
G75*
G02*
X61220000Y-42367500I0J-147500D01*
G01*
X61220000Y-42662500D01*
G75*
G02*
X61072500Y-42810000I-147500J0D01*
G01*
G37*
G36*
G01*
X59972500Y-42810000D02*
X59627500Y-42810000D01*
G75*
G02*
X59480000Y-42662500I0J147500D01*
G01*
X59480000Y-42367500D01*
G75*
G02*
X59627500Y-42220000I147500J0D01*
G01*
X59972500Y-42220000D01*
G75*
G02*
X60120000Y-42367500I0J-147500D01*
G01*
X60120000Y-42662500D01*
G75*
G02*
X59972500Y-42810000I-147500J0D01*
G01*
G37*
G36*
G01*
X59972500Y-43780000D02*
X59627500Y-43780000D01*
G75*
G02*
X59480000Y-43632500I0J147500D01*
G01*
X59480000Y-43337500D01*
G75*
G02*
X59627500Y-43190000I147500J0D01*
G01*
X59972500Y-43190000D01*
G75*
G02*
X60120000Y-43337500I0J-147500D01*
G01*
X60120000Y-43632500D01*
G75*
G02*
X59972500Y-43780000I-147500J0D01*
G01*
G37*
G36*
G01*
X62277500Y-51775000D02*
X62622500Y-51775000D01*
G75*
G02*
X62770000Y-51922500I0J-147500D01*
G01*
X62770000Y-52217500D01*
G75*
G02*
X62622500Y-52365000I-147500J0D01*
G01*
X62277500Y-52365000D01*
G75*
G02*
X62130000Y-52217500I0J147500D01*
G01*
X62130000Y-51922500D01*
G75*
G02*
X62277500Y-51775000I147500J0D01*
G01*
G37*
G36*
G01*
X62277500Y-50805000D02*
X62622500Y-50805000D01*
G75*
G02*
X62770000Y-50952500I0J-147500D01*
G01*
X62770000Y-51247500D01*
G75*
G02*
X62622500Y-51395000I-147500J0D01*
G01*
X62277500Y-51395000D01*
G75*
G02*
X62130000Y-51247500I0J147500D01*
G01*
X62130000Y-50952500D01*
G75*
G02*
X62277500Y-50805000I147500J0D01*
G01*
G37*
G36*
G01*
X61277500Y-51805000D02*
X61622500Y-51805000D01*
G75*
G02*
X61770000Y-51952500I0J-147500D01*
G01*
X61770000Y-52247500D01*
G75*
G02*
X61622500Y-52395000I-147500J0D01*
G01*
X61277500Y-52395000D01*
G75*
G02*
X61130000Y-52247500I0J147500D01*
G01*
X61130000Y-51952500D01*
G75*
G02*
X61277500Y-51805000I147500J0D01*
G01*
G37*
G36*
G01*
X61277500Y-50835000D02*
X61622500Y-50835000D01*
G75*
G02*
X61770000Y-50982500I0J-147500D01*
G01*
X61770000Y-51277500D01*
G75*
G02*
X61622500Y-51425000I-147500J0D01*
G01*
X61277500Y-51425000D01*
G75*
G02*
X61130000Y-51277500I0J147500D01*
G01*
X61130000Y-50982500D01*
G75*
G02*
X61277500Y-50835000I147500J0D01*
G01*
G37*
G36*
G01*
X74140000Y-52322500D02*
X74140000Y-51977500D01*
G75*
G02*
X74287500Y-51830000I147500J0D01*
G01*
X74582500Y-51830000D01*
G75*
G02*
X74730000Y-51977500I0J-147500D01*
G01*
X74730000Y-52322500D01*
G75*
G02*
X74582500Y-52470000I-147500J0D01*
G01*
X74287500Y-52470000D01*
G75*
G02*
X74140000Y-52322500I0J147500D01*
G01*
G37*
G36*
G01*
X73170000Y-52322500D02*
X73170000Y-51977500D01*
G75*
G02*
X73317500Y-51830000I147500J0D01*
G01*
X73612500Y-51830000D01*
G75*
G02*
X73760000Y-51977500I0J-147500D01*
G01*
X73760000Y-52322500D01*
G75*
G02*
X73612500Y-52470000I-147500J0D01*
G01*
X73317500Y-52470000D01*
G75*
G02*
X73170000Y-52322500I0J147500D01*
G01*
G37*
G36*
G01*
X73170000Y-53422500D02*
X73170000Y-53077500D01*
G75*
G02*
X73317500Y-52930000I147500J0D01*
G01*
X73612500Y-52930000D01*
G75*
G02*
X73760000Y-53077500I0J-147500D01*
G01*
X73760000Y-53422500D01*
G75*
G02*
X73612500Y-53570000I-147500J0D01*
G01*
X73317500Y-53570000D01*
G75*
G02*
X73170000Y-53422500I0J147500D01*
G01*
G37*
G36*
G01*
X74140000Y-53422500D02*
X74140000Y-53077500D01*
G75*
G02*
X74287500Y-52930000I147500J0D01*
G01*
X74582500Y-52930000D01*
G75*
G02*
X74730000Y-53077500I0J-147500D01*
G01*
X74730000Y-53422500D01*
G75*
G02*
X74582500Y-53570000I-147500J0D01*
G01*
X74287500Y-53570000D01*
G75*
G02*
X74140000Y-53422500I0J147500D01*
G01*
G37*
G36*
G01*
X75627500Y-42790000D02*
X75972500Y-42790000D01*
G75*
G02*
X76120000Y-42937500I0J-147500D01*
G01*
X76120000Y-43232500D01*
G75*
G02*
X75972500Y-43380000I-147500J0D01*
G01*
X75627500Y-43380000D01*
G75*
G02*
X75480000Y-43232500I0J147500D01*
G01*
X75480000Y-42937500D01*
G75*
G02*
X75627500Y-42790000I147500J0D01*
G01*
G37*
G36*
G01*
X75627500Y-41820000D02*
X75972500Y-41820000D01*
G75*
G02*
X76120000Y-41967500I0J-147500D01*
G01*
X76120000Y-42262500D01*
G75*
G02*
X75972500Y-42410000I-147500J0D01*
G01*
X75627500Y-42410000D01*
G75*
G02*
X75480000Y-42262500I0J147500D01*
G01*
X75480000Y-41967500D01*
G75*
G02*
X75627500Y-41820000I147500J0D01*
G01*
G37*
G36*
G01*
X76727500Y-41820000D02*
X77072500Y-41820000D01*
G75*
G02*
X77220000Y-41967500I0J-147500D01*
G01*
X77220000Y-42262500D01*
G75*
G02*
X77072500Y-42410000I-147500J0D01*
G01*
X76727500Y-42410000D01*
G75*
G02*
X76580000Y-42262500I0J147500D01*
G01*
X76580000Y-41967500D01*
G75*
G02*
X76727500Y-41820000I147500J0D01*
G01*
G37*
G36*
G01*
X76727500Y-42790000D02*
X77072500Y-42790000D01*
G75*
G02*
X77220000Y-42937500I0J-147500D01*
G01*
X77220000Y-43232500D01*
G75*
G02*
X77072500Y-43380000I-147500J0D01*
G01*
X76727500Y-43380000D01*
G75*
G02*
X76580000Y-43232500I0J147500D01*
G01*
X76580000Y-42937500D01*
G75*
G02*
X76727500Y-42790000I147500J0D01*
G01*
G37*
G36*
G01*
X59550000Y-49243750D02*
X59550000Y-49756250D01*
G75*
G02*
X59331250Y-49975000I-218750J0D01*
G01*
X58893750Y-49975000D01*
G75*
G02*
X58675000Y-49756250I0J218750D01*
G01*
X58675000Y-49243750D01*
G75*
G02*
X58893750Y-49025000I218750J0D01*
G01*
X59331250Y-49025000D01*
G75*
G02*
X59550000Y-49243750I0J-218750D01*
G01*
G37*
G36*
G01*
X61125000Y-49243750D02*
X61125000Y-49756250D01*
G75*
G02*
X60906250Y-49975000I-218750J0D01*
G01*
X60468750Y-49975000D01*
G75*
G02*
X60250000Y-49756250I0J218750D01*
G01*
X60250000Y-49243750D01*
G75*
G02*
X60468750Y-49025000I218750J0D01*
G01*
X60906250Y-49025000D01*
G75*
G02*
X61125000Y-49243750I0J-218750D01*
G01*
G37*
G36*
G01*
X71893750Y-53525000D02*
X72406250Y-53525000D01*
G75*
G02*
X72625000Y-53743750I0J-218750D01*
G01*
X72625000Y-54181250D01*
G75*
G02*
X72406250Y-54400000I-218750J0D01*
G01*
X71893750Y-54400000D01*
G75*
G02*
X71675000Y-54181250I0J218750D01*
G01*
X71675000Y-53743750D01*
G75*
G02*
X71893750Y-53525000I218750J0D01*
G01*
G37*
G36*
G01*
X71893750Y-55100000D02*
X72406250Y-55100000D01*
G75*
G02*
X72625000Y-55318750I0J-218750D01*
G01*
X72625000Y-55756250D01*
G75*
G02*
X72406250Y-55975000I-218750J0D01*
G01*
X71893750Y-55975000D01*
G75*
G02*
X71675000Y-55756250I0J218750D01*
G01*
X71675000Y-55318750D01*
G75*
G02*
X71893750Y-55100000I218750J0D01*
G01*
G37*
G36*
G01*
X72977500Y-34205000D02*
X73322500Y-34205000D01*
G75*
G02*
X73470000Y-34352500I0J-147500D01*
G01*
X73470000Y-34647500D01*
G75*
G02*
X73322500Y-34795000I-147500J0D01*
G01*
X72977500Y-34795000D01*
G75*
G02*
X72830000Y-34647500I0J147500D01*
G01*
X72830000Y-34352500D01*
G75*
G02*
X72977500Y-34205000I147500J0D01*
G01*
G37*
G36*
G01*
X72977500Y-33235000D02*
X73322500Y-33235000D01*
G75*
G02*
X73470000Y-33382500I0J-147500D01*
G01*
X73470000Y-33677500D01*
G75*
G02*
X73322500Y-33825000I-147500J0D01*
G01*
X72977500Y-33825000D01*
G75*
G02*
X72830000Y-33677500I0J147500D01*
G01*
X72830000Y-33382500D01*
G75*
G02*
X72977500Y-33235000I147500J0D01*
G01*
G37*
G36*
G01*
X67522500Y-35230000D02*
X67177500Y-35230000D01*
G75*
G02*
X67030000Y-35082500I0J147500D01*
G01*
X67030000Y-34787500D01*
G75*
G02*
X67177500Y-34640000I147500J0D01*
G01*
X67522500Y-34640000D01*
G75*
G02*
X67670000Y-34787500I0J-147500D01*
G01*
X67670000Y-35082500D01*
G75*
G02*
X67522500Y-35230000I-147500J0D01*
G01*
G37*
G36*
G01*
X67522500Y-34260000D02*
X67177500Y-34260000D01*
G75*
G02*
X67030000Y-34112500I0J147500D01*
G01*
X67030000Y-33817500D01*
G75*
G02*
X67177500Y-33670000I147500J0D01*
G01*
X67522500Y-33670000D01*
G75*
G02*
X67670000Y-33817500I0J-147500D01*
G01*
X67670000Y-34112500D01*
G75*
G02*
X67522500Y-34260000I-147500J0D01*
G01*
G37*
G36*
G01*
X86706250Y-31900000D02*
X85793750Y-31900000D01*
G75*
G02*
X85550000Y-31656250I0J243750D01*
G01*
X85550000Y-31168750D01*
G75*
G02*
X85793750Y-30925000I243750J0D01*
G01*
X86706250Y-30925000D01*
G75*
G02*
X86950000Y-31168750I0J-243750D01*
G01*
X86950000Y-31656250D01*
G75*
G02*
X86706250Y-31900000I-243750J0D01*
G01*
G37*
G36*
G01*
X86706250Y-33775000D02*
X85793750Y-33775000D01*
G75*
G02*
X85550000Y-33531250I0J243750D01*
G01*
X85550000Y-33043750D01*
G75*
G02*
X85793750Y-32800000I243750J0D01*
G01*
X86706250Y-32800000D01*
G75*
G02*
X86950000Y-33043750I0J-243750D01*
G01*
X86950000Y-33531250D01*
G75*
G02*
X86706250Y-33775000I-243750J0D01*
G01*
G37*
G36*
G01*
X81825000Y-34843750D02*
X81825000Y-35756250D01*
G75*
G02*
X81581250Y-36000000I-243750J0D01*
G01*
X81093750Y-36000000D01*
G75*
G02*
X80850000Y-35756250I0J243750D01*
G01*
X80850000Y-34843750D01*
G75*
G02*
X81093750Y-34600000I243750J0D01*
G01*
X81581250Y-34600000D01*
G75*
G02*
X81825000Y-34843750I0J-243750D01*
G01*
G37*
G36*
G01*
X79950000Y-34843750D02*
X79950000Y-35756250D01*
G75*
G02*
X79706250Y-36000000I-243750J0D01*
G01*
X79218750Y-36000000D01*
G75*
G02*
X78975000Y-35756250I0J243750D01*
G01*
X78975000Y-34843750D01*
G75*
G02*
X79218750Y-34600000I243750J0D01*
G01*
X79706250Y-34600000D01*
G75*
G02*
X79950000Y-34843750I0J-243750D01*
G01*
G37*
G36*
G01*
X66340000Y-37922500D02*
X66340000Y-37577500D01*
G75*
G02*
X66487500Y-37430000I147500J0D01*
G01*
X66782500Y-37430000D01*
G75*
G02*
X66930000Y-37577500I0J-147500D01*
G01*
X66930000Y-37922500D01*
G75*
G02*
X66782500Y-38070000I-147500J0D01*
G01*
X66487500Y-38070000D01*
G75*
G02*
X66340000Y-37922500I0J147500D01*
G01*
G37*
G36*
G01*
X65370000Y-37922500D02*
X65370000Y-37577500D01*
G75*
G02*
X65517500Y-37430000I147500J0D01*
G01*
X65812500Y-37430000D01*
G75*
G02*
X65960000Y-37577500I0J-147500D01*
G01*
X65960000Y-37922500D01*
G75*
G02*
X65812500Y-38070000I-147500J0D01*
G01*
X65517500Y-38070000D01*
G75*
G02*
X65370000Y-37922500I0J147500D01*
G01*
G37*
G36*
G01*
X65370000Y-39072500D02*
X65370000Y-38727500D01*
G75*
G02*
X65517500Y-38580000I147500J0D01*
G01*
X65812500Y-38580000D01*
G75*
G02*
X65960000Y-38727500I0J-147500D01*
G01*
X65960000Y-39072500D01*
G75*
G02*
X65812500Y-39220000I-147500J0D01*
G01*
X65517500Y-39220000D01*
G75*
G02*
X65370000Y-39072500I0J147500D01*
G01*
G37*
G36*
G01*
X66340000Y-39072500D02*
X66340000Y-38727500D01*
G75*
G02*
X66487500Y-38580000I147500J0D01*
G01*
X66782500Y-38580000D01*
G75*
G02*
X66930000Y-38727500I0J-147500D01*
G01*
X66930000Y-39072500D01*
G75*
G02*
X66782500Y-39220000I-147500J0D01*
G01*
X66487500Y-39220000D01*
G75*
G02*
X66340000Y-39072500I0J147500D01*
G01*
G37*
G36*
G01*
X43052500Y-23765000D02*
X43397500Y-23765000D01*
G75*
G02*
X43545000Y-23912500I0J-147500D01*
G01*
X43545000Y-24207500D01*
G75*
G02*
X43397500Y-24355000I-147500J0D01*
G01*
X43052500Y-24355000D01*
G75*
G02*
X42905000Y-24207500I0J147500D01*
G01*
X42905000Y-23912500D01*
G75*
G02*
X43052500Y-23765000I147500J0D01*
G01*
G37*
G36*
G01*
X43052500Y-22795000D02*
X43397500Y-22795000D01*
G75*
G02*
X43545000Y-22942500I0J-147500D01*
G01*
X43545000Y-23237500D01*
G75*
G02*
X43397500Y-23385000I-147500J0D01*
G01*
X43052500Y-23385000D01*
G75*
G02*
X42905000Y-23237500I0J147500D01*
G01*
X42905000Y-22942500D01*
G75*
G02*
X43052500Y-22795000I147500J0D01*
G01*
G37*
G36*
G01*
X38920000Y-26772500D02*
X38920000Y-26427500D01*
G75*
G02*
X39067500Y-26280000I147500J0D01*
G01*
X39362500Y-26280000D01*
G75*
G02*
X39510000Y-26427500I0J-147500D01*
G01*
X39510000Y-26772500D01*
G75*
G02*
X39362500Y-26920000I-147500J0D01*
G01*
X39067500Y-26920000D01*
G75*
G02*
X38920000Y-26772500I0J147500D01*
G01*
G37*
G36*
G01*
X39890000Y-26772500D02*
X39890000Y-26427500D01*
G75*
G02*
X40037500Y-26280000I147500J0D01*
G01*
X40332500Y-26280000D01*
G75*
G02*
X40480000Y-26427500I0J-147500D01*
G01*
X40480000Y-26772500D01*
G75*
G02*
X40332500Y-26920000I-147500J0D01*
G01*
X40037500Y-26920000D01*
G75*
G02*
X39890000Y-26772500I0J147500D01*
G01*
G37*
G36*
G01*
X48150000Y-55793750D02*
X48150000Y-56306250D01*
G75*
G02*
X47931250Y-56525000I-218750J0D01*
G01*
X47493750Y-56525000D01*
G75*
G02*
X47275000Y-56306250I0J218750D01*
G01*
X47275000Y-55793750D01*
G75*
G02*
X47493750Y-55575000I218750J0D01*
G01*
X47931250Y-55575000D01*
G75*
G02*
X48150000Y-55793750I0J-218750D01*
G01*
G37*
G36*
G01*
X46575000Y-55793750D02*
X46575000Y-56306250D01*
G75*
G02*
X46356250Y-56525000I-218750J0D01*
G01*
X45918750Y-56525000D01*
G75*
G02*
X45700000Y-56306250I0J218750D01*
G01*
X45700000Y-55793750D01*
G75*
G02*
X45918750Y-55575000I218750J0D01*
G01*
X46356250Y-55575000D01*
G75*
G02*
X46575000Y-55793750I0J-218750D01*
G01*
G37*
G36*
G01*
X45643750Y-60187500D02*
X46556250Y-60187500D01*
G75*
G02*
X46800000Y-60431250I0J-243750D01*
G01*
X46800000Y-60918750D01*
G75*
G02*
X46556250Y-61162500I-243750J0D01*
G01*
X45643750Y-61162500D01*
G75*
G02*
X45400000Y-60918750I0J243750D01*
G01*
X45400000Y-60431250D01*
G75*
G02*
X45643750Y-60187500I243750J0D01*
G01*
G37*
G36*
G01*
X45643750Y-62062500D02*
X46556250Y-62062500D01*
G75*
G02*
X46800000Y-62306250I0J-243750D01*
G01*
X46800000Y-62793750D01*
G75*
G02*
X46556250Y-63037500I-243750J0D01*
G01*
X45643750Y-63037500D01*
G75*
G02*
X45400000Y-62793750I0J243750D01*
G01*
X45400000Y-62306250D01*
G75*
G02*
X45643750Y-62062500I243750J0D01*
G01*
G37*
G36*
G01*
X47702500Y-61115000D02*
X48047500Y-61115000D01*
G75*
G02*
X48195000Y-61262500I0J-147500D01*
G01*
X48195000Y-61557500D01*
G75*
G02*
X48047500Y-61705000I-147500J0D01*
G01*
X47702500Y-61705000D01*
G75*
G02*
X47555000Y-61557500I0J147500D01*
G01*
X47555000Y-61262500D01*
G75*
G02*
X47702500Y-61115000I147500J0D01*
G01*
G37*
G36*
G01*
X47702500Y-60145000D02*
X48047500Y-60145000D01*
G75*
G02*
X48195000Y-60292500I0J-147500D01*
G01*
X48195000Y-60587500D01*
G75*
G02*
X48047500Y-60735000I-147500J0D01*
G01*
X47702500Y-60735000D01*
G75*
G02*
X47555000Y-60587500I0J147500D01*
G01*
X47555000Y-60292500D01*
G75*
G02*
X47702500Y-60145000I147500J0D01*
G01*
G37*
G36*
G01*
X55593750Y-52325000D02*
X56106250Y-52325000D01*
G75*
G02*
X56325000Y-52543750I0J-218750D01*
G01*
X56325000Y-52981250D01*
G75*
G02*
X56106250Y-53200000I-218750J0D01*
G01*
X55593750Y-53200000D01*
G75*
G02*
X55375000Y-52981250I0J218750D01*
G01*
X55375000Y-52543750D01*
G75*
G02*
X55593750Y-52325000I218750J0D01*
G01*
G37*
G36*
G01*
X55593750Y-53900000D02*
X56106250Y-53900000D01*
G75*
G02*
X56325000Y-54118750I0J-218750D01*
G01*
X56325000Y-54556250D01*
G75*
G02*
X56106250Y-54775000I-218750J0D01*
G01*
X55593750Y-54775000D01*
G75*
G02*
X55375000Y-54556250I0J218750D01*
G01*
X55375000Y-54118750D01*
G75*
G02*
X55593750Y-53900000I218750J0D01*
G01*
G37*
G36*
G01*
X49293750Y-65337500D02*
X49806250Y-65337500D01*
G75*
G02*
X50025000Y-65556250I0J-218750D01*
G01*
X50025000Y-65993750D01*
G75*
G02*
X49806250Y-66212500I-218750J0D01*
G01*
X49293750Y-66212500D01*
G75*
G02*
X49075000Y-65993750I0J218750D01*
G01*
X49075000Y-65556250D01*
G75*
G02*
X49293750Y-65337500I218750J0D01*
G01*
G37*
G36*
G01*
X49293750Y-63762500D02*
X49806250Y-63762500D01*
G75*
G02*
X50025000Y-63981250I0J-218750D01*
G01*
X50025000Y-64418750D01*
G75*
G02*
X49806250Y-64637500I-218750J0D01*
G01*
X49293750Y-64637500D01*
G75*
G02*
X49075000Y-64418750I0J218750D01*
G01*
X49075000Y-63981250D01*
G75*
G02*
X49293750Y-63762500I218750J0D01*
G01*
G37*
G36*
G01*
X53700000Y-54631250D02*
X53700000Y-54118750D01*
G75*
G02*
X53918750Y-53900000I218750J0D01*
G01*
X54356250Y-53900000D01*
G75*
G02*
X54575000Y-54118750I0J-218750D01*
G01*
X54575000Y-54631250D01*
G75*
G02*
X54356250Y-54850000I-218750J0D01*
G01*
X53918750Y-54850000D01*
G75*
G02*
X53700000Y-54631250I0J218750D01*
G01*
G37*
G36*
G01*
X52125000Y-54631250D02*
X52125000Y-54118750D01*
G75*
G02*
X52343750Y-53900000I218750J0D01*
G01*
X52781250Y-53900000D01*
G75*
G02*
X53000000Y-54118750I0J-218750D01*
G01*
X53000000Y-54631250D01*
G75*
G02*
X52781250Y-54850000I-218750J0D01*
G01*
X52343750Y-54850000D01*
G75*
G02*
X52125000Y-54631250I0J218750D01*
G01*
G37*
G36*
G01*
X40712500Y-31231250D02*
X40712500Y-30718750D01*
G75*
G02*
X40931250Y-30500000I218750J0D01*
G01*
X41368750Y-30500000D01*
G75*
G02*
X41587500Y-30718750I0J-218750D01*
G01*
X41587500Y-31231250D01*
G75*
G02*
X41368750Y-31450000I-218750J0D01*
G01*
X40931250Y-31450000D01*
G75*
G02*
X40712500Y-31231250I0J218750D01*
G01*
G37*
G36*
G01*
X39137500Y-31231250D02*
X39137500Y-30718750D01*
G75*
G02*
X39356250Y-30500000I218750J0D01*
G01*
X39793750Y-30500000D01*
G75*
G02*
X40012500Y-30718750I0J-218750D01*
G01*
X40012500Y-31231250D01*
G75*
G02*
X39793750Y-31450000I-218750J0D01*
G01*
X39356250Y-31450000D01*
G75*
G02*
X39137500Y-31231250I0J218750D01*
G01*
G37*
G36*
G01*
X51500000Y-30381250D02*
X51500000Y-29468750D01*
G75*
G02*
X51743750Y-29225000I243750J0D01*
G01*
X52231250Y-29225000D01*
G75*
G02*
X52475000Y-29468750I0J-243750D01*
G01*
X52475000Y-30381250D01*
G75*
G02*
X52231250Y-30625000I-243750J0D01*
G01*
X51743750Y-30625000D01*
G75*
G02*
X51500000Y-30381250I0J243750D01*
G01*
G37*
G36*
G01*
X49625000Y-30381250D02*
X49625000Y-29468750D01*
G75*
G02*
X49868750Y-29225000I243750J0D01*
G01*
X50356250Y-29225000D01*
G75*
G02*
X50600000Y-29468750I0J-243750D01*
G01*
X50600000Y-30381250D01*
G75*
G02*
X50356250Y-30625000I-243750J0D01*
G01*
X49868750Y-30625000D01*
G75*
G02*
X49625000Y-30381250I0J243750D01*
G01*
G37*
G36*
G01*
X49805000Y-31722500D02*
X49805000Y-31377500D01*
G75*
G02*
X49952500Y-31230000I147500J0D01*
G01*
X50247500Y-31230000D01*
G75*
G02*
X50395000Y-31377500I0J-147500D01*
G01*
X50395000Y-31722500D01*
G75*
G02*
X50247500Y-31870000I-147500J0D01*
G01*
X49952500Y-31870000D01*
G75*
G02*
X49805000Y-31722500I0J147500D01*
G01*
G37*
G36*
G01*
X50775000Y-31722500D02*
X50775000Y-31377500D01*
G75*
G02*
X50922500Y-31230000I147500J0D01*
G01*
X51217500Y-31230000D01*
G75*
G02*
X51365000Y-31377500I0J-147500D01*
G01*
X51365000Y-31722500D01*
G75*
G02*
X51217500Y-31870000I-147500J0D01*
G01*
X50922500Y-31870000D01*
G75*
G02*
X50775000Y-31722500I0J147500D01*
G01*
G37*
G36*
G01*
X44000000Y-32981250D02*
X44000000Y-32468750D01*
G75*
G02*
X44218750Y-32250000I218750J0D01*
G01*
X44656250Y-32250000D01*
G75*
G02*
X44875000Y-32468750I0J-218750D01*
G01*
X44875000Y-32981250D01*
G75*
G02*
X44656250Y-33200000I-218750J0D01*
G01*
X44218750Y-33200000D01*
G75*
G02*
X44000000Y-32981250I0J218750D01*
G01*
G37*
G36*
G01*
X42425000Y-32981250D02*
X42425000Y-32468750D01*
G75*
G02*
X42643750Y-32250000I218750J0D01*
G01*
X43081250Y-32250000D01*
G75*
G02*
X43300000Y-32468750I0J-218750D01*
G01*
X43300000Y-32981250D01*
G75*
G02*
X43081250Y-33200000I-218750J0D01*
G01*
X42643750Y-33200000D01*
G75*
G02*
X42425000Y-32981250I0J218750D01*
G01*
G37*
G36*
G01*
X49425000Y-37056250D02*
X49425000Y-36543750D01*
G75*
G02*
X49643750Y-36325000I218750J0D01*
G01*
X50081250Y-36325000D01*
G75*
G02*
X50300000Y-36543750I0J-218750D01*
G01*
X50300000Y-37056250D01*
G75*
G02*
X50081250Y-37275000I-218750J0D01*
G01*
X49643750Y-37275000D01*
G75*
G02*
X49425000Y-37056250I0J218750D01*
G01*
G37*
G36*
G01*
X51000000Y-37056250D02*
X51000000Y-36543750D01*
G75*
G02*
X51218750Y-36325000I218750J0D01*
G01*
X51656250Y-36325000D01*
G75*
G02*
X51875000Y-36543750I0J-218750D01*
G01*
X51875000Y-37056250D01*
G75*
G02*
X51656250Y-37275000I-218750J0D01*
G01*
X51218750Y-37275000D01*
G75*
G02*
X51000000Y-37056250I0J218750D01*
G01*
G37*
G36*
G01*
X36562500Y-35693750D02*
X36562500Y-36206250D01*
G75*
G02*
X36343750Y-36425000I-218750J0D01*
G01*
X35906250Y-36425000D01*
G75*
G02*
X35687500Y-36206250I0J218750D01*
G01*
X35687500Y-35693750D01*
G75*
G02*
X35906250Y-35475000I218750J0D01*
G01*
X36343750Y-35475000D01*
G75*
G02*
X36562500Y-35693750I0J-218750D01*
G01*
G37*
G36*
G01*
X34987500Y-35693750D02*
X34987500Y-36206250D01*
G75*
G02*
X34768750Y-36425000I-218750J0D01*
G01*
X34331250Y-36425000D01*
G75*
G02*
X34112500Y-36206250I0J218750D01*
G01*
X34112500Y-35693750D01*
G75*
G02*
X34331250Y-35475000I218750J0D01*
G01*
X34768750Y-35475000D01*
G75*
G02*
X34987500Y-35693750I0J-218750D01*
G01*
G37*
G36*
G01*
X53775000Y-39493750D02*
X53775000Y-40406250D01*
G75*
G02*
X53531250Y-40650000I-243750J0D01*
G01*
X53043750Y-40650000D01*
G75*
G02*
X52800000Y-40406250I0J243750D01*
G01*
X52800000Y-39493750D01*
G75*
G02*
X53043750Y-39250000I243750J0D01*
G01*
X53531250Y-39250000D01*
G75*
G02*
X53775000Y-39493750I0J-243750D01*
G01*
G37*
G36*
G01*
X51900000Y-39493750D02*
X51900000Y-40406250D01*
G75*
G02*
X51656250Y-40650000I-243750J0D01*
G01*
X51168750Y-40650000D01*
G75*
G02*
X50925000Y-40406250I0J243750D01*
G01*
X50925000Y-39493750D01*
G75*
G02*
X51168750Y-39250000I243750J0D01*
G01*
X51656250Y-39250000D01*
G75*
G02*
X51900000Y-39493750I0J-243750D01*
G01*
G37*
G36*
G01*
X55027500Y-41170000D02*
X55372500Y-41170000D01*
G75*
G02*
X55520000Y-41317500I0J-147500D01*
G01*
X55520000Y-41612500D01*
G75*
G02*
X55372500Y-41760000I-147500J0D01*
G01*
X55027500Y-41760000D01*
G75*
G02*
X54880000Y-41612500I0J147500D01*
G01*
X54880000Y-41317500D01*
G75*
G02*
X55027500Y-41170000I147500J0D01*
G01*
G37*
G36*
G01*
X55027500Y-42140000D02*
X55372500Y-42140000D01*
G75*
G02*
X55520000Y-42287500I0J-147500D01*
G01*
X55520000Y-42582500D01*
G75*
G02*
X55372500Y-42730000I-147500J0D01*
G01*
X55027500Y-42730000D01*
G75*
G02*
X54880000Y-42582500I0J147500D01*
G01*
X54880000Y-42287500D01*
G75*
G02*
X55027500Y-42140000I147500J0D01*
G01*
G37*
G36*
G01*
X49075000Y-40406250D02*
X49075000Y-39493750D01*
G75*
G02*
X49318750Y-39250000I243750J0D01*
G01*
X49806250Y-39250000D01*
G75*
G02*
X50050000Y-39493750I0J-243750D01*
G01*
X50050000Y-40406250D01*
G75*
G02*
X49806250Y-40650000I-243750J0D01*
G01*
X49318750Y-40650000D01*
G75*
G02*
X49075000Y-40406250I0J243750D01*
G01*
G37*
G36*
G01*
X47200000Y-40406250D02*
X47200000Y-39493750D01*
G75*
G02*
X47443750Y-39250000I243750J0D01*
G01*
X47931250Y-39250000D01*
G75*
G02*
X48175000Y-39493750I0J-243750D01*
G01*
X48175000Y-40406250D01*
G75*
G02*
X47931250Y-40650000I-243750J0D01*
G01*
X47443750Y-40650000D01*
G75*
G02*
X47200000Y-40406250I0J243750D01*
G01*
G37*
G36*
G01*
X45802500Y-41395000D02*
X46147500Y-41395000D01*
G75*
G02*
X46295000Y-41542500I0J-147500D01*
G01*
X46295000Y-41837500D01*
G75*
G02*
X46147500Y-41985000I-147500J0D01*
G01*
X45802500Y-41985000D01*
G75*
G02*
X45655000Y-41837500I0J147500D01*
G01*
X45655000Y-41542500D01*
G75*
G02*
X45802500Y-41395000I147500J0D01*
G01*
G37*
G36*
G01*
X45802500Y-42365000D02*
X46147500Y-42365000D01*
G75*
G02*
X46295000Y-42512500I0J-147500D01*
G01*
X46295000Y-42807500D01*
G75*
G02*
X46147500Y-42955000I-147500J0D01*
G01*
X45802500Y-42955000D01*
G75*
G02*
X45655000Y-42807500I0J147500D01*
G01*
X45655000Y-42512500D01*
G75*
G02*
X45802500Y-42365000I147500J0D01*
G01*
G37*
G36*
G01*
X64856250Y-55250000D02*
X64343750Y-55250000D01*
G75*
G02*
X64125000Y-55031250I0J218750D01*
G01*
X64125000Y-54593750D01*
G75*
G02*
X64343750Y-54375000I218750J0D01*
G01*
X64856250Y-54375000D01*
G75*
G02*
X65075000Y-54593750I0J-218750D01*
G01*
X65075000Y-55031250D01*
G75*
G02*
X64856250Y-55250000I-218750J0D01*
G01*
G37*
G36*
G01*
X64856250Y-56825000D02*
X64343750Y-56825000D01*
G75*
G02*
X64125000Y-56606250I0J218750D01*
G01*
X64125000Y-56168750D01*
G75*
G02*
X64343750Y-55950000I218750J0D01*
G01*
X64856250Y-55950000D01*
G75*
G02*
X65075000Y-56168750I0J-218750D01*
G01*
X65075000Y-56606250D01*
G75*
G02*
X64856250Y-56825000I-218750J0D01*
G01*
G37*
D12*
X82000000Y-41550000D03*
X85300000Y-41550000D03*
G36*
G01*
X85306250Y-48837500D02*
X84793750Y-48837500D01*
G75*
G02*
X84575000Y-48618750I0J218750D01*
G01*
X84575000Y-48181250D01*
G75*
G02*
X84793750Y-47962500I218750J0D01*
G01*
X85306250Y-47962500D01*
G75*
G02*
X85525000Y-48181250I0J-218750D01*
G01*
X85525000Y-48618750D01*
G75*
G02*
X85306250Y-48837500I-218750J0D01*
G01*
G37*
G36*
G01*
X85306250Y-50412500D02*
X84793750Y-50412500D01*
G75*
G02*
X84575000Y-50193750I0J218750D01*
G01*
X84575000Y-49756250D01*
G75*
G02*
X84793750Y-49537500I218750J0D01*
G01*
X85306250Y-49537500D01*
G75*
G02*
X85525000Y-49756250I0J-218750D01*
G01*
X85525000Y-50193750D01*
G75*
G02*
X85306250Y-50412500I-218750J0D01*
G01*
G37*
G36*
G01*
X78262500Y-23931250D02*
X78262500Y-23418750D01*
G75*
G02*
X78481250Y-23200000I218750J0D01*
G01*
X78918750Y-23200000D01*
G75*
G02*
X79137500Y-23418750I0J-218750D01*
G01*
X79137500Y-23931250D01*
G75*
G02*
X78918750Y-24150000I-218750J0D01*
G01*
X78481250Y-24150000D01*
G75*
G02*
X78262500Y-23931250I0J218750D01*
G01*
G37*
G36*
G01*
X79837500Y-23931250D02*
X79837500Y-23418750D01*
G75*
G02*
X80056250Y-23200000I218750J0D01*
G01*
X80493750Y-23200000D01*
G75*
G02*
X80712500Y-23418750I0J-218750D01*
G01*
X80712500Y-23931250D01*
G75*
G02*
X80493750Y-24150000I-218750J0D01*
G01*
X80056250Y-24150000D01*
G75*
G02*
X79837500Y-23931250I0J218750D01*
G01*
G37*
G36*
G01*
X33981250Y-25825000D02*
X33468750Y-25825000D01*
G75*
G02*
X33250000Y-25606250I0J218750D01*
G01*
X33250000Y-25168750D01*
G75*
G02*
X33468750Y-24950000I218750J0D01*
G01*
X33981250Y-24950000D01*
G75*
G02*
X34200000Y-25168750I0J-218750D01*
G01*
X34200000Y-25606250D01*
G75*
G02*
X33981250Y-25825000I-218750J0D01*
G01*
G37*
G36*
G01*
X33981250Y-24250000D02*
X33468750Y-24250000D01*
G75*
G02*
X33250000Y-24031250I0J218750D01*
G01*
X33250000Y-23593750D01*
G75*
G02*
X33468750Y-23375000I218750J0D01*
G01*
X33981250Y-23375000D01*
G75*
G02*
X34200000Y-23593750I0J-218750D01*
G01*
X34200000Y-24031250D01*
G75*
G02*
X33981250Y-24250000I-218750J0D01*
G01*
G37*
G36*
G01*
X72325000Y-65756250D02*
X72325000Y-65243750D01*
G75*
G02*
X72543750Y-65025000I218750J0D01*
G01*
X72981250Y-65025000D01*
G75*
G02*
X73200000Y-65243750I0J-218750D01*
G01*
X73200000Y-65756250D01*
G75*
G02*
X72981250Y-65975000I-218750J0D01*
G01*
X72543750Y-65975000D01*
G75*
G02*
X72325000Y-65756250I0J218750D01*
G01*
G37*
G36*
G01*
X73900000Y-65756250D02*
X73900000Y-65243750D01*
G75*
G02*
X74118750Y-65025000I218750J0D01*
G01*
X74556250Y-65025000D01*
G75*
G02*
X74775000Y-65243750I0J-218750D01*
G01*
X74775000Y-65756250D01*
G75*
G02*
X74556250Y-65975000I-218750J0D01*
G01*
X74118750Y-65975000D01*
G75*
G02*
X73900000Y-65756250I0J218750D01*
G01*
G37*
G36*
G01*
X85856250Y-39412500D02*
X85343750Y-39412500D01*
G75*
G02*
X85125000Y-39193750I0J218750D01*
G01*
X85125000Y-38756250D01*
G75*
G02*
X85343750Y-38537500I218750J0D01*
G01*
X85856250Y-38537500D01*
G75*
G02*
X86075000Y-38756250I0J-218750D01*
G01*
X86075000Y-39193750D01*
G75*
G02*
X85856250Y-39412500I-218750J0D01*
G01*
G37*
G36*
G01*
X85856250Y-37837500D02*
X85343750Y-37837500D01*
G75*
G02*
X85125000Y-37618750I0J218750D01*
G01*
X85125000Y-37181250D01*
G75*
G02*
X85343750Y-36962500I218750J0D01*
G01*
X85856250Y-36962500D01*
G75*
G02*
X86075000Y-37181250I0J-218750D01*
G01*
X86075000Y-37618750D01*
G75*
G02*
X85856250Y-37837500I-218750J0D01*
G01*
G37*
G36*
G01*
X85100000Y-35806250D02*
X85100000Y-34893750D01*
G75*
G02*
X85343750Y-34650000I243750J0D01*
G01*
X85831250Y-34650000D01*
G75*
G02*
X86075000Y-34893750I0J-243750D01*
G01*
X86075000Y-35806250D01*
G75*
G02*
X85831250Y-36050000I-243750J0D01*
G01*
X85343750Y-36050000D01*
G75*
G02*
X85100000Y-35806250I0J243750D01*
G01*
G37*
G36*
G01*
X83225000Y-35806250D02*
X83225000Y-34893750D01*
G75*
G02*
X83468750Y-34650000I243750J0D01*
G01*
X83956250Y-34650000D01*
G75*
G02*
X84200000Y-34893750I0J-243750D01*
G01*
X84200000Y-35806250D01*
G75*
G02*
X83956250Y-36050000I-243750J0D01*
G01*
X83468750Y-36050000D01*
G75*
G02*
X83225000Y-35806250I0J243750D01*
G01*
G37*
G36*
G01*
X64656250Y-38037500D02*
X63743750Y-38037500D01*
G75*
G02*
X63500000Y-37793750I0J243750D01*
G01*
X63500000Y-37306250D01*
G75*
G02*
X63743750Y-37062500I243750J0D01*
G01*
X64656250Y-37062500D01*
G75*
G02*
X64900000Y-37306250I0J-243750D01*
G01*
X64900000Y-37793750D01*
G75*
G02*
X64656250Y-38037500I-243750J0D01*
G01*
G37*
G36*
G01*
X64656250Y-36162500D02*
X63743750Y-36162500D01*
G75*
G02*
X63500000Y-35918750I0J243750D01*
G01*
X63500000Y-35431250D01*
G75*
G02*
X63743750Y-35187500I243750J0D01*
G01*
X64656250Y-35187500D01*
G75*
G02*
X64900000Y-35431250I0J-243750D01*
G01*
X64900000Y-35918750D01*
G75*
G02*
X64656250Y-36162500I-243750J0D01*
G01*
G37*
D13*
X71200000Y-33650000D03*
X69000000Y-33650000D03*
X69000000Y-35350000D03*
X71200000Y-35350000D03*
D14*
X84125000Y-60565000D03*
X80225000Y-60565000D03*
X84125000Y-59295000D03*
X80225000Y-59295000D03*
X84125000Y-58025000D03*
X80225000Y-58025000D03*
X84125000Y-56755000D03*
X80225000Y-56755000D03*
X84125000Y-55485000D03*
X80225000Y-55485000D03*
G36*
G01*
X68837500Y-29056250D02*
X68837500Y-28543750D01*
G75*
G02*
X69056250Y-28325000I218750J0D01*
G01*
X69493750Y-28325000D01*
G75*
G02*
X69712500Y-28543750I0J-218750D01*
G01*
X69712500Y-29056250D01*
G75*
G02*
X69493750Y-29275000I-218750J0D01*
G01*
X69056250Y-29275000D01*
G75*
G02*
X68837500Y-29056250I0J218750D01*
G01*
G37*
G36*
G01*
X67262500Y-29056250D02*
X67262500Y-28543750D01*
G75*
G02*
X67481250Y-28325000I218750J0D01*
G01*
X67918750Y-28325000D01*
G75*
G02*
X68137500Y-28543750I0J-218750D01*
G01*
X68137500Y-29056250D01*
G75*
G02*
X67918750Y-29275000I-218750J0D01*
G01*
X67481250Y-29275000D01*
G75*
G02*
X67262500Y-29056250I0J218750D01*
G01*
G37*
G36*
G01*
X66675000Y-28543750D02*
X66675000Y-29056250D01*
G75*
G02*
X66456250Y-29275000I-218750J0D01*
G01*
X66018750Y-29275000D01*
G75*
G02*
X65800000Y-29056250I0J218750D01*
G01*
X65800000Y-28543750D01*
G75*
G02*
X66018750Y-28325000I218750J0D01*
G01*
X66456250Y-28325000D01*
G75*
G02*
X66675000Y-28543750I0J-218750D01*
G01*
G37*
G36*
G01*
X65100000Y-28543750D02*
X65100000Y-29056250D01*
G75*
G02*
X64881250Y-29275000I-218750J0D01*
G01*
X64443750Y-29275000D01*
G75*
G02*
X64225000Y-29056250I0J218750D01*
G01*
X64225000Y-28543750D01*
G75*
G02*
X64443750Y-28325000I218750J0D01*
G01*
X64881250Y-28325000D01*
G75*
G02*
X65100000Y-28543750I0J-218750D01*
G01*
G37*
G36*
G01*
X75725000Y-44706250D02*
X75725000Y-44193750D01*
G75*
G02*
X75943750Y-43975000I218750J0D01*
G01*
X76381250Y-43975000D01*
G75*
G02*
X76600000Y-44193750I0J-218750D01*
G01*
X76600000Y-44706250D01*
G75*
G02*
X76381250Y-44925000I-218750J0D01*
G01*
X75943750Y-44925000D01*
G75*
G02*
X75725000Y-44706250I0J218750D01*
G01*
G37*
G36*
G01*
X77300000Y-44706250D02*
X77300000Y-44193750D01*
G75*
G02*
X77518750Y-43975000I218750J0D01*
G01*
X77956250Y-43975000D01*
G75*
G02*
X78175000Y-44193750I0J-218750D01*
G01*
X78175000Y-44706250D01*
G75*
G02*
X77956250Y-44925000I-218750J0D01*
G01*
X77518750Y-44925000D01*
G75*
G02*
X77300000Y-44706250I0J218750D01*
G01*
G37*
G36*
G01*
X59500000Y-47493750D02*
X59500000Y-48006250D01*
G75*
G02*
X59281250Y-48225000I-218750J0D01*
G01*
X58843750Y-48225000D01*
G75*
G02*
X58625000Y-48006250I0J218750D01*
G01*
X58625000Y-47493750D01*
G75*
G02*
X58843750Y-47275000I218750J0D01*
G01*
X59281250Y-47275000D01*
G75*
G02*
X59500000Y-47493750I0J-218750D01*
G01*
G37*
G36*
G01*
X61075000Y-47493750D02*
X61075000Y-48006250D01*
G75*
G02*
X60856250Y-48225000I-218750J0D01*
G01*
X60418750Y-48225000D01*
G75*
G02*
X60200000Y-48006250I0J218750D01*
G01*
X60200000Y-47493750D01*
G75*
G02*
X60418750Y-47275000I218750J0D01*
G01*
X60856250Y-47275000D01*
G75*
G02*
X61075000Y-47493750I0J-218750D01*
G01*
G37*
G36*
G01*
X69356250Y-39125000D02*
X68843750Y-39125000D01*
G75*
G02*
X68625000Y-38906250I0J218750D01*
G01*
X68625000Y-38468750D01*
G75*
G02*
X68843750Y-38250000I218750J0D01*
G01*
X69356250Y-38250000D01*
G75*
G02*
X69575000Y-38468750I0J-218750D01*
G01*
X69575000Y-38906250D01*
G75*
G02*
X69356250Y-39125000I-218750J0D01*
G01*
G37*
G36*
G01*
X69356250Y-37550000D02*
X68843750Y-37550000D01*
G75*
G02*
X68625000Y-37331250I0J218750D01*
G01*
X68625000Y-36893750D01*
G75*
G02*
X68843750Y-36675000I218750J0D01*
G01*
X69356250Y-36675000D01*
G75*
G02*
X69575000Y-36893750I0J-218750D01*
G01*
X69575000Y-37331250D01*
G75*
G02*
X69356250Y-37550000I-218750J0D01*
G01*
G37*
G36*
G01*
X64856250Y-58837500D02*
X64343750Y-58837500D01*
G75*
G02*
X64125000Y-58618750I0J218750D01*
G01*
X64125000Y-58181250D01*
G75*
G02*
X64343750Y-57962500I218750J0D01*
G01*
X64856250Y-57962500D01*
G75*
G02*
X65075000Y-58181250I0J-218750D01*
G01*
X65075000Y-58618750D01*
G75*
G02*
X64856250Y-58837500I-218750J0D01*
G01*
G37*
G36*
G01*
X64856250Y-60412500D02*
X64343750Y-60412500D01*
G75*
G02*
X64125000Y-60193750I0J218750D01*
G01*
X64125000Y-59756250D01*
G75*
G02*
X64343750Y-59537500I218750J0D01*
G01*
X64856250Y-59537500D01*
G75*
G02*
X65075000Y-59756250I0J-218750D01*
G01*
X65075000Y-60193750D01*
G75*
G02*
X64856250Y-60412500I-218750J0D01*
G01*
G37*
G36*
G01*
X84793750Y-46025000D02*
X85306250Y-46025000D01*
G75*
G02*
X85525000Y-46243750I0J-218750D01*
G01*
X85525000Y-46681250D01*
G75*
G02*
X85306250Y-46900000I-218750J0D01*
G01*
X84793750Y-46900000D01*
G75*
G02*
X84575000Y-46681250I0J218750D01*
G01*
X84575000Y-46243750D01*
G75*
G02*
X84793750Y-46025000I218750J0D01*
G01*
G37*
G36*
G01*
X84793750Y-44450000D02*
X85306250Y-44450000D01*
G75*
G02*
X85525000Y-44668750I0J-218750D01*
G01*
X85525000Y-45106250D01*
G75*
G02*
X85306250Y-45325000I-218750J0D01*
G01*
X84793750Y-45325000D01*
G75*
G02*
X84575000Y-45106250I0J218750D01*
G01*
X84575000Y-44668750D01*
G75*
G02*
X84793750Y-44450000I218750J0D01*
G01*
G37*
G36*
G01*
X84275000Y-23418750D02*
X84275000Y-23931250D01*
G75*
G02*
X84056250Y-24150000I-218750J0D01*
G01*
X83618750Y-24150000D01*
G75*
G02*
X83400000Y-23931250I0J218750D01*
G01*
X83400000Y-23418750D01*
G75*
G02*
X83618750Y-23200000I218750J0D01*
G01*
X84056250Y-23200000D01*
G75*
G02*
X84275000Y-23418750I0J-218750D01*
G01*
G37*
G36*
G01*
X82700000Y-23418750D02*
X82700000Y-23931250D01*
G75*
G02*
X82481250Y-24150000I-218750J0D01*
G01*
X82043750Y-24150000D01*
G75*
G02*
X81825000Y-23931250I0J218750D01*
G01*
X81825000Y-23418750D01*
G75*
G02*
X82043750Y-23200000I218750J0D01*
G01*
X82481250Y-23200000D01*
G75*
G02*
X82700000Y-23418750I0J-218750D01*
G01*
G37*
G36*
G01*
X35931250Y-24225000D02*
X35418750Y-24225000D01*
G75*
G02*
X35200000Y-24006250I0J218750D01*
G01*
X35200000Y-23568750D01*
G75*
G02*
X35418750Y-23350000I218750J0D01*
G01*
X35931250Y-23350000D01*
G75*
G02*
X36150000Y-23568750I0J-218750D01*
G01*
X36150000Y-24006250D01*
G75*
G02*
X35931250Y-24225000I-218750J0D01*
G01*
G37*
G36*
G01*
X35931250Y-25800000D02*
X35418750Y-25800000D01*
G75*
G02*
X35200000Y-25581250I0J218750D01*
G01*
X35200000Y-25143750D01*
G75*
G02*
X35418750Y-24925000I218750J0D01*
G01*
X35931250Y-24925000D01*
G75*
G02*
X36150000Y-25143750I0J-218750D01*
G01*
X36150000Y-25581250D01*
G75*
G02*
X35931250Y-25800000I-218750J0D01*
G01*
G37*
G36*
G01*
X56725000Y-63968750D02*
X56725000Y-64481250D01*
G75*
G02*
X56506250Y-64700000I-218750J0D01*
G01*
X56068750Y-64700000D01*
G75*
G02*
X55850000Y-64481250I0J218750D01*
G01*
X55850000Y-63968750D01*
G75*
G02*
X56068750Y-63750000I218750J0D01*
G01*
X56506250Y-63750000D01*
G75*
G02*
X56725000Y-63968750I0J-218750D01*
G01*
G37*
G36*
G01*
X55150000Y-63968750D02*
X55150000Y-64481250D01*
G75*
G02*
X54931250Y-64700000I-218750J0D01*
G01*
X54493750Y-64700000D01*
G75*
G02*
X54275000Y-64481250I0J218750D01*
G01*
X54275000Y-63968750D01*
G75*
G02*
X54493750Y-63750000I218750J0D01*
G01*
X54931250Y-63750000D01*
G75*
G02*
X55150000Y-63968750I0J-218750D01*
G01*
G37*
G36*
G01*
X53725000Y-52956250D02*
X53725000Y-52443750D01*
G75*
G02*
X53943750Y-52225000I218750J0D01*
G01*
X54381250Y-52225000D01*
G75*
G02*
X54600000Y-52443750I0J-218750D01*
G01*
X54600000Y-52956250D01*
G75*
G02*
X54381250Y-53175000I-218750J0D01*
G01*
X53943750Y-53175000D01*
G75*
G02*
X53725000Y-52956250I0J218750D01*
G01*
G37*
G36*
G01*
X52150000Y-52956250D02*
X52150000Y-52443750D01*
G75*
G02*
X52368750Y-52225000I218750J0D01*
G01*
X52806250Y-52225000D01*
G75*
G02*
X53025000Y-52443750I0J-218750D01*
G01*
X53025000Y-52956250D01*
G75*
G02*
X52806250Y-53175000I-218750J0D01*
G01*
X52368750Y-53175000D01*
G75*
G02*
X52150000Y-52956250I0J218750D01*
G01*
G37*
G36*
G01*
X52768750Y-65325000D02*
X53281250Y-65325000D01*
G75*
G02*
X53500000Y-65543750I0J-218750D01*
G01*
X53500000Y-65981250D01*
G75*
G02*
X53281250Y-66200000I-218750J0D01*
G01*
X52768750Y-66200000D01*
G75*
G02*
X52550000Y-65981250I0J218750D01*
G01*
X52550000Y-65543750D01*
G75*
G02*
X52768750Y-65325000I218750J0D01*
G01*
G37*
G36*
G01*
X52768750Y-63750000D02*
X53281250Y-63750000D01*
G75*
G02*
X53500000Y-63968750I0J-218750D01*
G01*
X53500000Y-64406250D01*
G75*
G02*
X53281250Y-64625000I-218750J0D01*
G01*
X52768750Y-64625000D01*
G75*
G02*
X52550000Y-64406250I0J218750D01*
G01*
X52550000Y-63968750D01*
G75*
G02*
X52768750Y-63750000I218750J0D01*
G01*
G37*
G36*
G01*
X51093750Y-63725000D02*
X51606250Y-63725000D01*
G75*
G02*
X51825000Y-63943750I0J-218750D01*
G01*
X51825000Y-64381250D01*
G75*
G02*
X51606250Y-64600000I-218750J0D01*
G01*
X51093750Y-64600000D01*
G75*
G02*
X50875000Y-64381250I0J218750D01*
G01*
X50875000Y-63943750D01*
G75*
G02*
X51093750Y-63725000I218750J0D01*
G01*
G37*
G36*
G01*
X51093750Y-65300000D02*
X51606250Y-65300000D01*
G75*
G02*
X51825000Y-65518750I0J-218750D01*
G01*
X51825000Y-65956250D01*
G75*
G02*
X51606250Y-66175000I-218750J0D01*
G01*
X51093750Y-66175000D01*
G75*
G02*
X50875000Y-65956250I0J218750D01*
G01*
X50875000Y-65518750D01*
G75*
G02*
X51093750Y-65300000I218750J0D01*
G01*
G37*
G36*
G01*
X48018750Y-30787500D02*
X48531250Y-30787500D01*
G75*
G02*
X48750000Y-31006250I0J-218750D01*
G01*
X48750000Y-31443750D01*
G75*
G02*
X48531250Y-31662500I-218750J0D01*
G01*
X48018750Y-31662500D01*
G75*
G02*
X47800000Y-31443750I0J218750D01*
G01*
X47800000Y-31006250D01*
G75*
G02*
X48018750Y-30787500I218750J0D01*
G01*
G37*
G36*
G01*
X48018750Y-32362500D02*
X48531250Y-32362500D01*
G75*
G02*
X48750000Y-32581250I0J-218750D01*
G01*
X48750000Y-33018750D01*
G75*
G02*
X48531250Y-33237500I-218750J0D01*
G01*
X48018750Y-33237500D01*
G75*
G02*
X47800000Y-33018750I0J218750D01*
G01*
X47800000Y-32581250D01*
G75*
G02*
X48018750Y-32362500I218750J0D01*
G01*
G37*
G36*
G01*
X46881250Y-33237500D02*
X46368750Y-33237500D01*
G75*
G02*
X46150000Y-33018750I0J218750D01*
G01*
X46150000Y-32581250D01*
G75*
G02*
X46368750Y-32362500I218750J0D01*
G01*
X46881250Y-32362500D01*
G75*
G02*
X47100000Y-32581250I0J-218750D01*
G01*
X47100000Y-33018750D01*
G75*
G02*
X46881250Y-33237500I-218750J0D01*
G01*
G37*
G36*
G01*
X46881250Y-31662500D02*
X46368750Y-31662500D01*
G75*
G02*
X46150000Y-31443750I0J218750D01*
G01*
X46150000Y-31006250D01*
G75*
G02*
X46368750Y-30787500I218750J0D01*
G01*
X46881250Y-30787500D01*
G75*
G02*
X47100000Y-31006250I0J-218750D01*
G01*
X47100000Y-31443750D01*
G75*
G02*
X46881250Y-31662500I-218750J0D01*
G01*
G37*
G36*
G01*
X47125000Y-34243750D02*
X47125000Y-34756250D01*
G75*
G02*
X46906250Y-34975000I-218750J0D01*
G01*
X46468750Y-34975000D01*
G75*
G02*
X46250000Y-34756250I0J218750D01*
G01*
X46250000Y-34243750D01*
G75*
G02*
X46468750Y-34025000I218750J0D01*
G01*
X46906250Y-34025000D01*
G75*
G02*
X47125000Y-34243750I0J-218750D01*
G01*
G37*
G36*
G01*
X48700000Y-34243750D02*
X48700000Y-34756250D01*
G75*
G02*
X48481250Y-34975000I-218750J0D01*
G01*
X48043750Y-34975000D01*
G75*
G02*
X47825000Y-34756250I0J218750D01*
G01*
X47825000Y-34243750D01*
G75*
G02*
X48043750Y-34025000I218750J0D01*
G01*
X48481250Y-34025000D01*
G75*
G02*
X48700000Y-34243750I0J-218750D01*
G01*
G37*
G36*
G01*
X40750000Y-32981250D02*
X40750000Y-32468750D01*
G75*
G02*
X40968750Y-32250000I218750J0D01*
G01*
X41406250Y-32250000D01*
G75*
G02*
X41625000Y-32468750I0J-218750D01*
G01*
X41625000Y-32981250D01*
G75*
G02*
X41406250Y-33200000I-218750J0D01*
G01*
X40968750Y-33200000D01*
G75*
G02*
X40750000Y-32981250I0J218750D01*
G01*
G37*
G36*
G01*
X39175000Y-32981250D02*
X39175000Y-32468750D01*
G75*
G02*
X39393750Y-32250000I218750J0D01*
G01*
X39831250Y-32250000D01*
G75*
G02*
X40050000Y-32468750I0J-218750D01*
G01*
X40050000Y-32981250D01*
G75*
G02*
X39831250Y-33200000I-218750J0D01*
G01*
X39393750Y-33200000D01*
G75*
G02*
X39175000Y-32981250I0J218750D01*
G01*
G37*
G36*
G01*
X56593750Y-41250000D02*
X57106250Y-41250000D01*
G75*
G02*
X57325000Y-41468750I0J-218750D01*
G01*
X57325000Y-41906250D01*
G75*
G02*
X57106250Y-42125000I-218750J0D01*
G01*
X56593750Y-42125000D01*
G75*
G02*
X56375000Y-41906250I0J218750D01*
G01*
X56375000Y-41468750D01*
G75*
G02*
X56593750Y-41250000I218750J0D01*
G01*
G37*
G36*
G01*
X56593750Y-42825000D02*
X57106250Y-42825000D01*
G75*
G02*
X57325000Y-43043750I0J-218750D01*
G01*
X57325000Y-43481250D01*
G75*
G02*
X57106250Y-43700000I-218750J0D01*
G01*
X56593750Y-43700000D01*
G75*
G02*
X56375000Y-43481250I0J218750D01*
G01*
X56375000Y-43043750D01*
G75*
G02*
X56593750Y-42825000I218750J0D01*
G01*
G37*
G36*
G01*
X67475000Y-71393750D02*
X67475000Y-71906250D01*
G75*
G02*
X67256250Y-72125000I-218750J0D01*
G01*
X66818750Y-72125000D01*
G75*
G02*
X66600000Y-71906250I0J218750D01*
G01*
X66600000Y-71393750D01*
G75*
G02*
X66818750Y-71175000I218750J0D01*
G01*
X67256250Y-71175000D01*
G75*
G02*
X67475000Y-71393750I0J-218750D01*
G01*
G37*
G36*
G01*
X69050000Y-71393750D02*
X69050000Y-71906250D01*
G75*
G02*
X68831250Y-72125000I-218750J0D01*
G01*
X68393750Y-72125000D01*
G75*
G02*
X68175000Y-71906250I0J218750D01*
G01*
X68175000Y-71393750D01*
G75*
G02*
X68393750Y-71175000I218750J0D01*
G01*
X68831250Y-71175000D01*
G75*
G02*
X69050000Y-71393750I0J-218750D01*
G01*
G37*
G36*
G01*
X72325000Y-63881250D02*
X72325000Y-63368750D01*
G75*
G02*
X72543750Y-63150000I218750J0D01*
G01*
X72981250Y-63150000D01*
G75*
G02*
X73200000Y-63368750I0J-218750D01*
G01*
X73200000Y-63881250D01*
G75*
G02*
X72981250Y-64100000I-218750J0D01*
G01*
X72543750Y-64100000D01*
G75*
G02*
X72325000Y-63881250I0J218750D01*
G01*
G37*
G36*
G01*
X73900000Y-63881250D02*
X73900000Y-63368750D01*
G75*
G02*
X74118750Y-63150000I218750J0D01*
G01*
X74556250Y-63150000D01*
G75*
G02*
X74775000Y-63368750I0J-218750D01*
G01*
X74775000Y-63881250D01*
G75*
G02*
X74556250Y-64100000I-218750J0D01*
G01*
X74118750Y-64100000D01*
G75*
G02*
X73900000Y-63881250I0J218750D01*
G01*
G37*
G36*
G01*
X33243750Y-75325000D02*
X33756250Y-75325000D01*
G75*
G02*
X33975000Y-75543750I0J-218750D01*
G01*
X33975000Y-75981250D01*
G75*
G02*
X33756250Y-76200000I-218750J0D01*
G01*
X33243750Y-76200000D01*
G75*
G02*
X33025000Y-75981250I0J218750D01*
G01*
X33025000Y-75543750D01*
G75*
G02*
X33243750Y-75325000I218750J0D01*
G01*
G37*
G36*
G01*
X33243750Y-73750000D02*
X33756250Y-73750000D01*
G75*
G02*
X33975000Y-73968750I0J-218750D01*
G01*
X33975000Y-74406250D01*
G75*
G02*
X33756250Y-74625000I-218750J0D01*
G01*
X33243750Y-74625000D01*
G75*
G02*
X33025000Y-74406250I0J218750D01*
G01*
X33025000Y-73968750D01*
G75*
G02*
X33243750Y-73750000I218750J0D01*
G01*
G37*
G36*
G01*
X51106250Y-58025000D02*
X50593750Y-58025000D01*
G75*
G02*
X50375000Y-57806250I0J218750D01*
G01*
X50375000Y-57368750D01*
G75*
G02*
X50593750Y-57150000I218750J0D01*
G01*
X51106250Y-57150000D01*
G75*
G02*
X51325000Y-57368750I0J-218750D01*
G01*
X51325000Y-57806250D01*
G75*
G02*
X51106250Y-58025000I-218750J0D01*
G01*
G37*
G36*
G01*
X51106250Y-56450000D02*
X50593750Y-56450000D01*
G75*
G02*
X50375000Y-56231250I0J218750D01*
G01*
X50375000Y-55793750D01*
G75*
G02*
X50593750Y-55575000I218750J0D01*
G01*
X51106250Y-55575000D01*
G75*
G02*
X51325000Y-55793750I0J-218750D01*
G01*
X51325000Y-56231250D01*
G75*
G02*
X51106250Y-56450000I-218750J0D01*
G01*
G37*
G36*
G01*
X52150000Y-56306250D02*
X52150000Y-55793750D01*
G75*
G02*
X52368750Y-55575000I218750J0D01*
G01*
X52806250Y-55575000D01*
G75*
G02*
X53025000Y-55793750I0J-218750D01*
G01*
X53025000Y-56306250D01*
G75*
G02*
X52806250Y-56525000I-218750J0D01*
G01*
X52368750Y-56525000D01*
G75*
G02*
X52150000Y-56306250I0J218750D01*
G01*
G37*
G36*
G01*
X53725000Y-56306250D02*
X53725000Y-55793750D01*
G75*
G02*
X53943750Y-55575000I218750J0D01*
G01*
X54381250Y-55575000D01*
G75*
G02*
X54600000Y-55793750I0J-218750D01*
G01*
X54600000Y-56306250D01*
G75*
G02*
X54381250Y-56525000I-218750J0D01*
G01*
X53943750Y-56525000D01*
G75*
G02*
X53725000Y-56306250I0J218750D01*
G01*
G37*
G36*
G01*
X41637500Y-34068750D02*
X41637500Y-34581250D01*
G75*
G02*
X41418750Y-34800000I-218750J0D01*
G01*
X40981250Y-34800000D01*
G75*
G02*
X40762500Y-34581250I0J218750D01*
G01*
X40762500Y-34068750D01*
G75*
G02*
X40981250Y-33850000I218750J0D01*
G01*
X41418750Y-33850000D01*
G75*
G02*
X41637500Y-34068750I0J-218750D01*
G01*
G37*
G36*
G01*
X40062500Y-34068750D02*
X40062500Y-34581250D01*
G75*
G02*
X39843750Y-34800000I-218750J0D01*
G01*
X39406250Y-34800000D01*
G75*
G02*
X39187500Y-34581250I0J218750D01*
G01*
X39187500Y-34068750D01*
G75*
G02*
X39406250Y-33850000I218750J0D01*
G01*
X39843750Y-33850000D01*
G75*
G02*
X40062500Y-34068750I0J-218750D01*
G01*
G37*
G36*
G01*
X38900000Y-36206250D02*
X38900000Y-35693750D01*
G75*
G02*
X39118750Y-35475000I218750J0D01*
G01*
X39556250Y-35475000D01*
G75*
G02*
X39775000Y-35693750I0J-218750D01*
G01*
X39775000Y-36206250D01*
G75*
G02*
X39556250Y-36425000I-218750J0D01*
G01*
X39118750Y-36425000D01*
G75*
G02*
X38900000Y-36206250I0J218750D01*
G01*
G37*
G36*
G01*
X37325000Y-36206250D02*
X37325000Y-35693750D01*
G75*
G02*
X37543750Y-35475000I218750J0D01*
G01*
X37981250Y-35475000D01*
G75*
G02*
X38200000Y-35693750I0J-218750D01*
G01*
X38200000Y-36206250D01*
G75*
G02*
X37981250Y-36425000I-218750J0D01*
G01*
X37543750Y-36425000D01*
G75*
G02*
X37325000Y-36206250I0J218750D01*
G01*
G37*
G36*
G01*
X46950000Y-50306250D02*
X46950000Y-49793750D01*
G75*
G02*
X47168750Y-49575000I218750J0D01*
G01*
X47606250Y-49575000D01*
G75*
G02*
X47825000Y-49793750I0J-218750D01*
G01*
X47825000Y-50306250D01*
G75*
G02*
X47606250Y-50525000I-218750J0D01*
G01*
X47168750Y-50525000D01*
G75*
G02*
X46950000Y-50306250I0J218750D01*
G01*
G37*
G36*
G01*
X48525000Y-50306250D02*
X48525000Y-49793750D01*
G75*
G02*
X48743750Y-49575000I218750J0D01*
G01*
X49181250Y-49575000D01*
G75*
G02*
X49400000Y-49793750I0J-218750D01*
G01*
X49400000Y-50306250D01*
G75*
G02*
X49181250Y-50525000I-218750J0D01*
G01*
X48743750Y-50525000D01*
G75*
G02*
X48525000Y-50306250I0J218750D01*
G01*
G37*
G36*
G01*
X35587500Y-29731250D02*
X35587500Y-29218750D01*
G75*
G02*
X35806250Y-29000000I218750J0D01*
G01*
X36243750Y-29000000D01*
G75*
G02*
X36462500Y-29218750I0J-218750D01*
G01*
X36462500Y-29731250D01*
G75*
G02*
X36243750Y-29950000I-218750J0D01*
G01*
X35806250Y-29950000D01*
G75*
G02*
X35587500Y-29731250I0J218750D01*
G01*
G37*
G36*
G01*
X34012500Y-29731250D02*
X34012500Y-29218750D01*
G75*
G02*
X34231250Y-29000000I218750J0D01*
G01*
X34668750Y-29000000D01*
G75*
G02*
X34887500Y-29218750I0J-218750D01*
G01*
X34887500Y-29731250D01*
G75*
G02*
X34668750Y-29950000I-218750J0D01*
G01*
X34231250Y-29950000D01*
G75*
G02*
X34012500Y-29731250I0J218750D01*
G01*
G37*
D15*
X68600000Y-69325000D03*
X68600000Y-65325000D03*
X62700000Y-65325000D03*
X62700000Y-69325000D03*
D16*
X81400000Y-26550000D03*
D17*
X81400000Y-32850000D03*
X83700000Y-32850000D03*
X79100000Y-32850000D03*
D18*
X41375000Y-25025000D03*
X41375000Y-24075000D03*
X41375000Y-23125000D03*
X39175000Y-23125000D03*
X39175000Y-25025000D03*
D19*
X49650000Y-60375000D03*
X49650000Y-60875000D03*
X49650000Y-61375000D03*
X49650000Y-61875000D03*
X49650000Y-62375000D03*
X54050000Y-62375000D03*
X54050000Y-61875000D03*
X54050000Y-61375000D03*
X54050000Y-60875000D03*
X54050000Y-60375000D03*
G36*
G01*
X32175000Y-54540000D02*
X32175000Y-54240000D01*
G75*
G02*
X32325000Y-54090000I150000J0D01*
G01*
X34075000Y-54090000D01*
G75*
G02*
X34225000Y-54240000I0J-150000D01*
G01*
X34225000Y-54540000D01*
G75*
G02*
X34075000Y-54690000I-150000J0D01*
G01*
X32325000Y-54690000D01*
G75*
G02*
X32175000Y-54540000I0J150000D01*
G01*
G37*
G36*
G01*
X32175000Y-55810000D02*
X32175000Y-55510000D01*
G75*
G02*
X32325000Y-55360000I150000J0D01*
G01*
X34075000Y-55360000D01*
G75*
G02*
X34225000Y-55510000I0J-150000D01*
G01*
X34225000Y-55810000D01*
G75*
G02*
X34075000Y-55960000I-150000J0D01*
G01*
X32325000Y-55960000D01*
G75*
G02*
X32175000Y-55810000I0J150000D01*
G01*
G37*
G36*
G01*
X32175000Y-57080000D02*
X32175000Y-56780000D01*
G75*
G02*
X32325000Y-56630000I150000J0D01*
G01*
X34075000Y-56630000D01*
G75*
G02*
X34225000Y-56780000I0J-150000D01*
G01*
X34225000Y-57080000D01*
G75*
G02*
X34075000Y-57230000I-150000J0D01*
G01*
X32325000Y-57230000D01*
G75*
G02*
X32175000Y-57080000I0J150000D01*
G01*
G37*
G36*
G01*
X32175000Y-58350000D02*
X32175000Y-58050000D01*
G75*
G02*
X32325000Y-57900000I150000J0D01*
G01*
X34075000Y-57900000D01*
G75*
G02*
X34225000Y-58050000I0J-150000D01*
G01*
X34225000Y-58350000D01*
G75*
G02*
X34075000Y-58500000I-150000J0D01*
G01*
X32325000Y-58500000D01*
G75*
G02*
X32175000Y-58350000I0J150000D01*
G01*
G37*
G36*
G01*
X32175000Y-59620000D02*
X32175000Y-59320000D01*
G75*
G02*
X32325000Y-59170000I150000J0D01*
G01*
X34075000Y-59170000D01*
G75*
G02*
X34225000Y-59320000I0J-150000D01*
G01*
X34225000Y-59620000D01*
G75*
G02*
X34075000Y-59770000I-150000J0D01*
G01*
X32325000Y-59770000D01*
G75*
G02*
X32175000Y-59620000I0J150000D01*
G01*
G37*
G36*
G01*
X32175000Y-60890000D02*
X32175000Y-60590000D01*
G75*
G02*
X32325000Y-60440000I150000J0D01*
G01*
X34075000Y-60440000D01*
G75*
G02*
X34225000Y-60590000I0J-150000D01*
G01*
X34225000Y-60890000D01*
G75*
G02*
X34075000Y-61040000I-150000J0D01*
G01*
X32325000Y-61040000D01*
G75*
G02*
X32175000Y-60890000I0J150000D01*
G01*
G37*
G36*
G01*
X32175000Y-62160000D02*
X32175000Y-61860000D01*
G75*
G02*
X32325000Y-61710000I150000J0D01*
G01*
X34075000Y-61710000D01*
G75*
G02*
X34225000Y-61860000I0J-150000D01*
G01*
X34225000Y-62160000D01*
G75*
G02*
X34075000Y-62310000I-150000J0D01*
G01*
X32325000Y-62310000D01*
G75*
G02*
X32175000Y-62160000I0J150000D01*
G01*
G37*
G36*
G01*
X32175000Y-63430000D02*
X32175000Y-63130000D01*
G75*
G02*
X32325000Y-62980000I150000J0D01*
G01*
X34075000Y-62980000D01*
G75*
G02*
X34225000Y-63130000I0J-150000D01*
G01*
X34225000Y-63430000D01*
G75*
G02*
X34075000Y-63580000I-150000J0D01*
G01*
X32325000Y-63580000D01*
G75*
G02*
X32175000Y-63430000I0J150000D01*
G01*
G37*
G36*
G01*
X32175000Y-64700000D02*
X32175000Y-64400000D01*
G75*
G02*
X32325000Y-64250000I150000J0D01*
G01*
X34075000Y-64250000D01*
G75*
G02*
X34225000Y-64400000I0J-150000D01*
G01*
X34225000Y-64700000D01*
G75*
G02*
X34075000Y-64850000I-150000J0D01*
G01*
X32325000Y-64850000D01*
G75*
G02*
X32175000Y-64700000I0J150000D01*
G01*
G37*
G36*
G01*
X32175000Y-65970000D02*
X32175000Y-65670000D01*
G75*
G02*
X32325000Y-65520000I150000J0D01*
G01*
X34075000Y-65520000D01*
G75*
G02*
X34225000Y-65670000I0J-150000D01*
G01*
X34225000Y-65970000D01*
G75*
G02*
X34075000Y-66120000I-150000J0D01*
G01*
X32325000Y-66120000D01*
G75*
G02*
X32175000Y-65970000I0J150000D01*
G01*
G37*
G36*
G01*
X32175000Y-67240000D02*
X32175000Y-66940000D01*
G75*
G02*
X32325000Y-66790000I150000J0D01*
G01*
X34075000Y-66790000D01*
G75*
G02*
X34225000Y-66940000I0J-150000D01*
G01*
X34225000Y-67240000D01*
G75*
G02*
X34075000Y-67390000I-150000J0D01*
G01*
X32325000Y-67390000D01*
G75*
G02*
X32175000Y-67240000I0J150000D01*
G01*
G37*
G36*
G01*
X32175000Y-68510000D02*
X32175000Y-68210000D01*
G75*
G02*
X32325000Y-68060000I150000J0D01*
G01*
X34075000Y-68060000D01*
G75*
G02*
X34225000Y-68210000I0J-150000D01*
G01*
X34225000Y-68510000D01*
G75*
G02*
X34075000Y-68660000I-150000J0D01*
G01*
X32325000Y-68660000D01*
G75*
G02*
X32175000Y-68510000I0J150000D01*
G01*
G37*
G36*
G01*
X41475000Y-68510000D02*
X41475000Y-68210000D01*
G75*
G02*
X41625000Y-68060000I150000J0D01*
G01*
X43375000Y-68060000D01*
G75*
G02*
X43525000Y-68210000I0J-150000D01*
G01*
X43525000Y-68510000D01*
G75*
G02*
X43375000Y-68660000I-150000J0D01*
G01*
X41625000Y-68660000D01*
G75*
G02*
X41475000Y-68510000I0J150000D01*
G01*
G37*
G36*
G01*
X41475000Y-67240000D02*
X41475000Y-66940000D01*
G75*
G02*
X41625000Y-66790000I150000J0D01*
G01*
X43375000Y-66790000D01*
G75*
G02*
X43525000Y-66940000I0J-150000D01*
G01*
X43525000Y-67240000D01*
G75*
G02*
X43375000Y-67390000I-150000J0D01*
G01*
X41625000Y-67390000D01*
G75*
G02*
X41475000Y-67240000I0J150000D01*
G01*
G37*
G36*
G01*
X41475000Y-65970000D02*
X41475000Y-65670000D01*
G75*
G02*
X41625000Y-65520000I150000J0D01*
G01*
X43375000Y-65520000D01*
G75*
G02*
X43525000Y-65670000I0J-150000D01*
G01*
X43525000Y-65970000D01*
G75*
G02*
X43375000Y-66120000I-150000J0D01*
G01*
X41625000Y-66120000D01*
G75*
G02*
X41475000Y-65970000I0J150000D01*
G01*
G37*
G36*
G01*
X41475000Y-64700000D02*
X41475000Y-64400000D01*
G75*
G02*
X41625000Y-64250000I150000J0D01*
G01*
X43375000Y-64250000D01*
G75*
G02*
X43525000Y-64400000I0J-150000D01*
G01*
X43525000Y-64700000D01*
G75*
G02*
X43375000Y-64850000I-150000J0D01*
G01*
X41625000Y-64850000D01*
G75*
G02*
X41475000Y-64700000I0J150000D01*
G01*
G37*
G36*
G01*
X41475000Y-63430000D02*
X41475000Y-63130000D01*
G75*
G02*
X41625000Y-62980000I150000J0D01*
G01*
X43375000Y-62980000D01*
G75*
G02*
X43525000Y-63130000I0J-150000D01*
G01*
X43525000Y-63430000D01*
G75*
G02*
X43375000Y-63580000I-150000J0D01*
G01*
X41625000Y-63580000D01*
G75*
G02*
X41475000Y-63430000I0J150000D01*
G01*
G37*
G36*
G01*
X41475000Y-62160000D02*
X41475000Y-61860000D01*
G75*
G02*
X41625000Y-61710000I150000J0D01*
G01*
X43375000Y-61710000D01*
G75*
G02*
X43525000Y-61860000I0J-150000D01*
G01*
X43525000Y-62160000D01*
G75*
G02*
X43375000Y-62310000I-150000J0D01*
G01*
X41625000Y-62310000D01*
G75*
G02*
X41475000Y-62160000I0J150000D01*
G01*
G37*
G36*
G01*
X41475000Y-60890000D02*
X41475000Y-60590000D01*
G75*
G02*
X41625000Y-60440000I150000J0D01*
G01*
X43375000Y-60440000D01*
G75*
G02*
X43525000Y-60590000I0J-150000D01*
G01*
X43525000Y-60890000D01*
G75*
G02*
X43375000Y-61040000I-150000J0D01*
G01*
X41625000Y-61040000D01*
G75*
G02*
X41475000Y-60890000I0J150000D01*
G01*
G37*
G36*
G01*
X41475000Y-59620000D02*
X41475000Y-59320000D01*
G75*
G02*
X41625000Y-59170000I150000J0D01*
G01*
X43375000Y-59170000D01*
G75*
G02*
X43525000Y-59320000I0J-150000D01*
G01*
X43525000Y-59620000D01*
G75*
G02*
X43375000Y-59770000I-150000J0D01*
G01*
X41625000Y-59770000D01*
G75*
G02*
X41475000Y-59620000I0J150000D01*
G01*
G37*
G36*
G01*
X41475000Y-58350000D02*
X41475000Y-58050000D01*
G75*
G02*
X41625000Y-57900000I150000J0D01*
G01*
X43375000Y-57900000D01*
G75*
G02*
X43525000Y-58050000I0J-150000D01*
G01*
X43525000Y-58350000D01*
G75*
G02*
X43375000Y-58500000I-150000J0D01*
G01*
X41625000Y-58500000D01*
G75*
G02*
X41475000Y-58350000I0J150000D01*
G01*
G37*
G36*
G01*
X41475000Y-57080000D02*
X41475000Y-56780000D01*
G75*
G02*
X41625000Y-56630000I150000J0D01*
G01*
X43375000Y-56630000D01*
G75*
G02*
X43525000Y-56780000I0J-150000D01*
G01*
X43525000Y-57080000D01*
G75*
G02*
X43375000Y-57230000I-150000J0D01*
G01*
X41625000Y-57230000D01*
G75*
G02*
X41475000Y-57080000I0J150000D01*
G01*
G37*
G36*
G01*
X41475000Y-55810000D02*
X41475000Y-55510000D01*
G75*
G02*
X41625000Y-55360000I150000J0D01*
G01*
X43375000Y-55360000D01*
G75*
G02*
X43525000Y-55510000I0J-150000D01*
G01*
X43525000Y-55810000D01*
G75*
G02*
X43375000Y-55960000I-150000J0D01*
G01*
X41625000Y-55960000D01*
G75*
G02*
X41475000Y-55810000I0J150000D01*
G01*
G37*
G36*
G01*
X41475000Y-54540000D02*
X41475000Y-54240000D01*
G75*
G02*
X41625000Y-54090000I150000J0D01*
G01*
X43375000Y-54090000D01*
G75*
G02*
X43525000Y-54240000I0J-150000D01*
G01*
X43525000Y-54540000D01*
G75*
G02*
X43375000Y-54690000I-150000J0D01*
G01*
X41625000Y-54690000D01*
G75*
G02*
X41475000Y-54540000I0J150000D01*
G01*
G37*
X54500000Y-33000000D03*
X54500000Y-33500000D03*
X54500000Y-34000000D03*
X54500000Y-34500000D03*
X54500000Y-35000000D03*
X50100000Y-35000000D03*
X50100000Y-34500000D03*
X50100000Y-34000000D03*
X50100000Y-33500000D03*
X50100000Y-33000000D03*
D20*
X47750000Y-41625000D03*
X47750000Y-42275000D03*
X47750000Y-42925000D03*
X47750000Y-43575000D03*
X47750000Y-44225000D03*
X47750000Y-44875000D03*
X47750000Y-45525000D03*
X47750000Y-46175000D03*
X47750000Y-46825000D03*
X47750000Y-47475000D03*
X53350000Y-47475000D03*
X53350000Y-46825000D03*
X53350000Y-46175000D03*
X53350000Y-45525000D03*
X53350000Y-44875000D03*
X53350000Y-44225000D03*
X53350000Y-43575000D03*
X53350000Y-42925000D03*
X53350000Y-42275000D03*
X53350000Y-41625000D03*
G36*
G01*
X41475000Y-38115000D02*
X41475000Y-37815000D01*
G75*
G02*
X41625000Y-37665000I150000J0D01*
G01*
X43375000Y-37665000D01*
G75*
G02*
X43525000Y-37815000I0J-150000D01*
G01*
X43525000Y-38115000D01*
G75*
G02*
X43375000Y-38265000I-150000J0D01*
G01*
X41625000Y-38265000D01*
G75*
G02*
X41475000Y-38115000I0J150000D01*
G01*
G37*
G36*
G01*
X41475000Y-39385000D02*
X41475000Y-39085000D01*
G75*
G02*
X41625000Y-38935000I150000J0D01*
G01*
X43375000Y-38935000D01*
G75*
G02*
X43525000Y-39085000I0J-150000D01*
G01*
X43525000Y-39385000D01*
G75*
G02*
X43375000Y-39535000I-150000J0D01*
G01*
X41625000Y-39535000D01*
G75*
G02*
X41475000Y-39385000I0J150000D01*
G01*
G37*
G36*
G01*
X41475000Y-40655000D02*
X41475000Y-40355000D01*
G75*
G02*
X41625000Y-40205000I150000J0D01*
G01*
X43375000Y-40205000D01*
G75*
G02*
X43525000Y-40355000I0J-150000D01*
G01*
X43525000Y-40655000D01*
G75*
G02*
X43375000Y-40805000I-150000J0D01*
G01*
X41625000Y-40805000D01*
G75*
G02*
X41475000Y-40655000I0J150000D01*
G01*
G37*
G36*
G01*
X41475000Y-41925000D02*
X41475000Y-41625000D01*
G75*
G02*
X41625000Y-41475000I150000J0D01*
G01*
X43375000Y-41475000D01*
G75*
G02*
X43525000Y-41625000I0J-150000D01*
G01*
X43525000Y-41925000D01*
G75*
G02*
X43375000Y-42075000I-150000J0D01*
G01*
X41625000Y-42075000D01*
G75*
G02*
X41475000Y-41925000I0J150000D01*
G01*
G37*
G36*
G01*
X41475000Y-43195000D02*
X41475000Y-42895000D01*
G75*
G02*
X41625000Y-42745000I150000J0D01*
G01*
X43375000Y-42745000D01*
G75*
G02*
X43525000Y-42895000I0J-150000D01*
G01*
X43525000Y-43195000D01*
G75*
G02*
X43375000Y-43345000I-150000J0D01*
G01*
X41625000Y-43345000D01*
G75*
G02*
X41475000Y-43195000I0J150000D01*
G01*
G37*
G36*
G01*
X41475000Y-44465000D02*
X41475000Y-44165000D01*
G75*
G02*
X41625000Y-44015000I150000J0D01*
G01*
X43375000Y-44015000D01*
G75*
G02*
X43525000Y-44165000I0J-150000D01*
G01*
X43525000Y-44465000D01*
G75*
G02*
X43375000Y-44615000I-150000J0D01*
G01*
X41625000Y-44615000D01*
G75*
G02*
X41475000Y-44465000I0J150000D01*
G01*
G37*
G36*
G01*
X41475000Y-45735000D02*
X41475000Y-45435000D01*
G75*
G02*
X41625000Y-45285000I150000J0D01*
G01*
X43375000Y-45285000D01*
G75*
G02*
X43525000Y-45435000I0J-150000D01*
G01*
X43525000Y-45735000D01*
G75*
G02*
X43375000Y-45885000I-150000J0D01*
G01*
X41625000Y-45885000D01*
G75*
G02*
X41475000Y-45735000I0J150000D01*
G01*
G37*
G36*
G01*
X41475000Y-47005000D02*
X41475000Y-46705000D01*
G75*
G02*
X41625000Y-46555000I150000J0D01*
G01*
X43375000Y-46555000D01*
G75*
G02*
X43525000Y-46705000I0J-150000D01*
G01*
X43525000Y-47005000D01*
G75*
G02*
X43375000Y-47155000I-150000J0D01*
G01*
X41625000Y-47155000D01*
G75*
G02*
X41475000Y-47005000I0J150000D01*
G01*
G37*
G36*
G01*
X41475000Y-48275000D02*
X41475000Y-47975000D01*
G75*
G02*
X41625000Y-47825000I150000J0D01*
G01*
X43375000Y-47825000D01*
G75*
G02*
X43525000Y-47975000I0J-150000D01*
G01*
X43525000Y-48275000D01*
G75*
G02*
X43375000Y-48425000I-150000J0D01*
G01*
X41625000Y-48425000D01*
G75*
G02*
X41475000Y-48275000I0J150000D01*
G01*
G37*
G36*
G01*
X41475000Y-49545000D02*
X41475000Y-49245000D01*
G75*
G02*
X41625000Y-49095000I150000J0D01*
G01*
X43375000Y-49095000D01*
G75*
G02*
X43525000Y-49245000I0J-150000D01*
G01*
X43525000Y-49545000D01*
G75*
G02*
X43375000Y-49695000I-150000J0D01*
G01*
X41625000Y-49695000D01*
G75*
G02*
X41475000Y-49545000I0J150000D01*
G01*
G37*
G36*
G01*
X41475000Y-50815000D02*
X41475000Y-50515000D01*
G75*
G02*
X41625000Y-50365000I150000J0D01*
G01*
X43375000Y-50365000D01*
G75*
G02*
X43525000Y-50515000I0J-150000D01*
G01*
X43525000Y-50815000D01*
G75*
G02*
X43375000Y-50965000I-150000J0D01*
G01*
X41625000Y-50965000D01*
G75*
G02*
X41475000Y-50815000I0J150000D01*
G01*
G37*
G36*
G01*
X41475000Y-52085000D02*
X41475000Y-51785000D01*
G75*
G02*
X41625000Y-51635000I150000J0D01*
G01*
X43375000Y-51635000D01*
G75*
G02*
X43525000Y-51785000I0J-150000D01*
G01*
X43525000Y-52085000D01*
G75*
G02*
X43375000Y-52235000I-150000J0D01*
G01*
X41625000Y-52235000D01*
G75*
G02*
X41475000Y-52085000I0J150000D01*
G01*
G37*
G36*
G01*
X32175000Y-52085000D02*
X32175000Y-51785000D01*
G75*
G02*
X32325000Y-51635000I150000J0D01*
G01*
X34075000Y-51635000D01*
G75*
G02*
X34225000Y-51785000I0J-150000D01*
G01*
X34225000Y-52085000D01*
G75*
G02*
X34075000Y-52235000I-150000J0D01*
G01*
X32325000Y-52235000D01*
G75*
G02*
X32175000Y-52085000I0J150000D01*
G01*
G37*
G36*
G01*
X32175000Y-50815000D02*
X32175000Y-50515000D01*
G75*
G02*
X32325000Y-50365000I150000J0D01*
G01*
X34075000Y-50365000D01*
G75*
G02*
X34225000Y-50515000I0J-150000D01*
G01*
X34225000Y-50815000D01*
G75*
G02*
X34075000Y-50965000I-150000J0D01*
G01*
X32325000Y-50965000D01*
G75*
G02*
X32175000Y-50815000I0J150000D01*
G01*
G37*
G36*
G01*
X32175000Y-49545000D02*
X32175000Y-49245000D01*
G75*
G02*
X32325000Y-49095000I150000J0D01*
G01*
X34075000Y-49095000D01*
G75*
G02*
X34225000Y-49245000I0J-150000D01*
G01*
X34225000Y-49545000D01*
G75*
G02*
X34075000Y-49695000I-150000J0D01*
G01*
X32325000Y-49695000D01*
G75*
G02*
X32175000Y-49545000I0J150000D01*
G01*
G37*
G36*
G01*
X32175000Y-48275000D02*
X32175000Y-47975000D01*
G75*
G02*
X32325000Y-47825000I150000J0D01*
G01*
X34075000Y-47825000D01*
G75*
G02*
X34225000Y-47975000I0J-150000D01*
G01*
X34225000Y-48275000D01*
G75*
G02*
X34075000Y-48425000I-150000J0D01*
G01*
X32325000Y-48425000D01*
G75*
G02*
X32175000Y-48275000I0J150000D01*
G01*
G37*
G36*
G01*
X32175000Y-47005000D02*
X32175000Y-46705000D01*
G75*
G02*
X32325000Y-46555000I150000J0D01*
G01*
X34075000Y-46555000D01*
G75*
G02*
X34225000Y-46705000I0J-150000D01*
G01*
X34225000Y-47005000D01*
G75*
G02*
X34075000Y-47155000I-150000J0D01*
G01*
X32325000Y-47155000D01*
G75*
G02*
X32175000Y-47005000I0J150000D01*
G01*
G37*
G36*
G01*
X32175000Y-45735000D02*
X32175000Y-45435000D01*
G75*
G02*
X32325000Y-45285000I150000J0D01*
G01*
X34075000Y-45285000D01*
G75*
G02*
X34225000Y-45435000I0J-150000D01*
G01*
X34225000Y-45735000D01*
G75*
G02*
X34075000Y-45885000I-150000J0D01*
G01*
X32325000Y-45885000D01*
G75*
G02*
X32175000Y-45735000I0J150000D01*
G01*
G37*
G36*
G01*
X32175000Y-44465000D02*
X32175000Y-44165000D01*
G75*
G02*
X32325000Y-44015000I150000J0D01*
G01*
X34075000Y-44015000D01*
G75*
G02*
X34225000Y-44165000I0J-150000D01*
G01*
X34225000Y-44465000D01*
G75*
G02*
X34075000Y-44615000I-150000J0D01*
G01*
X32325000Y-44615000D01*
G75*
G02*
X32175000Y-44465000I0J150000D01*
G01*
G37*
G36*
G01*
X32175000Y-43195000D02*
X32175000Y-42895000D01*
G75*
G02*
X32325000Y-42745000I150000J0D01*
G01*
X34075000Y-42745000D01*
G75*
G02*
X34225000Y-42895000I0J-150000D01*
G01*
X34225000Y-43195000D01*
G75*
G02*
X34075000Y-43345000I-150000J0D01*
G01*
X32325000Y-43345000D01*
G75*
G02*
X32175000Y-43195000I0J150000D01*
G01*
G37*
G36*
G01*
X32175000Y-41925000D02*
X32175000Y-41625000D01*
G75*
G02*
X32325000Y-41475000I150000J0D01*
G01*
X34075000Y-41475000D01*
G75*
G02*
X34225000Y-41625000I0J-150000D01*
G01*
X34225000Y-41925000D01*
G75*
G02*
X34075000Y-42075000I-150000J0D01*
G01*
X32325000Y-42075000D01*
G75*
G02*
X32175000Y-41925000I0J150000D01*
G01*
G37*
G36*
G01*
X32175000Y-40655000D02*
X32175000Y-40355000D01*
G75*
G02*
X32325000Y-40205000I150000J0D01*
G01*
X34075000Y-40205000D01*
G75*
G02*
X34225000Y-40355000I0J-150000D01*
G01*
X34225000Y-40655000D01*
G75*
G02*
X34075000Y-40805000I-150000J0D01*
G01*
X32325000Y-40805000D01*
G75*
G02*
X32175000Y-40655000I0J150000D01*
G01*
G37*
G36*
G01*
X32175000Y-39385000D02*
X32175000Y-39085000D01*
G75*
G02*
X32325000Y-38935000I150000J0D01*
G01*
X34075000Y-38935000D01*
G75*
G02*
X34225000Y-39085000I0J-150000D01*
G01*
X34225000Y-39385000D01*
G75*
G02*
X34075000Y-39535000I-150000J0D01*
G01*
X32325000Y-39535000D01*
G75*
G02*
X32175000Y-39385000I0J150000D01*
G01*
G37*
G36*
G01*
X32175000Y-38115000D02*
X32175000Y-37815000D01*
G75*
G02*
X32325000Y-37665000I150000J0D01*
G01*
X34075000Y-37665000D01*
G75*
G02*
X34225000Y-37815000I0J-150000D01*
G01*
X34225000Y-38115000D01*
G75*
G02*
X34075000Y-38265000I-150000J0D01*
G01*
X32325000Y-38265000D01*
G75*
G02*
X32175000Y-38115000I0J150000D01*
G01*
G37*
G36*
G01*
X81256250Y-49625000D02*
X80743750Y-49625000D01*
G75*
G02*
X80525000Y-49406250I0J218750D01*
G01*
X80525000Y-48968750D01*
G75*
G02*
X80743750Y-48750000I218750J0D01*
G01*
X81256250Y-48750000D01*
G75*
G02*
X81475000Y-48968750I0J-218750D01*
G01*
X81475000Y-49406250D01*
G75*
G02*
X81256250Y-49625000I-218750J0D01*
G01*
G37*
G36*
G01*
X81256250Y-48050000D02*
X80743750Y-48050000D01*
G75*
G02*
X80525000Y-47831250I0J218750D01*
G01*
X80525000Y-47393750D01*
G75*
G02*
X80743750Y-47175000I218750J0D01*
G01*
X81256250Y-47175000D01*
G75*
G02*
X81475000Y-47393750I0J-218750D01*
G01*
X81475000Y-47831250D01*
G75*
G02*
X81256250Y-48050000I-218750J0D01*
G01*
G37*
G36*
G01*
X45287500Y-52325000D02*
X45287500Y-52125000D01*
G75*
G02*
X45387500Y-52025000I100000J0D01*
G01*
X46812500Y-52025000D01*
G75*
G02*
X46912500Y-52125000I0J-100000D01*
G01*
X46912500Y-52325000D01*
G75*
G02*
X46812500Y-52425000I-100000J0D01*
G01*
X45387500Y-52425000D01*
G75*
G02*
X45287500Y-52325000I0J100000D01*
G01*
G37*
G36*
G01*
X45287500Y-52975000D02*
X45287500Y-52775000D01*
G75*
G02*
X45387500Y-52675000I100000J0D01*
G01*
X46812500Y-52675000D01*
G75*
G02*
X46912500Y-52775000I0J-100000D01*
G01*
X46912500Y-52975000D01*
G75*
G02*
X46812500Y-53075000I-100000J0D01*
G01*
X45387500Y-53075000D01*
G75*
G02*
X45287500Y-52975000I0J100000D01*
G01*
G37*
G36*
G01*
X45287500Y-53625000D02*
X45287500Y-53425000D01*
G75*
G02*
X45387500Y-53325000I100000J0D01*
G01*
X46812500Y-53325000D01*
G75*
G02*
X46912500Y-53425000I0J-100000D01*
G01*
X46912500Y-53625000D01*
G75*
G02*
X46812500Y-53725000I-100000J0D01*
G01*
X45387500Y-53725000D01*
G75*
G02*
X45287500Y-53625000I0J100000D01*
G01*
G37*
G36*
G01*
X45287500Y-54275000D02*
X45287500Y-54075000D01*
G75*
G02*
X45387500Y-53975000I100000J0D01*
G01*
X46812500Y-53975000D01*
G75*
G02*
X46912500Y-54075000I0J-100000D01*
G01*
X46912500Y-54275000D01*
G75*
G02*
X46812500Y-54375000I-100000J0D01*
G01*
X45387500Y-54375000D01*
G75*
G02*
X45287500Y-54275000I0J100000D01*
G01*
G37*
G36*
G01*
X49512500Y-54275000D02*
X49512500Y-54075000D01*
G75*
G02*
X49612500Y-53975000I100000J0D01*
G01*
X51037500Y-53975000D01*
G75*
G02*
X51137500Y-54075000I0J-100000D01*
G01*
X51137500Y-54275000D01*
G75*
G02*
X51037500Y-54375000I-100000J0D01*
G01*
X49612500Y-54375000D01*
G75*
G02*
X49512500Y-54275000I0J100000D01*
G01*
G37*
G36*
G01*
X49512500Y-53625000D02*
X49512500Y-53425000D01*
G75*
G02*
X49612500Y-53325000I100000J0D01*
G01*
X51037500Y-53325000D01*
G75*
G02*
X51137500Y-53425000I0J-100000D01*
G01*
X51137500Y-53625000D01*
G75*
G02*
X51037500Y-53725000I-100000J0D01*
G01*
X49612500Y-53725000D01*
G75*
G02*
X49512500Y-53625000I0J100000D01*
G01*
G37*
G36*
G01*
X49512500Y-52975000D02*
X49512500Y-52775000D01*
G75*
G02*
X49612500Y-52675000I100000J0D01*
G01*
X51037500Y-52675000D01*
G75*
G02*
X51137500Y-52775000I0J-100000D01*
G01*
X51137500Y-52975000D01*
G75*
G02*
X51037500Y-53075000I-100000J0D01*
G01*
X49612500Y-53075000D01*
G75*
G02*
X49512500Y-52975000I0J100000D01*
G01*
G37*
G36*
G01*
X49512500Y-52325000D02*
X49512500Y-52125000D01*
G75*
G02*
X49612500Y-52025000I100000J0D01*
G01*
X51037500Y-52025000D01*
G75*
G02*
X51137500Y-52125000I0J-100000D01*
G01*
X51137500Y-52325000D01*
G75*
G02*
X51037500Y-52425000I-100000J0D01*
G01*
X49612500Y-52425000D01*
G75*
G02*
X49512500Y-52325000I0J100000D01*
G01*
G37*
G36*
G01*
X36600000Y-32325000D02*
X36600000Y-32125000D01*
G75*
G02*
X36700000Y-32025000I100000J0D01*
G01*
X38125000Y-32025000D01*
G75*
G02*
X38225000Y-32125000I0J-100000D01*
G01*
X38225000Y-32325000D01*
G75*
G02*
X38125000Y-32425000I-100000J0D01*
G01*
X36700000Y-32425000D01*
G75*
G02*
X36600000Y-32325000I0J100000D01*
G01*
G37*
G36*
G01*
X36600000Y-32975000D02*
X36600000Y-32775000D01*
G75*
G02*
X36700000Y-32675000I100000J0D01*
G01*
X38125000Y-32675000D01*
G75*
G02*
X38225000Y-32775000I0J-100000D01*
G01*
X38225000Y-32975000D01*
G75*
G02*
X38125000Y-33075000I-100000J0D01*
G01*
X36700000Y-33075000D01*
G75*
G02*
X36600000Y-32975000I0J100000D01*
G01*
G37*
G36*
G01*
X36600000Y-33625000D02*
X36600000Y-33425000D01*
G75*
G02*
X36700000Y-33325000I100000J0D01*
G01*
X38125000Y-33325000D01*
G75*
G02*
X38225000Y-33425000I0J-100000D01*
G01*
X38225000Y-33625000D01*
G75*
G02*
X38125000Y-33725000I-100000J0D01*
G01*
X36700000Y-33725000D01*
G75*
G02*
X36600000Y-33625000I0J100000D01*
G01*
G37*
G36*
G01*
X36600000Y-34275000D02*
X36600000Y-34075000D01*
G75*
G02*
X36700000Y-33975000I100000J0D01*
G01*
X38125000Y-33975000D01*
G75*
G02*
X38225000Y-34075000I0J-100000D01*
G01*
X38225000Y-34275000D01*
G75*
G02*
X38125000Y-34375000I-100000J0D01*
G01*
X36700000Y-34375000D01*
G75*
G02*
X36600000Y-34275000I0J100000D01*
G01*
G37*
G36*
G01*
X32375000Y-34275000D02*
X32375000Y-34075000D01*
G75*
G02*
X32475000Y-33975000I100000J0D01*
G01*
X33900000Y-33975000D01*
G75*
G02*
X34000000Y-34075000I0J-100000D01*
G01*
X34000000Y-34275000D01*
G75*
G02*
X33900000Y-34375000I-100000J0D01*
G01*
X32475000Y-34375000D01*
G75*
G02*
X32375000Y-34275000I0J100000D01*
G01*
G37*
G36*
G01*
X32375000Y-33625000D02*
X32375000Y-33425000D01*
G75*
G02*
X32475000Y-33325000I100000J0D01*
G01*
X33900000Y-33325000D01*
G75*
G02*
X34000000Y-33425000I0J-100000D01*
G01*
X34000000Y-33625000D01*
G75*
G02*
X33900000Y-33725000I-100000J0D01*
G01*
X32475000Y-33725000D01*
G75*
G02*
X32375000Y-33625000I0J100000D01*
G01*
G37*
G36*
G01*
X32375000Y-32975000D02*
X32375000Y-32775000D01*
G75*
G02*
X32475000Y-32675000I100000J0D01*
G01*
X33900000Y-32675000D01*
G75*
G02*
X34000000Y-32775000I0J-100000D01*
G01*
X34000000Y-32975000D01*
G75*
G02*
X33900000Y-33075000I-100000J0D01*
G01*
X32475000Y-33075000D01*
G75*
G02*
X32375000Y-32975000I0J100000D01*
G01*
G37*
G36*
G01*
X32375000Y-32325000D02*
X32375000Y-32125000D01*
G75*
G02*
X32475000Y-32025000I100000J0D01*
G01*
X33900000Y-32025000D01*
G75*
G02*
X34000000Y-32125000I0J-100000D01*
G01*
X34000000Y-32325000D01*
G75*
G02*
X33900000Y-32425000I-100000J0D01*
G01*
X32475000Y-32425000D01*
G75*
G02*
X32375000Y-32325000I0J100000D01*
G01*
G37*
M02*
